<svg width="120" height="62" viewBox="0 0 120 62" fill="none" xmlns="http://www.w3.org/2000/svg">
    <defs>
        <linearGradient id="paint0_linear_117_660" x1="53.4908" y1="75.7999" x2="18.9572" y2="-23.7339" gradientUnits="userSpaceOnUse">
            <stop stop-color="#FF5959"/>
            <stop offset="0.565625" stop-color="#FFBE5C"/>
        </linearGradient>
        <linearGradient id="paint1_linear_117_660" x1="121.107" y1="42" x2="-1.51648" y2="55.4539" gradientUnits="userSpaceOnUse">
            <stop stop-color="#FFA133"/>
            <stop offset="1" stop-color="#FD6C00"/>
        </linearGradient>
        <linearGradient id="paint2_linear_117_660" x1="61.5007" y1="33.9937" x2="52.096" y2="4.36225" gradientUnits="userSpaceOnUse">
            <stop stop-color="#FD6F03"/>
            <stop offset="0.435417" stop-color="#FE9E30"/>
        </linearGradient>
        <linearGradient id="paint3_linear_117_660" x1="29.9999" y1="30.75" x2="55.4999" y2="18" gradientUnits="userSpaceOnUse">
            <stop stop-color="#FD6C00"/>
            <stop offset="1" stop-color="#FFA133"/>
        </linearGradient>
    </defs>
    <g>
        <path d="M10.3402 55.196C8.0442 55.196 6.15887 54.6547 4.68421 53.572C3.20954 52.4707 2.41621 50.9027 2.30421 48.868H8.1562C8.2122 49.5587 8.41753 50.0627 8.7722 50.38C9.12687 50.6973 9.5842 50.856 10.1442 50.856C10.6482 50.856 11.0589 50.7347 11.3762 50.492C11.7122 50.2307 11.8802 49.876 11.8802 49.428C11.8802 48.8493 11.6095 48.4013 11.0682 48.084C10.5269 47.7667 9.64953 47.412 8.4362 47.02C7.1482 46.5907 6.10287 46.18 5.3002 45.788C4.51621 45.3773 3.82554 44.7893 3.22821 44.024C2.64954 43.24 2.36021 42.2227 2.36021 40.972C2.36021 39.7027 2.67754 38.62 3.31221 37.724C3.94687 36.8094 4.82421 36.1187 5.9442 35.652C7.0642 35.1854 8.33353 34.952 9.7522 34.952C12.0482 34.952 13.8775 35.4934 15.2402 36.576C16.6215 37.64 17.3589 39.1427 17.4522 41.084H11.4882C11.4695 40.4867 11.2829 40.0387 10.9282 39.74C10.5922 39.4414 10.1535 39.292 9.6122 39.292C9.20153 39.292 8.86553 39.4134 8.6042 39.656C8.34287 39.8987 8.2122 40.244 8.2122 40.692C8.2122 41.0654 8.3522 41.392 8.6322 41.672C8.93087 41.9334 9.29487 42.1667 9.7242 42.372C10.1535 42.5587 10.7882 42.8014 11.6282 43.1C12.8789 43.5294 13.9055 43.9587 14.7082 44.388C15.5295 44.7987 16.2295 45.3867 16.8082 46.152C17.4055 46.8987 17.7042 47.8507 17.7042 49.008C17.7042 50.184 17.4055 51.2387 16.8082 52.172C16.2295 53.1053 15.3802 53.8427 14.2602 54.384C13.1589 54.9253 11.8522 55.196 10.3402 55.196ZM30.2194 55.196C28.3714 55.196 26.6728 54.7667 25.1235 53.908C23.5741 53.0307 22.3421 51.8267 21.4275 50.296C20.5315 48.7467 20.0835 47.0013 20.0835 45.06C20.0835 43.1187 20.5315 41.3827 21.4275 39.852C22.3421 38.3027 23.5741 37.0987 25.1235 36.24C26.6728 35.3814 28.3714 34.952 30.2194 34.952C32.0861 34.952 33.7848 35.3814 35.3154 36.24C36.8648 37.0987 38.0874 38.3027 38.9834 39.852C39.8794 41.3827 40.3274 43.1187 40.3274 45.06C40.3274 47.0013 39.8794 48.7467 38.9834 50.296C38.0874 51.8267 36.8648 53.0307 35.3154 53.908C33.7661 54.7667 32.0674 55.196 30.2194 55.196ZM30.2194 50.1C31.6194 50.1 32.7208 49.6427 33.5234 48.728C34.3448 47.8133 34.7554 46.5907 34.7554 45.06C34.7554 43.492 34.3448 42.26 33.5234 41.364C32.7208 40.4494 31.6194 39.992 30.2194 39.992C28.8008 39.992 27.6901 40.4494 26.8875 41.364C26.0848 42.26 25.6835 43.492 25.6835 45.06C25.6835 46.6093 26.0848 47.8413 26.8875 48.756C27.6901 49.652 28.8008 50.1 30.2194 50.1ZM42.6225 45.088C42.6225 43.1467 43.0238 41.42 43.8265 39.908C44.6478 38.3774 45.8052 37.192 47.2985 36.352C48.7918 35.4934 50.5091 35.064 52.4505 35.064C54.9145 35.064 56.9865 35.7267 58.6665 37.052C60.3465 38.3587 61.4291 40.1414 61.9145 42.4H56.0065C55.6518 41.6534 55.1571 41.084 54.5225 40.692C53.9065 40.3 53.1878 40.104 52.3665 40.104C51.0971 40.104 50.0798 40.5614 49.3145 41.476C48.5678 42.372 48.1945 43.576 48.1945 45.088C48.1945 46.6187 48.5678 47.8413 49.3145 48.756C50.0798 49.652 51.0971 50.1 52.3665 50.1C53.1878 50.1 53.9065 49.904 54.5225 49.512C55.1571 49.12 55.6518 48.5507 56.0065 47.804H61.9145C61.4291 50.0627 60.3465 51.8547 58.6665 53.18C56.9865 54.4867 54.9145 55.14 52.4505 55.14C50.5091 55.14 48.7918 54.72 47.2985 53.88C45.8052 53.0213 44.6478 51.836 43.8265 50.324C43.0238 48.7933 42.6225 47.048 42.6225 45.088ZM77.5012 51.78H70.5012L69.4372 55H63.6692L70.8652 35.26H77.1932L84.3612 55H78.5652L77.5012 51.78ZM76.1292 47.58L74.0012 41.196L71.9012 47.58H76.1292ZM92.1379 50.8H98.2699V55H86.6499V35.26H92.1379V50.8ZM106.392 39.656V42.876H112.692V47.048H106.392V50.604H113.532V55H100.904V35.26H113.532V39.656H106.392Z" fill="url(#paint0_linear_117_660)"/>
        <path d="M10.3402 55.196C8.0442 55.196 6.15887 54.6547 4.68421 53.572C3.20954 52.4707 2.41621 50.9027 2.30421 48.868H8.1562C8.2122 49.5587 8.41753 50.0627 8.7722 50.38C9.12687 50.6973 9.5842 50.856 10.1442 50.856C10.6482 50.856 11.0589 50.7347 11.3762 50.492C11.7122 50.2307 11.8802 49.876 11.8802 49.428C11.8802 48.8493 11.6095 48.4013 11.0682 48.084C10.5269 47.7667 9.64953 47.412 8.4362 47.02C7.1482 46.5907 6.10287 46.18 5.3002 45.788C4.51621 45.3773 3.82554 44.7893 3.22821 44.024C2.64954 43.24 2.36021 42.2227 2.36021 40.972C2.36021 39.7027 2.67754 38.62 3.31221 37.724C3.94687 36.8094 4.82421 36.1187 5.9442 35.652C7.0642 35.1854 8.33353 34.952 9.7522 34.952C12.0482 34.952 13.8775 35.4934 15.2402 36.576C16.6215 37.64 17.3589 39.1427 17.4522 41.084H11.4882C11.4695 40.4867 11.2829 40.0387 10.9282 39.74C10.5922 39.4414 10.1535 39.292 9.6122 39.292C9.20153 39.292 8.86553 39.4134 8.6042 39.656C8.34287 39.8987 8.2122 40.244 8.2122 40.692C8.2122 41.0654 8.3522 41.392 8.6322 41.672C8.93087 41.9334 9.29487 42.1667 9.7242 42.372C10.1535 42.5587 10.7882 42.8014 11.6282 43.1C12.8789 43.5294 13.9055 43.9587 14.7082 44.388C15.5295 44.7987 16.2295 45.3867 16.8082 46.152C17.4055 46.8987 17.7042 47.8507 17.7042 49.008C17.7042 50.184 17.4055 51.2387 16.8082 52.172C16.2295 53.1053 15.3802 53.8427 14.2602 54.384C13.1589 54.9253 11.8522 55.196 10.3402 55.196ZM30.2194 55.196C28.3714 55.196 26.6728 54.7667 25.1235 53.908C23.5741 53.0307 22.3421 51.8267 21.4275 50.296C20.5315 48.7467 20.0835 47.0013 20.0835 45.06C20.0835 43.1187 20.5315 41.3827 21.4275 39.852C22.3421 38.3027 23.5741 37.0987 25.1235 36.24C26.6728 35.3814 28.3714 34.952 30.2194 34.952C32.0861 34.952 33.7848 35.3814 35.3154 36.24C36.8648 37.0987 38.0874 38.3027 38.9834 39.852C39.8794 41.3827 40.3274 43.1187 40.3274 45.06C40.3274 47.0013 39.8794 48.7467 38.9834 50.296C38.0874 51.8267 36.8648 53.0307 35.3154 53.908C33.7661 54.7667 32.0674 55.196 30.2194 55.196ZM30.2194 50.1C31.6194 50.1 32.7208 49.6427 33.5234 48.728C34.3448 47.8133 34.7554 46.5907 34.7554 45.06C34.7554 43.492 34.3448 42.26 33.5234 41.364C32.7208 40.4494 31.6194 39.992 30.2194 39.992C28.8008 39.992 27.6901 40.4494 26.8875 41.364C26.0848 42.26 25.6835 43.492 25.6835 45.06C25.6835 46.6093 26.0848 47.8413 26.8875 48.756C27.6901 49.652 28.8008 50.1 30.2194 50.1ZM42.6225 45.088C42.6225 43.1467 43.0238 41.42 43.8265 39.908C44.6478 38.3774 45.8052 37.192 47.2985 36.352C48.7918 35.4934 50.5091 35.064 52.4505 35.064C54.9145 35.064 56.9865 35.7267 58.6665 37.052C60.3465 38.3587 61.4291 40.1414 61.9145 42.4H56.0065C55.6518 41.6534 55.1571 41.084 54.5225 40.692C53.9065 40.3 53.1878 40.104 52.3665 40.104C51.0971 40.104 50.0798 40.5614 49.3145 41.476C48.5678 42.372 48.1945 43.576 48.1945 45.088C48.1945 46.6187 48.5678 47.8413 49.3145 48.756C50.0798 49.652 51.0971 50.1 52.3665 50.1C53.1878 50.1 53.9065 49.904 54.5225 49.512C55.1571 49.12 55.6518 48.5507 56.0065 47.804H61.9145C61.4291 50.0627 60.3465 51.8547 58.6665 53.18C56.9865 54.4867 54.9145 55.14 52.4505 55.14C50.5091 55.14 48.7918 54.72 47.2985 53.88C45.8052 53.0213 44.6478 51.836 43.8265 50.324C43.0238 48.7933 42.6225 47.048 42.6225 45.088ZM77.5012 51.78H70.5012L69.4372 55H63.6692L70.8652 35.26H77.1932L84.3612 55H78.5652L77.5012 51.78ZM76.1292 47.58L74.0012 41.196L71.9012 47.58H76.1292ZM92.1379 50.8H98.2699V55H86.6499V35.26H92.1379V50.8ZM106.392 39.656V42.876H112.692V47.048H106.392V50.604H113.532V55H100.904V35.26H113.532V39.656H106.392Z" fill="url(#paint1_linear_117_660)" fill-opacity="0.5" style="mix-blend-mode:overlay"/>
    </g>
    <g>
        <path d="M77.847 29.1529L67.1104 21.1217C66.8396 20.9203 66.4394 21.1099 66.4517 21.4415C66.7041 27.8854 69.9177 29.0818 72.5095 29.7096C74.3256 30.1479 76.4496 29.9939 77.6439 29.8517C78.0009 29.8103 78.1302 29.3661 77.8409 29.1529H77.847ZM48.1552 29.1055L30.6712 14.6897C30.4004 14.4705 29.9879 14.6601 30.0002 14.9976C30.3265 26.0434 36.8029 29.0759 39.4378 29.7096C41.5063 30.2071 45.9574 29.9406 47.9212 29.7925C48.2844 29.7629 48.426 29.3305 48.1552 29.1055ZM65.6145 28.833L43.5483 6.19655C43.1666 5.78788 42.4586 6.06032 42.4771 6.61113C42.9327 22.2352 49.7435 29.0818 54.9702 29.7096C58.8856 30.1834 63.1642 29.9702 65.2143 29.8162C65.7253 29.7807 65.9654 29.1943 65.6268 28.8271L65.6145 28.833Z" fill="url(#paint2_linear_117_660)"/>
        <path d="M77.847 29.1529L67.1104 21.1217C66.8396 20.9203 66.4394 21.1099 66.4517 21.4415C66.7041 27.8854 69.9177 29.0818 72.5095 29.7096C74.3256 30.1479 76.4496 29.9939 77.6439 29.8517C78.0009 29.8103 78.1302 29.3661 77.8409 29.1529H77.847ZM48.1552 29.1055L30.6712 14.6897C30.4004 14.4705 29.9879 14.6601 30.0002 14.9976C30.3265 26.0434 36.8029 29.0759 39.4378 29.7096C41.5063 30.2071 45.9574 29.9406 47.9212 29.7925C48.2844 29.7629 48.426 29.3305 48.1552 29.1055ZM65.6145 28.833L43.5483 6.19655C43.1666 5.78788 42.4586 6.06032 42.4771 6.61113C42.9327 22.2352 49.7435 29.0818 54.9702 29.7096C58.8856 30.1834 63.1642 29.9702 65.2143 29.8162C65.7253 29.7807 65.9654 29.1943 65.6268 28.8271L65.6145 28.833Z" fill="url(#paint3_linear_117_660)" fill-opacity="0.5" style="mix-blend-mode:overlay"/>
    </g>
</svg>
