<svg width="53" height="29" viewBox="0 0 53 29" fill="none" xmlns="http://www.w3.org/2000/svg">
    <defs>
        <linearGradient id="paint0_linear_117_635" x1="32.5008" y1="29.9937" x2="23.0961" y2="0.362252" gradientUnits="userSpaceOnUse">
            <stop stop-color="#FD6F03"/>
            <stop offset="0.435417" stop-color="#FE9E30"/>
        </linearGradient>
        <linearGradient id="paint1_linear_117_635" x1="0.999999" y1="26.75" x2="26.5" y2="14" gradientUnits="userSpaceOnUse">
            <stop stop-color="#FD6C00"/>
            <stop offset="1" stop-color="#FFA133"/>
        </linearGradient>
    </defs>
    <g>
        <path d="M48.8472 25.1529L38.1106 17.1217C37.8397 16.9204 37.4395 17.1099 37.4518 17.4415C37.7042 23.8854 40.9178 25.0818 43.5096 25.7096C45.3258 26.1479 47.4497 25.9939 48.644 25.8518C49.0011 25.8103 49.1304 25.3661 48.841 25.1529H48.8472ZM19.1553 25.1055L1.67131 10.6897C1.40043 10.4705 0.987957 10.6601 1.00027 10.9977C1.32655 22.0435 7.803 25.0759 10.4379 25.7096C12.5064 26.2071 16.9574 25.9406 18.9213 25.7925C19.2845 25.7629 19.4261 25.3306 19.1553 25.1055ZM36.6146 24.8331L14.5484 2.19655C14.1667 1.78788 13.4587 2.06032 13.4772 2.61113C13.9328 18.2352 20.7436 25.0818 25.9703 25.7096C29.8857 26.1834 34.1644 25.9702 36.2144 25.8162C36.7254 25.7807 36.9655 25.1944 36.6269 24.8271L36.6146 24.8331Z" fill="url(#paint0_linear_117_635)"/>
        <path d="M48.8472 25.1529L38.1106 17.1217C37.8397 16.9204 37.4395 17.1099 37.4518 17.4415C37.7042 23.8854 40.9178 25.0818 43.5096 25.7096C45.3258 26.1479 47.4497 25.9939 48.644 25.8518C49.0011 25.8103 49.1304 25.3661 48.841 25.1529H48.8472ZM19.1553 25.1055L1.67131 10.6897C1.40043 10.4705 0.987957 10.6601 1.00027 10.9977C1.32655 22.0435 7.803 25.0759 10.4379 25.7096C12.5064 26.2071 16.9574 25.9406 18.9213 25.7925C19.2845 25.7629 19.4261 25.3306 19.1553 25.1055ZM36.6146 24.8331L14.5484 2.19655C14.1667 1.78788 13.4587 2.06032 13.4772 2.61113C13.9328 18.2352 20.7436 25.0818 25.9703 25.7096C29.8857 26.1834 34.1644 25.9702 36.2144 25.8162C36.7254 25.7807 36.9655 25.1944 36.6269 24.8271L36.6146 24.8331Z" fill="url(#paint1_linear_117_635)" fill-opacity="0.5" style="mix-blend-mode:overlay"/>
    </g>
</svg>
