<svg width="60" height="31" viewBox="0 0 60 31" fill="none" xmlns="http://www.w3.org/2000/svg">
    <defs>
        <linearGradient id="paint0_linear_117_643" x1="-3.10714" y1="29" x2="39.5768" y2="51.2482" gradientUnits="userSpaceOnUse">
            <stop stop-color="#D0D0D0" stop-opacity="0.45"/>
            <stop offset="0.503125" stop-color="#F8F8F8" stop-opacity="0.55"/>
            <stop offset="1" stop-color="#DFDFDF" stop-opacity="0.09"/>
        </linearGradient>
        <linearGradient id="paint1_linear_117_643" x1="30.7504" y1="16.9969" x2="26.048" y2="2.1811" gradientUnits="userSpaceOnUse">
            <stop stop-color="#686868" stop-opacity="0.45"/>
            <stop offset="0.503125" stop-color="#BCBCBC" stop-opacity="0.55"/>
            <stop offset="1" stop-color="#4B4B4B" stop-opacity="0.09"/>
        </linearGradient>
    </defs>
    <g>
        <path d="M5.17011 27.098C4.02211 27.098 3.07944 26.8273 2.34211 26.286C1.60478 25.7353 1.20811 24.9513 1.15211 23.934H4.07811C4.10611 24.2793 4.20878 24.5313 4.38611 24.69C4.56344 24.8487 4.79211 24.928 5.07211 24.928C5.32411 24.928 5.52944 24.8673 5.68811 24.746C5.85611 24.6153 5.94011 24.438 5.94011 24.214C5.94011 23.9247 5.80478 23.7007 5.53411 23.542C5.26344 23.3833 4.82478 23.206 4.21811 23.01C3.57411 22.7953 3.05144 22.59 2.65011 22.394C2.25811 22.1887 1.91278 21.8947 1.61411 21.512C1.32478 21.12 1.18011 20.6113 1.18011 19.986C1.18011 19.3513 1.33878 18.81 1.65611 18.362C1.97344 17.9047 2.41211 17.5593 2.97211 17.326C3.53211 17.0927 4.16678 16.976 4.87611 16.976C6.02411 16.976 6.93878 17.2467 7.62011 17.788C8.31078 18.32 8.67944 19.0713 8.72611 20.042H5.74411C5.73478 19.7433 5.64144 19.5193 5.46411 19.37C5.29611 19.2207 5.07678 19.146 4.80611 19.146C4.60078 19.146 4.43278 19.2067 4.30211 19.328C4.17144 19.4493 4.10611 19.622 4.10611 19.846C4.10611 20.0327 4.17611 20.196 4.31611 20.336C4.46544 20.4667 4.64744 20.5833 4.86211 20.686C5.07678 20.7793 5.39411 20.9007 5.81411 21.05C6.43944 21.2647 6.95278 21.4793 7.35411 21.694C7.76478 21.8993 8.11478 22.1933 8.40411 22.576C8.70278 22.9493 8.85211 23.4253 8.85211 24.004C8.85211 24.592 8.70278 25.1193 8.40411 25.586C8.11478 26.0527 7.69011 26.4213 7.13011 26.692C6.57944 26.9627 5.92611 27.098 5.17011 27.098ZM15.1098 27.098C14.1858 27.098 13.3364 26.8833 12.5618 26.454C11.7871 26.0153 11.1711 25.4133 10.7138 24.648C10.2658 23.8733 10.0418 23.0007 10.0418 22.03C10.0418 21.0593 10.2658 20.1913 10.7138 19.426C11.1711 18.6513 11.7871 18.0493 12.5618 17.62C13.3364 17.1907 14.1858 16.976 15.1098 16.976C16.0431 16.976 16.8924 17.1907 17.6578 17.62C18.4324 18.0493 19.0438 18.6513 19.4918 19.426C19.9398 20.1913 20.1638 21.0593 20.1638 22.03C20.1638 23.0007 19.9398 23.8733 19.4918 24.648C19.0438 25.4133 18.4324 26.0153 17.6578 26.454C16.8831 26.8833 16.0338 27.098 15.1098 27.098ZM15.1098 24.55C15.8098 24.55 16.3604 24.3213 16.7618 23.864C17.1724 23.4067 17.3778 22.7953 17.3778 22.03C17.3778 21.246 17.1724 20.63 16.7618 20.182C16.3604 19.7247 15.8098 19.496 15.1098 19.496C14.4004 19.496 13.8451 19.7247 13.4438 20.182C13.0424 20.63 12.8418 21.246 12.8418 22.03C12.8418 22.8047 13.0424 23.4207 13.4438 23.878C13.8451 24.326 14.4004 24.55 15.1098 24.55ZM21.3113 22.044C21.3113 21.0733 21.5119 20.21 21.9133 19.454C22.3239 18.6887 22.9026 18.096 23.6493 17.676C24.3959 17.2467 25.2546 17.032 26.2253 17.032C27.4573 17.032 28.4933 17.3633 29.3333 18.026C30.1733 18.6793 30.7146 19.5707 30.9573 20.7H28.0033C27.8259 20.3267 27.5786 20.042 27.2613 19.846C26.9533 19.65 26.5939 19.552 26.1833 19.552C25.5486 19.552 25.0399 19.7807 24.6573 20.238C24.2839 20.686 24.0973 21.288 24.0973 22.044C24.0973 22.8093 24.2839 23.4207 24.6573 23.878C25.0399 24.326 25.5486 24.55 26.1833 24.55C26.5939 24.55 26.9533 24.452 27.2613 24.256C27.5786 24.06 27.8259 23.7753 28.0033 23.402H30.9573C30.7146 24.5313 30.1733 25.4273 29.3333 26.09C28.4933 26.7433 27.4573 27.07 26.2253 27.07C25.2546 27.07 24.3959 26.86 23.6493 26.44C22.9026 26.0107 22.3239 25.418 21.9133 24.662C21.5119 23.8967 21.3113 23.024 21.3113 22.044ZM38.7507 25.39H35.2507L34.7187 27H31.8347L35.4327 17.13H38.5967L42.1807 27H39.2827L38.7507 25.39ZM38.0647 23.29L37.0007 20.098L35.9507 23.29H38.0647ZM46.069 24.9H49.135V27H43.325V17.13H46.069V24.9ZM53.196 19.328V20.938H56.346V23.024H53.196V24.802H56.766V27H50.452V17.13H56.766V19.328H53.196Z" fill="white"/>
        <path d="M5.17011 27.098C4.02211 27.098 3.07944 26.8273 2.34211 26.286C1.60478 25.7353 1.20811 24.9513 1.15211 23.934H4.07811C4.10611 24.2793 4.20878 24.5313 4.38611 24.69C4.56344 24.8487 4.79211 24.928 5.07211 24.928C5.32411 24.928 5.52944 24.8673 5.68811 24.746C5.85611 24.6153 5.94011 24.438 5.94011 24.214C5.94011 23.9247 5.80478 23.7007 5.53411 23.542C5.26344 23.3833 4.82478 23.206 4.21811 23.01C3.57411 22.7953 3.05144 22.59 2.65011 22.394C2.25811 22.1887 1.91278 21.8947 1.61411 21.512C1.32478 21.12 1.18011 20.6113 1.18011 19.986C1.18011 19.3513 1.33878 18.81 1.65611 18.362C1.97344 17.9047 2.41211 17.5593 2.97211 17.326C3.53211 17.0927 4.16678 16.976 4.87611 16.976C6.02411 16.976 6.93878 17.2467 7.62011 17.788C8.31078 18.32 8.67944 19.0713 8.72611 20.042H5.74411C5.73478 19.7433 5.64144 19.5193 5.46411 19.37C5.29611 19.2207 5.07678 19.146 4.80611 19.146C4.60078 19.146 4.43278 19.2067 4.30211 19.328C4.17144 19.4493 4.10611 19.622 4.10611 19.846C4.10611 20.0327 4.17611 20.196 4.31611 20.336C4.46544 20.4667 4.64744 20.5833 4.86211 20.686C5.07678 20.7793 5.39411 20.9007 5.81411 21.05C6.43944 21.2647 6.95278 21.4793 7.35411 21.694C7.76478 21.8993 8.11478 22.1933 8.40411 22.576C8.70278 22.9493 8.85211 23.4253 8.85211 24.004C8.85211 24.592 8.70278 25.1193 8.40411 25.586C8.11478 26.0527 7.69011 26.4213 7.13011 26.692C6.57944 26.9627 5.92611 27.098 5.17011 27.098ZM15.1098 27.098C14.1858 27.098 13.3364 26.8833 12.5618 26.454C11.7871 26.0153 11.1711 25.4133 10.7138 24.648C10.2658 23.8733 10.0418 23.0007 10.0418 22.03C10.0418 21.0593 10.2658 20.1913 10.7138 19.426C11.1711 18.6513 11.7871 18.0493 12.5618 17.62C13.3364 17.1907 14.1858 16.976 15.1098 16.976C16.0431 16.976 16.8924 17.1907 17.6578 17.62C18.4324 18.0493 19.0438 18.6513 19.4918 19.426C19.9398 20.1913 20.1638 21.0593 20.1638 22.03C20.1638 23.0007 19.9398 23.8733 19.4918 24.648C19.0438 25.4133 18.4324 26.0153 17.6578 26.454C16.8831 26.8833 16.0338 27.098 15.1098 27.098ZM15.1098 24.55C15.8098 24.55 16.3604 24.3213 16.7618 23.864C17.1724 23.4067 17.3778 22.7953 17.3778 22.03C17.3778 21.246 17.1724 20.63 16.7618 20.182C16.3604 19.7247 15.8098 19.496 15.1098 19.496C14.4004 19.496 13.8451 19.7247 13.4438 20.182C13.0424 20.63 12.8418 21.246 12.8418 22.03C12.8418 22.8047 13.0424 23.4207 13.4438 23.878C13.8451 24.326 14.4004 24.55 15.1098 24.55ZM21.3113 22.044C21.3113 21.0733 21.5119 20.21 21.9133 19.454C22.3239 18.6887 22.9026 18.096 23.6493 17.676C24.3959 17.2467 25.2546 17.032 26.2253 17.032C27.4573 17.032 28.4933 17.3633 29.3333 18.026C30.1733 18.6793 30.7146 19.5707 30.9573 20.7H28.0033C27.8259 20.3267 27.5786 20.042 27.2613 19.846C26.9533 19.65 26.5939 19.552 26.1833 19.552C25.5486 19.552 25.0399 19.7807 24.6573 20.238C24.2839 20.686 24.0973 21.288 24.0973 22.044C24.0973 22.8093 24.2839 23.4207 24.6573 23.878C25.0399 24.326 25.5486 24.55 26.1833 24.55C26.5939 24.55 26.9533 24.452 27.2613 24.256C27.5786 24.06 27.8259 23.7753 28.0033 23.402H30.9573C30.7146 24.5313 30.1733 25.4273 29.3333 26.09C28.4933 26.7433 27.4573 27.07 26.2253 27.07C25.2546 27.07 24.3959 26.86 23.6493 26.44C22.9026 26.0107 22.3239 25.418 21.9133 24.662C21.5119 23.8967 21.3113 23.024 21.3113 22.044ZM38.7507 25.39H35.2507L34.7187 27H31.8347L35.4327 17.13H38.5967L42.1807 27H39.2827L38.7507 25.39ZM38.0647 23.29L37.0007 20.098L35.9507 23.29H38.0647ZM46.069 24.9H49.135V27H43.325V17.13H46.069V24.9ZM53.196 19.328V20.938H56.346V23.024H53.196V24.802H56.766V27H50.452V17.13H56.766V19.328H53.196Z" fill="url(#paint0_linear_117_643)" fill-opacity="0.5" />
    </g>
    <g>
        <path d="M38.9236 14.5764L33.5553 10.5609C33.4198 10.4602 33.2198 10.5549 33.2259 10.7208C33.3521 13.9427 34.9589 14.5409 36.2548 14.8548C37.1629 15.074 38.2248 14.997 38.822 14.9259C39.0005 14.9052 39.0652 14.6831 38.9205 14.5764H38.9236ZM24.0776 14.5528L15.3357 7.34484C15.2002 7.23527 14.994 7.33003 15.0001 7.49883C15.1633 13.0217 18.4015 14.5379 19.719 14.8548C20.7532 15.1036 22.9787 14.9703 23.9607 14.8963C24.1423 14.8815 24.2131 14.6653 24.0776 14.5528ZM32.8073 14.4165L21.7742 3.09827C21.5833 2.89394 21.2294 3.03016 21.2386 3.30557C21.4664 11.1176 24.8718 14.5409 27.4851 14.8548C29.4429 15.0917 31.5822 14.9851 32.6072 14.9081C32.8627 14.8903 32.9827 14.5972 32.8134 14.4136L32.8073 14.4165Z" fill="white"/>
        <path d="M38.9236 14.5764L33.5553 10.5609C33.4198 10.4602 33.2198 10.5549 33.2259 10.7208C33.3521 13.9427 34.9589 14.5409 36.2548 14.8548C37.1629 15.074 38.2248 14.997 38.822 14.9259C39.0005 14.9052 39.0652 14.6831 38.9205 14.5764H38.9236ZM24.0776 14.5528L15.3357 7.34484C15.2002 7.23527 14.994 7.33003 15.0001 7.49883C15.1633 13.0217 18.4015 14.5379 19.719 14.8548C20.7532 15.1036 22.9787 14.9703 23.9607 14.8963C24.1423 14.8815 24.2131 14.6653 24.0776 14.5528ZM32.8073 14.4165L21.7742 3.09827C21.5833 2.89394 21.2294 3.03016 21.2386 3.30557C21.4664 11.1176 24.8718 14.5409 27.4851 14.8548C29.4429 15.0917 31.5822 14.9851 32.6072 14.9081C32.8627 14.8903 32.9827 14.5972 32.8134 14.4136L32.8073 14.4165Z" fill="url(#paint1_linear_117_643)" fill-opacity="0.5"/>
    </g>
</svg>
