<svg width="16" height="16" viewBox="0 0 16 16" fill="none" xmlns="http://www.w3.org/2000/svg">
<path d="M11.9167 14C11.9167 14.4142 12.2525 14.75 12.6667 14.75C13.0809 14.75 13.4167 14.4142 13.4167 14H11.9167ZM2.58337 14C2.58337 14.4142 2.91916 14.75 3.33337 14.75C3.74759 14.75 4.08337 14.4142 4.08337 14H2.58337ZM13.4167 14C13.4167 11.0085 10.9916 8.58333 8.00004 8.58333V10.0833C10.1632 10.0833 11.9167 11.8369 11.9167 14H13.4167ZM8.00004 8.58333C5.0085 8.58333 2.58337 11.0085 2.58337 14H4.08337C4.08337 11.8369 5.83693 10.0833 8.00004 10.0833V8.58333ZM8.00004 6.58333C6.94149 6.58333 6.08337 5.72521 6.08337 4.66667H4.58337C4.58337 6.55364 6.11307 8.08333 8.00004 8.08333V6.58333ZM6.08337 4.66667C6.08337 3.60812 6.94149 2.75 8.00004 2.75V1.25C6.11307 1.25 4.58337 2.77969 4.58337 4.66667H6.08337ZM8.00004 2.75C9.05859 2.75 9.91671 3.60812 9.91671 4.66667H11.4167C11.4167 2.77969 9.88701 1.25 8.00004 1.25V2.75ZM9.91671 4.66667C9.91671 5.72521 9.05859 6.58333 8.00004 6.58333V8.08333C9.88701 8.08333 11.4167 6.55364 11.4167 4.66667H9.91671Z" fill="white" fill-opacity="0.75"/>
</svg>
