<?xml version="1.0" encoding="UTF-8"?>
<svg id="Layer_1" xmlns="http://www.w3.org/2000/svg" viewBox="0 0 42.96 54.41">
    <path id="_" class="cls-1" d="M22.12,12.56c2.38,0,5.37-1.66,7.15-3.87,1.61-2.01,2.79-4.81,2.79-7.61,0-.38-.03-.76-.1-1.07-2.65,.1-5.84,1.83-7.75,4.15-1.51,1.76-2.89,4.53-2.89,7.37,0,.42,.07,.83,.1,.97,.17,.03,.44,.07,.7,.07ZM13.73,54.41c3.26,0,4.7-2.25,8.76-2.25s5.03,2.18,8.66,2.18,5.94-3.39,8.19-6.71c2.52-3.81,3.56-7.54,3.62-7.71-.23-.07-7.05-2.94-7.05-11,0-6.99,5.37-10.14,5.67-10.38-3.56-5.26-8.96-5.4-10.44-5.4-3.99,0-7.25,2.49-9.3,2.49-2.22,0-5.13-2.35-8.59-2.35C6.68,13.28,0,18.89,0,29.47c0,6.57,2.48,13.53,5.54,18.02,2.62,3.81,4.9,6.92,8.19,6.92Z"/>
</svg>