<?xml version="1.0" encoding="utf-8"?>
<svg viewBox="0 0 72 68" fill="none" xmlns="http://www.w3.org/2000/svg">
  <defs>
    <linearGradient id="paint0_linear_5228_1015" x1="60.8721" y1="0" x2="60.8721" y2="120" gradientUnits="userSpaceOnUse" gradientTransform="matrix(1.003154, 0, 0, 1, -25.062853, -22.000311)">
      <stop stop-color="#FFA133"/>
      <stop offset="1" stop-color="#FD6C00"/>
    </linearGradient>
    <linearGradient id="paint1_linear_5228_1015" x1="61.755" y1="45" x2="61.755" y2="74.9578" gradientUnits="userSpaceOnUse" gradientTransform="matrix(1.003154, 0, 0, 1, -24.563284, -21.500061)">
      <stop stop-color="#FFA133"/>
      <stop offset="1" stop-color="#FD6C00"/>
    </linearGradient>
    <linearGradient id="paint2_linear_5228_1015" x1="59.9888" y1="45.0825" x2="59.9888" y2="75" gradientUnits="userSpaceOnUse" gradientTransform="matrix(1.003154, 0, 0, 1, -24.563284, -21.500061)">
      <stop stop-color="#FFA133"/>
      <stop offset="1" stop-color="#FD6C00"/>
    </linearGradient>
  </defs>
  <path d="M 54.678 11.25 L 68.578 35.25 C 76.879 49.583 66.503 67.5 49.9 67.5 L 22.1 67.5 C 5.497 67.5 -4.88 49.583 3.421 35.25 L 17.321 11.25 C 25.623 -3.083 46.377 -3.083 54.678 11.25 Z" fill="#1F2124" stroke="url(#paint0_linear_5228_1015)"/>
  <path fill-rule="evenodd" clip-rule="evenodd" d="M 46.229 53.142 C 47.039 52.817 47.644 52.259 48.053 51.514 C 48.343 51.486 48.615 51.423 48.865 51.323 C 51.815 50.138 50.759 44.2 46.633 37.498 C 46.151 36.714 45.626 35.919 45.061 35.12 C 44.749 34.679 44.431 34.247 44.11 33.824 C 42.208 31.324 40.151 29.144 38.153 27.44 C 37.583 27.803 37.008 28.205 36.431 28.644 C 38.792 30.423 41.173 32.81 43.26 35.608 C 43.449 35.862 43.636 36.119 43.821 36.38 C 44.516 37.363 45.14 38.344 45.69 39.311 C 48.559 44.35 49.43 48.999 48.053 51.514 C 45.956 51.716 42.859 50.082 39.647 47.253 C 38.61 48.289 37.547 49.219 36.488 50.026 C 40.185 52.811 43.833 54.104 46.229 53.142 Z M 29.274 33.227 C 29.528 33.805 29.812 34.398 30.124 35.002 C 30.939 36.581 31.945 38.237 33.129 39.911 C 34.336 41.616 35.625 43.195 36.936 44.605 C 35.885 45.75 34.813 46.787 33.752 47.694 C 32.114 46.133 30.527 44.309 29.099 42.291 C 28.403 41.307 27.779 40.326 27.229 39.36 C 26.883 38.752 26.567 38.15 26.279 37.557 C 23.477 31.773 23.478 26.818 26.69 25.528 C 27.068 25.376 27.477 25.281 27.912 25.238 C 27.282 26.971 27.787 29.851 29.274 33.227 Z M 27.912 25.238 C 28.178 24.508 28.645 23.982 29.325 23.709 C 30.991 23.04 33.617 24.015 36.503 26.13 C 35.929 26.538 35.346 26.991 34.759 27.484 C 32.234 25.884 29.82 25.052 27.912 25.238 Z" fill="url(#paint1_linear_5228_1015)"/>
  <path fill-rule="evenodd" clip-rule="evenodd" d="M 39.647 47.253 C 38.61 48.289 37.547 49.219 36.488 50.026 C 32.806 52.831 29.165 54.143 26.763 53.194 C 25.991 52.888 25.402 52.37 24.992 51.68 C 27.154 52.116 30.402 50.554 33.751 47.694 C 34.813 46.787 35.885 45.75 36.936 44.605 C 38.166 43.263 39.368 41.772 40.49 40.169 C 41.574 38.62 42.5 37.084 43.26 35.608 C 43.449 35.862 43.636 36.119 43.82 36.38 C 44.516 37.363 45.14 38.344 45.69 39.311 C 45.145 40.28 44.527 41.265 43.836 42.252 C 42.545 44.096 41.122 45.781 39.647 47.253 Z M 46.633 37.498 C 49.402 31.701 49.373 26.749 46.156 25.477 C 45.897 25.374 45.624 25.298 45.339 25.248 C 45.029 24.571 44.539 24.078 43.859 23.809 C 42.104 23.115 39.419 24.053 36.503 26.13 C 35.929 26.538 35.346 26.991 34.759 27.484 C 32.911 29.037 31.027 30.991 29.274 33.226 C 29.528 33.805 29.812 34.398 30.124 35.002 C 32.077 32.469 34.261 30.298 36.431 28.644 C 37.008 28.205 37.583 27.803 38.153 27.44 C 40.831 25.734 43.386 24.901 45.339 25.248 C 46.167 27.058 45.703 30.179 44.109 33.824 C 44.431 34.247 44.749 34.679 45.061 35.12 C 45.626 35.919 46.151 36.714 46.633 37.498 Z M 24.992 51.68 C 24.809 51.643 24.634 51.592 24.467 51.526 C 21.339 50.289 22.22 44.291 26.279 37.557 C 26.566 38.15 26.883 38.752 27.229 39.36 C 24.347 44.485 23.518 49.198 24.992 51.68 Z" fill="url(#paint2_linear_5228_1015)"/>
</svg>