<svg width="25" height="24" viewBox="0 0 25 24" fill="none" xmlns="http://www.w3.org/2000/svg">
<path d="M16.5 7C15.9477 7 15.5 7.44772 15.5 8C15.5 8.55228 15.9477 9 16.5 9V7ZM21.5 20L20.861 20.7692C21.1593 21.017 21.5739 21.07 21.9249 20.9053C22.2759 20.7405 22.5 20.3877 22.5 20H21.5ZM18.1665 17.2308L17.5275 18L17.5275 18L18.1665 17.2308ZM9.5 13C9.5 12.4477 9.05228 12 8.5 12C7.94772 12 7.5 12.4477 7.5 13H9.5ZM6.8335 13.2308L7.4725 14L7.47251 14L6.8335 13.2308ZM3.5 16H2.5C2.5 16.3878 2.72414 16.7406 3.07515 16.9053C3.42615 17.07 3.84075 17.017 4.139 16.7692L3.5 16ZM16.5 9H20.5V7H16.5V9ZM20.5 9H22.5C22.5 7.89543 21.6046 7 20.5 7V9ZM20.5 9V20H22.5V9H20.5ZM22.139 19.2308L18.8055 16.4616L17.5275 18L20.861 20.7692L22.139 19.2308ZM18.8055 16.4616C18.4468 16.1636 17.9951 16 17.5278 16V18L17.5275 18L18.8055 16.4616ZM17.5278 16H9.5V18H17.5278V16ZM9.5 16H7.5C7.5 17.1046 8.39543 18 9.5 18V16ZM9.5 16V13H7.5V16H9.5ZM15.5 5H17.5C17.5 3.89543 16.6046 3 15.5 3V5ZM15.5 5V12H17.5V5H15.5ZM15.5 12V14C16.6046 14 17.5 13.1046 17.5 12H15.5ZM15.5 12H7.47217V14H15.5V12ZM7.47217 12C7.00497 12 6.55328 12.1635 6.19448 12.4616L7.47251 14L7.47217 14V12ZM6.1945 12.4616L2.861 15.2308L4.139 16.7692L7.4725 14L6.1945 12.4616ZM4.5 16V5H2.5V16H4.5ZM4.5 5V3C3.39543 3 2.5 3.89543 2.5 5H4.5ZM4.5 5H15.5V3H4.5V5Z" fill="white"/>
</svg>
