<svg width="24" height="24" viewBox="0 0 24 24" fill="none" xmlns="http://www.w3.org/2000/svg">
<path d="M6.70711 11.2929C6.31658 10.9024 5.68342 10.9024 5.29289 11.2929C4.90237 11.6834 4.90237 12.3166 5.29289 12.7071L6.70711 11.2929ZM10.2426 16.2426L9.53553 16.9497C9.72307 17.1373 9.97743 17.2426 10.2427 17.2426C10.5079 17.2426 10.7622 17.1373 10.9498 16.9497L10.2426 16.2426ZM19.4346 8.46441C19.8251 8.07388 19.8251 7.44071 19.4346 7.0502C19.044 6.65968 18.4109 6.6597 18.0203 7.05024L19.4346 8.46441ZM5.29289 12.7071L9.53553 16.9497L10.9497 15.5355L6.70711 11.2929L5.29289 12.7071ZM10.9498 16.9497L19.4346 8.46441L18.0203 7.05024L9.53551 15.5356L10.9498 16.9497Z" fill="white"/>
</svg>
