<svg width="16" height="16" viewBox="0 0 16 16" fill="none" xmlns="http://www.w3.org/2000/svg">
<path fill-rule="evenodd" clip-rule="evenodd" d="M7.46036 11.2291V12.5734C7.46036 13.2803 8.03343 13.8534 8.74036 13.8534H13.8604C14.5673 13.8534 15.1404 13.2803 15.1404 12.5734V7.4534C15.1404 6.74648 14.5673 6.1734 13.8604 6.1734H11.1747C11.4577 6.66291 11.3897 7.2997 10.9709 7.71849L7.46036 11.2291ZM11.9404 10.0134C11.9404 10.3669 11.6538 10.6534 11.3004 10.6534C10.9469 10.6534 10.6604 10.3669 10.6604 10.0134C10.6604 9.65994 10.9469 9.3734 11.3004 9.3734C11.6538 9.3734 11.9404 9.65994 11.9404 10.0134Z" fill="black"/>
<path d="M4.86711 2.52032C5.24249 2.1459 5.85033 2.14668 6.22475 2.52206L9.84048 6.1471C10.2149 6.52249 10.2141 7.13033 9.83873 7.50475L6.21369 11.1205C5.83831 11.4949 5.23047 11.4941 4.85605 11.1187L1.24032 7.49369C0.865899 7.1183 0.866681 6.51047 1.24207 6.13605L4.86711 2.52032Z" stroke="black" stroke-width="0.64"/>
<path d="M5.9958 4.55825C5.74555 4.80786 5.34032 4.80734 5.09071 4.55708C4.84109 4.30683 4.84162 3.9016 5.09187 3.65199C5.34213 3.40237 5.74735 3.4029 5.99697 3.65315C6.24658 3.90341 6.24606 4.30863 5.9958 4.55825Z" fill="black"/>
<path d="M8.7076 7.27703C8.45734 7.52664 8.05212 7.52612 7.8025 7.27586C7.55289 7.02561 7.55341 6.62038 7.80367 6.37077C8.05393 6.12115 8.45915 6.12168 8.70876 6.37193C8.95838 6.62219 8.95786 7.02741 8.7076 7.27703Z" fill="black"/>
<path d="M5.98882 9.98882C5.73856 10.2384 5.33334 10.2379 5.08372 9.98766C4.83411 9.7374 4.83463 9.33218 5.08489 9.08256C5.33514 8.83295 5.74037 8.83347 5.98998 9.08373C6.2396 9.33398 6.23908 9.73921 5.98882 9.98882Z" fill="black"/>
<path d="M3.27702 7.27004C3.02677 7.51966 2.62154 7.51914 2.37193 7.26888C2.12231 7.01862 2.12284 6.6134 2.37309 6.36378C2.62335 6.11417 3.02857 6.11469 3.27819 6.36495C3.5278 6.6152 3.52728 7.02043 3.27702 7.27004Z" fill="black"/>
<path d="M5.99231 7.27354C5.74206 7.52315 5.33683 7.52263 5.08722 7.27237C4.8376 7.02212 4.83812 6.61689 5.08838 6.36728C5.33864 6.11766 5.74386 6.11818 5.99348 6.36844C6.24309 6.6187 6.24257 7.02392 5.99231 7.27354Z" fill="black"/>
</svg>
