<svg width="16" height="16" viewBox="0 0 16 16" fill="none" xmlns="http://www.w3.org/2000/svg">
    <path d="M10.9251 8C10.9251 8.97959 11.6401 9.95918 12.8816 9.95918C13.9832 9.95918 14.6978 9.26261 14.838 8C15.0884 5.74569 12.8816 1.14285 7.99045 1.14285C3.09931 1.14285 1.14285 5.55102 1.14285 8C1.14285 13.12 5.60484 14.8571 7.99045 14.8571C9.72301 14.8571 10.5514 14.3999 11.4142 13.8775M10.9251 8C10.9251 6.21508 9.45779 5.06122 7.99045 5.06122C6.35528 5.06122 5.05576 6.36959 5.05576 8C5.05576 9.6304 6.33956 10.9388 7.99045 10.9388C9.45779 10.9388 10.9251 9.95918 10.9251 8Z" stroke="black" stroke-width="1.25" stroke-linecap="round" stroke-linejoin="round"/>
</svg>
