<svg width="14" height="15" viewBox="0 0 14 15" fill="none" xmlns="http://www.w3.org/2000/svg">
    <defs>
        <clipPath id="clip0_105_130">
            <rect width="14" height="14" fill="white" transform="translate(0 0.551514)"/>
        </clipPath>
    </defs>
<g clip-path="url(#clip0_105_130)">
<path d="M9.55949 7.55151C9.55949 8.40866 10.1851 9.2658 11.2714 9.2658C12.2353 9.2658 12.8606 8.6563 12.9833 7.55151C13.2023 5.57899 11.2714 1.55151 6.99164 1.55151C2.7119 1.55151 1 5.40866 1 7.55151C1 12.0315 4.90423 13.5515 6.99164 13.5515C8.50764 13.5515 9.23246 13.1514 9.98746 12.6944M9.55949 7.55151C9.55949 5.98971 8.27557 4.98009 6.99164 4.98009C5.56087 4.98009 4.4238 6.12491 4.4238 7.55151C4.4238 8.97812 5.54712 10.1229 6.99164 10.1229C8.27557 10.1229 9.55949 9.2658 9.55949 7.55151Z" stroke="black" stroke-width="1.25" stroke-linecap="round" stroke-linejoin="round"/>
</g>

</svg>
