<?xml version="1.0" encoding="UTF-8"?>
<svg id="Layer_1" xmlns="http://www.w3.org/2000/svg" viewBox="0 0 18 18">
    <path id="Shape" class="cls-3" d="M17.64,9.2c0-.64-.06-1.25-.16-1.84H9v3.48h4.84c-.21,1.12-.84,2.08-1.8,2.72v2.26h2.91c1.7-1.57,2.68-3.87,2.68-6.62h0Z" fill="#4285F4"/>
    <path id="Shape-2" class="cls-4" d="M9,18c2.43,0,4.47-.81,5.96-2.18l-2.91-2.26c-.81,.54-1.84,.86-3.05,.86-2.34,0-4.33-1.58-5.04-3.71H.96v2.33c1.48,2.94,4.52,4.96,8.04,4.96h0Z" fill="#34A853"/>
    <path id="Shape-3" class="cls-2" d="M3.96,10.71c-.18-.54-.28-1.12-.28-1.71s.1-1.17,.28-1.71v-2.33H.96c-.61,1.22-.96,2.59-.96,4.04s.35,2.83,.96,4.04l3.01-2.33h0Z" fill="#fbbc05"/>
    <path id="Shape-4" class="cls-1" d="M9,3.58c1.32,0,2.51,.45,3.44,1.35l2.58-2.58c-1.56-1.45-3.6-2.34-6.02-2.34C5.48,0,2.44,2.02,.96,4.96l3.01,2.33c.71-2.13,2.69-3.71,5.04-3.71h0Z" fill="#EA4335"/>
</svg>