<svg width="16" height="16" viewBox="0 0 16 16" fill="none" xmlns="http://www.w3.org/2000/svg">
<g opacity="0.75">
<path d="M10.8333 13.3334C10.8333 13.6095 11.0572 13.8334 11.3333 13.8334C11.6095 13.8334 11.8333 13.6095 11.8333 13.3334H10.8333ZM4.16667 13.3334C4.16667 13.6095 4.39052 13.8334 4.66667 13.8334C4.94281 13.8334 5.16667 13.6095 5.16667 13.3334H4.16667ZM13.5 11.3333C13.5 11.6094 13.7239 11.8333 14 11.8333C14.2761 11.8333 14.5 11.6094 14.5 11.3333H13.5ZM12.1268 9.01606C11.8597 8.94603 11.5864 9.10581 11.5163 9.37292C11.4463 9.64004 11.6061 9.91335 11.8732 9.98337L12.1268 9.01606ZM1.5 11.3333C1.5 11.6094 1.72386 11.8333 2 11.8333C2.27614 11.8333 2.5 11.6094 2.5 11.3333H1.5ZM4.12679 9.98337C4.39391 9.91335 4.55368 9.64004 4.48366 9.37292C4.41363 9.10581 4.14033 8.94603 3.87321 9.01606L4.12679 9.98337ZM11.6665 6.45154C11.4608 6.63571 11.4433 6.95181 11.6274 7.15757C11.8116 7.36333 12.1277 7.38084 12.3335 7.19668L11.6665 6.45154ZM8.99988 3.47007C8.79411 3.65423 8.7766 3.97033 8.96077 4.17609C9.14493 4.38186 9.46103 4.39937 9.66679 4.2152L8.99988 3.47007ZM3.66654 7.19668C3.87231 7.38084 4.1884 7.36333 4.37257 7.15757C4.55673 6.95181 4.53922 6.63571 4.33346 6.45154L3.66654 7.19668ZM6.33321 4.2152C6.53897 4.39937 6.85507 4.38186 7.03923 4.17609C7.2234 3.97033 7.20589 3.65423 7.00012 3.47007L6.33321 4.2152ZM11.8333 13.3334C11.8333 12.5365 11.2976 11.9004 10.6143 11.4904C9.92099 11.0744 8.99551 10.8334 8 10.8334V11.8334C8.84543 11.8334 9.58662 12.04 10.0998 12.3479C10.6229 12.6618 10.8333 13.0257 10.8333 13.3334H11.8333ZM8 10.8334C7.00449 10.8334 6.07901 11.0744 5.38573 11.4904C4.7024 11.9004 4.16667 12.5365 4.16667 13.3334H5.16667C5.16667 13.0257 5.37712 12.6618 5.90023 12.3479C6.41338 12.04 7.15457 11.8334 8 11.8334V10.8334ZM14.5 11.3333C14.5 10.7439 14.2026 10.2367 13.7758 9.85291C13.3504 9.47036 12.7732 9.18551 12.1268 9.01606L11.8732 9.98337C12.4041 10.1225 12.8269 10.3444 13.1071 10.5965C13.3861 10.8473 13.5 11.1025 13.5 11.3333H14.5ZM2.5 11.3333C2.5 11.1025 2.61394 10.8473 2.89286 10.5965C3.17314 10.3444 3.59589 10.1225 4.12679 9.98337L3.87321 9.01606C3.22684 9.18551 2.64959 9.47036 2.22419 9.85291C1.79743 10.2367 1.5 10.7439 1.5 11.3333H2.5ZM8 8.83337C7.17157 8.83337 6.5 8.1618 6.5 7.33337H5.5C5.5 8.71409 6.61929 9.83337 8 9.83337V8.83337ZM6.5 7.33337C6.5 6.50495 7.17157 5.83337 8 5.83337V4.83337C6.61929 4.83337 5.5 5.95266 5.5 7.33337H6.5ZM8 5.83337C8.82843 5.83337 9.5 6.50495 9.5 7.33337H10.5C10.5 5.95266 9.38071 4.83337 8 4.83337V5.83337ZM9.5 7.33337C9.5 8.1618 8.82843 8.83337 8 8.83337V9.83337C9.38071 9.83337 10.5 8.71409 10.5 7.33337H9.5ZM12.3335 7.19668C12.8441 6.73963 13.1667 6.07384 13.1667 5.33337H12.1667C12.1667 5.77758 11.9742 6.17617 11.6665 6.45154L12.3335 7.19668ZM13.1667 5.33337C13.1667 3.95266 12.0474 2.83337 10.6667 2.83337V3.83337C11.4951 3.83337 12.1667 4.50495 12.1667 5.33337H13.1667ZM10.6667 2.83337C10.0267 2.83337 9.44184 3.0745 8.99988 3.47007L9.66679 4.2152C9.9325 3.97739 10.2822 3.83337 10.6667 3.83337V2.83337ZM4.33346 6.45154C4.02578 6.17617 3.83333 5.77758 3.83333 5.33337H2.83333C2.83333 6.07384 3.15588 6.73963 3.66654 7.19668L4.33346 6.45154ZM3.83333 5.33337C3.83333 4.50495 4.50491 3.83337 5.33333 3.83337V2.83337C3.95262 2.83337 2.83333 3.95266 2.83333 5.33337H3.83333ZM5.33333 3.83337C5.71783 3.83337 6.0675 3.97739 6.33321 4.2152L7.00012 3.47007C6.55816 3.0745 5.97331 2.83337 5.33333 2.83337V3.83337Z" fill="white"/>
</g>
</svg>
