<svg width="16" height="16" viewBox="0 0 16 16" fill="none" xmlns="http://www.w3.org/2000/svg">
<path d="M11 11.1707C10.0983 11.6564 9.07906 12 7.99999 12C5.64622 12 3.57755 10.3653 2.39126 9.18591C2.07813 8.87461 1.92159 8.71898 1.82193 8.41345C1.75086 8.19556 1.75083 7.80426 1.82193 7.58637C1.92162 7.28086 2.07848 7.12493 2.39224 6.81307C2.99016 6.21877 3.81207 5.50902 4.78152 4.95113M13 9.75576C13.222 9.56048 13.4254 9.36835 13.6079 9.18697C13.9216 8.87508 14.0784 8.71913 14.1781 8.41361C14.2492 8.19573 14.2495 7.80446 14.1784 7.58657C14.0788 7.28121 13.9217 7.12505 13.6089 6.81407C12.4226 5.63472 10.3538 4 7.99999 4C7.77499 4 7.55259 4.01494 7.33332 4.04299M8.88192 8.99994C8.64688 9.20739 8.33813 9.33327 7.99998 9.33327C7.2636 9.33327 6.66664 8.73632 6.66664 7.99994C6.66664 7.64027 6.80906 7.31387 7.04057 7.07404M2.66664 2.66666L13.3333 13.3333" stroke="black" stroke-width="1.25" stroke-linecap="round" stroke-linejoin="round"/>
</svg>
