<svg width="25" height="24" viewBox="0 0 25 24" fill="none" xmlns="http://www.w3.org/2000/svg">
<path d="M5.20749 3.29289C4.81696 2.90237 4.1838 2.90237 3.79327 3.29289C3.40275 3.68342 3.40275 4.31658 3.79327 4.70711L5.20749 3.29289ZM19.7933 20.7071C20.1838 21.0976 20.817 21.0976 21.2075 20.7071C21.598 20.3166 21.598 19.6834 21.2075 19.2929L19.7933 20.7071ZM17.4746 17.6364C17.9609 17.3744 18.1427 16.7679 17.8808 16.2817C17.6188 15.7955 17.0123 15.6137 16.5261 15.8756L17.4746 17.6364ZM4.08729 13.7789L3.38226 14.488L4.08729 13.7789ZM4.08876 10.2196L3.3838 9.51036L3.3838 9.51036L4.08876 10.2196ZM8.17146 8.29343C8.65014 8.01796 8.81488 7.4066 8.53941 6.92792C8.26395 6.44924 7.65259 6.2845 7.17391 6.55997L8.17146 8.29343ZM3.23329 12.6202L2.28259 12.9303V12.9303L3.23329 12.6202ZM3.23329 11.3796L2.28262 11.0694L3.23329 11.3796ZM19.34 13.8827C18.9253 14.2475 18.8847 14.8794 19.2495 15.2941C19.6142 15.7088 20.2461 15.7493 20.6608 15.3845L19.34 13.8827ZM20.9122 13.7805L20.2072 13.0712L20.9122 13.7805ZM20.9138 10.2211L20.2087 10.9303L20.9138 10.2211ZM11.3735 5.07256C10.8257 5.14264 10.4384 5.64355 10.5085 6.19137C10.5785 6.73919 11.0794 7.12648 11.6273 7.0564L11.3735 5.07256ZM21.7676 12.6204L22.7182 12.9306L21.7676 12.6204ZM21.768 11.3799L22.7187 11.0698L21.768 11.3799ZM14.485 14.2497C14.8991 13.8842 14.9385 13.2523 14.573 12.8382C14.2076 12.4241 13.5756 12.3847 13.1616 12.7502L14.485 14.2497ZM11.7807 11.3056C12.1643 10.9082 12.1531 10.2752 11.7558 9.8916C11.3584 9.50803 10.7253 9.51921 10.3418 9.91657L11.7807 11.3056ZM3.79327 4.70711L19.7933 20.7071L21.2075 19.2929L5.20749 3.29289L3.79327 4.70711ZM16.5261 15.8756C15.2714 16.5515 13.9064 17 12.5004 17V19C14.3315 19 16.0242 18.4177 17.4746 17.6364L16.5261 15.8756ZM12.5004 17C9.39523 17 6.54321 14.8103 4.79232 13.0697L3.38226 14.488C5.19024 16.2855 8.54422 19 12.5004 19V17ZM4.79372 10.9289C5.65285 10.0749 6.81698 9.07289 8.17146 8.29343L7.17391 6.55997C5.62002 7.45418 4.31844 8.58137 3.3838 9.51036L4.79372 10.9289ZM4.79232 13.0697C4.30108 12.5813 4.24789 12.506 4.18399 12.3101L2.28259 12.9303C2.51766 13.651 2.9341 14.0425 3.38226 14.488L4.79232 13.0697ZM3.3838 9.51036C2.93496 9.95648 2.5178 10.3486 2.28262 11.0694L4.18396 11.6898C4.24784 11.494 4.30129 11.4183 4.79372 10.9289L3.3838 9.51036ZM4.18399 12.3101C4.184 12.3101 4.18122 12.3014 4.17728 12.2824C4.17343 12.264 4.16928 12.2397 4.16552 12.2098C4.15789 12.1491 4.15332 12.0767 4.15332 11.9998C4.15332 11.923 4.15789 11.8506 4.16551 11.79C4.16927 11.76 4.17342 11.7358 4.17726 11.7173C4.18121 11.6984 4.18398 11.6897 4.18396 11.6898L2.28262 11.0694C2.18432 11.3706 2.15332 11.7148 2.15332 11.9999C2.15333 12.285 2.18435 12.6291 2.28259 12.9303L4.18399 12.3101ZM20.6608 15.3845C21.0106 15.0769 21.3305 14.7746 21.6171 14.4897L20.2072 13.0712C19.9464 13.3304 19.6562 13.6046 19.34 13.8827L20.6608 15.3845ZM21.6188 9.51193C19.8108 7.7145 16.4565 5 12.5004 5V7C15.6056 7 18.4579 9.18967 20.2087 10.9303L21.6188 9.51193ZM12.5004 5C12.1185 5 11.7425 5.02535 11.3735 5.07256L11.6273 7.0564C11.916 7.01946 12.2072 7 12.5004 7V5ZM21.6171 14.4897C22.0662 14.0433 22.4831 13.6513 22.7182 12.9306L20.8169 12.3102C20.753 12.5061 20.6995 12.5819 20.2072 13.0712L21.6171 14.4897ZM20.2087 10.9303C20.7002 11.4189 20.7534 11.4942 20.8173 11.69L22.7187 11.0698C22.4836 10.349 22.0667 9.95724 21.6188 9.51193L20.2087 10.9303ZM22.7182 12.9306C22.8164 12.6297 22.8476 12.2857 22.8478 12.0006C22.8479 11.7156 22.817 11.3712 22.7187 11.0698L20.8173 11.69C20.8173 11.6898 20.82 11.6985 20.8239 11.7174C20.8278 11.7358 20.8319 11.76 20.8357 11.7899C20.8432 11.8505 20.8478 11.9228 20.8478 11.9997C20.8477 12.0766 20.8431 12.1489 20.8355 12.2097C20.8317 12.2396 20.8275 12.2639 20.8237 12.2824C20.8218 12.2915 20.8201 12.2985 20.8188 12.3034C20.8175 12.3084 20.8168 12.3106 20.8169 12.3102L22.7182 12.9306ZM13.1616 12.7502C12.9847 12.9063 12.7547 12.9999 12.5004 12.9999V14.9999C13.2605 14.9999 13.9568 14.7159 14.485 14.2497L13.1616 12.7502ZM12.5004 12.9999C11.9481 12.9999 11.5004 12.5522 11.5004 11.9999H9.50038C9.50038 13.6568 10.8435 14.9999 12.5004 14.9999V12.9999ZM11.5004 11.9999C11.5004 11.7298 11.6062 11.4864 11.7807 11.3056L10.3418 9.91657C9.82182 10.4552 9.50038 11.1911 9.50038 11.9999H11.5004Z" fill="black"/>
</svg>
