<svg width="16" height="16" viewBox="0 0 16 16" fill="none" xmlns="http://www.w3.org/2000/svg">
    <path d="M6.54204 11.3941C6.32205 11.6141 6.05492 11.7241 5.74066 11.7241C5.42639 11.7241 5.15926 11.6141 4.93927 11.3941C4.71928 11.1741 4.60928 10.907 4.60928 10.5927C4.60928 10.2784 4.71928 10.0113 4.93927 9.79132C5.15926 9.57134 5.42639 9.46134 5.74066 9.46134C6.05492 9.46134 6.32205 9.57134 6.54204 9.79133C6.76203 10.0113 6.87203 10.2784 6.87203 10.5927C6.87203 10.907 6.76203 11.1741 6.54204 11.3941ZM8.56908 13.4211C7.78341 14.2068 6.8406 14.5997 5.74066 14.5997C4.64071 14.5997 3.6979 14.2068 2.91223 13.4211C2.12655 12.6355 1.73372 11.6927 1.73372 10.5927C1.73372 9.49277 2.12655 8.54996 2.91223 7.76429C3.47791 7.1986 4.10645 6.83719 4.79785 6.68006C5.48924 6.52292 6.22777 6.59363 7.01345 6.89219L11.2089 2.69669L13.8724 2.69669L13.7074 6.46792L11.9161 6.75077L11.6332 8.5421L10.0422 8.71888L9.44118 9.31992C9.71617 9.98774 9.79473 10.6831 9.67688 11.4059C9.55903 12.1287 9.18976 12.8005 8.56908 13.4211ZM7.86198 12.714C8.31767 12.2583 8.58676 11.6868 8.66926 10.9993C8.75175 10.3118 8.61229 9.6774 8.25088 9.096L9.59439 7.7525L10.7611 7.64643L11.0557 5.86688L12.7528 5.63118L12.8235 3.69842L11.6214 3.69842L7.23736 8.08248C6.70311 7.73679 6.08832 7.5934 5.39299 7.65233C4.69767 7.71125 4.10645 7.98427 3.61933 8.47139C3.03008 9.06065 2.73545 9.76775 2.73545 10.5927C2.73545 11.4177 3.03008 12.1248 3.61934 12.714C4.20859 13.3033 4.9157 13.5979 5.74066 13.5979C6.56561 13.5979 7.27272 13.3033 7.86198 12.714Z" fill="white" fill-opacity="0.75"/>
</svg>
