<svg width="14" height="15" viewBox="0 0 14 15" fill="none" xmlns="http://www.w3.org/2000/svg">
    <defs>
        <clipPath id="clip0_105_126">
            <rect width="14" height="14" fill="white" transform="translate(0 0.551514)"/>
        </clipPath>
    </defs>
<g clip-path="url(#clip0_105_126)">
<path d="M1.75 9.47651C1.75 8.49642 1.75 8.00638 1.94074 7.63203C2.10852 7.30275 2.37623 7.03503 2.70552 6.86725C3.07986 6.67651 3.56991 6.67651 4.55 6.67651H9.45C10.4301 6.67651 10.9201 6.67651 11.2945 6.86725C11.6238 7.03503 11.8915 7.30275 12.0593 7.63203C12.25 8.00638 12.25 8.49642 12.25 9.47651V10.8765C12.25 11.8566 12.25 12.3467 12.0593 12.721C11.8915 13.0503 11.6238 13.318 11.2945 13.4858C10.9201 13.6765 10.4301 13.6765 9.45 13.6765H4.55C3.56991 13.6765 3.07986 13.6765 2.70552 13.4858C2.37623 13.318 2.10852 13.0503 1.94074 12.721C1.75 12.3467 1.75 11.8566 1.75 10.8765V9.47651Z" stroke="black"  stroke-width="1.25"/>
<path d="M4.375 6.67651L4.375 4.05151C4.375 3.23612 4.375 2.82842 4.50821 2.50682C4.68583 2.07802 5.0265 1.73734 5.4553 1.55972C5.7769 1.42651 6.1846 1.42651 7 1.42651C7.8154 1.42651 8.2231 1.42651 8.5447 1.55972C8.9735 1.73734 9.31417 2.07802 9.49179 2.50682C9.625 2.82842 9.625 3.23612 9.625 4.05151V6.67651H4.375Z" stroke="black"  stroke-width="1.25"/>
</g>

</svg>
