<svg width="24" height="24" viewBox="0 0 24 24" fill="none" xmlns="http://www.w3.org/2000/svg">
<path d="M11.2929 14.2929C10.9024 14.6834 10.9024 15.3166 11.2929 15.7071C11.6834 16.0976 12.3166 16.0976 12.7071 15.7071L11.2929 14.2929ZM15 12L15.7071 12.7071C16.0976 12.3166 16.0976 11.6834 15.7071 11.2929L15 12ZM12.7071 8.29289C12.3166 7.90237 11.6834 7.90237 11.2929 8.29289C10.9024 8.68342 10.9024 9.31658 11.2929 9.70711L12.7071 8.29289ZM4 11C3.44772 11 3 11.4477 3 12C3 12.5523 3.44772 13 4 13L4 11ZM10.2344 19.8478L9.85169 20.7717L10.2344 19.8478ZM10 17C10 16.4477 9.55228 16 9 16C8.44772 16 8 16.4477 8 17H10ZM9.15224 18.7654L8.22836 19.1481L9.15224 18.7654ZM19.7822 18.908L18.8912 18.454L19.7822 18.908ZM18.9078 19.782L18.4538 18.891L18.9078 19.782ZM18.9078 4.21799L19.3618 3.32698V3.32698L18.9078 4.21799ZM19.7822 5.09204L18.8912 5.54603V5.54603L19.7822 5.09204ZM8 6.99999C8 7.55227 8.44772 7.99999 9 7.99999C9.55228 7.99999 10 7.55227 10 6.99999H8ZM12.7071 15.7071L15.7071 12.7071L14.2929 11.2929L11.2929 14.2929L12.7071 15.7071ZM15.7071 11.2929L12.7071 8.29289L11.2929 9.70711L14.2929 12.7071L15.7071 11.2929ZM15 11L4 11L4 13L15 13V11ZM12 5H16.8V3H12V5ZM19 7.19995V16.8H21V7.19995H19ZM16.8 19H12V21H16.8V19ZM12 19C11.5204 19 11.2107 18.9995 10.9736 18.9833C10.7455 18.9677 10.6586 18.9411 10.6171 18.9239L9.85169 20.7717C10.1777 20.9067 10.5077 20.9562 10.8375 20.9787C11.1584 21.0005 11.5477 21 12 21V19ZM8 17C8 17.4523 7.99946 17.8415 8.02135 18.1624C8.04385 18.4922 8.09336 18.8221 8.22836 19.1481L10.0761 18.3827C10.0589 18.3411 10.0323 18.2542 10.0167 18.0262C10.0005 17.7893 10 17.4796 10 17H8ZM10.6171 18.9239C10.3723 18.8225 10.1777 18.628 10.0761 18.3827L8.22836 19.1481C8.53274 19.8829 9.11636 20.4671 9.85169 20.7717L10.6171 18.9239ZM19 16.8C19 17.3766 18.9993 17.7489 18.9762 18.0323C18.954 18.3041 18.9163 18.4047 18.8912 18.454L20.6732 19.362C20.8661 18.9835 20.9373 18.5902 20.9696 18.1949C21.0008 17.8112 21 17.3434 21 16.8H19ZM16.8 21C17.3436 21 17.8113 21.0008 18.195 20.9694C18.5903 20.9371 18.9834 20.8658 19.3618 20.673L18.4538 18.891C18.4043 18.9162 18.3036 18.9539 18.032 18.9761C17.7488 18.9992 17.3765 19 16.8 19V21ZM18.8912 18.454C18.7956 18.6417 18.6425 18.7948 18.4538 18.891L19.3618 20.673C19.9257 20.3856 20.3853 19.927 20.6732 19.362L18.8912 18.454ZM16.8 5C17.3766 5 17.7488 5.00078 18.0321 5.02393C18.3036 5.04612 18.4043 5.08379 18.4538 5.10899L19.3618 3.32698C18.9834 3.1342 18.5903 3.06288 18.1949 3.03057C17.8113 2.99922 17.3435 3 16.8 3V5ZM21 7.19995C21 6.6565 21.0008 6.1887 20.9695 5.80511C20.9373 5.40983 20.8661 5.01653 20.6732 4.63805L18.8912 5.54603C18.9164 5.59537 18.954 5.69598 18.9762 5.96767C18.9993 6.25105 19 6.6233 19 7.19995H21ZM18.4538 5.10899C18.6424 5.20508 18.7956 5.35828 18.8912 5.54603L20.6732 4.63805C20.3854 4.07315 19.9259 3.61439 19.3618 3.32698L18.4538 5.10899ZM10 6.99999C10 6.52036 10.0005 6.21073 10.0167 5.97375C10.0323 5.74575 10.0589 5.65892 10.0761 5.6173L8.22836 4.85194C8.09336 5.17786 8.04385 5.50777 8.02135 5.8376C7.99946 6.15845 8 6.54773 8 6.99999H10ZM12 3C11.5477 3 11.1584 2.99946 10.8375 3.02135C10.5077 3.04385 10.1777 3.09334 9.85169 3.22836L10.6171 5.07612C10.6586 5.0589 10.7455 5.03227 10.9736 5.01671C11.2107 5.00054 11.5204 5 12 5V3ZM10.0761 5.6173C10.1777 5.37205 10.3723 5.17752 10.6171 5.07612L9.85169 3.22836C9.11639 3.53293 8.53275 4.11707 8.22836 4.85194L10.0761 5.6173Z" fill="black"/>
</svg>
