<svg width="16" height="16" viewBox="0 0 16 16" fill="none" xmlns="http://www.w3.org/2000/svg">
<path d="M5.00684 13.2012L4.75704 13.6343L4.75704 13.6343L5.00684 13.2012ZM4.54969 13.1501L4.7078 13.6245L4.7078 13.6245L4.54969 13.1501ZM3.01204 13.6627L2.85393 13.1884L2.85393 13.1884L3.01204 13.6627ZM2.33724 12.9881L2.81158 13.1462L2.81158 13.1462L2.33724 12.9881ZM2.84979 11.4504L2.37545 11.2923L2.37545 11.2923L2.84979 11.4504ZM2.7988 10.9933L2.36567 11.2431L2.36567 11.2431L2.7988 10.9933ZM2.89675 11.2763L3.39559 11.3104L2.89675 11.2763ZM2.88544 11.1647L3.36737 11.0315L3.36737 11.0315L2.88544 11.1647ZM2.41504 13.7869L2.2471 14.2579L2.2471 14.2579L2.41504 13.7869ZM2.21293 13.5849L2.68388 13.4169L2.68388 13.4169L2.21293 13.5849ZM4.83529 13.1146L4.96849 12.6327L4.83529 13.1146ZM4.72361 13.1034L4.6895 12.6045L4.72361 13.1034ZM8 8V7.5C7.72386 7.5 7.5 7.72386 7.5 8H8ZM8.00133 8L8.5012 8.01168C8.50434 7.87708 8.45307 7.74691 8.35899 7.6506C8.26491 7.55429 8.13597 7.5 8.00133 7.5V8ZM8.0013 8.00133L7.98934 8.50119C8.12196 8.50436 8.25041 8.4547 8.3464 8.36315C8.44239 8.27159 8.49807 8.14563 8.50117 8.01301L8.0013 8.00133ZM8 8.0013H7.5C7.5 8.27278 7.71664 8.49467 7.98804 8.50116L8 8.0013ZM10.6667 8V7.5C10.3905 7.5 10.1667 7.72386 10.1667 8H10.6667ZM10.668 8L11.1679 8.01168C11.171 7.87708 11.1197 7.74691 11.0257 7.6506C10.9316 7.55429 10.8026 7.5 10.668 7.5V8ZM10.668 8.00133L10.656 8.50119C10.7886 8.50436 10.9171 8.4547 11.0131 8.36315C11.1091 8.27159 11.1647 8.14563 11.1678 8.01301L10.668 8.00133ZM10.6667 8.0013H10.1667C10.1667 8.27278 10.3833 8.49467 10.6547 8.50116L10.6667 8.0013ZM5.33333 8V7.5C5.05719 7.5 4.83333 7.72386 4.83333 8H5.33333ZM5.33467 8L5.83453 8.01168C5.83768 7.87708 5.78641 7.74691 5.69233 7.6506C5.59824 7.55429 5.4693 7.5 5.33467 7.5V8ZM5.33464 8.00133L5.32268 8.50119C5.45529 8.50436 5.58374 8.4547 5.67973 8.36315C5.77573 8.27159 5.8314 8.14563 5.8345 8.01301L5.33464 8.00133ZM5.33333 8.0013H4.83333C4.83333 8.27278 5.04997 8.49467 5.32137 8.50116L5.33333 8.0013ZM8.00009 13.5C7.00002 13.5 6.0637 13.2335 5.25664 12.768L4.75704 13.6343C5.71196 14.185 6.82 14.5 8.00009 14.5V13.5ZM4.39158 12.6758L2.85393 13.1884L3.17016 14.137L4.7078 13.6245L4.39158 12.6758ZM2.81158 13.1462L3.32413 11.6086L2.37545 11.2923L1.8629 12.83L2.81158 13.1462ZM3.23192 10.7435C2.76646 9.93639 2.5 9.00007 2.5 8H1.5C1.5 9.18008 1.81493 10.2881 2.36567 11.2431L3.23192 10.7435ZM2.5 8C2.5 4.96243 4.96243 2.5 8 2.5V1.5C4.41015 1.5 1.5 4.41015 1.5 8H2.5ZM8 2.5C11.0376 2.5 13.5 4.96243 13.5 8H14.5C14.5 4.41015 11.5899 1.5 8 1.5V2.5ZM13.5 8C13.5 11.0376 11.0376 13.5 8.00009 13.5V14.5C11.5899 14.5 14.5 11.5898 14.5 8H13.5ZM3.32413 11.6086C3.34416 11.5485 3.38728 11.432 3.39559 11.3104L2.39792 11.2422C2.39973 11.2156 2.40481 11.2005 2.40208 11.2101C2.40065 11.2151 2.39811 11.2235 2.3934 11.2381C2.38866 11.2527 2.38303 11.2696 2.37545 11.2923L3.32413 11.6086ZM2.36567 11.2431C2.37854 11.2654 2.38837 11.2824 2.39671 11.2972C2.40504 11.3119 2.40999 11.321 2.41307 11.3269C2.41966 11.3396 2.41115 11.3256 2.40351 11.2979L3.36737 11.0315C3.33478 10.9136 3.26633 10.8031 3.23192 10.7434L2.36567 11.2431ZM3.39559 11.3104C3.40216 11.2142 3.39283 11.1237 3.36737 11.0315L2.40351 11.2979C2.40218 11.2931 2.39993 11.2834 2.39862 11.2706C2.39731 11.2577 2.39755 11.2475 2.39792 11.2422L3.39559 11.3104ZM2.85393 13.1884C2.68168 13.2458 2.58517 13.2774 2.51771 13.2932C2.48697 13.3005 2.48062 13.2997 2.48921 13.2994C2.50018 13.299 2.53596 13.2992 2.58298 13.316L2.2471 14.2579C2.44346 14.3279 2.63127 14.2938 2.74633 14.2668C2.86887 14.238 3.01671 14.1882 3.17016 14.137L2.85393 13.1884ZM1.8629 12.83C1.81179 12.9833 1.76197 13.1311 1.73317 13.2535C1.70613 13.3685 1.67192 13.5564 1.74198 13.7528L2.68388 13.4169C2.70066 13.464 2.70085 13.4998 2.70043 13.5109C2.7001 13.5195 2.69938 13.5132 2.70661 13.4825C2.72248 13.415 2.75413 13.3186 2.81158 13.1462L1.8629 12.83ZM2.58298 13.316C2.62991 13.3327 2.66701 13.3696 2.68388 13.4169L1.74198 13.7528C1.82606 13.9886 2.01169 14.1739 2.2471 14.2579L2.58298 13.316ZM5.25664 12.768C5.19636 12.7333 5.08626 12.6652 4.96849 12.6327L4.70208 13.5965C4.67468 13.5889 4.66082 13.5805 4.67342 13.5871C4.67932 13.5901 4.6884 13.5951 4.70308 13.6034C4.71776 13.6117 4.73479 13.6215 4.75704 13.6343L5.25664 12.768ZM4.7078 13.6245C4.73044 13.6169 4.74728 13.6113 4.76178 13.6066C4.77622 13.602 4.78453 13.5995 4.78948 13.5981C4.7988 13.5954 4.78384 13.6004 4.75773 13.6022L4.6895 12.6045C4.56817 12.6128 4.45258 12.6555 4.39158 12.6758L4.7078 13.6245ZM4.96849 12.6327C4.87551 12.607 4.78478 12.598 4.6895 12.6045L4.75773 13.6022C4.75272 13.6025 4.74282 13.6028 4.73004 13.6015C4.71724 13.6002 4.70738 13.598 4.70208 13.5965L4.96849 12.6327ZM8 8.5H8.00133V7.5H8V8.5ZM7.50147 7.98832L7.50144 7.98965L8.50117 8.01301L8.5012 8.01168L7.50147 7.98832ZM8.01326 7.50148L8.01196 7.50144L7.98804 8.50116L7.98934 8.50119L8.01326 7.50148ZM8.5 8.0013V8H7.5V8.0013H8.5ZM10.6667 8.5H10.668V7.5H10.6667V8.5ZM10.1681 7.98832L10.1681 7.98965L11.1678 8.01301L11.1679 8.01168L10.1681 7.98832ZM10.6799 7.50148L10.6786 7.50144L10.6547 8.50116L10.656 8.50119L10.6799 7.50148ZM11.1667 8.0013V8H10.1667V8.0013H11.1667ZM5.33333 8.5H5.33467V7.5H5.33333V8.5ZM4.8348 7.98832L4.83477 7.98965L5.8345 8.01301L5.83453 8.01168L4.8348 7.98832ZM5.34659 7.50148L5.34529 7.50144L5.32137 8.50116L5.32268 8.50119L5.34659 7.50148ZM5.83333 8.0013V8H4.83333V8.0013H5.83333Z" fill="white"/>
</svg>
