<svg width="16" height="16" viewBox="0 0 16 16" fill="none" xmlns="http://www.w3.org/2000/svg">
<path d="M9.99996 11.3334H10.75C10.75 10.9192 10.4142 10.5834 9.99996 10.5834V11.3334ZM5.99996 11.3334V10.5834C5.58575 10.5834 5.24996 10.9192 5.24996 11.3334H5.99996ZM9.14552 2.92002C9.54168 3.04097 9.96088 2.81786 10.0818 2.4217C10.2028 2.02554 9.97967 1.60634 9.58351 1.48539L9.14552 2.92002ZM3.20243 9.46425L3.73278 9.99456L3.73281 9.99454L3.20243 9.46425ZM2.86194 9.80477L2.33159 9.27446L2.33151 9.27454L2.86194 9.80477ZM13.138 9.80473L13.6685 9.27454L13.6683 9.2744L13.138 9.80473ZM13.4014 6.26042C13.3699 5.84741 13.0095 5.53815 12.5965 5.56968C12.1835 5.60121 11.8743 5.96158 11.9058 6.37459L13.4014 6.26042ZM9.24996 11.3334V12H10.75V11.3334H9.24996ZM6.74996 12V11.3334H5.24996V12H6.74996ZM5.99996 12.0834H9.99996V10.5834H5.99996V12.0834ZM7.99996 13.25C7.3096 13.25 6.74996 12.6904 6.74996 12H5.24996C5.24996 13.5188 6.48118 14.75 7.99996 14.75V13.25ZM9.24996 12C9.24996 12.6904 8.69031 13.25 7.99996 13.25V14.75C9.51874 14.75 10.75 13.5188 10.75 12H9.24996ZM13.25 4.00004C13.25 5.05859 12.3918 5.91671 11.3333 5.91671V7.41671C13.2203 7.41671 14.75 5.88701 14.75 4.00004H13.25ZM11.3333 5.91671C10.2747 5.91671 9.41663 5.05859 9.41663 4.00004H7.91663C7.91663 5.88701 9.44632 7.41671 11.3333 7.41671V5.91671ZM9.41663 4.00004C9.41663 2.94149 10.2747 2.08337 11.3333 2.08337V0.583374C9.44632 0.583374 7.91663 2.11307 7.91663 4.00004H9.41663ZM11.3333 2.08337C12.3918 2.08337 13.25 2.94149 13.25 4.00004H14.75C14.75 2.11307 13.2203 0.583374 11.3333 0.583374V2.08337ZM9.58351 1.48539C9.0817 1.33219 8.54974 1.25004 7.99996 1.25004V2.75004C8.39967 2.75004 8.78409 2.80968 9.14552 2.92002L9.58351 1.48539ZM7.99996 1.25004C5.00841 1.25004 2.58329 3.67517 2.58329 6.66669H4.08329C4.08329 4.5036 5.83684 2.75004 7.99996 2.75004V1.25004ZM2.58329 6.66669V9.14831H4.08329V6.66669H2.58329ZM2.58329 9.14831C2.58329 9.06789 2.61526 8.99077 2.67206 8.93396L3.73281 9.99454C3.95718 9.77013 4.08329 9.46579 4.08329 9.14831H2.58329ZM2.67208 8.93394L2.33159 9.27446L3.39229 10.3351L3.73278 9.99456L2.67208 8.93394ZM2.33151 9.27454C2.06613 9.54002 1.91663 9.90014 1.91663 10.2761H3.41663C3.41663 10.2985 3.40771 10.3196 3.39237 10.335L2.33151 9.27454ZM1.91663 10.2761V10.6667H3.41663V10.2761H1.91663ZM1.91663 10.6667C1.91663 11.4491 2.55089 12.0834 3.33329 12.0834V10.5834C3.37932 10.5834 3.41663 10.6207 3.41663 10.6667H1.91663ZM3.33329 12.0834H12.6666V10.5834H3.33329V12.0834ZM12.6666 12.0834C13.449 12.0834 14.0833 11.4491 14.0833 10.6667H12.5833C12.5833 10.6207 12.6206 10.5834 12.6666 10.5834V12.0834ZM14.0833 10.6667V10.2762H12.5833V10.6667H14.0833ZM14.0833 10.2762C14.0833 9.90022 13.9338 9.54003 13.6685 9.27454L12.6075 10.3349C12.5922 10.3196 12.5833 10.2985 12.5833 10.2762H14.0833ZM13.6683 9.2744L13.3278 8.9339L12.2672 9.99456L12.6076 10.3351L13.6683 9.2744ZM13.3278 8.9339C13.3846 8.99074 13.4166 9.06791 13.4166 9.14832H11.9166C11.9166 9.46579 12.0427 9.77013 12.2672 9.99456L13.3278 8.9339ZM13.4166 9.14832V6.66671H11.9166V9.14832H13.4166ZM13.4166 6.66671C13.4166 6.53109 13.4117 6.39541 13.4014 6.26042L11.9058 6.37459C11.913 6.46954 11.9166 6.56707 11.9166 6.66671H13.4166Z" fill="white" fill-opacity="0.75"/>
</svg>
