<svg width="23" height="23" viewBox="0 0 23 23" fill="none" xmlns="http://www.w3.org/2000/svg">
<path d="M3.90247 18.873H3.40247C3.40247 19.0056 3.45514 19.1328 3.54891 19.2266C3.64268 19.3203 3.76986 19.373 3.90247 19.373L3.90247 18.873ZM3.90247 15.1542L3.54891 14.8006C3.45514 14.8944 3.40247 15.0216 3.40247 15.1542H3.90247ZM14.0071 5.04956L13.6535 4.696L13.6535 4.696L14.0071 5.04956ZM16.1107 5.04956L15.7572 5.40311L15.7572 5.40311L16.1107 5.04956ZM17.7259 6.6647L18.0794 6.31114L17.7259 6.6647ZM17.7259 8.76838L17.3724 8.41482L17.7259 8.76838ZM7.62129 18.873L7.62129 19.373C7.7539 19.373 7.88107 19.3203 7.97484 19.2266L7.62129 18.873ZM18.3472 7.42928L18.8227 7.27477L18.3472 7.42928ZM18.3472 8.0038L17.8716 7.84929L18.3472 8.0038ZM14.7717 4.42832L14.6171 3.95279L14.7717 4.42832ZM15.3463 4.42832L15.5008 3.95279L15.3463 4.42832ZM11.6937 7.363C11.4984 7.16774 11.1818 7.16774 10.9866 7.363C10.7913 7.55827 10.7913 7.87485 10.9866 8.07011L11.6937 7.363ZM14.7054 11.7889C14.9006 11.9842 15.2172 11.9842 15.4125 11.7889C15.6077 11.5937 15.6077 11.2771 15.4125 11.0818L14.7054 11.7889ZM4.40247 18.873V15.1542H3.40247V18.873H4.40247ZM4.25602 15.5078L14.3606 5.40311L13.6535 4.696L3.54891 14.8006L4.25602 15.5078ZM15.7572 5.40311L17.3723 7.01825L18.0794 6.31114L16.4643 4.696L15.7572 5.40311ZM17.3724 8.41482L7.26773 18.5194L7.97484 19.2266L18.0795 9.12193L17.3724 8.41482ZM7.62128 18.373L3.90246 18.373L3.90247 19.373L7.62129 19.373L7.62128 18.373ZM17.3723 7.01825C17.5623 7.20817 17.6832 7.32964 17.7676 7.42904C17.8482 7.52399 17.8657 7.56544 17.8716 7.58379L18.8227 7.27477C18.7597 7.08085 18.6506 6.92409 18.5299 6.78186C18.4129 6.64409 18.2577 6.4894 18.0794 6.31114L17.3723 7.01825ZM18.0795 9.12193C18.2577 8.94367 18.413 8.78899 18.5299 8.65121C18.6507 8.50898 18.7597 8.35222 18.8227 8.15831L17.8716 7.84929C17.8657 7.86765 17.8482 7.9091 17.7676 8.00404C17.6832 8.10344 17.5623 8.2249 17.3724 8.41482L18.0795 9.12193ZM17.8716 7.58379C17.8997 7.6701 17.8997 7.76299 17.8716 7.84929L18.8227 8.15831C18.916 7.87116 18.916 7.56192 18.8227 7.27477L17.8716 7.58379ZM14.3606 5.40311C14.5506 5.21319 14.672 5.09229 14.7714 5.00791C14.8663 4.92732 14.9078 4.90981 14.9262 4.90384L14.6171 3.95279C14.4232 4.01579 14.2665 4.12481 14.1243 4.24556C13.9865 4.36251 13.8318 4.51774 13.6535 4.696L14.3606 5.40311ZM16.4643 4.696C16.2861 4.51777 16.1314 4.36254 15.9937 4.24559C15.8515 4.12485 15.6947 4.0158 15.5008 3.95279L15.1918 4.90384C15.2101 4.9098 15.2515 4.92729 15.3464 5.00788C15.4458 5.09227 15.5673 5.21317 15.7572 5.40311L16.4643 4.696ZM14.9262 4.90384C15.0125 4.8758 15.1055 4.8758 15.1918 4.90384L15.5008 3.95279C15.2136 3.85949 14.9043 3.85949 14.6171 3.95279L14.9262 4.90384ZM10.9866 8.07011L14.7054 11.7889L15.4125 11.0818L11.6937 7.363L10.9866 8.07011Z" fill="white"/>
</svg>
