<svg width="16" height="16" viewBox="0 0 16 16" fill="none" xmlns="http://www.w3.org/2000/svg">
<path d="M8.61715 13.7541L8.92642 14.4374L8.61715 13.7541ZM7.38259 13.7541L7.07332 14.4374L7.38259 13.7541ZM2.81195 2.72803L3.48021 3.06852L2.81195 2.72803ZM3.39449 2.14532L3.73498 2.81358L3.39449 2.14532ZM8.22587 13.8841L8.09897 13.145L8.22587 13.8841ZM7.77454 13.8841L7.90144 13.145L7.77454 13.8841ZM13.1881 2.72803L12.5199 3.06852L13.1881 2.72803ZM12.6051 2.14532L12.9456 1.47707V1.47707L12.6051 2.14532ZM12.5833 4.1333V6.77654H14.0833V4.1333H12.5833ZM12.5833 6.77654C12.5833 10.6959 9.63622 12.4696 8.30788 13.0708L8.92642 14.4374C10.4063 13.7675 14.0833 11.6149 14.0833 6.77654H12.5833ZM7.69186 13.0708C6.36355 12.4696 3.41663 10.6959 3.41663 6.77653H1.91663C1.91663 11.6148 5.59343 13.7675 7.07332 14.4374L7.69186 13.0708ZM3.41663 6.77653V4.1333H1.91663V6.77653H3.41663ZM4.80009 2.75H11.2001V1.25H4.80009V2.75ZM3.41663 4.1333C3.41663 3.74756 3.41721 3.50337 3.4323 3.31867C3.44668 3.14274 3.47039 3.08778 3.48021 3.06852L2.1437 2.38753C2.00819 2.65349 1.95924 2.9278 1.93728 3.19652C1.91604 3.45647 1.91663 3.77231 1.91663 4.1333H3.41663ZM4.80009 1.25C4.43909 1.25 4.12318 1.24942 3.86316 1.27065C3.59444 1.2926 3.32 1.34153 3.054 1.47707L3.73498 2.81358C3.7542 2.80379 3.80919 2.78006 3.98527 2.76568C4.17007 2.75058 4.41435 2.75 4.80009 2.75V1.25ZM3.48021 3.06852C3.53623 2.95857 3.62542 2.86941 3.73498 2.81358L3.054 1.47707C2.6618 1.6769 2.34333 1.99572 2.1437 2.38753L3.48021 3.06852ZM8.30788 13.0708C8.22569 13.108 8.20132 13.1185 8.17981 13.1261C8.16861 13.13 8.14993 13.1362 8.09897 13.145L8.35277 14.6233C8.61837 14.5777 8.76303 14.5113 8.92642 14.4374L8.30788 13.0708ZM7.07332 14.4374C7.23779 14.5118 7.38265 14.5778 7.64764 14.6233L7.90144 13.145C7.85025 13.1362 7.8312 13.1299 7.81962 13.1259C7.79811 13.1183 7.77337 13.1077 7.69186 13.0708L7.07332 14.4374ZM8.09897 13.145C8.11155 13.1428 8.10781 13.1442 8.08167 13.1457C8.05931 13.147 8.03094 13.1478 8.0002 13.1478C7.96947 13.1478 7.9411 13.147 7.91874 13.1457C7.8926 13.1442 7.88886 13.1428 7.90144 13.145L7.64764 14.6233C7.76488 14.6435 7.90225 14.6478 8.0002 14.6478C8.09816 14.6478 8.23552 14.6435 8.35277 14.6233L8.09897 13.145ZM14.0833 4.1333C14.0833 3.77239 14.0839 3.45654 14.0627 3.19664C14.0408 2.92796 13.9919 2.65357 13.8564 2.38753L12.5199 3.06852C12.5296 3.0877 12.5533 3.14258 12.5677 3.31855C12.5827 3.5033 12.5833 3.74748 12.5833 4.1333H14.0833ZM11.2001 2.75C11.5858 2.75 11.83 2.75058 12.0146 2.76567C12.1904 2.78004 12.2454 2.80375 12.2647 2.81358L12.9456 1.47707C12.6797 1.34158 12.4055 1.29262 12.1368 1.27066C11.8769 1.24942 11.5611 1.25 11.2001 1.25V2.75ZM13.8564 2.38753C13.6565 1.99522 13.3373 1.67665 12.9456 1.47707L12.2647 2.81358C12.3747 2.86966 12.4641 2.95907 12.5199 3.06852L13.8564 2.38753Z" fill="white" fill-opacity="0.75"/>
</svg>
