<svg width="16" height="16" viewBox="0 0 16 16" fill="none" xmlns="http://www.w3.org/2000/svg">
<path d="M13.3333 8.1333H14.0833H13.3333ZM13.3333 11.8666H12.5833H13.3333ZM11.2001 14V14.75V14ZM4.80009 14V13.25V14ZM13.1881 13.272L13.8564 13.6125L13.1881 13.272ZM12.6051 13.8547L12.9456 14.5229L12.6051 13.8547ZM12.6051 6.14532L12.9456 5.47707L12.6051 6.14532ZM13.1881 6.72803L13.8564 6.38753L13.1881 6.72803ZM2.81195 6.72803L2.1437 6.38753L2.1437 6.38754L2.81195 6.72803ZM3.39449 6.14532L3.73498 6.81358H3.73498L3.39449 6.14532ZM2.81195 13.272L3.48021 12.9315H3.48021L2.81195 13.272ZM3.39449 13.8547L3.054 14.5229L3.39449 13.8547ZM9.99996 4H10.75H9.99996ZM9.99996 5.84615H9.24996H9.99996ZM9.84591 6V6.75V6ZM6.1536 6V5.25L6.1536 5.25L6.1536 6ZM3.41663 11.8666V8.1333H1.91663V11.8666H3.41663ZM4.80009 6.75H11.2001V5.25H4.80009V6.75ZM12.5833 8.1333V11.8666H14.0833V8.1333H12.5833ZM11.2001 13.25H4.80009V14.75H11.2001V13.25ZM12.5833 11.8666C12.5833 12.2525 12.5827 12.4967 12.5677 12.6814C12.5533 12.8575 12.5296 12.9124 12.5199 12.9315L13.8564 13.6125C13.9919 13.3465 14.0408 13.072 14.0627 12.8033C14.0839 12.5434 14.0833 12.2276 14.0833 11.8666H12.5833ZM11.2001 14.75C11.5611 14.75 11.8769 14.7506 12.1368 14.7293C12.4055 14.7074 12.6797 14.6584 12.9456 14.5229L12.2647 13.1864C12.2453 13.1962 12.1904 13.2199 12.0146 13.2343C11.83 13.2494 11.5858 13.25 11.2001 13.25V14.75ZM12.5199 12.9315C12.4641 13.0409 12.3748 13.1303 12.2647 13.1864L12.9456 14.5229C13.3373 14.3234 13.6564 14.0049 13.8564 13.6125L12.5199 12.9315ZM11.2001 6.75C11.5858 6.75 11.83 6.75058 12.0146 6.76567C12.1904 6.78004 12.2454 6.80375 12.2647 6.81358L12.9456 5.47707C12.6797 5.34158 12.4055 5.29262 12.1368 5.27066C11.8769 5.24942 11.5611 5.25 11.2001 5.25V6.75ZM14.0833 8.1333C14.0833 7.77239 14.0839 7.45654 14.0627 7.19664C14.0408 6.92796 13.9919 6.65357 13.8564 6.38753L12.5199 7.06852C12.5296 7.0877 12.5533 7.14258 12.5677 7.31855C12.5827 7.5033 12.5833 7.74748 12.5833 8.1333L14.0833 8.1333ZM12.2647 6.81358C12.3747 6.86966 12.4641 6.95907 12.5199 7.06852L13.8564 6.38753C13.6565 5.99522 13.3373 5.67665 12.9456 5.47707L12.2647 6.81358ZM3.41663 8.1333C3.41663 7.74756 3.41721 7.50337 3.4323 7.31867C3.44668 7.14274 3.47039 7.08778 3.48021 7.06852L2.1437 6.38754C2.00819 6.65349 1.95924 6.9278 1.93728 7.19652C1.91604 7.45647 1.91663 7.77231 1.91663 8.1333H3.41663ZM4.80009 5.25C4.43909 5.25 4.12318 5.24942 3.86316 5.27065C3.59444 5.2926 3.32 5.34153 3.054 5.47707L3.73498 6.81358C3.7542 6.80379 3.80919 6.78006 3.98527 6.76568C4.17007 6.75058 4.41435 6.75 4.80009 6.75V5.25ZM3.48021 7.06852C3.53623 6.95857 3.62542 6.86941 3.73498 6.81358L3.054 5.47707C2.6618 5.6769 2.34333 5.99572 2.1437 6.38753L3.48021 7.06852ZM1.91663 11.8666C1.91663 12.2276 1.91604 12.5435 1.93728 12.8035C1.95924 13.0722 2.00818 13.3465 2.1437 13.6125L3.48021 12.9315C3.4704 12.9123 3.44668 12.8573 3.4323 12.6813C3.41721 12.4966 3.41663 12.2524 3.41663 11.8666H1.91663ZM4.80009 13.25C4.41436 13.25 4.17008 13.2494 3.98529 13.2343C3.80921 13.2199 3.75421 13.1962 3.73498 13.1864L3.054 14.5229C3.31999 14.6584 3.59442 14.7074 3.86315 14.7293C4.12317 14.7506 4.43908 14.75 4.80009 14.75V13.25ZM2.1437 13.6125C2.34337 14.0044 2.66188 14.3231 3.054 14.5229L3.73498 13.1864C3.62534 13.1305 3.53619 13.0414 3.48021 12.9315L2.1437 13.6125ZM6.74996 5.84615V4H5.24996V5.84615H6.74996ZM9.24996 4V5.84615H10.75V4H9.24996ZM9.84591 5.25H6.1536V6.75H9.84591V5.25ZM9.24996 5.84615C9.24996 5.51563 9.51794 5.25 9.84591 5.25V6.75C10.3438 6.75 10.75 6.34661 10.75 5.84615L9.24996 5.84615ZM7.99996 2.75C8.69031 2.75 9.24996 3.30964 9.24996 4L10.75 4C10.75 2.48122 9.51874 1.25 7.99996 1.25V2.75ZM6.74996 4C6.74996 3.30964 7.3096 2.75 7.99996 2.75V1.25C6.48118 1.25 5.24996 2.48122 5.24996 4H6.74996ZM5.24996 5.84615C5.24996 6.34406 5.65315 6.75 6.1536 6.75L6.1536 5.25C6.48412 5.25 6.74996 5.51818 6.74996 5.84615H5.24996Z" fill="white" fill-opacity="0.75"/>
</svg>
