<svg width="24" height="24" viewBox="0 0 24 24" fill="none" xmlns="http://www.w3.org/2000/svg">
<path d="M19.9838 8.71927L19.4976 9.59315L19.4976 9.59315L19.9838 8.71927ZM20.35 8.923L20.8361 8.04912L20.8361 8.04912L20.35 8.923ZM21.9945 11.7122L22.9945 11.7099L22.9945 11.7099L21.9945 11.7122ZM21.9958 12.2743L20.9958 12.2766L20.9958 12.2766L21.9958 12.2743ZM20.3468 15.0805L20.8315 15.9551L20.8315 15.9551L20.3468 15.0805ZM19.9852 15.2808L19.5005 14.4062L19.5005 14.4062L19.9852 15.2808ZM18.8343 17.2725L19.8342 17.2557L19.8342 17.2557L18.8343 17.2725ZM18.8415 17.6972L17.8416 17.714L17.8416 17.714L18.8415 17.6972ZM17.2483 20.5186L17.7502 21.3835L17.7502 21.3835L17.2483 20.5186ZM16.7606 20.8016L16.2586 19.9367L16.2586 19.9367L16.7606 20.8016ZM13.5073 20.7775L12.9926 21.6349L12.9926 21.6349L13.5073 20.7775ZM13.1512 20.5638L13.666 19.7064L13.666 19.7064L13.1512 20.5638ZM10.8493 20.5624L10.3356 19.7045L10.3356 19.7045L10.8493 20.5624ZM10.4955 20.7743L11.0092 21.6322L11.0092 21.6322L10.4955 20.7743ZM7.25383 20.8015L6.75455 21.6679L6.75455 21.6679L7.25383 20.8015ZM6.76013 20.517L7.25941 19.6506L7.25941 19.6506L6.76013 20.517ZM5.15856 17.6904L6.15842 17.7073L6.15842 17.7073L5.15856 17.6904ZM5.16544 17.2829L4.16559 17.266L4.16559 17.266L5.16544 17.2829ZM4.00811 15.276L3.52197 16.1499L3.52197 16.1499L4.00811 15.276ZM3.64977 15.0767L4.13592 14.2028L4.13592 14.2028L3.64977 15.0767ZM2.00554 12.2876L3.00554 12.2854L2.00554 12.2876ZM2.00427 11.7255L1.00427 11.7278L2.00427 11.7255ZM3.65319 8.91927L3.16848 8.0446L3.16848 8.0446L3.65319 8.91927ZM4.01476 8.7189L4.49947 9.59358L4.49947 9.59358L4.01476 8.7189ZM5.16522 6.7273L4.16536 6.74413L4.16536 6.74413L5.16522 6.7273ZM5.15807 6.30264L6.15793 6.28582L6.15793 6.28582L5.15807 6.30264ZM6.75134 3.48119L6.24937 2.6163L6.24937 2.6163L6.75134 3.48119ZM7.239 3.19815L7.74097 4.06304L7.74097 4.06304L7.239 3.19815ZM10.4925 3.2222L11.0073 2.36484L11.0073 2.36484L10.4925 3.2222ZM10.8486 3.43597L10.3339 4.29333L10.3339 4.29333L10.8486 3.43597ZM13.1503 3.43736L12.6365 2.5794L12.6365 2.5794L13.1503 3.43736ZM13.5041 3.2255L14.0178 4.08345L14.0178 4.08345L13.5041 3.2255ZM16.7455 3.19827L16.2462 4.06471L16.2462 4.06471L16.7455 3.19827ZM17.2393 3.48283L17.7386 2.6164L17.7386 2.6164L17.2393 3.48283ZM18.8414 6.30924L17.8415 6.29241L17.8415 6.29242L18.8414 6.30924ZM18.8343 6.72624L19.8342 6.74306L19.8342 6.74306L18.8343 6.72624ZM18.8331 6.85638L19.8329 6.8411L18.8331 6.85638ZM19.1338 7.88317L19.9998 7.38297L19.9998 7.38297L19.1338 7.88317ZM19.0697 7.77005L18.1882 8.24219L19.0697 7.77005ZM18.3459 4.23709L19.092 3.57129L19.092 3.57129L18.3459 4.23709ZM18.7626 4.97269L19.7171 4.67466L19.7171 4.67466L18.7626 4.97269ZM14.698 2.62772L14.917 3.60343L14.917 3.60343L14.698 2.62772ZM15.5414 2.62076L15.3387 3.60001L15.3387 3.60001L15.5414 2.62076ZM12.1303 3.75418L12.0982 2.7547L12.1303 3.75418ZM13.038 3.50316L13.5239 4.37715L13.038 3.50316ZM10.9607 3.50209L10.4738 4.37555L10.4738 4.37555L10.9607 3.50209ZM11.8705 3.75418L11.9026 2.7547L11.9026 2.7547L11.8705 3.75418ZM8.44683 2.61453L8.65129 3.59341L8.65129 3.59341L8.44683 2.61453ZM9.29382 2.62076L9.07489 3.5965L9.29382 2.62076ZM5.23664 4.97025L6.19148 5.26739L5.23664 4.97025ZM5.65124 4.23616L4.90367 3.57198L5.65124 4.23616ZM4.86608 7.88232L5.732 8.38251L5.732 8.38251L4.86608 7.88232ZM4.92929 7.77091L4.04799 7.29835L4.92929 7.77091ZM5.16655 6.85542L6.16644 6.87022L5.16655 6.85542ZM4.12613 8.65592L3.61399 7.79702L3.61399 7.79702L4.12613 8.65592ZM4.80114 7.99271L3.95149 7.46537L3.95149 7.46537L4.80114 7.99271ZM2.10269 10.3871L3.0526 10.6996L2.10269 10.3871ZM2.5321 9.65669L3.26742 10.3344L3.26742 10.3344L2.5321 9.65669ZM2.53649 14.3426L1.80132 15.0204L1.80132 15.0204L2.53649 14.3426ZM2.1087 13.617L1.15963 13.9321L1.15963 13.9321L2.1087 13.617ZM4.86784 16.1256L5.73572 15.6289L5.73572 15.6289L4.86784 16.1256ZM4.79772 16.0055L3.94741 16.5318L3.94741 16.5318L4.79772 16.0055ZM4.12914 15.3447L3.61328 16.2013L4.12914 15.3447ZM5.16657 17.1454L4.16671 17.1625L5.16657 17.1454ZM4.93528 16.2454L5.81951 15.7784L4.93528 16.2454ZM5.65417 19.7626L4.90803 20.4284L5.65417 19.7626ZM5.23713 19.027L6.1917 18.7291L6.1917 18.7291L5.23713 19.027ZM9.30163 21.372L9.52067 22.3477L9.52067 22.3477L9.30163 21.372ZM8.45828 21.379L8.25561 22.3583L8.45828 21.379ZM11.869 20.2456L11.837 19.2461L11.8369 19.2461L11.869 20.2456ZM10.9615 20.4966L11.4474 21.3706L11.4474 21.3706L10.9615 20.4966ZM13.0389 20.4976L13.5258 19.6241L13.0389 20.4976ZM12.1296 20.2456L12.1618 19.2461L12.1618 19.2461L12.1296 20.2456ZM15.5526 21.3852L15.7571 22.3641L15.7571 22.3641L15.5526 21.3852ZM14.7061 21.3789L14.9251 20.4031L14.9251 20.4031L14.7061 21.3789ZM18.7631 19.0295L19.7179 19.3267L19.7179 19.3267L18.7631 19.0295ZM18.3484 19.7636L19.096 20.4278L18.3484 19.7636ZM19.1334 16.1175L18.2675 15.6173L18.2675 15.6173L19.1334 16.1175ZM19.0702 16.2289L18.1889 15.7563L19.0702 16.2289ZM18.833 17.1444L17.8332 17.1296L18.833 17.1444ZM19.8734 15.3439L20.3856 16.2028L19.8734 15.3439ZM19.1986 16.007L20.0483 16.5343L20.0483 16.5343L19.1986 16.007ZM21.8968 13.6127L22.8468 13.9252L22.8468 13.9252L21.8968 13.6127ZM21.4677 14.3431L20.7324 13.6653L20.7324 13.6653L21.4677 14.3431ZM21.4631 9.65716L22.1982 8.97928L22.1982 8.97928L21.4631 9.65716ZM21.891 10.3827L20.9419 10.6978L20.9419 10.6978L21.891 10.3827ZM19.871 8.65531L20.3848 7.79744L20.3848 7.79744L19.871 8.65531ZM19.1999 7.99489L18.3505 8.52255L19.1999 7.99489ZM11.9999 14.9999C10.343 14.9999 8.99987 13.6568 8.99987 11.9999H6.99987C6.99987 14.7613 9.23845 16.9999 11.9999 16.9999V14.9999ZM8.99987 11.9999C8.99987 10.3431 10.343 8.99991 11.9999 8.99991V6.99991C9.23845 6.99991 6.99987 9.23849 6.99987 11.9999H8.99987ZM11.9999 8.99991C13.6567 8.99991 14.9999 10.3431 14.9999 11.9999H16.9999C16.9999 9.23849 14.7613 6.99991 11.9999 6.99991V8.99991ZM14.9999 11.9999C14.9999 13.6568 13.6567 14.9999 11.9999 14.9999V16.9999C14.7613 16.9999 16.9999 14.7613 16.9999 11.9999H14.9999ZM19.4976 9.59315L19.8638 9.79688L20.8361 8.04912L20.4699 7.84539L19.4976 9.59315ZM20.9945 11.7145L20.9958 12.2766L22.9958 12.272L22.9945 11.7099L20.9945 11.7145ZM19.8621 14.2058L19.5005 14.4062L20.4699 16.1555L20.8315 15.9551L19.8621 14.2058ZM17.8345 17.2893L17.8416 17.714L19.8413 17.6803L19.8342 17.2557L17.8345 17.2893ZM16.7463 19.6537L16.2586 19.9367L17.2626 21.6665L17.7502 21.3835L16.7463 19.6537ZM14.022 19.9202L13.666 19.7064L12.6365 21.4211L12.9926 21.6349L14.022 19.9202ZM10.3356 19.7045L9.98176 19.9163L11.0092 21.6322L11.363 21.4204L10.3356 19.7045ZM7.75312 19.9351L7.25941 19.6506L6.26084 21.3834L6.75455 21.6679L7.75312 19.9351ZM6.15842 17.7073L6.1653 17.2997L4.16559 17.266L4.15871 17.6735L6.15842 17.7073ZM4.49426 14.4022L4.13592 14.2028L3.16363 15.9506L3.52197 16.1499L4.49426 14.4022ZM3.00554 12.2854L3.00426 11.7232L1.00427 11.7278L1.00555 12.2899L3.00554 12.2854ZM4.13791 9.79394L4.49947 9.59358L3.53004 7.84423L3.16848 8.0446L4.13791 9.79394ZM6.16508 6.71048L6.15793 6.28582L4.15822 6.31947L4.16536 6.74413L6.16508 6.71048ZM7.25331 4.34607L7.74097 4.06304L6.73703 2.33327L6.24937 2.6163L7.25331 4.34607ZM9.97783 4.07956L10.3339 4.29333L11.3633 2.57861L11.0073 2.36484L9.97783 4.07956ZM13.664 4.29531L14.0178 4.08345L12.9904 2.36754L12.6365 2.5794L13.664 4.29531ZM16.2462 4.06471L16.74 4.34927L17.7386 2.6164L17.2448 2.33184L16.2462 4.06471ZM17.8415 6.29242L17.8345 6.70942L19.8342 6.74306L19.8412 6.32606L17.8415 6.29242ZM17.8345 6.70941C17.8336 6.76495 17.8324 6.81913 17.8332 6.87167L19.8329 6.8411C19.8328 6.82948 19.8329 6.81785 19.8342 6.74306L17.8345 6.70941ZM19.9998 7.38297C19.964 7.32115 19.9571 7.3088 19.9512 7.29792L18.1882 8.24219C18.2126 8.28788 18.2384 8.33226 18.2679 8.38336L19.9998 7.38297ZM17.8332 6.87167C17.8405 7.35016 17.9621 7.82008 18.1882 8.24219L19.9512 7.29792C19.876 7.15738 19.8354 7.00079 19.8329 6.8411L17.8332 6.87167ZM16.74 4.34927C17.3946 4.72651 17.5181 4.81136 17.5998 4.90289L19.092 3.57129C18.7446 3.18202 18.2729 2.92432 17.7386 2.6164L16.74 4.34927ZM19.8412 6.32606C19.8516 5.70872 19.8726 5.17251 19.7171 4.67466L17.808 5.27072C17.8446 5.38798 17.8542 5.53769 17.8415 6.29241L19.8412 6.32606ZM17.5998 4.90289C17.6944 5.00891 17.7654 5.13427 17.808 5.27072L19.7171 4.67466C19.5898 4.26694 19.377 3.89062 19.092 3.57129L17.5998 4.90289ZM14.0178 4.08345C14.6643 3.69633 14.7976 3.63023 14.917 3.60343L14.4789 1.652C13.9711 1.766 13.5179 2.05165 12.9904 2.36754L14.0178 4.08345ZM17.2448 2.33184C16.7112 2.02438 16.2535 1.74696 15.744 1.64151L15.3387 3.60001C15.4587 3.62485 15.594 3.68891 16.2462 4.06471L17.2448 2.33184ZM14.917 3.60343C15.0555 3.57235 15.1992 3.57114 15.3387 3.60001L15.744 1.64151C15.3266 1.55512 14.8953 1.55852 14.4789 1.652L14.917 3.60343ZM12.0004 4.75521C12.0594 4.75521 12.1106 4.75533 12.1624 4.75367L12.0982 2.7547C12.0859 2.75509 12.0718 2.75521 12.0004 2.75521V4.75521ZM12.6365 2.5794C12.5798 2.61339 12.5642 2.62237 12.552 2.62916L13.5239 4.37715C13.5677 4.35277 13.6089 4.32833 13.664 4.29531L12.6365 2.5794ZM12.1624 4.75367C12.6399 4.73834 13.1066 4.60917 13.5239 4.37715L12.552 2.62916C12.4128 2.70658 12.2572 2.74959 12.0982 2.7547L12.1624 4.75367ZM10.3339 4.29333C10.3838 4.32327 10.4282 4.35015 10.4738 4.37555L11.4476 2.62862C11.437 2.62271 11.4256 2.61599 11.3633 2.57861L10.3339 4.29333ZM12.0004 2.75521C11.9287 2.75521 11.915 2.7551 11.9026 2.7547L11.8383 4.75367C11.8902 4.75534 11.9412 4.75521 12.0004 4.75521V2.75521ZM10.4738 4.37555C10.8919 4.60862 11.36 4.73828 11.8383 4.75367L11.9026 2.7547C11.7431 2.74957 11.5869 2.70627 11.4476 2.62862L10.4738 4.37555ZM7.74097 4.06304C8.39519 3.68333 8.53089 3.61856 8.65129 3.59341L8.24237 1.63566C7.73096 1.74248 7.27186 2.02285 6.73703 2.33327L7.74097 4.06304ZM11.0073 2.36484C10.4774 2.04676 10.0226 1.75942 9.51274 1.64502L9.07489 3.5965C9.19481 3.62341 9.32894 3.69 9.97783 4.07956L11.0073 2.36484ZM8.65129 3.59341C8.79112 3.5642 8.93571 3.56527 9.07489 3.5965L9.51274 1.64502C9.09478 1.55124 8.66147 1.54812 8.24237 1.63566L8.65129 3.59341ZM6.15793 6.28582C6.14529 5.53439 6.15503 5.38451 6.19148 5.26739L4.28181 4.6731C4.12735 5.16945 4.14785 5.70343 4.15822 6.31947L6.15793 6.28582ZM6.24937 2.6163C5.71692 2.92532 5.249 3.18328 4.90367 3.57198L6.39881 4.90034C6.4802 4.80873 6.60287 4.72358 7.25331 4.34607L6.24937 2.6163ZM6.19148 5.26739C6.23366 5.13184 6.30434 5.00668 6.39881 4.90034L4.90367 3.57198C4.62062 3.89057 4.40853 4.26593 4.28181 4.6731L6.19148 5.26739ZM5.732 8.38251C5.76111 8.33212 5.78645 8.28847 5.81058 8.24347L4.04799 7.29835C4.04223 7.30908 4.03537 7.32118 4.00017 7.38213L5.732 8.38251ZM4.16536 6.74413C4.16663 6.81951 4.16683 6.82939 4.16666 6.84061L6.16644 6.87022C6.16721 6.81818 6.16597 6.76372 6.16508 6.71048L4.16536 6.74413ZM5.81058 8.24347C6.03717 7.8209 6.15934 7.35002 6.16644 6.87022L4.16666 6.84061C4.1643 7.0003 4.12363 7.15727 4.04799 7.29835L5.81058 8.24347ZM4.49947 9.59358C4.55289 9.56397 4.59506 9.54058 4.63828 9.51481L3.61399 7.79702C3.60284 7.80367 3.5892 7.81145 3.53004 7.84423L4.49947 9.59358ZM4.00017 7.38213C3.96517 7.44271 3.95798 7.45492 3.95149 7.46537L5.6508 8.52005C5.67768 8.47673 5.70263 8.43335 5.732 8.38251L4.00017 7.38213ZM4.63828 9.51481C5.05062 9.26894 5.39779 8.9277 5.6508 8.52005L3.95149 7.46537C3.86705 7.60142 3.75126 7.71516 3.61399 7.79702L4.63828 9.51481ZM3.00426 11.7232C3.00254 10.966 3.01418 10.8164 3.0526 10.6996L1.15278 10.0746C0.989401 10.5712 1.00286 11.1095 1.00427 11.7278L3.00426 11.7232ZM3.16848 8.0446C2.62736 8.34447 2.15101 8.59462 1.79677 8.97898L3.26742 10.3344C3.35081 10.2439 3.4759 10.1608 4.13791 9.79394L3.16848 8.0446ZM3.0526 10.6996C3.09709 10.5644 3.17033 10.4398 3.26742 10.3344L1.79677 8.97898C1.50672 9.29369 1.28681 9.6672 1.15278 10.0746L3.0526 10.6996ZM4.13592 14.2028C3.47871 13.8372 3.35455 13.7546 3.27167 13.6647L1.80132 15.0204C2.15359 15.4025 2.62683 15.6519 3.16363 15.9506L4.13592 14.2028ZM1.00555 12.2899C1.00694 12.9037 0.995861 13.4388 1.15963 13.9321L3.05777 13.3019C3.01928 13.186 3.00725 13.0379 3.00554 12.2854L1.00555 12.2899ZM3.27167 13.6647C3.17536 13.5602 3.10247 13.4366 3.05777 13.3019L1.15963 13.9321C1.29386 14.3364 1.51265 14.7074 1.80132 15.0204L3.27167 13.6647ZM5.73572 15.6289C5.70431 15.574 5.67722 15.5264 5.64804 15.4793L3.94741 16.5318C3.95437 16.543 3.96198 16.5561 3.99996 16.6224L5.73572 15.6289ZM3.52197 16.1499C3.58948 16.1875 3.60213 16.1946 3.61328 16.2013L4.645 14.488C4.59733 14.4593 4.54871 14.4325 4.49426 14.4022L3.52197 16.1499ZM5.64804 15.4793C5.39741 15.0743 5.05396 14.7343 4.645 14.488L3.61328 16.2013C3.74894 16.283 3.86346 16.3962 3.94741 16.5318L5.64804 15.4793ZM6.1653 17.2997C6.16637 17.2362 6.16735 17.1829 6.16642 17.1284L4.16671 17.1625C4.16694 17.1758 4.16684 17.1916 4.16559 17.266L6.1653 17.2997ZM3.99996 16.6224C4.03969 16.6918 4.04536 16.7017 4.05105 16.7125L5.81951 15.7784C5.7935 15.7291 5.76452 15.6792 5.73572 15.6289L3.99996 16.6224ZM6.16642 17.1284C6.15839 16.6573 6.03947 16.1948 5.81951 15.7784L4.05105 16.7125C4.12443 16.8514 4.16404 17.0056 4.16671 17.1625L6.16642 17.1284ZM7.25941 19.6506C6.60577 19.2739 6.48217 19.1886 6.40031 19.0968L4.90803 20.4284C5.25522 20.8175 5.72543 21.0749 6.26084 21.3834L7.25941 19.6506ZM4.15871 17.6735C4.14829 18.2905 4.12711 18.8271 4.28257 19.325L6.1917 18.7291C6.15512 18.6119 6.14567 18.4625 6.15842 17.7073L4.15871 17.6735ZM6.40031 19.0968C6.30514 18.9902 6.23405 18.8647 6.1917 18.7291L4.28257 19.325C4.4101 19.7336 4.62362 20.1097 4.90803 20.4284L6.40031 19.0968ZM9.98176 19.9163C9.33532 20.3034 9.202 20.3695 9.08259 20.3963L9.52067 22.3477C10.0285 22.2337 10.4815 21.9482 11.0092 21.6322L9.98176 19.9163ZM6.75455 21.6679C7.28845 21.9756 7.74624 22.2528 8.25561 22.3583L8.66096 20.3998C8.54084 20.3749 8.40491 20.3107 7.75312 19.9351L6.75455 21.6679ZM9.08259 20.3963C8.94396 20.4274 8.80027 20.4286 8.66096 20.3998L8.25561 22.3583C8.67319 22.4447 9.10442 22.4411 9.52067 22.3477L9.08259 20.3963ZM11.9989 19.2445C11.9399 19.2445 11.8887 19.2444 11.837 19.2461L11.9011 21.2451C11.9134 21.2447 11.9275 21.2445 11.9989 21.2445V19.2445ZM11.363 21.4204C11.421 21.3857 11.4356 21.3772 11.4474 21.3706L10.4756 19.6226C10.4313 19.6472 10.3896 19.6721 10.3356 19.7045L11.363 21.4204ZM11.8369 19.2461C11.3593 19.2614 10.8928 19.3907 10.4756 19.6226L11.4474 21.3706C11.5868 21.2931 11.7422 21.2502 11.9011 21.2451L11.8369 19.2461ZM13.666 19.7064C13.6142 19.6753 13.5709 19.6493 13.5258 19.6241L12.552 21.3711C12.5631 21.3772 12.5762 21.3849 12.6365 21.4211L13.666 19.7064ZM11.9989 21.2445C12.0706 21.2445 12.0851 21.2447 12.0975 21.2451L12.1618 19.2461C12.1098 19.2444 12.0581 19.2445 11.9989 19.2445V21.2445ZM13.5258 19.6241C13.1078 19.3911 12.6402 19.2615 12.1618 19.2461L12.0975 21.2451C12.2569 21.2502 12.4126 21.2934 12.552 21.3711L13.5258 19.6241ZM16.2586 19.9367C15.6046 20.3163 15.4686 20.3812 15.3481 20.4064L15.7571 22.3641C16.2684 22.2573 16.7276 21.977 17.2626 21.6665L16.2586 19.9367ZM12.9926 21.6349C13.5227 21.9531 13.9774 22.2402 14.4872 22.3546L14.9251 20.4031C14.8051 20.3762 14.6707 20.3096 14.022 19.9202L12.9926 21.6349ZM15.3481 20.4064C15.2086 20.4355 15.0646 20.4344 14.9251 20.4031L14.4872 22.3546C14.9048 22.4483 15.3376 22.4517 15.7571 22.3641L15.3481 20.4064ZM17.8416 17.714C17.8543 18.4658 17.8446 18.6153 17.8082 18.7324L19.7179 19.3267C19.8724 18.8302 19.8517 18.296 19.8413 17.6803L17.8416 17.714ZM17.7502 21.3835C18.2827 21.0745 18.7507 20.8165 19.096 20.4278L17.6009 19.0994C17.5195 19.191 17.3968 19.2762 16.7463 19.6537L17.7502 21.3835ZM17.8082 18.7324C17.7661 18.8679 17.6954 18.993 17.6009 19.0994L19.096 20.4278C19.379 20.1092 19.5912 19.7339 19.7179 19.3267L17.8082 18.7324ZM18.2675 15.6173C18.2384 15.6676 18.213 15.7113 18.1889 15.7563L19.9515 16.7014C19.9572 16.6907 19.9641 16.6786 19.9993 16.6177L18.2675 15.6173ZM19.8342 17.2557C19.833 17.1813 19.8328 17.1706 19.8329 17.1592L17.8332 17.1296C17.8324 17.1815 17.8336 17.235 17.8345 17.2893L19.8342 17.2557ZM18.1889 15.7563C17.9622 16.1792 17.8403 16.6501 17.8332 17.1296L19.8329 17.1592C19.8353 16.9992 19.876 16.8422 19.9515 16.7014L18.1889 15.7563ZM19.5005 14.4062C19.4504 14.4339 19.4053 14.4587 19.3613 14.485L20.3856 16.2028C20.3958 16.1967 20.4075 16.1901 20.4699 16.1555L19.5005 14.4062ZM19.9993 16.6177C20.0316 16.5618 20.0409 16.5463 20.0483 16.5343L18.349 15.4797C18.323 15.5214 18.2996 15.5617 18.2675 15.6173L19.9993 16.6177ZM19.3613 14.485C18.9488 14.731 18.6019 15.0721 18.349 15.4797L20.0483 16.5343C20.1328 16.3981 20.2484 16.2846 20.3856 16.2028L19.3613 14.485ZM20.9958 12.2766C20.9975 13.0325 20.9855 13.1831 20.9469 13.3002L22.8468 13.9252C23.01 13.4289 22.9972 12.8917 22.9958 12.272L20.9958 12.2766ZM20.8315 15.9551C21.3728 15.6552 21.8488 15.4051 22.203 15.0208L20.7324 13.6653C20.649 13.7558 20.5239 13.8391 19.8621 14.2058L20.8315 15.9551ZM20.9469 13.3002C20.9023 13.4359 20.8291 13.5604 20.7324 13.6653L22.203 15.0208C22.4935 14.7057 22.7129 14.3321 22.8468 13.9252L20.9469 13.3002ZM19.8638 9.79688C20.5208 10.1623 20.6449 10.2451 20.7279 10.335L22.1982 8.97928C21.846 8.59729 21.3732 8.34791 20.8361 8.04912L19.8638 9.79688ZM22.9945 11.7099C22.9931 11.0952 23.0038 10.5608 22.8401 10.0677L20.9419 10.6978C20.9805 10.8139 20.9928 10.9629 20.9945 11.7145L22.9945 11.7099ZM20.7279 10.335C20.8244 10.4397 20.8973 10.5634 20.9419 10.6978L22.8401 10.0677C22.7057 9.66307 22.4867 9.29216 22.1982 8.97928L20.7279 10.335ZM20.4699 7.84539C20.4085 7.81125 20.3956 7.80391 20.3848 7.79744L19.3571 9.51317C19.4012 9.53961 19.4453 9.56402 19.4976 9.59315L20.4699 7.84539ZM18.2679 8.38336C18.3011 8.44079 18.3245 8.48076 18.3505 8.52255L20.0494 7.46722C20.0415 7.4546 20.0317 7.43833 19.9998 7.38297L18.2679 8.38336ZM20.3848 7.79744C20.2485 7.71574 20.1334 7.60258 20.0494 7.46722L18.3505 8.52255C18.6023 8.92801 18.9473 9.2677 19.3571 9.51317L20.3848 7.79744Z" fill="white"/>
</svg>
