<svg width="16" height="16" viewBox="0 0 16 16" fill="none" xmlns="http://www.w3.org/2000/svg">
<path d="M2.39126 9.18591C3.57755 10.3653 5.64642 12 8.00018 12C10.354 12 12.4226 10.3653 13.6089 9.18591C13.9216 8.87501 14.0788 8.71881 14.1784 8.41349C14.2494 8.1956 14.2494 7.80439 14.1784 7.5865C14.0788 7.28117 13.9217 7.12502 13.6089 6.81407C12.4226 5.63472 10.354 4 8.00019 4C5.64642 4 3.57755 5.63472 2.39126 6.81407C2.07815 7.12535 1.92158 7.281 1.82193 7.5865C1.75085 7.80439 1.75085 8.1956 1.82193 8.41349C1.92158 8.71898 2.07818 8.87467 2.39126 9.18591Z" stroke="black" stroke-width="1.25" stroke-linecap="round" stroke-linejoin="round"/>
<path d="M6.66664 7.99999C6.66664 8.73637 7.26359 9.33332 7.99997 9.33332C8.73635 9.33332 9.33331 8.73637 9.33331 7.99999C9.33331 7.26361 8.73635 6.66666 7.99997 6.66666C7.26359 6.66666 6.66664 7.26361 6.66664 7.99999Z" stroke="black" stroke-width="1.25" stroke-linecap="round" stroke-linejoin="round"/>
</svg>
