<svg width="16" height="17" viewBox="0 0 16 17" fill="none" xmlns="http://www.w3.org/2000/svg">
<path d="M2.39128 9.73743L2.83192 9.29419L2.39128 9.73743ZM2.39128 7.36559L1.95063 6.92235L1.95063 6.92235L2.39128 7.36559ZM13.6089 7.36559L13.1683 7.80882L13.1683 7.80882L13.6089 7.36559ZM13.6089 9.73743L14.0496 10.1807L13.6089 9.73743ZM14.1784 8.13802L14.7726 7.94419L14.7726 7.94419L14.1784 8.13802ZM14.1784 8.96501L14.7726 9.15884L14.7726 9.15884L14.1784 8.96501ZM1.82194 8.96501L1.22776 9.15884L1.22776 9.15884L1.82194 8.96501ZM1.82194 8.13802L2.41612 8.33185L2.41612 8.33185L1.82194 8.13802ZM8.0002 11.9265C5.91236 11.9265 4.00035 10.4558 2.83192 9.29419L1.95063 10.1807C3.15478 11.3778 5.38051 13.1765 8.0002 13.1765V11.9265ZM2.83192 7.80882C4.00035 6.64723 5.91236 5.17651 8.0002 5.17651V3.92651C5.38051 3.92651 3.15478 5.72524 1.95063 6.92235L2.83192 7.80882ZM8.0002 5.17651C10.088 5.17651 11.9998 6.64721 13.1683 7.80882L14.0496 6.92235C12.8454 5.72526 10.6199 3.92651 8.0002 3.92651V5.17651ZM13.1683 9.29419C11.9998 10.4558 10.088 11.9265 8.0002 11.9265V13.1765C10.6199 13.1765 12.8454 11.3778 14.0496 10.1807L13.1683 9.29419ZM13.1683 7.80882C13.495 8.13363 13.538 8.1904 13.5842 8.33185L14.7726 7.94419C14.6194 7.47463 14.3491 7.22009 14.0496 6.92235L13.1683 7.80882ZM14.0496 10.1807C14.3491 9.88293 14.6194 9.6284 14.7726 9.15884L13.5842 8.77117C13.538 8.91262 13.495 8.96938 13.1683 9.29419L14.0496 10.1807ZM13.5842 8.33185C13.5916 8.35469 13.6067 8.43465 13.6067 8.55151C13.6067 8.66837 13.5916 8.74834 13.5842 8.77117L14.7726 9.15884C14.8362 8.96379 14.8567 8.73921 14.8567 8.55151C14.8567 8.36382 14.8362 8.13924 14.7726 7.94419L13.5842 8.33185ZM2.83192 9.29419C2.50533 8.96951 2.46229 8.91268 2.41612 8.77117L1.22776 9.15884C1.38091 9.62833 1.65101 9.88279 1.95063 10.1807L2.83192 9.29419ZM1.95063 6.92235C1.651 7.22023 1.38091 7.4747 1.22776 7.94419L2.41612 8.33185C2.46229 8.19034 2.50534 8.1335 2.83192 7.80882L1.95063 6.92235ZM2.41612 8.77117C2.40867 8.74834 2.39363 8.66837 2.39363 8.55151C2.39363 8.43466 2.40867 8.35469 2.41612 8.33185L1.22776 7.94419C1.16413 8.13924 1.14363 8.36382 1.14363 8.55151C1.14363 8.73921 1.16413 8.96379 1.22776 9.15884L2.41612 8.77117ZM8 9.25985C7.6088 9.25985 7.29167 8.94272 7.29167 8.55151H6.04167C6.04167 9.63307 6.91844 10.5098 8 10.5098V9.25985ZM7.29167 8.55151C7.29167 8.16031 7.6088 7.84318 8 7.84318V6.59318C6.91844 6.59318 6.04167 7.46996 6.04167 8.55151H7.29167ZM8 7.84318C8.3912 7.84318 8.70833 8.16031 8.70833 8.55151H9.95833C9.95833 7.46996 9.08156 6.59318 8 6.59318V7.84318ZM8.70833 8.55151C8.70833 8.94272 8.3912 9.25985 8 9.25985V10.5098C9.08156 10.5098 9.95833 9.63307 9.95833 8.55151H8.70833Z" fill="black"/>
</svg>
