<svg width="151" height="71" viewBox="0 0 151 71" fill="none" xmlns="http://www.w3.org/2000/svg">
    <defs>
        <linearGradient id="paint0_linear_1_109" x1="23.444" y1="33.8719" x2="-2.08677" y2="34.9157" gradientUnits="userSpaceOnUse">
            <stop stop-color="white"/>
            <stop offset="1" stop-color="white"/>
        </linearGradient>
        <linearGradient id="paint1_linear_1_109" x1="53.0536" y1="34.0543" x2="20.9471" y2="35.7152" gradientUnits="userSpaceOnUse">
            <stop stop-color="white"/>
            <stop offset="1" stop-color="white"/>
        </linearGradient>
        <linearGradient id="paint2_linear_1_109" x1="79.4635" y1="34.0038" x2="51.0157" y2="35.3003" gradientUnits="userSpaceOnUse">
            <stop stop-color="white"/>
            <stop offset="1" stop-color="white"/>
        </linearGradient>
        <linearGradient id="paint3_linear_1_109" x1="108.775" y1="34.9865" x2="74.5891" y2="36.9503" gradientUnits="userSpaceOnUse">
            <stop stop-color="white"/>
            <stop offset="1" stop-color="white"/>
        </linearGradient>
        <linearGradient id="paint4_linear_1_109" x1="128.853" y1="34.9205" x2="106.47" y2="35.7608" gradientUnits="userSpaceOnUse">
            <stop stop-color="white"/>
            <stop offset="1" stop-color="white"/>
        </linearGradient>
        <linearGradient id="paint5_linear_1_109" x1="151.525" y1="34.9205" x2="127.944" y2="35.8533" gradientUnits="userSpaceOnUse">
            <stop stop-color="white"/>
            <stop offset="1" stop-color="white"/>
        </linearGradient>
        <linearGradient id="paint6_linear_1_109" x1="128.296" y1="41.6581" x2="126.95" y2="-3.74398" gradientUnits="userSpaceOnUse">
            <stop stop-color="white"/>
            <stop offset="1" stop-color="white"/>
        </linearGradient>
        <linearGradient id="paint7_linear_1_109" x1="128.296" y1="41.6581" x2="126.95" y2="-3.74398" gradientUnits="userSpaceOnUse">
            <stop stop-color="white"/>
            <stop offset="1" stop-color="white"/>
        </linearGradient>
        <linearGradient id="paint8_linear_1_109" x1="128.296" y1="41.6581" x2="126.95" y2="-3.74398" gradientUnits="userSpaceOnUse">
            <stop stop-color="white"/>
            <stop offset="1" stop-color="white"/>
        </linearGradient>
    </defs>

    <path d="M4.80039 69.341C2.82763 68.8793 1.24942 68.2858 0 67.4943L2.69611 61.3608C3.87977 62.0203 5.19495 62.6139 6.64164 63.0096C8.08834 63.4053 9.53503 63.6032 10.8502 63.6032C12.0339 63.6032 12.823 63.4713 13.349 63.2734C13.8751 63.0755 14.0724 62.6798 14.0724 62.2841C14.0724 61.7565 13.7436 61.3608 13.086 61.097C12.4284 60.8332 11.3763 60.5694 9.86382 60.2396C7.95682 59.8439 6.37861 59.3822 5.06343 58.9205C3.74825 58.4589 2.69611 57.6675 1.70973 56.6122C0.789106 55.557 0.263035 54.106 0.263035 52.3253C0.263035 50.7425 0.723347 49.3575 1.57821 48.0384C2.43308 46.7853 3.74825 45.7301 5.52374 45.0046C7.23347 44.2791 9.40351 43.8834 11.8366 43.8834C13.5463 43.8834 15.1903 44.0813 16.8343 44.411C18.4782 44.8068 19.9249 45.3344 21.1743 46.0598L18.6755 52.1275C16.2424 50.8744 13.9409 50.2808 11.7708 50.2808C9.60079 50.2808 8.54865 50.8084 8.54865 51.8637C8.54865 52.3913 8.87744 52.721 9.53503 52.9848C10.1926 53.2486 11.2448 53.5125 12.6915 53.7763C14.5985 54.106 16.1767 54.5677 17.4918 55.0294C18.807 55.491 19.9249 56.2165 20.9113 57.2717C21.8977 58.327 22.358 59.712 22.358 61.5586C22.358 63.1415 21.8977 64.5265 21.0428 65.8455C20.188 67.1646 18.8728 68.1539 17.0973 68.8793C15.3876 69.6048 13.2175 70.0005 10.7844 70.0005C8.74592 70.0005 6.77316 69.8027 4.80039 69.341Z" fill="url(#paint0_linear_1_109)"/>
    <path d="M30.3807 68.3517C28.2764 67.2305 26.5667 65.7136 25.383 63.7351C24.1994 61.7565 23.5418 59.5141 23.5418 57.0079C23.5418 54.5017 24.1336 52.2594 25.383 50.2808C26.5667 48.3022 28.2764 46.7194 30.3807 45.6641C32.485 44.5429 34.9181 44.0153 37.6142 44.0153C40.3103 44.0153 42.6776 44.5429 44.8476 45.6641C46.9519 46.7853 48.6617 48.3022 49.8453 50.2808C51.029 52.2594 51.6866 54.5017 51.6866 57.0079C51.6866 59.5141 51.0947 61.7565 49.8453 63.7351C48.6617 65.7136 46.9519 67.2965 44.8476 68.3517C42.7434 69.4729 40.3103 70.0005 37.6142 70.0005C34.9181 70.0005 32.485 69.4729 30.3807 68.3517ZM40.3761 62.416C41.2309 61.8884 41.8885 61.1629 42.4146 60.2396C42.9406 59.3163 43.1379 58.1951 43.1379 56.942C43.1379 55.6889 42.8749 54.5677 42.4146 53.6444C41.8885 52.721 41.2309 51.9955 40.3761 51.4679C39.5212 50.9403 38.6006 50.6765 37.5484 50.6765C36.4963 50.6765 35.5757 50.9403 34.7208 51.4679C33.8659 51.9955 33.2083 52.721 32.6823 53.6444C32.1562 54.5677 31.9589 55.6889 31.9589 56.942C31.9589 58.1951 32.222 59.3163 32.6823 60.2396C33.2083 61.1629 33.8659 61.8884 34.7208 62.416C35.5757 62.9436 36.4963 63.2074 37.5484 63.2074C38.6006 63.2074 39.5869 62.9436 40.3761 62.416Z" fill="url(#paint1_linear_1_109)"/>
    <path d="M60.0377 68.3517C57.9335 67.2305 56.2895 65.7136 55.1058 63.7351C53.9222 61.7565 53.3303 59.5141 53.3303 57.0079C53.3303 54.5017 53.9222 52.2594 55.1058 50.2808C56.2895 48.3022 57.9335 46.7853 60.0377 45.6641C62.142 44.5429 64.5093 44.0153 67.1397 44.0153C69.5728 44.0153 71.677 44.411 73.5841 45.2684C75.4911 46.1258 77.0693 47.3789 78.2529 48.9617L72.9922 53.7103C71.4798 51.7317 69.6385 50.8084 67.5342 50.8084C65.7588 50.8084 64.3778 51.402 63.3257 52.5232C62.2735 53.6444 61.7475 55.1613 61.7475 57.0739C61.7475 58.9865 62.2735 60.5034 63.3257 61.6246C64.3778 62.7458 65.8245 63.3393 67.5342 63.3393C69.6385 63.3393 71.414 62.3501 72.9922 60.4374L78.2529 65.186C77.0035 66.7689 75.4911 68.022 73.5841 68.8793C71.677 69.7367 69.507 70.1324 67.1397 70.1324C64.5093 70.0005 62.142 69.4729 60.0377 68.3517Z" fill="url(#paint2_linear_1_109)"/>
    <path d="M96.9942 65.1201H87.5249L85.8809 69.4729H77.3323L88.1825 44.543H96.4023L107.318 69.407H98.6381L96.9942 65.1201ZM94.6268 59.0525L92.1938 52.787L89.7607 59.0525H94.6268Z" fill="url(#paint3_linear_1_109)"/>
    <path d="M108.305 44.477H116.656V62.8777H127.901V69.407H108.305V44.477V44.477Z" fill="url(#paint4_linear_1_109)"/>
    <path d="M150.522 63.0755V69.407H129.874V44.477H150.062V50.8084H138.094V53.7103H148.615V59.7779H138.094V63.0755H150.522V63.0755Z" fill="url(#paint5_linear_1_109)"/>
    <path d="M103.753 39.7284L84.622 28.76C84.622 37.5347 88.2781 39.7284 89.5641 39.7284H103.753Z" fill="url(#paint6_linear_1_109)"/>
    <path d="M63.9607 39.7284L39.7282 21.7454C39.7282 36.1318 51.831 39.7284 53.4599 39.7284H63.9607Z" fill="url(#paint7_linear_1_109)"/>
    <path d="M84.622 39.7284L51.143 0C51.143 20.3851 66.0332 39.7284 74.2275 39.7284H84.622Z" fill="url(#paint8_linear_1_109)"/>
</svg>
