<svg width="16" height="16" viewBox="0 0 16 16" fill="none" xmlns="http://www.w3.org/2000/svg">
<path d="M8.75 7.33333C8.75 6.91912 8.41421 6.58333 8 6.58333C7.58579 6.58333 7.25 6.91912 7.25 7.33333H8.75ZM7.25 10.6667C7.25 11.0809 7.58579 11.4167 8 11.4167C8.41421 11.4167 8.75 11.0809 8.75 10.6667H7.25ZM8.0332 5.33333H8.7832C8.7832 4.91912 8.44742 4.58333 8.0332 4.58333V5.33333ZM8.0332 5.4L8.03302 6.15C8.23196 6.15005 8.42278 6.07105 8.56347 5.93039C8.70416 5.78974 8.7832 5.59894 8.7832 5.4H8.0332ZM7.9668 5.39998H7.2168C7.2168 5.81413 7.55247 6.14988 7.96661 6.14998L7.9668 5.39998ZM7.9668 5.33333V4.58333C7.55258 4.58333 7.2168 4.91912 7.2168 5.33333H7.9668ZM8 13.25C5.10051 13.25 2.75 10.8995 2.75 8H1.25C1.25 11.7279 4.27208 14.75 8 14.75V13.25ZM2.75 8C2.75 5.10051 5.10051 2.75 8 2.75V1.25C4.27208 1.25 1.25 4.27208 1.25 8H2.75ZM8 2.75C10.8995 2.75 13.25 5.10051 13.25 8H14.75C14.75 4.27208 11.7279 1.25 8 1.25V2.75ZM13.25 8C13.25 10.8995 10.8995 13.25 8 13.25V14.75C11.7279 14.75 14.75 11.7279 14.75 8H13.25ZM7.25 7.33333V10.6667H8.75V7.33333H7.25ZM7.2832 5.33333V5.4H8.7832V5.33333H7.2832ZM8.03339 4.65L7.96698 4.64998L7.96661 6.14998L8.03302 6.15L8.03339 4.65ZM8.7168 5.39998V5.33333H7.2168V5.39998H8.7168ZM7.9668 6.08333H8.0332V4.58333H7.9668V6.08333Z" fill="white" fill-opacity="0.75"/>
</svg>
