<svg width="25" height="24" viewBox="0 0 25 24" fill="none" xmlns="http://www.w3.org/2000/svg">
<path d="M12.5498 15.45H13.5498C13.5498 14.8977 13.1021 14.45 12.5498 14.45V15.45ZM12.5498 15.55L12.5496 16.55C12.8148 16.55 13.0692 16.4447 13.2568 16.2571C13.4444 16.0696 13.5498 15.8152 13.5498 15.55H12.5498ZM12.4502 15.5499H11.4502C11.4502 16.1021 11.8978 16.5498 12.4499 16.5499L12.4502 15.5499ZM12.4502 15.45V14.45C11.8979 14.45 11.4502 14.8977 11.4502 15.45H12.4502ZM13.5 8.44995C13.5 7.89767 13.0523 7.44995 12.5 7.44995C11.9477 7.44995 11.5 7.89767 11.5 8.44995H13.5ZM11.5 12.45C11.5 13.0022 11.9477 13.45 12.5 13.45C13.0523 13.45 13.5 13.0022 13.5 12.45H11.5ZM12.5 20C8.08172 20 4.5 16.4183 4.5 12H2.5C2.5 17.5228 6.97715 22 12.5 22V20ZM4.5 12C4.5 7.58172 8.08172 4 12.5 4V2C6.97715 2 2.5 6.47715 2.5 12H4.5ZM12.5 4C16.9183 4 20.5 7.58172 20.5 12H22.5C22.5 6.47715 18.0228 2 12.5 2V4ZM20.5 12C20.5 16.4183 16.9183 20 12.5 20V22C18.0228 22 22.5 17.5228 22.5 12H20.5ZM11.5498 15.45V15.55H13.5498V15.45H11.5498ZM12.5501 14.55L12.4504 14.5499L12.4499 16.5499L12.5496 16.55L12.5501 14.55ZM13.4502 15.5499V15.45H11.4502V15.5499H13.4502ZM12.4502 16.45H12.5498V14.45H12.4502V16.45ZM11.5 8.44995V12.45H13.5V8.44995H11.5Z" fill="white"/>
</svg>
