<svg width="250" height="250" viewBox="0 0 250 250" fill="none" xmlns="http://www.w3.org/2000/svg">
    <defs>
        <clipPath id="clip0_280_218">
            <rect width="250" height="250" rx="125" fill="white"/>
        </clipPath>
    </defs>
    <g clip-path="url(#clip0_280_218)">
        <rect width="250" height="250" rx="125" fill="white"/>
        <circle cx="125" cy="125" r="125" fill="#FFBC7E"/>
        <path fill-rule="evenodd" clip-rule="evenodd" d="M193 103C182.569 97.7846 177.5 84.8333 177 76.5C173.047 71.9227 166.623 67.1471 160.5 63.3129C127 73 132 110.5 133.5 132C133.516 132.168 133.531 132.335 133.545 132.5C135.119 151.687 117.504 150.02 115.645 134C115.571 133.356 115.522 132.69 115.5 132C113.5 68 96 65 86 63.7459C85.0724 64.3935 84.2395 65.0122 83.5 65.5825C82.2246 66.5659 81.2269 67.4052 80.5 68C77.6371 70.3423 75.0251 73.253 72.5486 76.5C67.8562 82.6522 63.6501 90.0117 59.1451 97C54.4007 104.36 49.3247 111.307 43 116C66 126 51.5 153 38 144.5C43 150 41.402 151.329 51.5 169C55.5 176 68.7566 182.489 85 185.748C88.3985 186.429 91.9193 187.013 95.5 187.5C99.2079 188.004 102.012 188.091 105.854 188.416C117.599 189.409 129.7 189.592 140.5 189.138C144.358 188.976 148.05 188.733 151.5 188.416C155.13 188.082 158.493 187.668 161.5 187.181C161.867 187.122 162.229 187.061 162.585 187C164.366 186.692 166.012 186.358 167.5 186C197.508 178.776 213 151.5 215 144C192 154 187.5 120 209 120C204.2 117.6 196.333 107.667 193 103ZM141.5 106.5C152.5 98.5 188 123.5 175 144C165.253 159.37 122.023 120.665 141.5 106.5ZM105 108.5C96.651 95.0488 53.2951 129.855 66 150.5C74 163.5 118.604 130.417 105 108.5Z" fill="#DFE6EC"/>
        <path d="M141.5 106.5C152.5 98.5 188 123.5 175 144C165.253 159.37 122.023 120.665 141.5 106.5Z" fill="#434751"/>
        <path d="M105 108.5C96.651 95.0488 53.2951 129.855 66 150.5C74 163.5 118.604 130.417 105 108.5Z" fill="#434651"/>
        <path d="M115.645 134C117.504 150.02 135.119 151.687 133.545 132.5C123.181 128.1 117.294 131.667 115.645 134Z" fill="black"/>
        <path d="M146.5 56C144.799 55.5263 143.133 55.1073 141.5 54.7396C113.137 48.3505 95.0552 57.4242 86 63.7459C96 65 113.5 68 115.5 132C115.522 132.69 115.571 133.356 115.645 134C117.294 131.667 123.181 128.1 133.545 132.5C133.531 132.335 133.516 132.168 133.5 132C132 110.5 127 73 160.5 63.3129C154.851 59.7756 149.459 57.0397 146.5 56Z" fill="#434651"/>
        <path fill-rule="evenodd" clip-rule="evenodd" d="M224 163C197.5 163.855 200 178.5 206.5 185C208 187.5 216.5 193.5 208.5 202C200.531 210.467 194.5 212.5 197.5 220.5C198.218 222.188 199.019 223.682 199.891 225C211.163 242.028 234.362 229.533 245.5 223.5C255.333 217.167 268.9 207.9 260.5 191.5C252.1 175.1 239.5 162.5 224 163ZM220.5 171.03C225.5 172 225.957 181.811 218.5 180.53C212.5 179.5 214.5 170.5 220.5 171.03ZM237.5 175C242.5 175.97 242.957 185.781 235.5 184.5C229.5 183.47 231.5 174.47 237.5 175ZM215 207.5C221 208.03 220.023 218.206 213 217C205.977 215.794 209 206.97 215 207.5Z" fill="#F8D697"/>
        <path d="M237.5 175C242.5 175.97 242.957 185.781 235.5 184.5C229.5 183.47 231.5 174.47 237.5 175Z" fill="#EF4C28"/>
        <path d="M220.5 171.03C225.5 172 225.957 181.811 218.5 180.53C212.5 179.5 214.5 170.5 220.5 171.03Z" fill="#1801F4"/>
        <path d="M215 207.5C221 208.03 220.023 218.206 213 217C205.977 215.794 209 206.97 215 207.5Z" fill="#FFFE54"/>
        <path d="M206.5 185C199.3 187 173.057 187.333 162.585 187C162.229 187.061 161.867 187.122 161.5 187.181C160 206.5 167.5 233 179 237.5C186.27 233.833 200.626 226.2 199.891 225C199.019 223.682 198.218 222.188 197.5 220.5C194.5 212.5 200.531 210.467 208.5 202C216.5 193.5 208 187.5 206.5 185Z" fill="#C0C3D3"/>
        <path d="M78.5 239.5C89.5934 226.494 89.9864 200.867 85.6265 187.5C75 188 53.3237 173.36 51 172C42.9156 167.268 37.1641 167.512 33.5 170.31C31.571 171.784 30.2206 173.965 29.4129 176.5C27.8644 181.361 28.3108 187.525 30.5 192.5C35.226 203.241 66.8968 229.702 75.5 237.5C76.909 238.777 76.9479 241.5 76.9479 241.5C77.4449 240.798 77.9632 240.129 78.5 239.5Z" fill="#BFC3D1"/>
        <path d="M152.5 219.5C152.486 219.842 152.5 221 152 222.5C150.5 224.5 149.784 225 149 225C141 225 140.339 222.27 140.5 220.5V195C123.3 209.4 110.191 200.333 105.786 194C105.607 206.513 105.188 224.312 104.5 225C103.7 225.8 99.8333 226.333 98 226.5C96.8333 226.5 94.5 226.2 94.5 225C94.5 223.5 94 187.302 95.5 187.5C91.9193 187.013 88.3985 186.429 85 185.748C85.2184 186.305 85.4274 186.889 85.6265 187.5C89.9864 200.867 89.5934 226.494 78.5 239.5C77.9632 240.129 77.4449 240.798 76.9479 241.5C66.7063 255.976 65.4809 285.024 96 290C117.467 293.5 149 293 171.5 287C199.395 277.082 200 254.5 179 237.5C167.5 233 160 206.5 161.5 187.181C158.493 187.668 155.13 188.082 151.5 188.416C152.668 188.313 152.996 207.148 152.5 219.5Z" fill="#4D631A"/>
        <path d="M151.5 188.416C148.05 188.733 144.358 188.976 140.5 189.138V195V220.5C140.339 222.27 141 225 149 225C149.784 225 150.5 224.5 152 222.5C152.5 221 152.486 219.842 152.5 219.5C152.996 207.148 152.668 188.313 151.5 188.416Z" fill="#C89D6C"/>
        <path d="M98 226.5C99.8333 226.333 103.7 225.8 104.5 225C105.188 224.312 105.607 206.513 105.786 194C105.815 191.967 105.838 190.074 105.854 188.416C102.012 188.091 99.2079 188.004 95.5 187.5C94 187.302 94.5 223.5 94.5 225C94.5 226.2 96.8333 226.5 98 226.5Z" fill="#CA9E6C"/>
        <path d="M140.5 189.138C129.7 189.592 117.599 189.409 105.854 188.416C105.838 190.074 105.815 191.967 105.786 194C110.191 200.333 123.3 209.4 140.5 195V189.138Z" fill="#C0C4D2"/>
        <path d="M24.1549 151.585C23.0642 153 20.3784 152.883 19 152.5L29.4129 176.5C30.2206 173.965 31.571 171.784 33.5 170.31L24.1549 151.585Z" fill="#F7D696"/>
        <path d="M24.1549 151.585C30 144 16.5 133.5 15 134C13.5072 134.498 11.5 151 19 152.5C20.3784 152.883 23.0642 153 24.1549 151.585Z" fill="#50352C"/>
        <path d="M40 47.5C41.0967 55.1666 46.4611 75.8 59.1451 97C63.6501 90.0117 67.8562 82.6522 72.5486 76.5C58.9875 53.3 45.1991 47.5 40 47.5Z" fill="#8B9098"/>
        <path d="M80.5 68C81.2269 67.4052 82.2246 66.5659 83.5 65.5825L83.3694 65.4632C75.9759 58.7134 59.8821 44.0206 40 47.5C45.1991 47.5 58.9875 53.3 72.5486 76.5C75.0251 73.253 77.6371 70.3423 80.5 68Z" fill="#C3C4CF"/>
        <path d="M177 76.5C177.5 84.8333 182.569 97.7846 193 103C199 106 211 106.5 216.5 100.5C224.858 91.3819 225 67 213 50.5C201 34 177.5 20 156.5 18C135.5 16 126 35 141.5 47.5C154.167 49.6666 173.835 56.2457 177 76.5Z" fill="#C7503B"/>
        <path d="M141.5 53C160.3 56.6 173 70.1666 177 76.5C173.835 56.2457 154.167 49.6666 141.5 47.5V53Z" fill="#C7503B"/>
        <path d="M177 76.5C177.5 84.8333 182.569 97.7846 193 103M177 76.5C173 70.1666 160.3 56.6 141.5 53V47.5M177 76.5C173.835 56.2457 154.167 49.6666 141.5 47.5M177 76.5C173.047 71.9227 166.623 67.1471 160.5 63.3129M193 103C196.333 107.667 204.2 117.6 209 120C187.5 120 192 154 215 144C213 151.5 197.508 178.776 167.5 186C166.012 186.358 164.366 186.692 162.585 187M193 103C199 106 211 106.5 216.5 100.5C224.858 91.3819 225 67 213 50.5C201 34 177.5 20 156.5 18C135.5 16 126 35 141.5 47.5M140.5 189.138C144.358 188.976 148.05 188.733 151.5 188.416M140.5 189.138C129.7 189.592 117.599 189.409 105.854 188.416M140.5 189.138V195M151.5 188.416C152.668 188.313 152.996 207.148 152.5 219.5C152.486 219.842 152.5 221 152 222.5C150.5 224.5 149.784 225 149 225C141 225 140.339 222.27 140.5 220.5V195M151.5 188.416C155.13 188.082 158.493 187.668 161.5 187.181M105.854 188.416C102.012 188.091 99.2079 188.004 95.5 187.5M105.854 188.416C105.838 190.074 105.815 191.967 105.786 194M95.5 187.5C94 187.302 94.5 223.5 94.5 225C94.5 226.2 96.8333 226.5 98 226.5C99.8333 226.333 103.7 225.8 104.5 225C105.188 224.312 105.607 206.513 105.786 194M95.5 187.5C91.9193 187.013 88.3985 186.429 85 185.748M105.786 194C110.191 200.333 123.3 209.4 140.5 195M162.585 187C173.057 187.333 199.3 187 206.5 185M162.585 187C162.229 187.061 161.867 187.122 161.5 187.181M206.5 185C200 178.5 197.5 163.855 224 163C239.5 162.5 252.1 175.1 260.5 191.5C268.9 207.9 255.333 217.167 245.5 223.5C234.362 229.533 211.163 242.028 199.891 225M206.5 185C208 187.5 216.5 193.5 208.5 202C200.531 210.467 194.5 212.5 197.5 220.5C198.218 222.188 199.019 223.682 199.891 225M161.5 187.181C160 206.5 167.5 233 179 237.5M179 237.5C200 254.5 199.395 277.082 171.5 287C149 293 117.467 293.5 96 290C65.4809 285.024 66.7063 255.976 76.9479 241.5M179 237.5C186.27 233.833 200.626 226.2 199.891 225M85 185.748C68.7566 182.489 55.5 176 51.5 169C41.402 151.329 43 150 38 144.5C51.5 153 66 126 43 116C49.3247 111.307 54.4007 104.36 59.1451 97M85 185.748C85.2184 186.305 85.4274 186.889 85.6265 187.5M85.6265 187.5C89.9864 200.867 89.5934 226.494 78.5 239.5C77.9632 240.129 77.4449 240.798 76.9479 241.5M85.6265 187.5C75 188 53.3237 173.36 51 172C42.9156 167.268 37.1641 167.512 33.5 170.31M76.9479 241.5C76.9479 241.5 76.909 238.777 75.5 237.5C66.8968 229.702 35.226 203.241 30.5 192.5C28.3108 187.525 27.8644 181.361 29.4129 176.5M33.5 170.31C31.571 171.784 30.2206 173.965 29.4129 176.5M33.5 170.31L24.1549 151.585M24.1549 151.585C30 144 16.5 133.5 15 134C13.5072 134.498 11.5 151 19 152.5M24.1549 151.585C23.0642 153 20.3784 152.883 19 152.5M19 152.5L29.4129 176.5M83.5 65.5825C82.2246 66.5659 81.2269 67.4052 80.5 68C77.6371 70.3423 75.0251 73.253 72.5486 76.5M83.5 65.5825C84.2395 65.0122 85.0724 64.3935 86 63.7459M83.5 65.5825L83.3694 65.4632M83.5 65.5825C83.4568 65.543 83.4132 65.5032 83.3694 65.4632M40 47.5C41.0967 55.1666 46.4611 75.8 59.1451 97M40 47.5C45.1991 47.5 58.9875 53.3 72.5486 76.5M40 47.5C59.8821 44.0206 75.9759 58.7134 83.3694 65.4632M59.1451 97C63.6501 90.0117 67.8562 82.6522 72.5486 76.5M141 148C141.437 148.51 142.104 149.396 142.783 150.5M145 155.5C144.55 153.699 143.656 151.92 142.783 150.5M142.783 150.5C135.5 157 132 162 107 162.5M86 63.7459C95.0552 57.4242 113.137 48.3505 141.5 54.7396C143.133 55.1073 144.799 55.5263 146.5 56C149.459 57.0397 154.851 59.7756 160.5 63.3129M86 63.7459C96 65 113.5 68 115.5 132C115.522 132.69 115.571 133.356 115.645 134M160.5 63.3129C127 73 132 110.5 133.5 132C133.516 132.168 133.531 132.335 133.545 132.5M142.5 94.5C144.167 91.5 148.9 87 154.5 93M94 91.5C91.6667 90.5 85.3 89.8 78.5 95M115.645 134C117.504 150.02 135.119 151.687 133.545 132.5M115.645 134C117.294 131.667 123.181 128.1 133.545 132.5M220.5 171.03C225.5 172 225.957 181.811 218.5 180.53C212.5 179.5 214.5 170.5 220.5 171.03ZM237.5 175C242.5 175.97 242.957 185.781 235.5 184.5C229.5 183.47 231.5 174.47 237.5 175ZM215 207.5C221 208.03 220.023 218.206 213 217C205.977 215.794 209 206.97 215 207.5ZM141.5 106.5C152.5 98.5 188 123.5 175 144C165.253 159.37 122.023 120.665 141.5 106.5ZM105 108.5C96.651 95.0488 53.2951 129.855 66 150.5C74 163.5 118.604 130.417 105 108.5Z" stroke="black" stroke-width="3" stroke-linecap="round" stroke-linejoin="round"/>
        <path d="M16.5 141C15.2658 140.958 13.5 141.5 13.5 141.5L15.5 134L20.5 138L20 139C20 139 20.5 140.5 19.5 141C18.6095 141.445 17.4951 141.034 16.5 141Z" fill="#FFFE54"/>
        <path d="M149 131L161 125" stroke="black" stroke-width="3" stroke-linecap="round" stroke-linejoin="round"/>
        <ellipse cx="150.5" cy="121" rx="8.5" ry="9" fill="black"/>
        <path d="M147 120.5C146 119.5 148.17 115.902 150 117C152.5 118.5 148 121.5 147 120.5Z" fill="white"/>
        <path d="M96 130C96 130 91.8988 128.813 84 131" stroke="black" stroke-width="3" stroke-linecap="round" stroke-linejoin="round"/>
        <ellipse rx="8.5" ry="9" transform="matrix(-1 0 0 1 92.5 121)" fill="black"/>
        <path d="M88.927 120.154C89.6488 121.757 94.1019 119.71 93.5447 116.959C92.7837 113.202 88.2052 118.552 88.927 120.154Z" fill="white"/>
        <path d="M125.267 135.36C125.918 134.104 130.004 135.087 129.509 137.163C128.834 139.999 124.615 136.615 125.267 135.36Z" fill="white"/>
        <path d="M177 76.5C177.5 84.8333 182.569 97.7846 193 103M177 76.5C173 70.1666 160.3 56.6 141.5 53V47.5M177 76.5C173.835 56.2457 154.167 49.6666 141.5 47.5M177 76.5C173.047 71.9227 166.623 67.1471 160.5 63.3129M193 103C196.333 107.667 204.2 117.6 209 120C187.5 120 192 154 215 144C213 151.5 197.508 178.776 167.5 186C166.012 186.358 164.366 186.692 162.585 187M193 103C199 106 211 106.5 216.5 100.5C224.858 91.3819 225 67 213 50.5C201 34 177.5 20 156.5 18C135.5 16 126 35 141.5 47.5M140.5 189.138C144.358 188.976 148.05 188.733 151.5 188.416M140.5 189.138C129.7 189.592 117.599 189.409 105.854 188.416M140.5 189.138V195M151.5 188.416C152.668 188.313 152.996 207.148 152.5 219.5C152.486 219.842 152.5 221 152 222.5C150.5 224.5 149.784 225 149 225C141 225 140.339 222.27 140.5 220.5V195M151.5 188.416C155.13 188.082 158.493 187.668 161.5 187.181M105.854 188.416C102.012 188.091 99.2079 188.004 95.5 187.5M105.854 188.416C105.838 190.074 105.815 191.967 105.786 194M95.5 187.5C94 187.302 94.5 223.5 94.5 225C94.5 226.2 96.8333 226.5 98 226.5C99.8333 226.333 103.7 225.8 104.5 225C105.188 224.312 105.607 206.513 105.786 194M95.5 187.5C91.9193 187.013 88.3985 186.429 85 185.748M105.786 194C110.191 200.333 123.3 209.4 140.5 195M162.585 187C173.057 187.333 199.3 187 206.5 185M162.585 187C162.229 187.061 161.867 187.122 161.5 187.181M206.5 185C200 178.5 197.5 163.855 224 163C239.5 162.5 252.1 175.1 260.5 191.5C268.9 207.9 255.333 217.167 245.5 223.5C234.362 229.533 211.163 242.028 199.891 225M206.5 185C208 187.5 216.5 193.5 208.5 202C200.531 210.467 194.5 212.5 197.5 220.5C198.218 222.188 199.019 223.682 199.891 225M161.5 187.181C160 206.5 167.5 233 179 237.5M179 237.5C200 254.5 199.395 277.082 171.5 287C149 293 117.467 293.5 96 290C65.4809 285.024 66.7063 255.976 76.9479 241.5M179 237.5C186.27 233.833 200.626 226.2 199.891 225M85 185.748C68.7566 182.489 55.5 176 51.5 169C41.402 151.329 43 150 38 144.5C51.5 153 66 126 43 116C49.3247 111.307 54.4007 104.36 59.1451 97M85 185.748C85.2184 186.305 85.4274 186.889 85.6265 187.5M85.6265 187.5C89.9864 200.867 89.5934 226.494 78.5 239.5C77.9632 240.129 77.4449 240.798 76.9479 241.5M85.6265 187.5C75 188 53.3237 173.36 51 172C42.9156 167.268 37.1641 167.512 33.5 170.31M76.9479 241.5C76.9479 241.5 76.909 238.777 75.5 237.5C66.8968 229.702 35.226 203.241 30.5 192.5C28.3108 187.525 27.8644 181.361 29.4129 176.5M33.5 170.31C31.571 171.784 30.2206 173.965 29.4129 176.5M33.5 170.31L24.1549 151.585M24.1549 151.585C30 144 16.5 133.5 15 134C13.5072 134.498 11.5 151 19 152.5M24.1549 151.585C23.0642 153 20.3784 152.883 19 152.5M19 152.5L29.4129 176.5M83.5 65.5825C82.2246 66.5659 81.2269 67.4052 80.5 68C77.6371 70.3423 75.0251 73.253 72.5486 76.5M83.5 65.5825C84.2395 65.0122 85.0724 64.3935 86 63.7459M83.5 65.5825L83.3694 65.4632M83.5 65.5825C83.4568 65.543 83.4132 65.5032 83.3694 65.4632M40 47.5C41.0967 55.1666 46.4611 75.8 59.1451 97M40 47.5C45.1991 47.5 58.9875 53.3 72.5486 76.5M40 47.5C59.8821 44.0206 75.9759 58.7134 83.3694 65.4632M59.1451 97C63.6501 90.0117 67.8562 82.6522 72.5486 76.5M141 148C141.437 148.51 142.104 149.396 142.783 150.5M145 155.5C144.55 153.699 143.656 151.92 142.783 150.5M142.783 150.5C135.5 157 132 162 107 162.5M86 63.7459C95.0552 57.4242 113.137 48.3505 141.5 54.7396C143.133 55.1073 144.799 55.5263 146.5 56C149.459 57.0397 154.851 59.7756 160.5 63.3129M86 63.7459C96 65 113.5 68 115.5 132C115.522 132.69 115.571 133.356 115.645 134M160.5 63.3129C127 73 132 110.5 133.5 132C133.516 132.168 133.531 132.335 133.545 132.5M142.5 94.5C144.167 91.5 148.9 87 154.5 93M94 91.5C91.6667 90.5 85.3 89.8 78.5 95M115.645 134C117.504 150.02 135.119 151.687 133.545 132.5M115.645 134C117.294 131.667 123.181 128.1 133.545 132.5M220.5 171.03C225.5 172 225.957 181.811 218.5 180.53C212.5 179.5 214.5 170.5 220.5 171.03ZM237.5 175C242.5 175.97 242.957 185.781 235.5 184.5C229.5 183.47 231.5 174.47 237.5 175ZM215 207.5C221 208.03 220.023 218.206 213 217C205.977 215.794 209 206.97 215 207.5ZM141.5 106.5C152.5 98.5 188 123.5 175 144C165.253 159.37 122.023 120.665 141.5 106.5ZM105 108.5C96.651 95.0488 53.2951 129.855 66 150.5C74 163.5 118.604 130.417 105 108.5Z" stroke="black" stroke-width="3" stroke-linecap="round" stroke-linejoin="round"/>
    </g>
</svg>
