<svg width="250" height="250" viewBox="0 0 250 250" fill="none" xmlns="http://www.w3.org/2000/svg">\
    <defs>
        <clipPath id="clip0_280_261">
            <rect width="250" height="250" rx="125" fill="white"/>
        </clipPath>
    </defs>
    <g clip-path="url(#clip0_280_261)">
        <circle cx="125" cy="125" r="125" fill="#AFFF7E"/>
        <path fill-rule="evenodd" clip-rule="evenodd" d="M206.445 151.641C184.443 162.273 184.94 118.797 206.445 126.25C199.713 118.254 194.654 109.357 189.795 100.74L189.517 100.248C185.644 93.3796 181.88 86.7042 177.474 80.8227C173.987 76.1663 170.097 72.0077 165.434 68.6448C125.184 73.9964 126.484 104.714 127.295 123.873C127.399 126.32 127.495 128.579 127.495 130.572C127.495 156.547 108.874 150.042 109.899 130.572C109.936 129.867 109.987 129.045 110.045 128.124C111.013 112.602 113.764 68.5281 80.9821 66.5626C79.8676 67.0017 78.9369 67.4383 78.2159 67.8644C72.5911 71.1887 68.0071 75.0827 64.1079 79.3319C58.8565 85.0547 54.8474 91.4219 51.2114 97.9096C46.4342 106.434 42.301 115.166 36.8405 122.918C51.2842 127.046 52.3568 150.779 38.0658 153.686C41.4992 161.949 48.5509 169.345 57.9298 175.485C89.3898 196.083 147.034 202.552 182.134 180.216C192.749 173.461 201.302 164.071 206.445 151.641ZM126.31 180.216C130.474 183.505 143.861 182.361 139.63 170.79C131.516 148.595 111.987 154.266 103.79 164.049C101.095 167.265 99.6252 170.926 100.187 174.186C101.323 179.892 111.531 183.735 115.711 180.216C119.89 176.696 124.455 178.752 126.31 180.216Z" fill="#E0E5EC"/>
        <path fill-rule="evenodd" clip-rule="evenodd" d="M253.392 93.5708C243.427 108.081 223.789 106.624 214.757 106.857L220.023 152.793C235.386 141.996 263.007 149.514 271.049 155.108L265.28 127.486L248.497 129.409L261.434 115.948L253.392 93.5708ZM235.386 122.591C235.386 123.57 232.122 128.593 230.491 130.983H241.504C244.127 130.983 235.386 121.367 235.386 122.591Z" fill="#3A3E45"/>
        <path d="M230.491 130.983C232.122 128.593 235.386 123.57 235.386 122.591C235.386 121.367 244.127 130.983 241.504 130.983H230.491Z" fill="#E18C43"/>
        <path d="M248.497 129.409L265.28 127.486L261.434 115.948L248.497 129.409Z" fill="#E18C43"/>
        <path fill-rule="evenodd" clip-rule="evenodd" d="M200.437 293.054C201.194 280.87 202.254 249.936 200.437 223.668C200.294 221.61 200.095 219.628 199.845 217.724C198.031 203.888 193.58 194.079 189.281 187.832C186.62 183.965 184.017 181.463 182.134 180.216C147.034 202.552 89.3898 196.083 57.9298 175.485C56.306 178.658 54.0743 184.256 52.2578 191.362C49.9236 200.494 48.2749 212.117 49.4827 224.288C50.4717 234.254 51.9338 246.675 53.4111 258.535C55.1419 272.429 56.8935 285.552 57.9298 293.054H200.437ZM76.5318 229.38V262.128C98.0635 272.436 148.34 262.128 148.34 262.128C147.761 256.051 148.34 238.58 148.34 232.925C148.34 224.288 148.34 215.375 136.291 214.662C123.509 213.906 109.011 214.662 97.0231 214.662C83.6408 214.662 76.5318 223.877 76.5318 229.38Z" fill="#FFFFFE"/>
        <path d="M189.281 187.832C193.58 194.079 198.031 203.888 199.845 217.724C205.234 217.724 208.271 214.621 209.556 210.261C211.77 202.747 208.78 191.497 203.659 185.954C199.674 181.641 194.399 180.784 189.281 187.832Z" fill="#FFFFFE"/>
        <path d="M203.659 185.954C208.78 191.497 211.77 202.747 209.556 210.261C219.954 213.474 223.507 207.599 223.303 200.033C223.179 195.409 221.651 190.154 219.426 185.954C215.084 177.757 208.082 173.577 203.659 185.954Z" fill="#FFFEFF"/>
        <path d="M219.426 185.954C221.651 190.154 223.179 195.409 223.303 200.033C243.341 201.123 233.605 174.105 223.303 181.409C222 182.333 220.688 183.806 219.426 185.954Z" fill="#FEFFFF"/>
        <path d="M49.4827 224.288C48.2749 212.117 49.9236 200.494 52.2578 191.362C49.0245 189.184 41.0195 190.212 34.8658 211.75C28.7121 233.288 44.6653 251.914 53.4111 258.535C51.9338 246.675 50.4717 234.254 49.4827 224.288Z" fill="white"/>
        <path fill-rule="evenodd" clip-rule="evenodd" d="M76.5318 262.128V229.38C76.5318 223.877 83.6408 214.662 97.0231 214.662C109.011 214.662 123.509 213.906 136.291 214.662C148.34 215.375 148.34 224.288 148.34 232.925C148.34 238.58 147.761 256.051 148.34 262.128C148.34 262.128 98.0635 272.436 76.5318 262.128ZM97.617 235.339C86.5173 237.066 92.1082 251.701 92.9304 255.73C101.235 258.087 112.17 257.802 114.472 257.538C117.35 257.21 117.843 252.467 117.843 245.205C117.843 238.546 113.897 236.627 110.937 235.832C109.539 235.503 105.686 234.084 97.617 235.339ZM122.447 236.49C120.606 231.164 130.298 224.719 133.629 232.215C137.247 240.354 124.75 243.15 122.447 236.49Z" fill="#737373"/>
        <path d="M92.9304 255.73C92.1082 251.701 86.5173 237.066 97.617 235.339C105.686 234.084 109.539 235.503 110.937 235.832C113.897 236.627 117.843 238.546 117.843 245.205C117.843 252.467 117.35 257.21 114.472 257.538C112.17 257.802 101.235 258.087 92.9304 255.73Z" fill="#4B4B4A"/>
        <path d="M122.447 236.49C120.606 231.164 130.298 224.719 133.629 232.215C137.247 240.354 124.75 243.15 122.447 236.49Z" fill="#EB3324"/>
        <path d="M205.834 50.2267C187.424 50.0783 171.23 62.4436 165.434 68.6448C170.097 72.0077 173.987 76.1663 177.474 80.8227C181.14 68.4039 197.908 55.2509 205.834 50.2267Z" fill="#C4C4CF"/>
        <path d="M78.2159 67.8644C69.3775 60.5314 49.0281 47.3315 38.338 53.1962C46.8879 58.2163 64.0118 70.4716 64.1079 79.3319C68.0071 75.0827 72.5911 71.1887 78.2159 67.8644Z" fill="#C4C4CF"/>
        <path d="M189.795 100.74C204.059 87.5521 206.431 61.5695 205.834 50.2267C197.908 55.2509 181.14 68.4039 177.474 80.8227C181.88 86.7042 185.644 93.3796 189.517 100.248L189.795 100.74Z" fill="#8D9099"/>
        <path d="M38.338 53.1962C37.3004 62.8994 38.4225 85.4266 51.2114 97.9096C54.8474 91.4219 58.8565 85.0547 64.1079 79.3319C64.0118 70.4716 46.8879 58.2163 38.338 53.1962Z" fill="#8D9197"/>
        <path fill-rule="evenodd" clip-rule="evenodd" d="M80.9821 66.5626C95.4529 60.8612 140.919 54.7442 160.967 65.8128C162.534 66.678 164.02 67.6248 165.434 68.6448C125.184 73.9964 126.484 104.714 127.295 123.873C127.399 126.32 127.495 128.579 127.495 130.572C123.23 126.845 113.987 129.019 109.899 130.572C109.936 129.867 109.987 129.045 110.045 128.124C111.013 112.602 113.764 68.5281 80.9821 66.5626Z" fill="#434651"/>
        <path d="M111.344 165.336C106.323 165.336 111.875 159.278 120.768 159.278C129.66 159.278 135.007 165.584 131.006 165.584C126.79 165.584 116.056 165.336 111.344 165.336Z" fill="white"/>
        <path fill-rule="evenodd" clip-rule="evenodd" d="M139.63 170.79C143.861 182.361 130.474 183.505 126.31 180.216C124.455 178.752 119.89 176.696 115.711 180.216C111.531 183.735 101.323 179.892 100.187 174.186C99.6252 170.926 101.095 167.265 103.79 164.049C111.987 154.266 131.516 148.595 139.63 170.79ZM111.344 165.336C106.323 165.336 111.875 159.278 120.768 159.278C129.66 159.278 135.007 165.584 131.006 165.584C126.79 165.584 116.056 165.336 111.344 165.336Z" fill="black"/>
        <path d="M119.57 130.897C122.406 127.817 128.321 132.07 125.974 135.37C123.628 138.67 116.735 133.977 119.57 130.897Z" fill="white"/>
        <path fill-rule="evenodd" clip-rule="evenodd" d="M109.899 130.572C108.874 150.042 127.495 156.547 127.495 130.572C123.23 126.845 113.987 129.019 109.899 130.572ZM119.57 130.897C122.406 127.817 128.321 132.07 125.974 135.37C123.628 138.67 116.735 133.977 119.57 130.897Z" fill="black"/>
        <path d="M60.5261 155.313C52.3287 148.276 54.8453 131.899 66.1472 118.732C77.449 105.566 93.2563 100.596 101.454 107.633C109.651 114.67 107.135 131.047 95.8327 144.214C84.5308 157.38 68.7235 162.349 60.5261 155.313Z" fill="#434651"/>
        <path d="M100.222 123.195C100.222 128.545 95.6371 132.882 89.9812 132.882C84.3254 132.882 79.7404 128.545 79.7404 123.195C79.7404 117.845 84.3254 113.508 89.9812 113.508C95.6371 113.508 100.222 117.845 100.222 123.195Z" fill="black"/>
        <path d="M92.6665 116.803C96.2179 120.585 86.8792 127.424 83.2813 123.523C79.6833 119.623 89.115 113.021 92.6665 116.803Z" fill="white"/>
        <path d="M176.02 151.667C168.331 159.255 153.13 156.319 142.068 145.11C131.007 133.901 128.274 118.663 135.963 111.074C143.653 103.486 158.854 106.422 169.915 117.631C180.976 128.84 183.71 144.078 176.02 151.667Z" fill="#444651"/>
        <path d="M159.613 123.545C159.613 128.895 155.028 133.232 149.373 133.232C143.717 133.232 139.132 128.895 139.132 123.545C139.132 118.195 143.717 113.857 149.373 113.857C155.028 113.857 159.613 118.195 159.613 123.545Z" fill="black"/>
        <path d="M152.058 117.153C155.609 120.935 146.271 127.773 142.673 123.873C139.075 119.973 148.506 113.371 152.058 117.153Z" fill="white"/>
        <path d="M78.2159 67.8644C78.9369 67.4383 79.8676 67.0017 80.9821 66.5626M78.2159 67.8644C69.3775 60.5314 49.0281 47.3315 38.338 53.1962M78.2159 67.8644C72.5911 71.1887 68.0071 75.0827 64.1079 79.3319M182.134 180.216C192.749 173.461 201.302 164.071 206.445 151.641C184.443 162.273 184.94 118.797 206.445 126.25C199.713 118.254 194.654 109.357 189.795 100.74M182.134 180.216C147.034 202.552 89.3898 196.083 57.9298 175.485M182.134 180.216C184.017 181.463 186.62 183.965 189.281 187.832M57.9298 175.485C48.5509 169.345 41.4992 161.949 38.0658 153.686C52.3568 150.779 51.2842 127.046 36.8405 122.918C42.301 115.166 46.4342 106.434 51.2114 97.9096M57.9298 175.485C56.306 178.658 54.0743 184.256 52.2578 191.362M52.2578 191.362C49.9236 200.494 48.2749 212.117 49.4827 224.288C50.4717 234.254 51.9338 246.675 53.4111 258.535M52.2578 191.362C49.0245 189.184 41.0195 190.212 34.8658 211.75C28.7121 233.288 44.6653 251.914 53.4111 258.535M53.4111 258.535C55.1419 272.429 56.8935 285.552 57.9298 293.054H200.437C201.194 280.87 202.254 249.936 200.437 223.668C200.294 221.61 200.095 219.628 199.845 217.724M189.281 187.832C193.58 194.079 198.031 203.888 199.845 217.724M189.281 187.832C194.399 180.784 199.674 181.641 203.659 185.954M199.845 217.724C205.234 217.724 208.271 214.621 209.556 210.261M203.659 185.954C208.78 191.497 211.77 202.747 209.556 210.261M203.659 185.954C208.082 173.577 215.084 177.757 219.426 185.954M209.556 210.261C219.954 213.474 223.507 207.599 223.303 200.033M219.426 185.954C221.651 190.154 223.179 195.409 223.303 200.033M219.426 185.954C220.688 183.806 222 182.333 223.303 181.409M223.303 200.033C243.341 201.123 233.605 174.105 223.303 181.409M223.303 181.409L220.023 152.793M220.023 152.793L214.757 106.857C223.789 106.624 243.427 108.081 253.392 93.5708L261.434 115.948M220.023 152.793C235.386 141.996 263.007 149.514 271.049 155.108L265.28 127.486M230.491 130.983C232.122 128.593 235.386 123.57 235.386 122.591C235.386 121.367 244.127 130.983 241.504 130.983M230.491 130.983C233.288 130.983 239.407 130.983 241.504 130.983M230.491 130.983H241.504M265.28 127.486L248.497 129.409L261.434 115.948M265.28 127.486L261.434 115.948M76.5318 262.128C76.5318 246.386 76.5318 255.346 76.5318 229.38M76.5318 262.128C98.0635 272.436 148.34 262.128 148.34 262.128C147.761 256.051 148.34 238.58 148.34 232.925C148.34 224.288 148.34 215.375 136.291 214.662C123.509 213.906 109.011 214.662 97.0231 214.662C83.6408 214.662 76.5318 223.877 76.5318 229.38M76.5318 262.128V229.38M126.065 251.783C126.367 249.728 131.311 248.116 135.849 251.207M77.0356 98.9981C80.6921 96.4943 89.2927 92.9888 94.4435 98.9981M139.99 100.548C142.295 97.2494 150.554 90.795 158.471 97.5673M80.9821 66.5626C95.4529 60.8612 140.919 54.7442 160.967 65.8128C162.534 66.678 164.02 67.6248 165.434 68.6448M80.9821 66.5626C113.764 68.5281 111.013 112.602 110.045 128.124C109.987 129.045 109.936 129.867 109.899 130.572M109.899 130.572C108.874 150.042 127.495 156.547 127.495 130.572M109.899 130.572C113.987 129.019 123.23 126.845 127.495 130.572M127.495 130.572C127.495 128.579 127.399 126.32 127.295 123.873C126.484 104.714 125.184 73.9964 165.434 68.6448M165.434 68.6448C171.23 62.4436 187.424 50.0783 205.834 50.2267M165.434 68.6448C170.097 72.0077 173.987 76.1663 177.474 80.8227M38.338 53.1962C37.3004 62.8994 38.4225 85.4266 51.2114 97.9096M38.338 53.1962C46.8879 58.2163 64.0118 70.4716 64.1079 79.3319M51.2114 97.9096C54.8474 91.4219 58.8565 85.0547 64.1079 79.3319M205.834 50.2267C206.431 61.5695 204.059 87.5521 189.795 100.74M205.834 50.2267C197.908 55.2509 181.14 68.4039 177.474 80.8227M189.795 100.74L189.517 100.248M189.795 100.74C189.702 100.576 189.61 100.412 189.517 100.248M177.474 80.8227C181.88 86.7042 185.644 93.3796 189.517 100.248M92.9304 255.73C92.1082 251.701 86.5173 237.066 97.617 235.339C105.686 234.084 109.539 235.503 110.937 235.832C113.897 236.627 117.843 238.546 117.843 245.205C117.843 252.467 117.35 257.21 114.472 257.538C112.17 257.802 101.235 258.087 92.9304 255.73ZM122.447 236.49C120.606 231.164 130.298 224.719 133.629 232.215C137.247 240.354 124.75 243.15 122.447 236.49ZM100.187 174.186C101.323 179.892 111.531 183.735 115.711 180.216C119.89 176.696 124.455 178.752 126.31 180.216C130.474 183.505 143.861 182.361 139.63 170.79C131.516 148.595 111.987 154.266 103.79 164.049C101.095 167.265 99.6252 170.926 100.187 174.186ZM111.344 165.336C116.056 165.336 126.79 165.584 131.006 165.584C135.007 165.584 129.66 159.278 120.768 159.278C111.875 159.278 106.323 165.336 111.344 165.336ZM119.57 130.897C122.406 127.817 128.321 132.07 125.974 135.37C123.628 138.67 116.735 133.977 119.57 130.897ZM60.5261 155.313C52.3287 148.276 54.8453 131.899 66.1472 118.732C77.449 105.566 93.2563 100.596 101.454 107.633C109.651 114.67 107.135 131.047 95.8327 144.214C84.5308 157.38 68.7235 162.349 60.5261 155.313ZM100.222 123.195C100.222 128.545 95.6371 132.882 89.9812 132.882C84.3254 132.882 79.7404 128.545 79.7404 123.195C79.7404 117.845 84.3254 113.508 89.9812 113.508C95.6371 113.508 100.222 117.845 100.222 123.195ZM92.6665 116.803C96.2179 120.585 86.8792 127.424 83.2813 123.523C79.6833 119.623 89.115 113.021 92.6665 116.803ZM176.02 151.667C168.331 159.255 153.13 156.319 142.068 145.11C131.007 133.901 128.274 118.663 135.963 111.074C143.653 103.486 158.854 106.422 169.915 117.631C180.976 128.84 183.71 144.078 176.02 151.667ZM159.613 123.545C159.613 128.895 155.028 133.232 149.373 133.232C143.717 133.232 139.132 128.895 139.132 123.545C139.132 118.195 143.717 113.857 149.373 113.857C155.028 113.857 159.613 118.195 159.613 123.545ZM152.058 117.153C155.609 120.935 146.271 127.773 142.673 123.873C139.075 119.973 148.506 113.371 152.058 117.153Z" stroke="black" stroke-width="3" stroke-linecap="round" stroke-linejoin="round"/>
    </g>
</svg>
