<svg width="250" height="250" viewBox="0 0 250 250" fill="none" xmlns="http://www.w3.org/2000/svg">
    <defs>
        <clipPath id="clip0_357_771">
            <rect width="250" height="250" rx="125" fill="white"/>
        </clipPath>
    </defs>
    <g clip-path="url(#clip0_357_771)">
        <circle cx="125" cy="125" r="125" fill="#469990"/>
        <path d="M180.247 248.422C157.532 245.367 156.399 210.093 158.672 192.838C157.53 193.147 156.372 193.439 155.2 193.712C140.184 257.001 96.3432 238.189 89.5044 194.41C87.7217 194.094 85.9873 193.754 84.3089 193.394C88.4326 214.85 90.727 258.758 72.0443 269.532C113.846 277.698 180.247 275.638 180.247 248.422Z" fill="#3B3E49"/>
        <path d="M89.5044 194.41C96.3432 238.189 140.184 257.001 155.2 193.712C152.454 194.354 149.632 194.899 146.757 195.353C132.332 238.843 105.34 224.284 97.3309 195.61C94.6403 195.26 92.0242 194.858 89.5044 194.41Z" fill="#EE8A33"/>
        <path d="M211.129 148.546C219.18 148.389 225.408 156.038 238.517 154.456C240.179 153.236 241.812 151.822 243.402 150.201C244.294 149.292 245.173 148.318 246.037 147.277C253.293 138.526 255.825 129.776 255.099 121.904C251.111 119.04 221.996 141.561 207.793 140.23C208.603 143.019 209.7 145.802 211.129 148.546Z" fill="#D57530"/>
        <path d="M207.793 140.23C221.996 141.561 251.111 119.04 255.099 121.904C254.419 114.52 250.872 107.91 245.669 102.799C235.614 100.187 224.866 108.411 206.876 116.348C205.502 123.828 205.419 132.057 207.793 140.23Z" fill="#D57530"/>
        <path d="M216.595 92.2031C212.908 97.5887 208.724 106.291 206.876 116.348C224.866 108.411 235.614 100.187 245.669 102.799C238.197 95.4577 227.309 91.2092 216.595 92.2031Z" fill="#D57531"/>
        <path d="M216.595 92.2031C208.773 92.9286 201.044 96.4478 194.802 103.597C193.67 105.193 192.678 106.8 191.818 108.411C192.789 112.749 197.161 120.409 206.876 116.348C208.724 106.291 212.908 97.5887 216.595 92.2031Z" fill="#D57530"/>
        <path d="M187.737 131.118C189.511 135.306 196.005 142.991 207.793 140.23C205.419 132.057 205.502 123.828 206.876 116.348C197.161 120.409 192.789 112.749 191.818 108.411C187.697 116.134 186.616 123.958 187.737 131.118Z" fill="#D57530"/>
        <path d="M204.044 155.791C204.184 153.419 205.798 148.65 211.129 148.546C209.7 145.802 208.603 143.019 207.793 140.23C196.005 142.991 189.511 135.306 187.737 131.118C189.368 141.538 195.664 150.55 204.044 155.791Z" fill="#D57530"/>
        <path d="M211.129 148.546C213.294 152.704 216.223 156.773 220.077 160.642C226.197 160.717 232.546 158.84 238.517 154.456C225.408 156.038 219.18 148.389 211.129 148.546Z" fill="#D57530"/>
        <path d="M204.044 155.791C208.863 158.805 214.37 160.572 220.077 160.642C216.223 156.773 213.294 152.704 211.129 148.546C205.798 148.65 204.184 153.419 204.044 155.791Z" fill="#D57530"/>
        <path d="M180.247 248.422C169.952 236.467 162.978 210.895 165.794 190.59C163.503 191.426 161.124 192.174 158.672 192.838C156.399 210.093 157.532 245.367 180.247 248.422Z" fill="#EE8A33"/>
        <path d="M78.1844 191.92C82.6142 211.442 86.2204 253.999 65.2069 268.051C67.3965 268.576 69.6811 269.07 72.0443 269.532C90.727 258.758 88.4326 214.85 84.3089 193.394C82.1712 192.935 80.1244 192.442 78.1844 191.92Z" fill="#EE8A33"/>
        <path d="M66.8126 187.967C59.0715 202.196 42.6595 234.972 38.94 252.241C37.6039 258.445 48.7057 264.1 65.2069 268.051C86.2204 253.999 82.6142 211.442 78.1844 191.92C73.7807 190.735 69.9276 189.4 66.8126 187.967Z" fill="#BFC2D3"/>
        <path d="M97.3309 195.61C112.736 197.613 130.583 197.911 146.757 195.353C132.332 238.843 105.34 224.284 97.3309 195.61Z" fill="#C0C3D2"/>
        <path d="M190.708 164.568C178.748 171.899 169.228 184.739 165.794 190.59C162.978 210.895 169.952 236.467 180.247 248.422C183.16 244.732 187.969 238.523 193.224 230.996C197.753 224.509 202.613 217.045 206.876 209.372C210.355 203.11 213.436 196.71 215.615 190.59C216.457 188.225 217.085 186.004 217.518 183.927C219.278 175.496 217.846 169.421 214.618 165.612C209.386 159.439 199.437 159.218 190.708 164.568Z" fill="#C1C5D5"/>
        <path fill-rule="evenodd" clip-rule="evenodd" d="M35.6309 122.333C54.9603 117.821 58.9018 152.89 35.6309 150.364C47.6127 157.915 51.8901 181.1 66.8126 187.967C69.9276 189.4 73.7807 190.735 78.1844 191.92C80.1244 192.442 82.1712 192.935 84.3089 193.394C85.9873 193.754 87.7217 194.094 89.5044 194.41C92.0242 194.858 94.6403 195.26 97.3309 195.61C112.736 197.613 130.583 197.911 146.757 195.353C149.632 194.899 152.454 194.354 155.2 193.712C156.372 193.439 157.53 193.147 158.672 192.838C161.124 192.174 163.503 191.426 165.794 190.59C169.228 184.739 178.748 171.899 190.708 164.568C199.437 159.218 209.386 159.439 214.618 165.612C215.874 162.964 218.781 161.195 220.077 160.642C214.37 160.572 208.863 158.805 204.044 155.791C195.664 150.55 189.368 141.538 187.737 131.118C186.616 123.958 187.697 116.134 191.818 108.411C192.678 106.8 193.67 105.193 194.802 103.597C194.417 102.221 193.995 100.881 193.543 99.5772C190.586 91.0617 186.284 84.0933 181.819 78.65C175.923 71.4611 169.743 66.9324 166.003 65.0129C164.551 64.2891 163.11 63.6091 161.68 62.9712C123.206 71.9799 130.714 113.355 129.164 136.171C128.121 151.512 115.67 149.575 113.972 137.363C112.791 128.865 108.164 67.3629 91.7527 62.3906C89.1443 63.6667 86.7528 65.0333 84.5949 66.4328C79.2206 69.6663 74.3027 74.4238 69.7103 79.8459C64.8321 85.6054 60.3212 92.1147 56.0206 98.3439L55.7695 98.7076C48.7298 108.905 42.2476 118.295 35.6309 122.333ZM180.051 154.152C187.343 146.973 182.952 132.528 171.909 121.31C160.866 110.092 146.757 103.597 139.072 110.578C131.386 117.559 133.283 130.904 144.326 142.122C155.37 153.34 172.759 161.33 180.051 154.152ZM61.3977 154.456C51.0833 147.277 59.8268 130.426 70.8701 119.208C81.9134 107.99 95.153 101.233 102.445 108.411C109.737 115.589 104.91 130.904 93.8668 142.122C82.8236 153.34 70.8701 157.912 61.3977 154.456Z" fill="#E0E5EC"/>
        <path fill-rule="evenodd" clip-rule="evenodd" d="M171.909 121.31C182.952 132.528 187.343 146.973 180.051 154.152C172.759 161.33 155.37 153.34 144.326 142.122C133.283 130.904 131.386 117.559 139.072 110.578C146.757 103.597 160.866 110.092 171.909 121.31ZM150.786 133.178C146.092 133.178 142.099 129.81 142.099 124.839C142.099 119.869 146.092 116.709 150.786 116.709C155.48 116.709 160.168 120.425 160.168 125.395C160.168 130.366 155.48 133.178 150.786 133.178Z" fill="#434650"/>
        <path fill-rule="evenodd" clip-rule="evenodd" d="M70.8701 119.208C59.8268 130.426 51.0833 147.277 61.3977 154.456C70.8701 157.912 82.8236 153.34 93.8668 142.122C104.91 130.904 109.737 115.589 102.445 108.411C95.153 101.233 81.9134 107.99 70.8701 119.208ZM89.285 131.58C93.9794 131.58 98.0411 127.447 98.0411 122.477C98.0411 117.506 94.8747 114.525 90.1803 114.525C85.4859 114.525 81.6904 118.077 81.6904 123.047C81.6904 128.018 84.5906 131.58 89.285 131.58Z" fill="#3B3E49"/>
        <path fill-rule="evenodd" clip-rule="evenodd" d="M142.099 124.839C142.099 129.81 146.092 133.178 150.786 133.178C155.48 133.178 160.168 130.366 160.168 125.395C160.168 120.425 155.48 116.709 150.786 116.709C146.092 116.709 142.099 119.869 142.099 124.839ZM144.326 126.751C147.434 130.515 157.457 124.839 152.7 119.488C147.943 114.137 141.219 122.987 144.326 126.751Z" fill="black"/>
        <path fill-rule="evenodd" clip-rule="evenodd" d="M98.0411 122.477C98.0411 127.447 93.9794 131.58 89.285 131.58C84.5906 131.58 81.6904 128.018 81.6904 123.047C81.6904 118.077 85.4859 114.525 90.1803 114.525C94.8747 114.525 98.0411 117.506 98.0411 122.477ZM92.8986 124.561C87.1307 129.914 83.0577 122.438 86.2273 118.446C89.3969 114.454 98.6665 119.208 92.8986 124.561Z" fill="black"/>
        <path d="M92.8986 124.561C87.1307 129.914 83.0577 122.438 86.2273 118.446C89.3969 114.454 98.6665 119.208 92.8986 124.561Z" fill="white"/>
        <path d="M144.326 126.751C147.434 130.515 157.457 124.839 152.7 119.488C147.943 114.137 141.219 122.987 144.326 126.751Z" fill="white"/>
        <path fill-rule="evenodd" clip-rule="evenodd" d="M113.972 137.363C115.67 149.575 128.121 151.512 129.164 136.171C124.442 132.191 117.069 135.307 113.972 137.363ZM119.903 136.563C121.77 134.526 125.244 135.446 125.56 135.714C128.186 137.842 125.221 141.542 122.449 141.542C119.676 141.542 118.036 138.6 119.903 136.563Z" fill="black"/>
        <path d="M125.56 135.714C125.244 135.446 121.77 134.526 119.903 136.563C118.036 138.6 119.676 141.542 122.449 141.542C125.221 141.542 128.186 137.842 125.56 135.714Z" fill="white"/>
        <path d="M91.7527 62.3906C108.164 67.3629 112.791 128.865 113.972 137.363C117.069 135.307 124.442 132.191 129.164 136.171C130.714 113.355 123.206 71.9799 161.68 62.9712C132.623 50.013 107.986 54.449 91.7527 62.3906Z" fill="#434651"/>
        <path d="M213.729 47.0526C194.073 42.438 173.721 57.1034 166.003 65.0129C169.743 66.9324 175.923 71.4611 181.819 78.65C188.264 63.9519 213.349 46.9657 213.729 47.0526Z" fill="#D2D3DE"/>
        <path d="M193.543 99.5772C208.856 90.7766 213.381 60.8939 213.729 47.0526C213.349 46.9657 188.264 63.9519 181.819 78.65C186.284 84.0933 190.586 91.0617 193.543 99.5772Z" fill="#8B9198"/>
        <path d="M84.5949 66.4328C64.8823 48.8059 45.0312 46.3233 37.5697 47.2853C45.1627 52.6608 62.2211 66.6987 69.7103 79.8459C74.3027 74.4238 79.2206 69.6663 84.5949 66.4328Z" fill="#D2D3DE"/>
        <path d="M37.5697 47.2853C37.5697 48.248 33.6113 76.5599 56.0206 98.3439C60.3212 92.1147 64.8321 85.6054 69.7103 79.8459C62.2211 66.6987 45.1627 52.6608 37.5697 47.2853Z" fill="#8B9198"/>
        <path d="M193.224 230.996C187.969 238.523 183.16 244.732 180.247 248.422C187.82 252.116 195.398 253.459 202.77 252.912C204.218 249.106 197.009 236.716 193.224 230.996Z" fill="#E1E6EE"/>
        <path d="M193.224 230.996C197.009 236.716 204.218 249.106 202.77 252.912C213.494 252.117 223.781 247.322 232.98 239.945C232.151 235.267 215.232 217.614 206.876 209.372C202.613 217.045 197.753 224.509 193.224 230.996Z" fill="#474B55"/>
        <path d="M215.615 190.59C213.436 196.71 210.355 203.11 206.876 209.372C215.232 217.614 232.151 235.267 232.98 239.945C238.96 235.151 244.479 229.266 249.361 222.68C249.646 217.199 228.251 194.561 217.518 183.927C217.085 186.004 216.457 188.225 215.615 190.59Z" fill="#E1E5EE"/>
        <path d="M217.518 183.927C228.251 194.561 249.646 217.199 249.361 222.68C254.038 216.37 258.129 209.417 261.477 202.162C256.043 184.203 231.613 166.999 220.077 160.642C218.781 161.195 215.874 162.964 214.618 165.612C217.846 169.421 219.278 175.496 217.518 183.927Z" fill="#474B55"/>
        <path d="M238.517 154.456C232.546 158.84 226.197 160.717 220.077 160.642C231.613 166.999 256.043 184.203 261.477 202.162C265.967 192.432 269.121 182.159 270.559 172.171C270.124 166.661 252.273 155.228 243.402 150.201C241.812 151.822 240.179 153.236 238.517 154.456Z" fill="#E1E5EE"/>
        <path d="M255.099 121.904C255.825 129.776 253.293 138.526 246.037 147.277C245.173 148.318 244.294 149.292 243.402 150.201C252.273 155.228 270.124 166.661 270.559 172.171C273.466 151.977 269.358 132.945 255.099 121.904Z" fill="#474B55"/>
        <path d="M84.5949 66.4328C64.8823 48.8059 45.0312 46.3233 37.5697 47.2853M84.5949 66.4328C79.2206 69.6663 74.3027 74.4238 69.7103 79.8459M84.5949 66.4328C86.7528 65.0333 89.1443 63.6667 91.7527 62.3906M166.003 65.0129C173.721 57.1034 194.073 42.438 213.729 47.0526M166.003 65.0129C169.743 66.9324 175.923 71.4611 181.819 78.65M166.003 65.0129C164.551 64.2891 163.11 63.6091 161.68 62.9712M194.802 103.597C201.044 96.4478 208.773 92.9286 216.595 92.2031M194.802 103.597C193.67 105.193 192.678 106.8 191.818 108.411M194.802 103.597C194.417 102.221 193.995 100.881 193.543 99.5772M66.8126 187.967C51.8901 181.1 47.6127 157.915 35.6309 150.364C58.9018 152.89 54.9603 117.821 35.6309 122.333C42.2476 118.295 48.7298 108.905 55.7695 98.7076M66.8126 187.967C59.0715 202.196 42.6595 234.972 38.94 252.241C37.6039 258.445 48.7057 264.1 65.2069 268.051M66.8126 187.967C69.9276 189.4 73.7807 190.735 78.1844 191.92M165.794 190.59C169.228 184.739 178.748 171.899 190.708 164.568C199.437 159.218 209.386 159.439 214.618 165.612M165.794 190.59C162.978 210.895 169.952 236.467 180.247 248.422M165.794 190.59C163.503 191.426 161.124 192.174 158.672 192.838M180.247 248.422C157.532 245.367 156.399 210.093 158.672 192.838M180.247 248.422C180.247 275.638 113.846 277.698 72.0443 269.532M180.247 248.422C183.16 244.732 187.969 238.523 193.224 230.996M180.247 248.422C187.82 252.116 195.398 253.459 202.77 252.912M158.672 192.838C157.53 193.147 156.372 193.439 155.2 193.712M78.1844 191.92C82.6142 211.442 86.2204 253.999 65.2069 268.051M78.1844 191.92C80.1244 192.442 82.1712 192.935 84.3089 193.394M65.2069 268.051C67.3965 268.576 69.6811 269.07 72.0443 269.532M84.3089 193.394C88.4326 214.85 90.727 258.758 72.0443 269.532M84.3089 193.394C85.9873 193.754 87.7217 194.094 89.5044 194.41M89.5044 194.41C96.3432 238.189 140.184 257.001 155.2 193.712M89.5044 194.41C92.0242 194.858 94.6403 195.26 97.3309 195.61M155.2 193.712C152.454 194.354 149.632 194.899 146.757 195.353M97.3309 195.61C112.736 197.613 130.583 197.911 146.757 195.353M97.3309 195.61C105.34 224.284 132.332 238.843 146.757 195.353M216.595 92.2031C212.908 97.5887 208.724 106.291 206.876 116.348M216.595 92.2031C227.309 91.2092 238.197 95.4577 245.669 102.799M220.077 160.642C214.37 160.572 208.863 158.805 204.044 155.791M220.077 160.642C216.223 156.773 213.294 152.704 211.129 148.546M220.077 160.642C226.197 160.717 232.546 158.84 238.517 154.456M220.077 160.642C231.613 166.999 256.043 184.203 261.477 202.162M220.077 160.642C218.781 161.195 215.874 162.964 214.618 165.612M204.044 155.791C204.184 153.419 205.798 148.65 211.129 148.546M204.044 155.791C195.664 150.55 189.368 141.538 187.737 131.118M211.129 148.546C219.18 148.389 225.408 156.038 238.517 154.456M211.129 148.546C209.7 145.802 208.603 143.019 207.793 140.23M238.517 154.456C240.179 153.236 241.812 151.822 243.402 150.201M187.737 131.118C189.511 135.306 196.005 142.991 207.793 140.23M187.737 131.118C186.616 123.958 187.697 116.134 191.818 108.411M207.793 140.23C221.996 141.561 251.111 119.04 255.099 121.904M207.793 140.23C205.419 132.057 205.502 123.828 206.876 116.348M255.099 121.904C255.825 129.776 253.293 138.526 246.037 147.277C245.173 148.318 244.294 149.292 243.402 150.201M255.099 121.904C254.419 114.52 250.872 107.91 245.669 102.799M255.099 121.904C269.358 132.945 273.466 151.977 270.559 172.171M191.818 108.411C192.789 112.749 197.161 120.409 206.876 116.348M206.876 116.348C224.866 108.411 235.614 100.187 245.669 102.799M193.224 230.996C197.009 236.716 204.218 249.106 202.77 252.912M193.224 230.996C197.753 224.509 202.613 217.045 206.876 209.372M202.77 252.912C213.494 252.117 223.781 247.322 232.98 239.945M206.876 209.372C210.355 203.11 213.436 196.71 215.615 190.59C216.457 188.225 217.085 186.004 217.518 183.927M206.876 209.372C215.232 217.614 232.151 235.267 232.98 239.945M232.98 239.945C238.96 235.151 244.479 229.266 249.361 222.68M217.518 183.927C228.251 194.561 249.646 217.199 249.361 222.68M217.518 183.927C219.278 175.496 217.846 169.421 214.618 165.612M249.361 222.68C254.038 216.37 258.129 209.417 261.477 202.162M261.477 202.162C265.967 192.432 269.121 182.159 270.559 172.171M243.402 150.201C252.273 155.228 270.124 166.661 270.559 172.171M115.67 169.072L141.287 157.912M145.345 97.0409L152.7 92.3487L164.367 99.5772M75.0894 96.28L90.1803 89.1784L92.463 94.1241M213.729 47.0526C213.381 60.8939 208.856 90.7766 193.543 99.5772M213.729 47.0526C213.349 46.9657 188.264 63.9519 181.819 78.65M193.543 99.5772C190.586 91.0617 186.284 84.0933 181.819 78.65M37.5697 47.2853C37.5697 48.248 33.6113 76.5599 56.0206 98.3439M37.5697 47.2853C45.1627 52.6608 62.2211 66.6987 69.7103 79.8459M56.0206 98.3439C60.3212 92.1147 64.8321 85.6054 69.7103 79.8459M56.0206 98.3439L55.7695 98.7076M56.0206 98.3439C55.9369 98.4652 55.8532 98.5865 55.7695 98.7076M91.7527 62.3906C108.164 67.3629 112.791 128.865 113.972 137.363M91.7527 62.3906C107.986 54.449 132.623 50.013 161.68 62.9712M113.972 137.363C115.67 149.575 128.121 151.512 129.164 136.171M113.972 137.363C117.069 135.307 124.442 132.191 129.164 136.171M129.164 136.171C130.714 113.355 123.206 71.9799 161.68 62.9712M171.909 121.31C182.952 132.528 187.343 146.973 180.051 154.152C172.759 161.33 155.37 153.34 144.326 142.122C133.283 130.904 131.386 117.559 139.072 110.578C146.757 103.597 160.866 110.092 171.909 121.31ZM142.099 124.839C142.099 129.81 146.092 133.178 150.786 133.178C155.48 133.178 160.168 130.366 160.168 125.395C160.168 120.425 155.48 116.709 150.786 116.709C146.092 116.709 142.099 119.869 142.099 124.839ZM144.326 126.751C147.434 130.515 157.457 124.839 152.7 119.488C147.943 114.137 141.219 122.987 144.326 126.751ZM70.8701 119.208C59.8268 130.426 51.0833 147.277 61.3977 154.456C70.8701 157.912 82.8236 153.34 93.8668 142.122C104.91 130.904 109.737 115.589 102.445 108.411C95.153 101.233 81.9134 107.99 70.8701 119.208ZM98.0411 122.477C98.0411 127.447 93.9794 131.58 89.285 131.58C84.5906 131.58 81.6904 128.018 81.6904 123.047C81.6904 118.077 85.4859 114.525 90.1803 114.525C94.8747 114.525 98.0411 117.506 98.0411 122.477ZM92.8986 124.561C87.1307 129.914 83.0577 122.438 86.2273 118.446C89.3969 114.454 98.6665 119.208 92.8986 124.561ZM125.56 135.714C125.244 135.446 121.77 134.526 119.903 136.563C118.036 138.6 119.676 141.542 122.449 141.542C125.221 141.542 128.186 137.842 125.56 135.714Z" stroke="black" stroke-width="3" stroke-linecap="round" stroke-linejoin="round"/>
    </g>
</svg>
