<svg width="250" height="250" viewBox="0 0 250 250" fill="none" xmlns="http://www.w3.org/2000/svg">
    <defs>
        <clipPath id="clip0_357_738">
            <rect width="250" height="250" rx="125" fill="white"/>
        </clipPath>
    </defs>
    <g clip-path="url(#clip0_357_738)">
        <circle cx="125" cy="125" r="125" fill="#FF7EB4"/>
        <path fill-rule="evenodd" clip-rule="evenodd" d="M37.099 116.535C54.6694 109.565 62.6375 142.028 37.099 142.028C44.6441 146.358 43.0948 155.598 59.6174 171.998C83.8026 196.004 149.634 192.036 167.465 177.923C172.166 174.202 176.741 169.419 181.03 164.47C184.805 160.115 188.358 155.631 191.584 151.629C194.658 147.815 197.434 144.439 199.818 142.028C196.617 143.493 193.83 143.281 191.584 142.028C182.448 136.932 182.288 114.617 199.818 117.972C191.656 114.723 186.076 106.526 181.03 97.1042C177.943 91.3403 175.056 85.1178 171.9 79.2885C167.979 72.048 163.644 65.4143 157.994 61.0199C128.593 65.3716 121.129 84.3394 125.412 130.229C125.632 132.591 123.984 139.984 117.498 139.984V147.536C118.1 148.324 119.013 149.204 120.212 149.992C121.584 150.893 123.329 151.672 125.412 152.054C127.45 152.428 129.812 152.421 132.461 151.773C134.641 155.751 137.56 163.92 131.803 164.773C124.606 165.839 119.373 154.669 120.212 149.992C119.013 149.204 118.1 148.324 117.498 147.536V139.984C112.207 139.984 110.972 133.9 110.972 130.229C110.972 108.474 102.161 61.0199 86.15 61.0199C79.184 65.5699 73.2979 71.3984 68.042 77.6521C63.9147 82.5629 60.1761 87.736 56.6084 92.7581C49.9806 102.088 43.9428 110.896 37.099 116.535ZM136.937 99.5149C153.905 90.6788 182.154 123.553 168.154 140.753C150.654 162.253 116.028 110.403 136.937 99.5149ZM101.933 101.833C84.3289 83.5206 48.6755 127.825 63.7094 142.873C81.1931 160.373 115.801 116.258 101.933 101.833Z" fill="#DFE5EE"/>
        <path fill-rule="evenodd" clip-rule="evenodd" d="M136.937 99.5149C153.905 90.6788 182.154 123.553 168.154 140.753C150.654 162.253 116.028 110.403 136.937 99.5149ZM142.433 107.68C151.447 106.18 159.933 119.18 148.433 123.18C135.466 127.691 133.933 108.68 142.433 107.68Z" fill="#484C57"/>
        <path fill-rule="evenodd" clip-rule="evenodd" d="M101.933 101.833C84.3289 83.5206 48.6755 127.825 63.7094 142.873C81.1931 160.373 115.801 116.258 101.933 101.833ZM93.9667 106.049C102.59 108.674 97.8748 126.915 86.2631 123.717C75.4084 120.728 82.4667 102.549 93.9667 106.049Z" fill="#484C57"/>
        <path d="M157.994 61.0199C142.376 48.8728 104.076 49.3108 86.15 61.0199C102.161 61.0199 110.972 108.474 110.972 130.229C113.534 127.214 120.009 122.993 125.412 130.229C121.129 84.3394 128.593 65.3716 157.994 61.0199Z" fill="#484C57"/>
        <path d="M199.201 41.8143C188.943 42.4982 160.675 51.7689 157.994 61.0199C163.644 65.4143 167.979 72.048 171.9 79.2885C172.43 67.2612 190.322 49.2944 199.201 41.8143Z" fill="#D2D2DF"/>
        <path d="M86.15 61.0199C75.5016 48.0858 52.3337 45.3358 42.0808 45.5776C49.46 49.7078 64.9831 61.9049 68.042 77.6521C73.2979 71.3984 79.184 65.5699 86.15 61.0199Z" fill="#D2D2DF"/>
        <path d="M42.0808 45.5776C42.0808 46.0886 40.183 70.2948 56.6084 92.7581C60.1761 87.736 63.9147 82.5629 68.042 77.6521C64.9831 61.9049 49.46 49.7078 42.0808 45.5776Z" fill="#8B9099"/>
        <path d="M181.03 97.1042C201.084 86.4417 201.5 55.8016 199.201 41.8143C190.322 49.2944 172.43 67.2612 171.9 79.2885C175.056 85.1178 177.943 91.3403 181.03 97.1042Z" fill="#8B9099"/>
        <path d="M191.584 142.028C193.83 143.281 196.617 143.493 199.818 142.028C197.434 144.439 194.658 147.815 191.584 151.629C206.783 159.871 237.853 185.77 240.542 223.421C246.18 216.188 251.061 207.312 254.749 197.421C250.538 164.874 216.374 139.4 199.818 130.731C194.413 133.94 190.775 136.9 191.584 142.028Z" fill="#D2D2DF"/>
        <path d="M181.03 164.47C193.364 178.657 216.822 214.166 211.986 242.706C222.217 241.221 232.206 234.117 240.542 223.421C237.853 185.77 206.783 159.871 191.584 151.629C188.358 155.631 184.805 160.115 181.03 164.47Z" fill="#484C57"/>
        <path d="M167.465 177.923C183.518 196.493 191.131 218.65 193.49 238.797C199.536 242.45 205.805 243.603 211.986 242.706C216.822 214.166 193.364 178.657 181.03 164.47C176.741 169.419 172.166 174.202 167.465 177.923Z" fill="#D2D2DF"/>
        <path d="M199.818 130.731C216.374 139.4 250.538 164.874 254.749 197.421C260.199 182.807 263.043 165.978 261.875 148.958C252.399 127.445 228.827 119.629 218.042 118.537C211.93 124.292 205.047 127.628 199.818 130.731Z" fill="#484C57"/>
        <path d="M261.875 148.958C260.317 126.264 251.625 103.231 232.46 84.655C231.347 101.662 225.227 111.771 218.042 118.537C228.827 119.629 252.399 127.445 261.875 148.958Z" fill="#D2D2DF"/>
        <path fill-rule="evenodd" clip-rule="evenodd" d="M167.465 177.923C149.634 192.036 83.8026 196.004 59.6174 171.998C48.451 181.564 26.6082 212.744 28.5687 260.94C30.5292 309.137 159.339 335.872 186.432 290.552C192.317 280.709 196.086 260.97 193.49 238.797C191.131 218.65 183.518 196.493 167.465 177.923ZM131.803 214.874L132.461 221.95L129.231 221.673V240.065C128.561 241.413 128.194 242.727 128.087 243.994C127.989 245.164 128.114 246.294 128.429 247.373C128.625 248.045 128.895 248.697 129.231 249.327V265.127H93.3371L93.6055 243.169C93.9678 242.312 94.2365 241.404 94.4011 240.464C94.572 239.488 94.6309 238.477 94.5663 237.453C94.4855 236.174 94.2118 234.874 93.7226 233.595L93.9053 218.653L91.0864 218.412V211.16L121.675 213.95C121.697 213.165 121.684 204.623 121.675 200.45H127.418V214.474L131.803 214.874Z" fill="#BFC3D4"/>
        <path d="M132.461 221.95L131.803 214.874L127.418 214.474L121.675 213.95L91.0864 211.16V218.412L93.9053 218.653L129.231 221.673L132.461 221.95Z" fill="#FF99B0"/>
        <path fill-rule="evenodd" clip-rule="evenodd" d="M126.104 239.857C126.104 240.184 126.038 240.496 125.92 240.78L129.231 240.065V221.673L93.9053 218.653L93.7226 233.595L99.9313 235.356L94.5663 237.453L100.677 239.857L94.4011 240.464L99.9313 244.733L93.6055 243.169L93.3371 265.127H129.231V249.327L124.103 249.008L128.429 247.373L124.391 245.124C124.391 246.366 123.384 247.373 122.142 247.373C120.9 247.373 119.894 246.366 119.894 245.124C119.894 243.882 120.9 242.875 122.142 242.875C123.384 242.875 124.391 243.882 124.391 245.124L128.087 243.994L125.196 241.738C124.785 242.065 124.266 242.26 123.7 242.26C122.373 242.26 121.297 241.184 121.297 239.857C121.297 238.529 122.373 237.453 123.7 237.453C125.028 237.453 126.104 238.529 126.104 239.857ZM113.908 245.664C115.804 245.664 117.341 244.127 117.341 242.23C117.341 240.334 115.804 238.797 113.908 238.797C112.012 238.797 110.475 240.334 110.475 242.23C110.475 244.127 112.012 245.664 113.908 245.664ZM103.373 247.541C104.578 247.541 105.555 246.459 105.555 245.124C105.555 243.789 104.578 242.706 103.373 242.706C102.169 242.706 101.192 243.789 101.192 245.124C101.192 246.459 102.169 247.541 103.373 247.541ZM110.475 255.464C111.836 255.464 112.94 254.241 112.94 252.732C112.94 251.223 111.836 250 110.475 250C109.113 250 108.009 251.223 108.009 252.732C108.009 254.241 109.113 255.464 110.475 255.464Z" fill="#EFB77F"/>
        <path d="M121.675 200.45C121.684 204.623 121.697 213.165 121.675 213.95L127.418 214.474V200.45H121.675Z" fill="#98CBE6"/>
        <path d="M117.341 242.23C117.341 244.127 115.804 245.664 113.908 245.664C112.012 245.664 110.475 244.127 110.475 242.23C110.475 240.334 112.012 238.797 113.908 238.797C115.804 238.797 117.341 240.334 117.341 242.23Z" fill="black"/>
        <path d="M112.94 252.732C112.94 254.241 111.836 255.464 110.475 255.464C109.113 255.464 108.009 254.241 108.009 252.732C108.009 251.223 109.113 250 110.475 250C111.836 250 112.94 251.223 112.94 252.732Z" fill="black"/>
        <path d="M125.92 240.78C126.038 240.496 126.104 240.184 126.104 239.857C126.104 238.529 125.028 237.453 123.7 237.453C122.373 237.453 121.297 238.529 121.297 239.857C121.297 241.184 122.373 242.26 123.7 242.26C124.266 242.26 124.785 242.065 125.196 241.738L124.391 241.11L125.92 240.78Z" fill="black"/>
        <path d="M122.142 247.373C123.384 247.373 124.391 246.366 124.391 245.124C124.391 243.882 123.384 242.875 122.142 242.875C120.9 242.875 119.894 243.882 119.894 245.124C119.894 246.366 120.9 247.373 122.142 247.373Z" fill="black"/>
        <path d="M105.555 245.124C105.555 246.459 104.578 247.541 103.373 247.541C102.169 247.541 101.192 246.459 101.192 245.124C101.192 243.789 102.169 242.706 103.373 242.706C104.578 242.706 105.555 243.789 105.555 245.124Z" fill="black"/>
        <path fill-rule="evenodd" clip-rule="evenodd" d="M142.433 107.68C151.447 106.18 159.933 119.18 148.433 123.18C135.466 127.691 133.933 108.68 142.433 107.68ZM142.433 110.32C145.933 109.32 147.975 115.65 143.621 117.772C138.497 120.27 138.433 111.463 142.433 110.32Z" fill="black"/>
        <path fill-rule="evenodd" clip-rule="evenodd" d="M93.9667 106.049C102.59 108.674 97.8748 126.915 86.2631 123.717C75.4084 120.728 82.4667 102.549 93.9667 106.049ZM89.9567 109.403C95.9567 111.975 90.9567 118.903 85.9567 116.403C81.674 114.262 86.7071 108.011 89.9567 109.403Z" fill="black"/>
        <path d="M142.433 110.32C145.933 109.32 147.975 115.65 143.621 117.772C138.497 120.27 138.433 111.463 142.433 110.32Z" fill="white"/>
        <path d="M89.9567 109.403C95.9567 111.975 90.9567 118.903 85.9567 116.403C81.674 114.262 86.7071 108.011 89.9567 109.403Z" fill="white"/>
        <path fill-rule="evenodd" clip-rule="evenodd" d="M117.498 139.984C123.984 139.984 125.632 132.591 125.412 130.229C120.009 122.993 113.534 127.214 110.972 130.229C110.972 133.9 112.207 139.984 117.498 139.984ZM116.597 129.165C119.097 126.251 126.215 129.837 123.49 134.387C120.879 138.748 114.243 131.907 116.597 129.165Z" fill="black"/>
        <path d="M116.597 129.165C119.097 126.251 126.215 129.837 123.49 134.387C120.879 138.748 114.243 131.907 116.597 129.165Z" fill="white"/>
        <path d="M131.803 164.773C137.56 163.92 134.641 155.751 132.461 151.773C129.812 152.421 127.45 152.428 125.412 152.054C123.329 151.672 121.584 150.893 120.212 149.992C119.373 154.669 124.606 165.839 131.803 164.773Z" fill="#FB7774"/>
        <path d="M136.937 99.5149L136.244 98.1845L136.937 99.5149ZM168.154 140.753L169.318 141.7L169.318 141.7L168.154 140.753ZM101.933 101.833L100.852 102.873L100.852 102.873L101.933 101.833ZM63.7094 142.873L64.7706 141.813L64.7706 141.813L63.7094 142.873ZM142.433 107.68L142.609 109.17C142.632 109.167 142.656 109.164 142.68 109.16L142.433 107.68ZM148.433 123.18L147.941 121.763L148.433 123.18ZM142.433 110.32L142.021 108.878L142.433 110.32ZM143.621 117.772L144.278 119.121L143.621 117.772ZM89.9567 109.403L90.5476 108.025L89.9567 109.403ZM93.9667 106.049L94.4034 104.614L93.9667 106.049ZM86.2631 123.717L86.6614 122.271L86.2631 123.717ZM37.099 116.535L36.1451 115.378C35.5751 115.847 35.4318 116.662 35.8074 117.298C36.1829 117.934 36.9656 118.202 37.6521 117.93L37.099 116.535ZM37.099 142.028V140.528C36.4193 140.528 35.8246 140.985 35.6496 141.642C35.4745 142.298 35.7629 142.991 36.3524 143.329L37.099 142.028ZM125.412 130.229L126.905 130.09L126.905 130.09L125.412 130.229ZM116.597 129.165L115.458 128.188L115.458 128.188L116.597 129.165ZM123.49 134.387L122.203 133.617L122.203 133.617L123.49 134.387ZM199.201 41.8143L200.682 41.5711C200.556 40.8088 199.873 40.2663 199.102 40.3177L199.201 41.8143ZM199.818 117.972L199.536 119.446C200.296 119.591 201.041 119.135 201.258 118.393C201.475 117.65 201.092 116.865 200.373 116.579L199.818 117.972ZM171.9 79.2885L170.581 80.0027L170.581 80.0027L171.9 79.2885ZM42.0808 45.5776L42.0455 44.078C41.231 44.0972 40.5808 44.7629 40.5808 45.5776H42.0808ZM56.6084 92.7581L57.8312 93.6268L57.8312 93.6268L56.6084 92.7581ZM28.5687 260.94L27.0699 261.001L28.5687 260.94ZM186.432 290.552L187.72 291.322L187.72 291.322L186.432 290.552ZM62.1677 209.859C61.4489 209.447 60.5323 209.696 60.1205 210.415C59.7087 211.133 59.9576 212.05 60.6764 212.462L62.1677 209.859ZM86.2655 225.393L85.5199 226.695L85.5204 226.695L86.2655 225.393ZM81.6768 249.611L81.3782 251.081L81.6768 249.611ZM56.3247 238.021C55.588 237.642 54.6836 237.932 54.3047 238.669C53.9257 239.406 54.2157 240.31 54.9524 240.689L56.3247 238.021ZM96.3897 149.223C95.7023 148.761 94.7703 148.943 94.3079 149.631C93.8456 150.318 94.028 151.25 94.7154 151.713L96.3897 149.223ZM139.937 150.251C140.651 149.831 140.89 148.912 140.471 148.198C140.051 147.483 139.132 147.245 138.417 147.664L139.937 150.251ZM131.803 164.773L131.583 163.289L131.583 163.289L131.803 164.773ZM120.212 149.992L121.036 148.738L121.036 148.738L120.212 149.992ZM125.412 152.054L125.682 150.579L125.682 150.579L125.412 152.054ZM127.738 159.611C127.635 160.433 128.218 161.183 129.04 161.285C129.862 161.388 130.612 160.805 130.715 159.983L127.738 159.611ZM163.913 219.238C164.707 219.001 165.159 218.166 164.922 217.372C164.686 216.578 163.85 216.126 163.056 216.363L163.913 219.238ZM135.794 232.714L134.882 231.523L134.882 231.523L135.794 232.714ZM152.357 258.819L152.565 260.304L152.565 260.304L152.357 258.819ZM185.766 247.052C186.271 246.395 186.147 245.453 185.49 244.948C184.833 244.444 183.891 244.568 183.387 245.225L185.766 247.052ZM131.803 214.874L133.296 214.735C133.229 214.015 132.659 213.446 131.939 213.38L131.803 214.874ZM132.461 221.95L132.334 223.444C132.776 223.482 133.213 223.322 133.526 223.006C133.839 222.691 133.996 222.253 133.955 221.811L132.461 221.95ZM91.0864 218.412H89.5864C89.5864 219.191 90.1825 219.84 90.9586 219.906L91.0864 218.412ZM91.0864 211.16L91.2226 209.666C90.8028 209.628 90.3863 209.768 90.075 210.052C89.7637 210.337 89.5864 210.739 89.5864 211.16H91.0864ZM121.675 200.45V198.95C121.277 198.95 120.895 199.109 120.613 199.391C120.332 199.673 120.174 200.055 120.175 200.454L121.675 200.45ZM127.418 200.45H128.918C128.918 199.622 128.246 198.95 127.418 198.95V200.45ZM127.418 214.474L127.281 215.968L127.282 215.968L127.418 214.474ZM93.3371 265.127L91.8372 265.109C91.8323 265.51 91.9881 265.896 92.27 266.181C92.5518 266.467 92.9361 266.627 93.3371 266.627V265.127ZM129.231 265.127V266.627C130.059 266.627 130.731 265.956 130.731 265.127H129.231ZM129.231 221.673L129.359 220.179L129.359 220.179L129.231 221.673ZM99.9313 235.356L100.477 236.753C101.077 236.519 101.46 235.927 101.43 235.284C101.399 234.641 100.96 234.089 100.341 233.913L99.9313 235.356ZM94.5663 237.453L93.0692 237.548L93.0692 237.548L94.5663 237.453ZM100.677 239.857L100.822 241.35C101.512 241.283 102.066 240.751 102.163 240.065C102.259 239.378 101.872 238.714 101.226 238.461L100.677 239.857ZM94.4011 240.464L92.9236 240.205L92.9236 240.205L94.4011 240.464ZM99.9313 244.733L99.5711 246.189C100.26 246.36 100.973 246.024 101.282 245.386C101.59 244.747 101.409 243.98 100.848 243.546L99.9313 244.733ZM124.391 241.11L124.075 239.644C123.506 239.767 123.059 240.208 122.929 240.776C122.799 241.343 123.01 241.935 123.469 242.293L124.391 241.11ZM128.087 243.994L129.582 244.119L129.582 244.119L128.087 243.994ZM124.103 249.008L123.572 247.605C122.911 247.855 122.514 248.533 122.62 249.232C122.725 249.931 123.304 250.461 124.01 250.505L124.103 249.008ZM199.818 142.028L200.885 143.083C201.394 142.568 201.463 141.762 201.048 141.169C200.633 140.575 199.853 140.362 199.194 140.664L199.818 142.028ZM181.03 164.47L179.897 163.487L179.897 163.487L181.03 164.47ZM211.986 242.706L212.201 244.191L212.201 244.191L211.986 242.706ZM232.46 84.655L233.504 83.5779C233.085 83.171 232.467 83.0451 231.921 83.2553C231.376 83.4655 231.002 83.9736 230.964 84.557L232.46 84.655ZM218.042 118.537L217.014 117.445L218.042 118.537ZM137.63 100.845C141.341 98.9127 145.787 99.1928 150.34 101.186C154.893 103.179 159.393 106.827 162.989 111.309C166.585 115.791 169.2 121.01 170.092 126.071C170.98 131.11 170.155 135.919 166.991 139.806L169.318 141.7C173.153 136.988 174.048 131.237 173.046 125.551C172.049 119.887 169.166 114.214 165.329 109.432C161.492 104.65 156.622 100.661 151.543 98.4378C146.465 96.2148 141.017 95.6991 136.244 98.1845L137.63 100.845ZM166.991 139.806C164.981 142.276 162.798 143.611 160.581 144.142C158.352 144.676 155.954 144.43 153.478 143.506C148.483 141.642 143.385 137.093 139.367 131.413C135.358 125.745 132.574 119.16 132.026 113.432C131.481 107.731 133.139 103.184 137.63 100.845L136.244 98.1845C130.28 101.29 128.426 107.307 129.04 113.718C129.651 120.103 132.697 127.178 136.918 133.146C141.131 139.102 146.664 144.165 152.429 146.317C155.333 147.4 158.349 147.762 161.281 147.059C164.225 146.354 166.953 144.606 169.318 141.7L166.991 139.806ZM103.015 100.794C98.1319 95.7143 91.9614 95.0268 85.9565 96.9773C80.0291 98.9025 74.1756 103.4 69.4479 108.861C64.713 114.331 60.9818 120.912 59.4091 127.171C57.8424 133.407 58.3605 139.641 62.6483 143.933L64.7706 141.813C61.5414 138.581 60.8785 133.634 62.3186 127.902C63.7528 122.195 67.2163 116.023 71.7161 110.825C76.2231 105.618 81.6441 101.532 86.8832 99.8305C92.0448 98.154 96.9327 98.7957 100.852 102.873L103.015 100.794ZM62.6483 143.933C67.5175 148.807 73.6045 149.331 79.4989 147.289C85.3204 145.273 91.0609 140.745 95.718 135.3C100.383 129.846 104.082 123.33 105.719 117.178C107.345 111.068 107.013 104.952 103.015 100.794L100.852 102.873C103.788 105.927 104.33 110.734 102.82 116.406C101.322 122.036 97.8774 128.16 93.4382 133.35C88.9914 138.549 83.6684 142.67 78.5171 144.454C73.4385 146.213 68.6431 145.689 64.7706 141.813L62.6483 143.933ZM142.68 109.16C146.425 108.536 150.218 110.957 151.789 114.047C152.554 115.553 152.705 117.055 152.216 118.318C151.736 119.559 150.522 120.866 147.941 121.763L148.926 124.597C152.095 123.495 154.133 121.677 155.014 119.401C155.886 117.149 155.509 114.745 154.463 112.688C152.412 108.654 147.455 105.324 142.187 106.2L142.68 109.16ZM147.941 121.763C145.034 122.774 143.002 122.403 141.633 121.535C140.221 120.639 139.258 119.051 138.849 117.177C138.439 115.3 138.627 113.307 139.325 111.783C140.01 110.29 141.12 109.345 142.609 109.17L142.258 106.19C139.497 106.515 137.611 108.322 136.598 110.533C135.598 112.714 135.386 115.38 135.918 117.816C136.45 120.256 137.77 122.637 140.027 124.068C142.327 125.527 145.349 125.841 148.926 124.597L147.941 121.763ZM142.846 111.762C143.225 111.654 143.514 111.733 143.778 111.941C144.081 112.18 144.373 112.623 144.512 113.217C144.785 114.38 144.405 115.721 142.964 116.424L144.278 119.121C147.191 117.701 147.968 114.815 147.433 112.533C147.169 111.404 146.566 110.32 145.637 109.587C144.67 108.823 143.392 108.486 142.021 108.878L142.846 111.762ZM142.964 116.424C141.997 116.895 141.672 116.668 141.604 116.617C141.429 116.488 141.162 116.089 141.101 115.296C141.043 114.543 141.201 113.687 141.551 112.992C141.9 112.298 142.362 111.9 142.846 111.762L142.021 108.878C140.505 109.311 139.475 110.442 138.871 111.644C138.267 112.844 138.012 114.248 138.11 115.526C138.205 116.766 138.665 118.173 139.818 119.027C141.078 119.962 142.683 119.898 144.278 119.121L142.964 116.424ZM89.3659 110.782C90.5685 111.297 90.9946 111.923 91.1315 112.372C91.2748 112.841 91.194 113.415 90.8219 113.991C90.0566 115.175 88.3561 115.926 86.6276 115.062L85.2859 117.745C88.5573 119.381 91.8569 117.917 93.3416 115.619C94.0945 114.454 94.4512 112.97 94.0007 111.495C93.5439 109.999 92.345 108.795 90.5476 108.025L89.3659 110.782ZM86.6276 115.062C85.98 114.738 85.8397 114.378 85.8117 114.073C85.7741 113.665 85.9302 113.07 86.3715 112.423C86.8037 111.789 87.4118 111.254 88.0202 110.954C88.6352 110.652 89.0843 110.661 89.3659 110.782L90.5476 108.025C89.2043 107.449 87.8057 107.717 86.6968 108.262C85.5814 108.81 84.5896 109.711 83.8927 110.733C83.2048 111.742 82.7026 113.025 82.8243 114.348C82.9555 115.774 83.7921 116.998 85.2859 117.745L86.6276 115.062ZM93.53 107.484C95.1112 107.966 96.1172 109.145 96.5934 110.785C97.081 112.465 96.9793 114.57 96.2854 116.577C95.5932 118.578 94.3591 120.345 92.7425 121.429C91.1661 122.487 89.1449 122.955 86.6614 122.271L85.8649 125.164C89.1872 126.078 92.1097 125.466 94.4137 123.921C96.6776 122.402 98.2606 120.044 99.1206 117.557C99.9791 115.075 100.165 112.328 99.4744 109.949C98.7722 107.53 97.1339 105.445 94.4034 104.614L93.53 107.484ZM86.6614 122.271C84.4224 121.655 83.219 120.318 82.6943 118.732C82.1467 117.078 82.2997 115.01 83.1189 113.021C84.7732 109.004 88.7537 106.031 93.53 107.484L94.4034 104.614C87.6797 102.568 82.381 106.934 80.3449 111.879C79.3189 114.37 79.0237 117.189 79.8463 119.675C80.6916 122.229 82.6765 124.285 85.8649 125.164L86.6614 122.271ZM115.841 242.23C115.841 243.298 114.975 244.164 113.908 244.164V247.164C116.632 247.164 118.841 244.955 118.841 242.23H115.841ZM113.908 244.164C112.84 244.164 111.975 243.298 111.975 242.23H108.975C108.975 244.955 111.183 247.164 113.908 247.164V244.164ZM111.975 242.23C111.975 241.163 112.84 240.297 113.908 240.297V237.297C111.183 237.297 108.975 239.506 108.975 242.23H111.975ZM113.908 240.297C114.975 240.297 115.841 241.163 115.841 242.23H118.841C118.841 239.506 116.632 237.297 113.908 237.297V240.297ZM124.604 239.857C124.604 239.982 124.579 240.099 124.535 240.203L127.304 241.357C127.498 240.893 127.604 240.385 127.604 239.857H124.604ZM124.535 240.203C124.477 240.344 124.382 240.469 124.262 240.564L126.13 242.912C126.641 242.505 127.048 241.972 127.304 241.357L124.535 240.203ZM124.262 240.564C124.107 240.687 123.914 240.76 123.7 240.76V243.76C124.617 243.76 125.464 243.442 126.13 242.912L124.262 240.564ZM123.7 240.76C123.201 240.76 122.797 240.355 122.797 239.857H119.797C119.797 242.012 121.545 243.76 123.7 243.76V240.76ZM122.797 239.857C122.797 239.358 123.201 238.953 123.7 238.953V235.953C121.545 235.953 119.797 237.701 119.797 239.857H122.797ZM123.7 238.953C124.199 238.953 124.604 239.358 124.604 239.857H127.604C127.604 237.701 125.856 235.953 123.7 235.953V238.953ZM122.891 245.124C122.891 245.537 122.556 245.873 122.142 245.873V248.873C124.213 248.873 125.891 247.194 125.891 245.124H122.891ZM122.142 245.873C121.729 245.873 121.394 245.537 121.394 245.124H118.394C118.394 247.194 120.072 248.873 122.142 248.873V245.873ZM121.394 245.124C121.394 244.71 121.729 244.375 122.142 244.375V241.375C120.072 241.375 118.394 243.053 118.394 245.124H121.394ZM122.142 244.375C122.556 244.375 122.891 244.71 122.891 245.124H125.891C125.891 243.053 124.213 241.375 122.142 241.375V244.375ZM104.055 245.124C104.055 245.779 103.609 246.041 103.373 246.041V249.041C105.548 249.041 107.055 247.139 107.055 245.124H104.055ZM103.373 246.041C103.138 246.041 102.692 245.779 102.692 245.124H99.6918C99.6918 247.139 101.199 249.041 103.373 249.041V246.041ZM102.692 245.124C102.692 244.469 103.138 244.206 103.373 244.206V241.206C101.199 241.206 99.6918 243.109 99.6918 245.124H102.692ZM103.373 244.206C103.609 244.206 104.055 244.469 104.055 245.124H107.055C107.055 243.109 105.548 241.206 103.373 241.206V244.206ZM111.44 252.732C111.44 253.561 110.867 253.964 110.475 253.964V256.964C112.806 256.964 114.44 254.92 114.44 252.732H111.44ZM110.475 253.964C110.082 253.964 109.509 253.561 109.509 252.732H106.509C106.509 254.92 108.143 256.964 110.475 256.964V253.964ZM109.509 252.732C109.509 251.903 110.082 251.5 110.475 251.5V248.5C108.143 248.5 106.509 250.543 106.509 252.732H109.509ZM110.475 251.5C110.867 251.5 111.44 251.903 111.44 252.732H114.44C114.44 250.543 112.806 248.5 110.475 248.5V251.5ZM37.6521 117.93C41.5833 116.37 44.8297 117.041 47.2169 118.788C49.6623 120.578 51.3281 123.593 51.7788 126.872C52.2277 130.137 51.4536 133.52 49.2154 136.076C46.994 138.613 43.1582 140.528 37.099 140.528V143.528C43.809 143.528 48.5541 141.385 51.4724 138.053C54.3738 134.739 55.298 130.443 54.7509 126.463C54.2056 122.497 52.181 118.704 48.9888 116.367C45.7384 113.988 41.3999 113.215 36.5458 115.141L37.6521 117.93ZM36.3524 143.329C39.6632 145.229 40.9579 148.125 43.6689 153.194C46.3362 158.181 50.1622 164.726 58.5607 173.063L60.6741 170.933C52.55 162.87 48.8894 156.594 46.3144 151.779C43.7831 147.046 42.0799 143.157 37.8455 140.727L36.3524 143.329ZM58.5607 173.063C64.8518 179.307 73.7651 183.657 83.7563 186.48C93.762 189.306 104.951 190.632 115.907 190.755C126.864 190.879 137.634 189.801 146.813 187.793C155.946 185.794 163.67 182.84 168.396 179.1L166.534 176.747C162.344 180.064 155.152 182.897 146.172 184.862C137.236 186.817 126.693 187.877 115.941 187.755C105.187 187.634 94.2689 186.332 84.572 183.593C74.8607 180.849 66.4756 176.692 60.6741 170.933L58.5607 173.063ZM158.914 59.8358C150.712 53.456 136.824 50.5186 122.931 50.5738C109.012 50.6292 94.6289 53.69 85.3297 59.764L86.9702 62.2757C95.5974 56.6407 109.328 53.628 122.943 53.5738C136.587 53.5195 149.658 56.4366 157.073 62.2039L158.914 59.8358ZM157.774 59.536C150.284 60.6446 144.08 62.6994 139.078 65.9598C134.056 69.2328 130.319 73.6737 127.706 79.4275C122.523 90.8396 121.775 107.407 123.918 130.368L126.905 130.09C124.765 107.161 125.608 91.3001 130.437 80.668C132.83 75.3997 136.203 71.4146 140.716 68.4731C145.248 65.5191 151.003 63.571 158.213 62.5037L157.774 59.536ZM123.918 130.368C123.999 131.231 123.716 133.368 122.66 135.262C121.645 137.082 120.043 138.484 117.498 138.484V141.484C121.439 141.484 123.904 139.189 125.28 136.723C126.614 134.329 127.045 131.589 126.905 130.09L123.918 130.368ZM117.498 138.484C115.587 138.484 114.396 137.452 113.598 135.823C112.766 134.127 112.472 131.942 112.472 130.229H109.472C109.472 132.187 109.795 134.88 110.904 137.143C112.046 139.474 114.118 141.484 117.498 141.484V138.484ZM112.472 130.229C112.472 119.207 110.248 101.765 106.006 87.0507C103.887 79.6992 101.236 72.9289 98.0448 67.9635C94.8966 63.0648 90.9525 59.5199 86.15 59.5199V62.5199C89.3529 62.5199 92.5142 64.9066 95.5211 69.5854C98.485 74.1974 101.039 80.6504 103.124 87.8817C107.29 102.333 109.472 119.496 109.472 130.229H112.472ZM112.115 131.2C113.265 129.847 115.25 128.294 117.423 127.855C118.477 127.643 119.569 127.692 120.669 128.141C121.775 128.593 122.988 129.49 124.21 131.126L126.614 129.332C125.134 127.35 123.511 126.061 121.804 125.364C120.09 124.664 118.39 124.6 116.83 124.915C113.774 125.531 111.24 127.596 109.829 129.258L112.115 131.2ZM117.735 130.142C118.007 129.824 118.458 129.613 119.116 129.612C119.782 129.61 120.546 129.833 121.205 130.247C121.865 130.662 122.311 131.199 122.497 131.734C122.666 132.219 122.671 132.835 122.203 133.617L124.777 135.158C125.672 133.664 125.809 132.126 125.331 130.75C124.871 129.424 123.892 128.393 122.801 127.707C121.709 127.02 120.395 126.608 119.108 126.612C117.813 126.615 116.436 127.049 115.458 128.188L117.735 130.142ZM122.203 133.617C121.834 134.234 121.463 134.329 121.092 134.301C120.584 134.263 119.882 133.947 119.18 133.32C118.491 132.706 117.965 131.937 117.731 131.26C117.491 130.568 117.631 130.262 117.735 130.142L115.458 128.188C114.385 129.438 114.472 131.017 114.896 132.242C115.326 133.483 116.181 134.666 117.183 135.559C118.172 136.441 119.472 137.189 120.869 137.293C122.403 137.407 123.841 136.722 124.777 135.158L122.203 133.617ZM159.434 61.4375C159.95 59.6589 161.828 57.5986 164.968 55.4504C168.036 53.3512 172.036 51.3501 176.325 49.5924C184.931 46.0648 194.396 43.6381 199.301 43.311L199.102 40.3177C193.749 40.6745 183.95 43.225 175.187 46.8165C170.791 48.6183 166.581 50.7121 163.274 52.9744C160.039 55.1876 157.378 57.7553 156.553 60.6022L159.434 61.4375ZM200.373 116.579C192.768 113.551 187.404 105.829 182.353 96.396L179.708 97.8124C184.748 107.223 190.545 115.895 199.263 119.366L200.373 116.579ZM197.721 42.0576C198.847 48.9058 199.307 59.8683 197.032 70.3889C194.752 80.9271 189.795 90.7449 180.326 95.7798L181.735 98.4286C192.319 92.801 197.597 81.9675 199.964 71.0232C202.335 60.0613 201.855 48.7101 200.682 41.5711L197.721 42.0576ZM182.353 96.396C180.821 93.5364 179.338 90.5601 177.833 87.5501C176.332 84.5476 174.811 81.5136 173.219 78.5743L170.581 80.0027C172.146 82.8927 173.646 85.8846 175.15 88.8916C176.649 91.8912 178.153 94.9081 179.708 97.8124L182.353 96.396ZM173.219 78.5743C169.28 71.2999 164.823 64.4314 158.914 59.8358L157.073 62.2039C162.464 66.3972 166.679 72.7962 170.581 80.0027L173.219 78.5743ZM198.235 40.6671C193.74 44.454 186.977 50.8814 181.257 57.8984C178.396 61.4075 175.772 65.0944 173.821 68.697C171.882 72.2796 170.548 75.8906 170.401 79.2225L173.398 79.3545C173.517 76.6728 174.618 73.5277 176.46 70.1251C178.291 66.7424 180.793 63.215 183.582 59.7939C189.16 52.9507 195.784 46.6547 200.168 42.9615L198.235 40.6671ZM42.1162 47.0772C47.1154 46.9593 55.3253 47.5735 63.5753 49.8057C71.8541 52.0457 79.9559 55.8563 84.9919 61.9733L87.308 60.0665C81.6957 53.2494 72.8893 49.2179 64.3589 46.9099C55.7997 44.594 47.2991 43.9541 42.0455 44.078L42.1162 47.0772ZM55.3855 91.8894C48.7038 101.295 42.7972 109.897 36.1451 115.378L38.0528 117.693C45.0883 111.896 51.2574 102.881 57.8312 93.6268L55.3855 91.8894ZM40.5808 45.5776C40.5808 45.524 40.4634 47.3758 40.5416 50.0501C40.6221 52.8029 40.904 56.6524 41.708 61.1971C43.3154 70.2826 47.0161 82.1811 55.3975 93.6435L57.8192 91.8728C41.7183 69.853 43.5808 46.1286 43.5808 45.5776H40.5808ZM85.3297 59.764C78.199 64.4217 72.2055 70.3667 66.8937 76.687L69.1903 78.6171C74.3902 72.43 80.169 66.7181 86.9702 62.2757L85.3297 59.764ZM66.8937 76.687C62.7237 81.6486 58.9546 86.8653 55.3855 91.8894L57.8312 93.6268C61.3975 88.6067 65.1057 83.4772 69.1903 78.6171L66.8937 76.687ZM41.3482 46.8865C44.9113 48.8808 50.5129 52.8691 55.587 58.2841C60.6679 63.7064 65.1142 70.446 66.5695 77.9381L69.5145 77.366C67.9109 69.111 63.0662 61.8784 57.7761 56.2328C52.4791 50.5799 46.6295 46.4046 42.8134 44.2687L41.3482 46.8865ZM58.6416 170.859C47.1328 180.718 25.0904 212.337 27.0699 261.001L30.0675 260.879C28.1259 213.15 49.7692 182.41 60.5933 173.137L58.6416 170.859ZM27.0699 261.001C27.5885 273.75 36.4733 284.83 49.4159 293.519C62.3966 302.233 79.728 308.737 97.7864 312.287C115.847 315.837 134.751 316.454 150.9 313.295C167.018 310.142 180.636 303.172 187.72 291.322L185.145 289.783C178.682 300.593 166.039 307.276 150.324 310.35C134.64 313.419 116.138 312.837 98.365 309.343C80.5893 305.849 63.6572 299.466 51.088 291.028C38.4807 282.564 30.5291 272.229 30.0675 260.879L27.0699 261.001ZM60.6764 212.462L85.5199 226.695L87.0112 224.092L62.1677 209.859L60.6764 212.462ZM81.9754 248.142C69.8811 245.685 63.6778 241.804 56.3247 238.021L54.9524 240.689C62.2014 244.418 68.7961 248.526 81.3782 251.081L81.9754 248.142ZM115.998 139.984V147.536H118.998V139.984H115.998ZM116.179 146.822C115.154 148.717 112.927 151.153 109.665 152.208C106.48 153.238 102.053 153.033 96.3897 149.223L94.7154 151.713C100.993 155.935 106.369 156.426 110.587 155.063C114.727 153.724 117.503 150.679 118.817 148.25L116.179 146.822ZM132.818 153.23C135.042 152.685 137.421 151.729 139.937 150.251L138.417 147.664C136.127 149.01 134.018 149.847 132.105 150.316L132.818 153.23ZM131.146 152.493C132.192 154.403 133.364 157.239 133.617 159.604C133.744 160.79 133.617 161.669 133.315 162.239C133.063 162.716 132.608 163.137 131.583 163.289L132.023 166.256C133.877 165.982 135.216 165.061 135.967 163.643C136.669 162.317 136.756 160.745 136.6 159.285C136.287 156.358 134.91 153.12 133.777 151.052L131.146 152.493ZM116.306 148.446C117.018 149.378 118.059 150.372 119.389 151.246L121.036 148.738C119.967 148.036 119.182 147.269 118.69 146.626L116.306 148.446ZM131.583 163.289C128.882 163.689 126.257 161.811 124.253 158.72C123.283 157.225 122.544 155.559 122.099 154.01C121.645 152.432 121.536 151.109 121.689 150.257L118.736 149.727C118.469 151.214 118.699 153.041 119.215 154.839C119.74 156.666 120.602 158.604 121.735 160.352C123.937 163.748 127.527 166.922 132.023 166.256L131.583 163.289ZM119.389 151.246C120.915 152.248 122.847 153.109 125.141 153.53L125.682 150.579C123.811 150.236 122.252 149.537 121.036 148.738L119.389 151.246ZM125.141 153.53C127.391 153.942 129.966 153.927 132.818 153.23L132.105 150.316C129.658 150.914 127.51 150.914 125.682 150.579L125.141 153.53ZM124.136 152.843C124.854 154.005 125.822 155.622 126.588 157.077C126.973 157.808 127.291 158.467 127.501 158.993C127.606 159.256 127.672 159.458 127.708 159.6C127.751 159.772 127.721 159.747 127.738 159.611L130.715 159.983C130.767 159.563 130.69 159.156 130.617 158.868C130.537 158.55 130.42 158.214 130.287 157.881C130.021 157.215 129.648 156.449 129.243 155.679C128.429 154.133 127.418 152.448 126.687 151.265L124.136 152.843ZM163.485 217.801C163.056 216.363 163.056 216.363 163.056 216.363C163.055 216.363 163.055 216.364 163.055 216.364C163.054 216.364 163.053 216.364 163.051 216.365C163.049 216.365 163.046 216.366 163.042 216.368C163.033 216.37 163.022 216.374 163.007 216.378C162.978 216.387 162.936 216.4 162.881 216.417C162.772 216.452 162.613 216.502 162.408 216.57C161.997 216.706 161.4 216.911 160.642 217.19C159.125 217.749 156.962 218.605 154.35 219.806C149.131 222.207 142.107 225.989 134.882 231.523L136.707 233.905C143.715 228.537 150.537 224.862 155.604 222.532C158.136 221.367 160.227 220.54 161.678 220.005C162.404 219.738 162.969 219.544 163.35 219.418C163.541 219.355 163.685 219.309 163.78 219.279C163.827 219.265 163.862 219.254 163.885 219.247C163.896 219.243 163.904 219.241 163.909 219.24C163.911 219.239 163.913 219.238 163.914 219.238C163.914 219.238 163.914 219.238 163.914 219.238C163.914 219.238 163.914 219.238 163.914 219.238C163.914 219.238 163.913 219.238 163.485 217.801ZM152.565 260.304C165.321 258.517 173.556 255.295 178.643 252.465C181.186 251.051 182.937 249.737 184.068 248.756C184.633 248.266 185.043 247.859 185.319 247.565C185.457 247.418 185.561 247.299 185.635 247.212C185.672 247.169 185.701 247.134 185.723 247.107C185.733 247.093 185.743 247.082 185.75 247.073C185.753 247.068 185.757 247.064 185.759 247.061C185.761 247.059 185.762 247.057 185.763 247.056C185.764 247.055 185.764 247.054 185.765 247.054C185.765 247.053 185.766 247.052 184.576 246.138C183.387 245.225 183.387 245.224 183.388 245.223C183.388 245.223 183.389 245.222 183.389 245.221C183.39 245.221 183.39 245.22 183.391 245.219C183.392 245.218 183.392 245.217 183.393 245.217C183.393 245.217 183.391 245.218 183.388 245.222C183.382 245.23 183.368 245.247 183.348 245.271C183.306 245.32 183.235 245.402 183.132 245.512C182.925 245.732 182.589 246.068 182.102 246.49C181.128 247.335 179.548 248.529 177.185 249.844C172.461 252.472 164.587 255.59 152.149 257.333L152.565 260.304ZM130.309 215.013L130.968 222.089L133.955 221.811L133.296 214.735L130.309 215.013ZM92.5864 218.412V211.16H89.5864V218.412H92.5864ZM90.9501 212.654L121.539 215.444L121.812 212.456L91.2226 209.666L90.9501 212.654ZM123.175 213.992C123.197 213.177 123.184 204.596 123.175 200.447L120.175 200.454C120.184 204.65 120.197 213.153 120.176 213.908L123.175 213.992ZM121.675 201.95H127.418V198.95H121.675V201.95ZM121.539 215.444L127.281 215.968L127.554 212.98L121.812 212.456L121.539 215.444ZM127.282 215.968L131.667 216.368L131.939 213.38L127.554 212.98L127.282 215.968ZM125.918 200.45V214.474H128.918V200.45H125.918ZM94.0331 217.158L91.2142 216.917L90.9586 219.906L93.7775 220.147L94.0331 217.158ZM93.3371 266.627H129.231V263.627H93.3371V266.627ZM132.589 220.455L129.359 220.179L129.103 223.168L132.334 223.444L132.589 220.455ZM129.359 220.179L94.0331 217.158L93.7775 220.147L129.103 223.168L129.359 220.179ZM92.4054 218.635L92.2227 233.577L95.2225 233.614L95.4051 218.671L92.4054 218.635ZM85.5204 226.695C89.1596 228.778 91.2934 231.443 92.3216 234.131L95.1236 233.059C93.824 229.662 91.19 226.484 87.0107 224.091L85.5204 226.695ZM92.224 242.585C90.5593 246.521 86.7262 249.107 81.9754 248.142L81.3782 251.081C87.7279 252.371 92.85 248.807 94.9871 243.753L92.224 242.585ZM92.1056 243.151L91.8372 265.109L94.837 265.145L95.1054 243.187L92.1056 243.151ZM130.731 240.065V221.673H127.731V240.065H130.731ZM134.882 231.523C131.487 234.124 129.196 236.765 127.888 239.398L130.574 240.733C131.621 238.627 133.555 236.319 136.707 233.905L134.882 231.523ZM127.907 250.033C129.889 253.749 133.8 256.622 138.226 258.403C142.674 260.194 147.841 260.966 152.565 260.304L152.149 257.333C148.002 257.914 143.364 257.238 139.346 255.62C135.305 253.994 132.089 251.499 130.554 248.621L127.907 250.033ZM130.731 265.127V249.327H127.731V265.127H130.731ZM93.3133 235.038L99.5219 236.799L100.341 233.913L94.1319 232.152L93.3133 235.038ZM92.3216 234.131C92.7561 235.267 92.9979 236.418 93.0692 237.548L96.0633 237.359C95.9731 235.93 95.6675 234.481 95.1236 233.059L92.3216 234.131ZM99.3852 233.959L94.0202 236.056L95.1123 238.85L100.477 236.753L99.3852 233.959ZM94.0172 238.849L100.128 241.252L101.226 238.461L95.1153 236.057L94.0172 238.849ZM93.0692 237.548C93.1264 238.452 93.0743 239.345 92.9236 240.205L95.8787 240.722C96.0698 239.631 96.1355 238.502 96.0633 237.359L93.0692 237.548ZM92.9236 240.205C92.7784 241.034 92.5418 241.833 92.224 242.585L94.9871 243.753C95.3938 242.791 95.6945 241.774 95.8787 240.722L92.9236 240.205ZM100.533 238.363L94.2567 238.971L94.5456 241.957L100.822 241.35L100.533 238.363ZM93.4844 241.651L99.0145 245.921L100.848 243.546L95.3178 239.276L93.4844 241.651ZM100.291 243.277L93.9657 241.713L93.2454 244.625L99.5711 246.189L100.291 243.277ZM128.914 238.599L125.603 239.314L126.236 242.247L129.548 241.532L128.914 238.599ZM125.603 239.314L124.075 239.644L124.708 242.577L126.236 242.247L125.603 239.314ZM127.888 239.398C127.141 240.9 126.716 242.397 126.593 243.869L129.582 244.119C129.671 243.058 129.981 241.927 130.574 240.733L127.888 239.398ZM123.469 242.293L124.273 242.921L126.119 240.555L125.314 239.928L123.469 242.293ZM124.273 242.921L127.165 245.177L129.01 242.811L126.119 240.555L124.273 242.921ZM127.649 242.559L123.953 243.689L124.83 246.558L128.526 245.428L127.649 242.559ZM126.593 243.869C126.478 245.228 126.624 246.543 126.989 247.793L129.869 246.952C129.604 246.045 129.5 245.1 129.582 244.119L126.593 243.869ZM126.989 247.793C127.216 248.57 127.526 249.318 127.907 250.033L130.554 248.621C130.264 248.076 130.034 247.519 129.869 246.952L126.989 247.793ZM123.661 246.434L127.699 248.683L129.159 246.062L125.121 243.813L123.661 246.434ZM127.898 245.97L123.572 247.605L124.633 250.411L128.959 248.776L127.898 245.97ZM124.01 250.505L129.138 250.824L129.324 247.83L124.196 247.511L124.01 250.505ZM199.194 140.664C196.385 141.95 194.104 141.716 192.315 140.718L190.853 143.338C193.556 144.845 196.85 145.036 200.442 143.392L199.194 140.664ZM192.315 140.718C190.43 139.666 188.899 137.654 187.957 135.124C187.02 132.605 186.722 129.712 187.179 127.088C187.636 124.466 188.821 122.221 190.741 120.807C192.638 119.409 195.465 118.666 199.536 119.446L200.1 116.499C195.407 115.601 191.679 116.389 188.962 118.391C186.267 120.376 184.776 123.399 184.224 126.573C183.671 129.746 184.031 133.177 185.146 136.171C186.256 139.153 188.17 141.841 190.853 143.338L192.315 140.718ZM187.72 291.322C193.835 281.094 197.598 260.985 194.98 238.623L192 238.972C194.574 260.955 190.8 280.323 185.145 289.783L187.72 291.322ZM194.98 238.623C192.594 218.242 184.888 195.784 168.6 176.942L166.33 178.904C182.148 197.202 189.669 219.058 192 238.972L194.98 238.623ZM168.396 179.1C173.205 175.294 177.85 170.429 182.164 165.452L179.897 163.487C175.631 168.409 171.128 173.111 166.534 176.747L168.396 179.1ZM211.77 241.222C205.937 242.068 200.018 240.988 194.265 237.513L192.714 240.081C199.054 243.911 205.672 245.138 212.201 244.191L211.77 241.222ZM179.898 165.454C185.988 172.459 194.857 184.771 201.593 198.853C208.347 212.97 212.848 228.64 210.507 242.456L213.464 242.957C215.96 228.232 211.15 211.877 204.3 197.558C197.433 183.203 188.406 170.668 182.162 163.485L179.898 165.454ZM182.164 165.452C185.961 161.071 189.537 156.559 192.752 152.57L190.416 150.687C187.18 154.703 183.649 159.158 179.897 163.487L182.164 165.452ZM192.752 152.57C195.834 148.746 198.563 145.43 200.885 143.083L198.752 140.973C196.304 143.447 193.481 146.884 190.416 150.687L192.752 152.57ZM239.359 222.499C231.154 233.027 221.475 239.813 211.77 241.222L212.201 244.191C222.958 242.63 233.258 235.207 241.725 224.344L239.359 222.499ZM190.869 152.947C198.305 156.98 209.719 165.392 219.594 177.447C229.463 189.494 237.73 205.096 239.046 223.528L242.038 223.315C240.666 204.095 232.053 187.922 221.915 175.546C211.783 163.178 200.062 154.52 192.299 150.31L190.869 152.947ZM193.066 141.794C192.735 139.699 193.287 138.104 194.524 136.62C195.828 135.053 197.889 133.621 200.584 132.021L199.053 129.442C196.343 131.05 193.882 132.703 192.218 134.7C190.487 136.78 189.624 139.229 190.102 142.262L193.066 141.794ZM253.344 196.897C249.703 206.661 244.892 215.4 239.359 222.499L241.725 224.344C247.467 216.976 252.419 207.962 256.155 197.945L253.344 196.897ZM199.122 132.06C207.273 136.328 219.82 144.771 230.834 156.164C241.86 167.57 251.214 181.791 253.262 197.613L256.237 197.228C254.073 180.504 244.239 165.714 232.991 154.079C221.732 142.432 208.919 133.803 200.514 129.403L199.122 132.06ZM231.416 85.7321C250.281 104.016 258.843 126.685 260.379 149.06L263.372 148.855C261.792 125.843 252.97 102.445 233.504 83.5779L231.416 85.7321ZM260.379 149.06C261.531 165.853 258.724 182.469 253.344 196.897L256.155 197.945C261.673 183.145 264.555 166.103 263.372 148.855L260.379 149.06ZM217.891 120.029C223.082 120.555 231.47 122.721 239.709 127.394C247.936 132.061 255.928 139.177 260.502 149.562L263.248 148.353C258.346 137.225 249.814 129.677 241.19 124.785C232.578 119.9 223.787 117.611 218.193 117.045L217.891 120.029ZM200.584 132.021C205.683 128.994 212.8 125.533 219.07 119.629L217.014 117.445C211.06 123.051 204.411 126.261 199.053 129.442L200.584 132.021ZM219.07 119.629C226.537 112.598 232.819 102.131 233.957 84.753L230.964 84.557C229.874 101.193 223.917 110.945 217.014 117.445L219.07 119.629Z" fill="black"/>
    </g>
</svg>
