<svg width="250" height="250" viewBox="0 0 250 250" fill="none" xmlns="http://www.w3.org/2000/svg">
    <defs>
        <clipPath id="clip0_235_144">
            <rect width="250" height="250" rx="125" fill="white"/>
        </clipPath>
    </defs>
    <g clip-path="url(#clip0_235_144)">
        <rect width="250" height="250" rx="125" fill="white"/>
        <circle cx="125" cy="125" r="125" fill="#FF7E7E"/>
        <path d="M250.256 163.223C250.256 152.257 250.448 143.239 249.954 135.389C243.078 125.95 220.164 120.579 209.567 119.073C207.932 122.07 205.967 124.947 203.615 127.579C216.782 133.422 244.485 149.661 249.954 167.879C250.153 166.3 250.256 164.746 250.256 163.223Z" fill="#D2D2DF"/>
        <path d="M203.615 127.579C201.868 129.534 199.909 131.353 197.713 132.986C192.884 136.579 188.329 141.676 184.165 147.483C196.568 148.616 225.39 158.993 241.454 191.436C245.937 183.369 249.015 175.336 249.954 167.879C244.485 149.661 216.782 133.422 203.615 127.579Z" fill="#424652"/>
        <path d="M241.454 191.436C225.39 158.993 196.568 148.616 184.165 147.483C180.423 152.701 176.997 158.493 173.97 164.284C189.809 169.675 223.538 185.616 231.739 206.259C235.397 201.389 238.692 196.406 241.454 191.436Z" fill="#D2D2DF"/>
        <path d="M231.739 206.259C223.538 185.616 189.809 169.675 173.97 164.284C169.784 172.294 166.362 180.301 163.927 186.784C179.624 189.319 212.276 200.128 217.302 223.08C222.438 217.784 227.349 212.103 231.739 206.259Z" fill="#424652"/>
        <path d="M161.539 193.588L183.431 250.052C193.712 244.449 206.046 234.688 217.302 223.08C212.276 200.128 179.624 189.319 163.927 186.784C162.976 189.314 162.176 191.612 161.539 193.588Z" fill="#D2D2DF"/>
        <path d="M216.802 84.2647C217.461 91.8965 216.405 106.538 209.567 119.073C220.164 120.579 243.078 125.95 249.954 135.389C248.67 115.007 242.753 102.507 216.802 84.2647Z" fill="#424652"/>
        <path d="M209.567 119.073C216.405 106.538 217.461 91.8965 216.802 84.2647C242.753 102.507 248.67 115.007 249.954 135.389M209.567 119.073C220.164 120.579 243.078 125.95 249.954 135.389M209.567 119.073C207.932 122.07 205.967 124.947 203.615 127.579M249.954 135.389C250.448 143.239 250.256 152.257 250.256 163.223C250.256 164.746 250.153 166.3 249.954 167.879M203.615 127.579C201.868 129.534 199.909 131.353 197.713 132.986C192.884 136.579 188.329 141.676 184.165 147.483M203.615 127.579C216.782 133.422 244.485 149.661 249.954 167.879M249.954 167.879C249.015 175.336 245.937 183.369 241.454 191.436M184.165 147.483C196.568 148.616 225.39 158.993 241.454 191.436M184.165 147.483C180.423 152.701 176.997 158.493 173.97 164.284M241.454 191.436C238.692 196.406 235.397 201.389 231.739 206.259M173.97 164.284C189.809 169.675 223.538 185.616 231.739 206.259M173.97 164.284C169.784 172.294 166.362 180.301 163.927 186.784M231.739 206.259C227.349 212.103 222.438 217.784 217.302 223.08M163.927 186.784C162.976 189.314 162.176 191.612 161.539 193.588L183.431 250.052C193.712 244.449 206.046 234.688 217.302 223.08M163.927 186.784C179.624 189.319 212.276 200.128 217.302 223.08" stroke="black" stroke-width="3" stroke-linejoin="round"/>
        <path d="M216.498 126.873C212.843 123.672 214.887 110.167 217.189 111.114C219.665 112.503 219.121 115.944 220.148 118.057C222.2 115.642 222.744 111.114 224.313 111.114C226.668 111.537 224.884 118.529 226.454 120.159C229.291 118.469 230.131 111.971 231.858 113.397C234.921 115.926 232.349 127.644 225.098 128.321C224.615 130.615 219.853 149.451 215.076 157.42C213.251 157.018 210.186 155.669 210.186 155.669C210.186 155.669 214.685 136.07 216.498 126.873Z" fill="#ADADAD" stroke="black" stroke-width="3" stroke-linecap="round" stroke-linejoin="round"/>
        <path d="M26.074 136.308L38.3499 155.447L37.1658 160.413L31.6764 158.054L20.9364 139.285C13.3933 136.2 9.29926 122.379 13.7925 120.731C19.7086 118.11 28.0392 131.436 26.074 136.308Z" fill="#ADADAD" stroke="black" stroke-width="3" stroke-linecap="round" stroke-linejoin="round"/>
        <path d="M69.4771 217.409C55.6876 212.403 16.3089 166.922 32.4382 156.75C47.7532 150.467 69.4182 174.742 80.7079 191.729C103.626 198.455 156.375 207.558 183.189 189.871C188.611 177.819 200.699 149.078 213.518 154.535C231.793 161.291 203.258 209.792 193.943 223.998L213.672 277.882C182.978 302.447 88.8184 301.346 68.0054 282.596L69.4771 217.409Z" fill="#BFC3D4"/>
        <path d="M84.0373 197.024C83.0682 195.381 81.9509 193.6 80.7079 191.729M80.7079 191.729C69.4182 174.742 47.7532 150.467 32.4382 156.75C16.3089 166.922 55.6876 212.403 69.4771 217.409L68.0054 282.596C88.8184 301.346 182.978 302.447 213.672 277.882L193.943 223.998C203.258 209.792 231.793 161.291 213.518 154.535C200.699 149.078 188.611 177.819 183.189 189.871M80.7079 191.729C103.626 198.455 156.375 207.558 183.189 189.871M183.189 189.871C182.34 191.841 181.488 195.983 181.003 197.157" stroke="black" stroke-width="3" stroke-linecap="round" stroke-linejoin="round"/>
        <path d="M66.2052 121.165L58.3145 108.471L62.0504 101.778L62.4314 101.095L46.65 79.6531H43.063C42.4768 79.7618 41.9256 79.767 41.5038 79.6531C35.157 76.4511 24.4874 66.3762 32.5839 51.6926C40.6805 37.009 47.3933 41.5719 49.7377 45.6888C48.5941 40.0281 49.0515 28.1234 60.0299 25.7905C73.7529 22.8743 79.9282 26.6482 84.0451 30.0789C83.3589 25.2759 85.2115 14.6749 98.1111 10.6952C111.011 6.71554 116.752 12.3534 118.009 15.6698C118.581 13.6685 121.715 10.0777 129.674 11.7244C139.623 13.7829 143.054 28.192 135.506 35.5681C134.055 36.9864 132.223 38.0559 130.189 38.8473L132.51 46.0807L133.72 49.8499L137.246 60.8358C140.67 59.7103 148.939 69.0624 145.223 76.2746C126.784 73.3828 85.1652 78.3124 66.2052 121.165Z" fill="#FCFCFC"/>
        <path d="M41.5038 79.6531H46.65L62.4314 101.095L62.0504 101.778M41.5038 79.6531C35.157 76.4511 24.4874 66.3762 32.5839 51.6926C40.6805 37.009 47.3933 41.5719 49.7377 45.6888C48.5941 40.0281 49.0515 28.1234 60.0299 25.7905C73.7529 22.8743 79.9282 26.6482 84.0451 30.0789C83.3589 25.2759 85.2115 14.6749 98.1111 10.6952C111.011 6.71554 116.752 12.3534 118.009 15.6698C118.581 13.6685 121.715 10.0777 129.674 11.7244C139.623 13.7829 143.054 28.192 135.506 35.5681C134.055 36.9864 132.223 38.0559 130.189 38.8473M41.5038 79.6531C42.9918 80.0548 46.0929 78.9753 46.65 77.0917M107.031 39.3419C107.954 39.8031 110.193 40.3103 113.081 40.5981M113.081 40.5981C110.95 46.5834 101.967 57.5003 86.5974 53.5206M113.081 40.5981C118.001 41.0884 124.804 40.942 130.189 38.8473M86.5974 53.5206C85.8193 56.7194 76.5719 66.3812 66.2964 63.2063M86.5974 53.5206C85.9435 53.3658 84.3503 52.7834 83.2088 51.6926M66.2964 63.2063C65.8777 67.766 56.982 80.7875 46.65 77.0917M66.2964 63.2063C66.2964 63.2063 64.18 62.2886 63.8168 60.8358M43.2345 75.2736C44.3887 76.0955 45.5297 76.691 46.65 77.0917M130.189 38.8473L132.51 46.0807M137.246 60.8358C140.67 59.7103 148.939 69.0624 145.223 76.2746C126.784 73.3828 85.1652 78.3124 66.2052 121.165L58.3145 108.471L62.0504 101.778M137.246 60.8358C121.658 59.3546 84.7955 65.4695 62.0504 101.778M137.246 60.8358L133.72 49.8499M132.51 46.0807C126.077 46.8806 123.173 48.8735 121.827 49.8499M132.51 46.0807L133.72 49.8499M133.72 49.8499C131.671 50.2134 127.019 51.3681 124.805 53.0791" stroke="black" stroke-width="3" stroke-linecap="round" stroke-linejoin="round"/>
        <path d="M203.751 63.8553C188.665 62.308 171.839 76.5554 165.65 82.9055L178.101 96.9525C185.74 81.8671 205.149 63.9987 203.751 63.8553Z" fill="#D2D2DF" stroke="black" stroke-width="3" stroke-linejoin="round"/>
        <path d="M205.685 88.5143C206.691 73.042 204.785 63.8464 203.65 63.8464C203.394 66.5018 186.861 80.6143 178.216 96.831L189.946 116.348C194.169 113.994 204.679 103.987 205.685 88.5143Z" fill="#8B9099" stroke="black" stroke-width="3" stroke-linejoin="round"/>
        <path d="M70.2688 110.424C59.5688 99.2005 54.7428 67.8725 55.96 63.2149C57.2562 64.2429 76.6822 83.464 85.313 93.7771C85.3373 104.535 80.9688 121.647 70.2688 110.424Z" fill="#8B9099" stroke="black" stroke-width="3" stroke-linejoin="round"/>
        <path d="M55.9689 63.2344C72.8405 59.2679 90.7457 76.4329 97.5893 85.5112L84.1116 92.7738C80.5361 87.243 63.86 70.7764 55.9689 63.2344Z" fill="#D2D2DF" stroke="black" stroke-width="3" stroke-linejoin="round"/>
        <path d="M77.0983 96.9433C72.1782 103.254 63.3276 123.467 53.9753 132.933C65.9217 129.387 76.2814 157.199 55.3753 162.706C59.0152 162.706 74.888 182.426 82.5726 191.854C128.673 205.814 141.163 205.998 182.586 191.854L196.833 161.868C185.322 148.627 196.833 132.688 204 133.748C199.228 130.744 180.257 98.1703 173.061 89.5748C167.646 83.1066 157.779 77.2406 151.4 75.134C139.31 71.1422 122.579 73.4435 116.92 74.4998C95.8028 78.581 83.0093 89.3619 77.0983 96.9433Z" fill="#DFE5EE" stroke="black" stroke-width="3" stroke-linejoin="round"/>
        <path d="M147.23 170.818C145.001 171.702 142.783 172.426 140.6 173.014C138.325 169.918 135.122 162.865 141.208 161.97C147.295 161.075 147.759 167.496 147.23 170.818Z" fill="#F27779"/>
        <path d="M109.433 173.271C115.813 175.311 131.212 177.166 147.23 170.818M154.523 167.341C152.097 168.707 149.657 169.856 147.23 170.818M147.23 170.818C147.759 167.496 147.295 161.075 141.208 161.97M141.208 161.97C135.122 162.865 138.325 169.918 140.6 173.014M141.208 161.97C141.863 163.103 143.198 165.847 143.297 167.761" stroke="black" stroke-width="3" stroke-linecap="round" stroke-linejoin="round"/>
        <path d="M179.13 164.775C167.5 176.243 131.091 137.351 144.803 123.455C157.503 113.884 193.054 151.046 179.13 164.775Z" fill="#424652" stroke="black" stroke-width="3" stroke-linecap="round" stroke-linejoin="round"/>
        <path d="M154.689 128.52C163.365 127.144 165.495 141.379 157.616 143.4C146.426 146.271 145.09 130.042 154.689 128.52Z" fill="black" stroke="black" stroke-width="3" stroke-linecap="round" stroke-linejoin="round"/>
        <path d="M153.071 135.089C151.269 135.919 150.396 133.631 149.483 132.418C150.627 130.364 152.872 129.333 153.852 129.074C154.81 130.709 154.872 134.259 153.071 135.089Z" fill="white" stroke="white" stroke-width="3" stroke-linecap="round" stroke-linejoin="round"/>
        <path d="M154.689 128.52C163.365 127.144 165.495 141.379 157.616 143.4C146.426 146.271 145.09 130.042 154.689 128.52Z" stroke="black" stroke-width="3" stroke-linecap="round" stroke-linejoin="round"/>
        <path d="M77.6424 167.876C89.2721 179.343 125.681 140.452 111.969 126.556C99.2688 116.985 63.7185 154.147 77.6424 167.876Z" fill="#424652" stroke="black" stroke-width="3" stroke-linecap="round" stroke-linejoin="round"/>
        <path d="M102.083 131.62C93.4075 130.245 91.2771 144.479 99.1562 146.501C110.346 149.371 111.682 133.142 102.083 131.62Z" fill="black" stroke="black" stroke-width="3" stroke-linecap="round" stroke-linejoin="round"/>
        <path d="M103.701 138.189C105.503 139.019 106.376 136.732 107.289 135.519C106.145 133.465 103.9 132.433 102.92 132.174C101.962 133.81 101.9 137.359 103.701 138.189Z" fill="white" stroke="white" stroke-width="3" stroke-linecap="round" stroke-linejoin="round"/>
        <path d="M102.083 131.62C93.4075 130.245 91.2771 144.479 99.1562 146.501C110.346 149.371 111.682 133.142 102.083 131.62Z" stroke="black" stroke-width="3" stroke-linecap="round" stroke-linejoin="round"/>
        <path d="M116.25 100.166C110.127 80.7906 99.3444 80.1388 94.7367 82.3856C116.817 70.4194 146.582 69.6844 161.349 80.1297C129.194 84.8997 130.641 129.782 135.384 151.626C137.101 159.533 125.275 160.009 124.564 152.863C123.62 143.392 122.373 119.541 116.25 100.166Z" fill="#424652" stroke="black" stroke-width="3" stroke-linecap="round" stroke-linejoin="round"/>
        <path d="M134.345 148.35C129.567 146.244 125.708 149.228 124.376 150.983C125.505 160.811 134.063 156.955 135.097 155.121C135.925 153.654 134.94 149.996 134.345 148.35Z" fill="black" stroke="black" stroke-width="3" stroke-linecap="round" stroke-linejoin="round"/>
        <path d="M131.053 151.312C130.27 151.83 128.26 152.121 126.492 149.149L128.716 148.021H130.677C132.069 148.623 131.944 150.725 131.053 151.312Z" fill="#F2F2F2"/>
        <path d="M134.345 148.35C129.567 146.244 125.708 149.228 124.376 150.983C125.505 160.811 134.063 156.955 135.097 155.121C135.925 153.654 134.94 149.996 134.345 148.35Z" stroke="black" stroke-width="3" stroke-linecap="round" stroke-linejoin="round"/>
        <path d="M86.4595 106.126C88.1988 102.275 93.8988 96.5104 102.784 104.263M144.826 105.605C146.739 101.728 152.683 96.1824 161.151 105.008" stroke="black" stroke-width="3" stroke-linecap="round" stroke-linejoin="round"/>
    </g>
</svg>
