<svg width="250" height="250" viewBox="0 0 250 250" fill="none" xmlns="http://www.w3.org/2000/svg">\
    <defs>
        <clipPath id="clip0_357_774">
            <rect width="250" height="250" rx="125" fill="white"/>
        </clipPath>
    </defs>
    <g clip-path="url(#clip0_357_774)">
        <circle cx="125" cy="125" r="125" fill="#A9A9A9"/>
        <path fill-rule="evenodd" clip-rule="evenodd" d="M34.9553 128.258C56.2247 128.258 57.8401 161.643 34.9553 159.22C48.1477 168.374 50.5708 183.72 66.7247 193.951C71.9416 197.255 99.2843 207.934 130.133 207.349C142.659 207.111 155.762 205.016 168.197 199.817C177.824 195.792 187.05 189.906 195.298 181.581C201.319 175.502 206.819 168.124 211.572 159.22C207.318 161.309 203.379 160.801 200.242 158.806C190.661 152.713 188.56 132.747 207.821 130.479C208.991 130.341 210.24 130.269 211.572 130.269C210.693 129.766 209.849 129.26 209.039 128.751C198.902 122.391 193.99 115.65 190.177 108.403C187.218 102.779 184.922 96.8503 181.36 90.5604C178.127 84.8508 173.851 78.8434 167.09 72.4952C110.477 80.5851 130.586 124.166 129.369 145.277C129.049 150.815 125.106 154.604 121.232 154.82C117.833 155.009 114.487 152.448 113.686 145.906C110.369 118.794 114.55 108.403 107.399 97.6767C104.156 100.62 100.319 103.592 95.9645 106.519C95.0268 107.149 94.0651 107.778 93.0803 108.403C74.4081 120.262 47.4029 133.729 49.934 107.212C45.9384 112.695 37.8878 125.534 34.9553 128.258ZM170.815 161.627C177.566 157.561 173.869 140.349 165.752 129.995C158.439 120.665 146.062 113.117 138.185 118.63C132.091 122.896 133.987 140.377 144.479 151.035C149.787 156.427 162.943 166.367 170.815 161.627ZM65.0493 162.287C59.986 156.436 60.8696 141.213 71.9128 129.995C82.9561 118.776 94.4163 113.89 100.717 120.093C105.99 125.284 105.46 141.055 94.4163 152.273C83.373 163.491 69.9609 167.963 65.0493 162.287Z" fill="#DFE5EE"/>
        <path fill-rule="evenodd" clip-rule="evenodd" d="M165.752 129.995C173.869 140.349 177.566 157.561 170.815 161.627C162.943 166.367 149.787 156.427 144.479 151.035C133.987 140.377 132.091 122.896 138.185 118.63C146.062 113.117 158.439 120.665 165.752 129.995ZM148.167 142.032C143.473 142.032 139.667 138.002 139.667 133.032C139.667 128.061 143.473 124.032 148.167 124.032C152.862 124.032 156.667 128.061 156.667 133.032C156.667 138.002 152.862 142.032 148.167 142.032Z" fill="#424652"/>
        <path fill-rule="evenodd" clip-rule="evenodd" d="M71.9128 129.995C60.8696 141.213 59.986 156.436 65.0493 162.287C69.9609 167.963 83.373 163.491 94.4163 152.273C105.46 141.055 105.99 125.284 100.717 120.093C94.4163 113.89 82.9561 118.776 71.9128 129.995ZM89.3356 140.932C94.0301 140.932 97.8356 136.903 97.8356 131.932C97.8356 126.962 94.0301 122.932 89.3356 122.932C84.6412 122.932 80.8357 126.962 80.8357 131.932C80.8357 136.903 84.6412 140.932 89.3356 140.932Z" fill="#424652"/>
        <path fill-rule="evenodd" clip-rule="evenodd" d="M139.667 133.032C139.667 138.002 143.473 142.032 148.167 142.032C152.862 142.032 156.667 138.002 156.667 133.032C156.667 128.061 152.862 124.032 148.167 124.032C143.473 124.032 139.667 128.061 139.667 133.032ZM141.75 133.643C146.134 141.231 154.658 132.66 150.982 127.873C147.206 122.955 138.416 127.873 141.75 133.643Z" fill="black"/>
        <path d="M141.75 133.643C146.134 141.231 154.658 132.66 150.982 127.873C147.206 122.955 138.416 127.873 141.75 133.643Z" fill="white"/>
        <path d="M92.5957 131.932C87.5521 135.695 77.6118 133.045 86.6117 125.137C91.9734 121.034 97.8356 127.488 92.5957 131.932Z" fill="white"/>
        <path fill-rule="evenodd" clip-rule="evenodd" d="M97.8356 131.932C97.8356 136.903 94.0301 140.932 89.3356 140.932C84.6412 140.932 80.8357 136.903 80.8357 131.932C80.8357 126.962 84.6412 122.932 89.3356 122.932C94.0301 122.932 97.8356 126.962 97.8356 131.932ZM92.5957 131.932C87.5521 135.695 77.6118 133.045 86.6117 125.137C91.9734 121.034 97.8356 127.488 92.5957 131.932Z" fill="black"/>
        <path fill-rule="evenodd" clip-rule="evenodd" d="M129.369 145.277C122.24 138.618 115.943 142.922 113.686 145.906C114.487 152.448 117.833 155.009 121.232 154.82C125.106 154.604 129.049 150.815 129.369 145.277ZM119.318 145.277C121.263 141.049 131.496 143.453 126.281 150.172C123.496 153.761 117.714 148.765 119.318 145.277Z" fill="black"/>
        <path d="M119.318 145.277C121.263 141.049 131.496 143.453 126.281 150.172C123.496 153.761 117.714 148.765 119.318 145.277Z" fill="white"/>
        <path d="M167.09 72.4952C133.026 49.8358 108.077 57.7328 99.86 64.5137C125.003 68.2575 124.016 82.592 107.399 97.6767C114.55 108.403 110.369 118.794 113.686 145.906C115.943 142.922 122.24 138.618 129.369 145.277C130.586 124.166 110.477 80.5851 167.09 72.4952Z" fill="#424652"/>
        <path d="M49.934 107.212C47.4029 133.729 74.4081 120.262 93.0803 108.403C94.0651 107.778 95.0268 107.149 95.9645 106.519C100.319 103.592 104.156 100.62 107.399 97.6767C124.016 82.592 125.003 68.2575 99.86 64.5137C99.5181 65.1937 99.1739 65.8584 98.8275 66.5082C81.7047 98.6306 59.3317 94.3147 49.934 107.212Z" fill="#D9B468"/>
        <path d="M51.9344 52.5127C35.5345 84.0641 44.6238 96.8574 49.934 107.212C59.3317 94.3147 81.7047 98.6306 98.8275 66.5082C97.8567 66.3435 78.5246 42.9459 51.9344 52.5127Z" fill="#D9B468"/>
        <path d="M49.934 107.212C44.6238 96.8574 35.5345 84.0641 51.9344 52.5127C25.6777 76.7165 35.9425 98.8674 35.6478 99.9649C39.6682 105.969 44.9321 109.373 49.934 107.212Z" fill="#D9B468"/>
        <path d="M35.6478 99.9649C25.6428 85.0231 23.3382 53.9772 51.9344 52.5127C25.6777 76.7165 35.9425 98.8674 35.6478 99.9649Z" fill="#D9B468"/>
        <path d="M99.86 64.5137C102.621 50.554 68.3583 18.5841 51.9344 52.5127C78.5246 42.9459 97.8567 66.3435 98.8275 66.5082C99.1739 65.8584 99.5181 65.1937 99.86 64.5137Z" fill="#D9B468"/>
        <path d="M51.9344 52.5127C55.7855 44.5572 59.3873 33.2602 53.503 33.2602C47.079 33.2602 48.7233 46.019 51.9344 52.5127Z" fill="#D9B468"/>
        <path d="M51.9344 52.5127C51.6425 51.9101 37.5367 37.8876 33.728 44.2336C29.8123 50.758 43.5173 52.6348 51.9344 52.5127Z" fill="#D9B468"/>
        <path d="M207.69 53.1502C178.368 55.1355 167.09 71.6288 167.09 72.4952C173.851 78.8434 178.127 84.8508 181.36 90.5604C183.265 72.719 199.707 58.1863 207.69 53.1502Z" fill="#D2D2DF"/>
        <path d="M190.177 108.403C208.647 102.026 209.548 68.9106 207.69 53.1502C199.707 58.1863 183.265 72.719 181.36 90.5604C184.922 96.8503 187.218 102.779 190.177 108.403Z" fill="#8B9099"/>
        <path d="M236.903 62.2845C241.762 80.8159 235.413 94.4717 226.659 106.519C237.641 107.676 262.068 116.179 271.909 140.932C271.257 103.991 260.615 71.2405 236.903 62.2845Z" fill="#424652"/>
        <path d="M226.659 106.519C222.716 111.945 218.285 117.044 214.17 122.116C219.56 126.458 226.526 132.337 233.671 138.781C237.3 135.728 242.069 134.045 247.276 134.936C260.543 137.207 264.92 153.383 257.868 162.883C264.502 170.542 268.97 177.331 268.868 181.581C271.082 168.098 272.144 154.243 271.909 140.932C262.068 116.179 237.641 107.676 226.659 106.519Z" fill="#DFE5EE"/>
        <path d="M236.425 171.874L237.547 168.076C222.745 161.796 224.826 146.221 233.671 138.781C226.526 132.337 219.56 126.458 214.17 122.116C212.378 124.325 210.645 126.528 209.039 128.751C209.849 129.26 210.693 129.766 211.572 130.269C210.24 130.269 208.991 130.341 207.821 130.479C204.223 135.713 201.412 141.087 200.242 146.92C209.559 152.442 223.448 162.875 235.115 176.361L236.425 171.874Z" fill="#424652"/>
        <path d="M242.31 169.798L241.008 172.734C240.531 176.016 240.092 179.09 239.683 181.96C249.49 194.746 256.779 209.782 256.663 225.729C262.143 212.485 266.288 197.286 268.868 181.581C268.97 177.331 264.502 170.542 257.868 162.883C254.847 166.954 249.728 169.798 242.31 169.798Z" fill="#424652"/>
        <path d="M217.089 191.354C225.682 189.921 228.261 192.003 229.979 193.951L235.115 176.361C223.448 162.875 209.559 152.442 200.242 146.92C199.49 150.665 199.415 154.599 200.242 158.806C203.379 160.801 207.318 161.309 211.572 159.22C206.819 168.124 201.319 175.502 195.298 181.581C199.593 184.05 204.774 187.769 209.945 192.59L217.089 191.354Z" fill="#DFE5EE"/>
        <path d="M232.017 262.091C241.847 254.293 250.188 241.376 256.663 225.729C256.779 209.782 249.49 194.746 239.683 181.96L239.675 182.012C237.8 195.164 236.54 204.001 234.933 208.764C235.51 213.78 233.62 219.709 231.001 223.513C235.046 234.772 236.225 247.767 232.017 262.091Z" fill="#DFE5EE"/>
        <path d="M228.82 226.013C221.116 232.638 211.424 231.763 205.714 232.794C205.902 234.503 206.065 236.227 206.197 237.955C206.671 244.137 206.755 250.379 206.197 256.228C205.75 260.918 204.891 265.355 203.491 269.306C213.947 271.734 223.536 268.817 232.017 262.091C236.225 247.767 235.046 234.772 231.001 223.513C230.314 224.511 229.576 225.363 228.82 226.013Z" fill="#424652"/>
        <path d="M168.197 199.817L197.055 194.821C197.272 194.752 197.476 194.716 197.665 194.716L209.945 192.59C204.774 187.769 199.593 184.05 195.298 181.581C187.05 189.906 177.824 195.792 168.197 199.817Z" fill="#424652"/>
        <path d="M229.979 193.951C228.261 192.003 225.682 189.921 217.089 191.354L209.945 192.59L197.665 194.716C197.876 195.036 199.636 200.566 201.539 208.764C201.712 209.512 201.887 210.282 202.062 211.072C202.89 214.817 203.721 219.016 204.44 223.465C204.928 226.481 205.364 229.612 205.714 232.794C211.424 231.763 221.116 232.638 228.82 226.013C229.576 225.363 230.314 224.511 231.001 223.513C233.62 219.709 235.51 213.78 234.933 208.764C234.478 210.115 234.342 210.346 233.347 211.072C231.323 212.551 226.542 211.953 226.542 207.349L229.979 193.951Z" fill="#BFC3D4"/>
        <path d="M130.133 207.349C99.2843 207.934 71.9416 197.255 66.7247 193.951C60.2883 203.817 58.4577 213.398 58.0032 219.661C57.7177 223.594 57.975 226.219 57.975 226.784C61.6101 228.229 65.1036 229.385 68.4569 230.283C77.1619 232.616 84.9229 233.212 91.7692 232.599C93.1348 232.477 94.464 232.307 95.757 232.093C106.746 230.273 115.122 225.282 121.028 219.693C125.395 215.559 128.411 211.098 130.133 207.349Z" fill="#D9B468"/>
        <path d="M130.133 207.349C128.411 211.098 125.395 215.559 121.028 219.693C122.001 221.541 123.397 223.613 125.22 225.729C130.449 231.795 139.198 238.214 151.601 240.702C158.379 242.062 166.249 242.247 175.233 240.559C178.486 239.948 181.885 239.091 185.431 237.955C185.705 236.922 185.859 235.844 185.908 234.732C186.017 232.218 185.585 229.529 184.775 226.784C184.335 225.292 183.783 223.783 183.145 222.277C182.201 220.05 181.069 217.828 179.834 215.676C176.126 209.212 171.485 203.364 168.197 199.817C155.762 205.016 142.659 207.111 130.133 207.349Z" fill="#D9B468"/>
        <path d="M125.22 225.729C123.397 223.613 122.001 221.541 121.028 219.693C115.122 225.282 106.746 230.273 95.757 232.093C95.3136 235.455 94.0188 240.474 91.5539 246.456C90.9058 248.029 90.1767 249.668 89.361 251.362C88.3066 253.55 87.1075 255.829 85.7509 258.172C82.126 264.43 77.3773 271.139 71.2662 277.779C71.2195 277.908 71.139 277.997 71.0229 278.042C67.2162 282.153 62.8858 286.235 57.975 290.164C80.6468 296.376 115.155 294.878 143.158 291.887C135.857 287.273 128.157 245.859 125.22 225.729Z" fill="#FFE3A8"/>
        <path d="M143.158 291.887C169.558 289.067 190.176 284.919 189.643 284.653C189.047 284.355 183.148 278.465 176.111 270.903C172.841 267.39 169.327 263.516 165.984 259.675C164.632 258.121 163.308 256.573 162.04 255.056C157.296 249.379 153.334 244.14 151.601 240.702C139.198 238.214 130.449 231.795 125.22 225.729C128.157 245.859 135.857 287.273 143.158 291.887Z" fill="#FFE3A8"/>
        <path d="M241.008 172.734L236.425 171.874L235.115 176.361L229.979 193.951L226.542 207.349C226.542 211.953 231.323 212.551 233.347 211.072C234.342 210.346 234.478 210.115 234.933 208.764C236.54 204.001 237.8 195.164 239.675 182.012L239.683 181.96C240.092 179.09 240.531 176.016 241.008 172.734Z" fill="#3E200F"/>
        <path fill-rule="evenodd" clip-rule="evenodd" d="M236.425 171.874L241.008 172.734L242.31 169.798C249.728 169.798 254.847 166.954 257.868 162.883C264.92 153.383 260.543 137.207 247.276 134.936C242.069 134.045 237.3 135.728 233.671 138.781C224.826 146.221 222.745 161.796 237.547 168.076L236.425 171.874ZM245.845 141.437C259.131 143.825 258.459 165.396 242.785 163.231C227.111 161.067 232.56 139.049 245.845 141.437Z" fill="#7A4D1F"/>
        <path d="M245.845 141.437C259.131 143.825 258.459 165.396 242.785 163.231C227.111 161.067 232.56 139.049 245.845 141.437Z" fill="#CCEDFF"/>
        <path d="M168.197 199.817C170.979 202.521 176.89 206.541 184.61 208.493C188.606 202.831 194.099 195.764 197.055 194.821L168.197 199.817Z" fill="#D9B468"/>
        <path d="M202.062 211.072C201.887 210.282 201.712 209.512 201.539 208.764C195.376 210.156 189.613 209.759 184.61 208.493C182.038 212.14 180.086 215.204 179.834 215.676C181.069 217.828 182.201 220.05 183.145 222.277C183.904 222.543 184.822 222.832 185.851 223.118C188.856 217.583 197.399 212.953 202.062 211.072Z" fill="#D9B468"/>
        <path d="M205.714 232.794C205.364 229.612 204.928 226.481 204.44 223.465C200.616 226.517 195.519 231.221 190.686 236.805C194.515 238.012 199.967 238.902 206.197 237.955C206.065 236.227 205.902 234.503 205.714 232.794Z" fill="#D9B468"/>
        <path d="M180.201 251.852C176.55 250.653 172.832 249.322 169.236 247.962C167.4 250.722 165.897 253.68 165.545 256.228C165.531 256.324 165.52 256.419 165.51 256.514C168.842 257.902 172.692 259.471 176.638 261.026C177.392 257.966 178.631 254.882 180.201 251.852Z" fill="#D9B468"/>
        <path d="M76.3624 253.938C71.6951 256.115 66.7521 258.311 61.9344 260.281C67.6456 269.042 71.8195 276.249 71.2662 277.779C77.3773 271.139 82.126 264.43 85.7509 258.172C82.4538 257.336 79.3176 255.864 76.3624 253.938Z" fill="#D9B468"/>
        <path d="M95.757 232.093C94.464 232.307 93.1348 232.477 91.7692 232.599C88.4253 234.863 83.118 237.944 76.6142 240.955C79.5631 244.437 82.6879 247.696 85.3518 249.609C87.6061 248.489 89.6955 247.425 91.5539 246.456C94.0188 240.474 95.3136 235.455 95.757 232.093Z" fill="#D9B468"/>
        <path d="M68.4569 230.283C65.6847 231.249 61.7983 232.467 57.7338 233.518C60.236 237.537 63.1372 241.562 66.3918 245.187C70.0225 243.861 73.4592 242.416 76.6142 240.955C73.4184 237.183 70.4291 233.149 68.4569 230.283Z" fill="#D9B468"/>
        <path d="M168.197 199.817C171.485 203.364 176.126 209.212 179.834 215.676C180.086 215.204 182.038 212.14 184.61 208.493C176.89 206.541 170.979 202.521 168.197 199.817Z" fill="#3E200F"/>
        <path d="M201.539 208.764C199.636 200.566 197.876 195.036 197.665 194.716L197.055 194.821C194.099 195.764 188.606 202.831 184.61 208.493C189.613 209.759 195.376 210.156 201.539 208.764Z" fill="#4C516D"/>
        <path d="M204.44 223.465C203.721 219.016 202.89 214.817 202.062 211.072C197.399 212.953 188.856 217.583 185.851 223.118C191.227 224.607 199.652 225.998 204.44 223.465Z" fill="#3E200F"/>
        <path d="M184.775 226.784C185.585 229.529 186.017 232.218 185.908 234.732C186.882 235.342 188.526 236.124 190.686 236.805C195.519 231.221 200.616 226.517 204.44 223.465C199.652 225.998 191.227 224.607 185.851 223.118C185.207 224.304 184.818 225.533 184.775 226.784Z" fill="#4C516D"/>
        <path d="M206.197 256.228C206.755 250.379 206.671 244.137 206.197 237.955C199.967 238.902 194.515 238.012 190.686 236.805C186.733 241.373 182.958 246.529 180.201 251.852C191.275 255.489 201.72 257.909 206.197 256.228Z" fill="#3E200F"/>
        <path d="M185.908 234.732C185.859 235.844 185.705 236.922 185.431 237.955C181.885 239.091 178.486 239.948 175.233 240.559C173.511 242.321 171.185 245.03 169.236 247.962C172.832 249.322 176.55 250.653 180.201 251.852C182.958 246.529 186.733 241.373 190.686 236.805C188.526 236.124 186.882 235.342 185.908 234.732Z" fill="#4C516D"/>
        <path d="M203.491 269.306C204.891 265.355 205.75 260.918 206.197 256.228C201.72 257.909 191.275 255.489 180.201 251.852C178.631 254.882 177.392 257.966 176.638 261.026C188.856 265.841 201.99 270.526 203.491 269.306Z" fill="#4C516D"/>
        <path d="M176.111 270.903C183.148 278.465 189.047 284.355 189.643 284.653C196.583 282.097 200.937 276.51 203.491 269.306C201.99 270.526 188.856 265.841 176.638 261.026C175.81 264.381 175.567 267.708 176.111 270.903Z" fill="#D9B468"/>
        <path d="M165.984 259.675C169.327 263.516 172.841 267.39 176.111 270.903C175.567 267.708 175.81 264.381 176.638 261.026C172.692 259.471 168.842 257.902 165.51 256.514C165.387 257.681 165.518 258.754 165.984 259.675Z" fill="#4C516D"/>
        <path d="M151.601 240.702C153.334 244.14 157.296 249.379 162.04 255.056C163.111 255.51 164.275 256 165.51 256.514C165.52 256.419 165.531 256.324 165.545 256.228C165.897 253.68 167.4 250.722 169.236 247.962C162.511 245.418 156.215 242.773 151.601 240.702Z" fill="#3E200F"/>
        <path d="M175.233 240.559C166.249 242.247 158.379 242.062 151.601 240.702C156.215 242.773 162.511 245.418 169.236 247.962C171.185 245.03 173.511 242.321 175.233 240.559Z" fill="#3E200F"/>
        <path d="M61.9344 260.281C66.7521 258.311 71.6951 256.115 76.3624 253.938C72.7571 251.588 69.4213 248.561 66.3918 245.187C62.537 246.595 58.4635 247.871 54.2759 248.892C56.9413 252.759 59.5696 256.653 61.9344 260.281Z" fill="#3E200F"/>
        <path d="M85.3518 249.609C82.6879 247.696 79.5631 244.437 76.6142 240.955C73.4592 242.416 70.0225 243.861 66.3918 245.187C69.4213 248.561 72.7571 251.588 76.3624 253.938C79.5273 252.461 82.5655 250.993 85.3518 249.609Z" fill="#4C516D"/>
        <path d="M85.7509 258.172C87.1075 255.829 88.3066 253.55 89.361 251.362C88.2564 251.362 86.88 250.707 85.3518 249.609C82.5655 250.993 79.5273 252.461 76.3624 253.938C79.3176 255.864 82.4538 257.336 85.7509 258.172Z" fill="#3E200F"/>
        <path d="M66.3918 245.187C63.1372 241.562 60.236 237.537 57.7338 233.518C53.3239 234.659 48.7044 235.602 45.0705 235.81C47.9435 239.815 51.1355 244.335 54.2759 248.892C58.4635 247.871 62.537 246.595 66.3918 245.187Z" fill="#4C516D"/>
        <path d="M39.3286 235.001C37.5994 240.061 36.1773 245.522 35.2062 251.362C41.5855 251.364 48.0565 250.409 54.2759 248.892C51.1355 244.335 47.9435 239.815 45.0705 235.81C42.5487 235.954 40.5015 235.744 39.3286 235.001Z" fill="#3E200F"/>
        <path d="M35.2062 251.362C34.3988 256.218 33.9032 261.337 33.8022 266.706C37.4253 269.095 49.2452 265.47 61.9344 260.281C59.5696 256.653 56.9413 252.759 54.2759 248.892C48.0565 250.409 41.5855 251.364 35.2062 251.362Z" fill="#D9B468"/>
        <path d="M33.8022 266.706C33.5733 278.885 43.2918 286.141 57.975 290.164C62.8858 286.235 67.2162 282.153 71.0229 278.042C71.1042 277.955 71.1853 277.867 71.2662 277.779C71.8195 276.249 67.6456 269.042 61.9344 260.281C49.2452 265.47 37.4253 269.095 33.8022 266.706Z" fill="#4C516D"/>
        <path d="M91.7692 232.599C84.9229 233.212 77.1619 232.616 68.4569 230.283C70.4291 233.149 73.4184 237.183 76.6142 240.955C83.118 237.944 88.4253 234.863 91.7692 232.599Z" fill="#3E200F"/>
        <path d="M53.0562 225.182C51.1436 221.387 49.6596 217.885 48.6493 215.082C46.6235 218.236 42.7535 226.53 41.0718 230.283L53.0562 225.182Z" fill="#3E200F"/>
        <path d="M41.0718 230.283C42.2958 231.959 43.6438 233.821 45.0705 235.81C48.7044 235.602 53.3239 234.659 57.7338 233.518C55.9714 230.688 54.4069 227.862 53.0562 225.182L41.0718 230.283Z" fill="#D9B468"/>
        <path d="M66.7247 193.951C61.9331 197.55 54.9525 204.732 48.6493 215.082C49.6596 217.885 51.1436 221.387 53.0562 225.182L58.0032 219.661C58.4577 213.398 60.2883 203.817 66.7247 193.951Z" fill="#4C516D"/>
        <path d="M68.4569 230.283C65.1036 229.385 61.6101 228.229 57.975 226.784C57.975 226.219 57.7177 223.594 58.0032 219.661L53.0562 225.182C54.4069 227.862 55.9714 230.688 57.7338 233.518C61.7983 232.467 65.6847 231.249 68.4569 230.283Z" fill="#3E200F"/>
        <path d="M66.7247 193.951C50.5708 183.72 48.1477 168.374 34.9553 159.22C57.8401 161.643 56.2247 128.258 34.9553 128.258C37.8878 125.534 45.9384 112.695 49.934 107.212M66.7247 193.951C71.9416 197.255 99.2843 207.934 130.133 207.349M66.7247 193.951C61.9331 197.55 54.9525 204.732 48.6493 215.082M66.7247 193.951C60.2883 203.817 58.4577 213.398 58.0032 219.661M33.8022 266.706C33.5733 278.885 43.2918 286.141 57.975 290.164M33.8022 266.706C33.9032 261.337 34.3988 256.218 35.2062 251.362M33.8022 266.706C37.4253 269.095 49.2452 265.47 61.9344 260.281M189.643 284.653C190.176 284.919 169.558 289.067 143.158 291.887M189.643 284.653C189.047 284.355 183.148 278.465 176.111 270.903M189.643 284.653C196.583 282.097 200.937 276.51 203.491 269.306M130.133 207.349C128.411 211.098 125.395 215.559 121.028 219.693M130.133 207.349C142.659 207.111 155.762 205.016 168.197 199.817M121.028 219.693C122.001 221.541 123.397 223.613 125.22 225.729M121.028 219.693C115.122 225.282 106.746 230.273 95.757 232.093M168.197 199.817C171.485 203.364 176.126 209.212 179.834 215.676M168.197 199.817C177.824 195.792 187.05 189.906 195.298 181.581M168.197 199.817L197.055 194.821M168.197 199.817C170.979 202.521 176.89 206.541 184.61 208.493M125.22 225.729C128.157 245.859 135.857 287.273 143.158 291.887M125.22 225.729C130.449 231.795 139.198 238.214 151.601 240.702M143.158 291.887C115.155 294.878 80.6468 296.376 57.975 290.164M151.601 240.702C158.379 242.062 166.249 242.247 175.233 240.559M151.601 240.702C153.334 244.14 157.296 249.379 162.04 255.056M151.601 240.702C156.215 242.773 162.511 245.418 169.236 247.962M95.757 232.093C94.464 232.307 93.1348 232.477 91.7692 232.599M95.757 232.093C95.3136 235.455 94.0188 240.474 91.5539 246.456M57.975 290.164C62.8858 286.235 67.2162 282.153 71.0229 278.042M229.979 193.951C228.261 192.003 225.682 189.921 217.089 191.354L209.945 192.59M229.979 193.951L226.542 207.349C226.542 211.953 231.323 212.551 233.347 211.072C234.342 210.346 234.478 210.115 234.933 208.764M229.979 193.951L235.115 176.361M197.665 194.716C197.876 195.036 199.636 200.566 201.539 208.764M197.665 194.716L209.945 192.59M197.665 194.716C197.476 194.716 197.272 194.752 197.055 194.821M197.665 194.716L197.055 194.821M241.008 172.734L236.425 171.874M241.008 172.734L242.31 169.798C249.728 169.798 254.847 166.954 257.868 162.883M241.008 172.734C240.531 176.016 240.092 179.09 239.683 181.96M236.425 171.874L237.547 168.076C222.745 161.796 224.826 146.221 233.671 138.781M236.425 171.874L235.115 176.361M234.933 208.764C235.51 213.78 233.62 219.709 231.001 223.513M234.933 208.764C236.54 204.001 237.8 195.164 239.675 182.012M205.714 232.794C211.424 231.763 221.116 232.638 228.82 226.013C229.576 225.363 230.314 224.511 231.001 223.513M205.714 232.794C205.364 229.612 204.928 226.481 204.44 223.465M205.714 232.794C205.902 234.503 206.065 236.227 206.197 237.955M201.539 208.764C201.712 209.512 201.887 210.282 202.062 211.072M201.539 208.764C195.376 210.156 189.613 209.759 184.61 208.493M202.062 211.072C202.89 214.817 203.721 219.016 204.44 223.465M202.062 211.072C197.399 212.953 188.856 217.583 185.851 223.118M184.775 226.784C184.335 225.292 183.783 223.783 183.145 222.277M184.775 226.784C185.585 229.529 186.017 232.218 185.908 234.732M184.775 226.784C184.818 225.533 185.207 224.304 185.851 223.118M183.145 222.277C182.201 220.05 181.069 217.828 179.834 215.676M183.145 222.277C183.904 222.543 184.822 222.832 185.851 223.118M204.44 223.465C199.652 225.998 191.227 224.607 185.851 223.118M204.44 223.465C200.616 226.517 195.519 231.221 190.686 236.805M179.834 215.676C180.086 215.204 182.038 212.14 184.61 208.493M185.908 234.732C185.859 235.844 185.705 236.922 185.431 237.955C181.885 239.091 178.486 239.948 175.233 240.559M185.908 234.732C186.882 235.342 188.526 236.124 190.686 236.805M206.197 237.955C206.671 244.137 206.755 250.379 206.197 256.228M206.197 237.955C199.967 238.902 194.515 238.012 190.686 236.805M176.111 270.903C172.841 267.39 169.327 263.516 165.984 259.675M176.111 270.903C175.567 267.708 175.81 264.381 176.638 261.026M206.197 256.228C205.75 260.918 204.891 265.355 203.491 269.306M206.197 256.228C201.72 257.909 191.275 255.489 180.201 251.852M175.233 240.559C173.511 242.321 171.185 245.03 169.236 247.962M165.984 259.675C164.632 258.121 163.308 256.573 162.04 255.056M165.984 259.675C165.518 258.754 165.387 257.681 165.51 256.514M162.04 255.056C163.111 255.51 164.275 256 165.51 256.514M203.491 269.306C213.947 271.734 223.536 268.817 232.017 262.091M203.491 269.306C201.99 270.526 188.856 265.841 176.638 261.026M68.4569 230.283C65.1036 229.385 61.6101 228.229 57.975 226.784C57.975 226.219 57.7177 223.594 58.0032 219.661M68.4569 230.283C77.1619 232.616 84.9229 233.212 91.7692 232.599M68.4569 230.283C70.4291 233.149 73.4184 237.183 76.6142 240.955M68.4569 230.283C65.6847 231.249 61.7983 232.467 57.7338 233.518M39.3286 235.001C39.88 233.388 40.4626 231.815 41.0718 230.283M39.3286 235.001C37.5994 240.061 36.1773 245.522 35.2062 251.362M39.3286 235.001C40.5015 235.744 42.5487 235.954 45.0705 235.81M41.0718 230.283C42.2958 231.959 43.6438 233.821 45.0705 235.81M41.0718 230.283C42.7535 226.53 46.6235 218.236 48.6493 215.082M41.0718 230.283L53.0562 225.182M71.0229 278.042C71.139 277.997 71.2195 277.908 71.2662 277.779M71.0229 278.042C71.1042 277.955 71.1853 277.867 71.2662 277.779M91.7692 232.599C88.4253 234.863 83.118 237.944 76.6142 240.955M35.2062 251.362C41.5855 251.364 48.0565 250.409 54.2759 248.892M91.5539 246.456C90.9058 248.029 90.1767 249.668 89.361 251.362M91.5539 246.456C89.6955 247.425 87.6061 248.489 85.3518 249.609M48.6493 215.082C49.6596 217.885 51.1436 221.387 53.0562 225.182M85.7509 258.172C87.1075 255.829 88.3066 253.55 89.361 251.362M85.7509 258.172C82.126 264.43 77.3773 271.139 71.2662 277.779M85.7509 258.172C82.4538 257.336 79.3176 255.864 76.3624 253.938M89.361 251.362C88.2564 251.362 86.88 250.707 85.3518 249.609M99.86 64.5137C108.077 57.7328 133.026 49.8358 167.09 72.4952M99.86 64.5137C102.621 50.554 68.3583 18.5841 51.9344 52.5127M99.86 64.5137C99.5181 65.1937 99.1739 65.8584 98.8275 66.5082M99.86 64.5137C125.003 68.2575 124.016 82.592 107.399 97.6767M49.934 107.212C47.4029 133.729 74.4081 120.262 93.0803 108.403C94.0651 107.778 95.0268 107.149 95.9645 106.519M49.934 107.212C44.6238 96.8574 35.5345 84.0641 51.9344 52.5127M49.934 107.212C59.3317 94.3147 81.7047 98.6306 98.8275 66.5082M49.934 107.212C44.9321 109.373 39.6682 105.969 35.6478 99.9649M167.09 72.4952C167.09 71.6288 178.368 55.1355 207.69 53.1502M167.09 72.4952C173.851 78.8434 178.127 84.8508 181.36 90.5604M167.09 72.4952C110.477 80.5851 130.586 124.166 129.369 145.277M207.69 53.1502C209.548 68.9106 208.647 102.026 190.177 108.403M207.69 53.1502C199.707 58.1863 183.265 72.719 181.36 90.5604M190.177 108.403C187.218 102.779 184.922 96.8503 181.36 90.5604M190.177 108.403C193.99 115.65 198.902 122.391 209.039 128.751M51.9344 52.5127C78.5246 42.9459 97.8567 66.3435 98.8275 66.5082M51.9344 52.5127C23.3382 53.9772 25.6428 85.0231 35.6478 99.9649M51.9344 52.5127C25.6777 76.7165 35.9425 98.8674 35.6478 99.9649M51.9344 52.5127C55.7855 44.5572 59.3873 33.2602 53.503 33.2602C47.079 33.2602 48.7233 46.019 51.9344 52.5127ZM51.9344 52.5127C51.6425 51.9101 37.5367 37.8876 33.728 44.2336C29.8123 50.758 43.5173 52.6348 51.9344 52.5127ZM107.399 97.6767C114.55 108.403 110.369 118.794 113.686 145.906M107.399 97.6767C104.156 100.62 100.319 103.592 95.9645 106.519M113.686 145.906C115.943 142.922 122.24 138.618 129.369 145.277M113.686 145.906C114.487 152.448 117.833 155.009 121.232 154.82M129.369 145.277C129.049 150.815 125.106 154.604 121.232 154.82M121.232 154.82V169.361M135.856 161.627C135.856 161.627 128.105 165.607 121.232 169.361M112.152 174.348C114.608 172.991 117.891 171.185 121.232 169.361M95.9645 106.519C97.5028 107.075 100.945 108.484 102.407 109.672M150.147 100.306L135.856 107.844M200.242 158.806C203.379 160.801 207.318 161.309 211.572 159.22C206.819 168.124 201.319 175.502 195.298 181.581M200.242 158.806C190.661 152.713 188.56 132.747 207.821 130.479M200.242 158.806C199.415 154.599 199.49 150.665 200.242 146.92M209.039 128.751C209.849 129.26 210.693 129.766 211.572 130.269C210.24 130.269 208.991 130.341 207.821 130.479M209.039 128.751C210.645 126.528 212.378 124.325 214.17 122.116M207.821 130.479C204.223 135.713 201.412 141.087 200.242 146.92M195.298 181.581C199.593 184.05 204.774 187.769 209.945 192.59M232.017 262.091C241.847 254.293 250.188 241.376 256.663 225.729M232.017 262.091C236.225 247.767 235.046 234.772 231.001 223.513M200.242 146.92C209.559 152.442 223.448 162.875 235.115 176.361M256.663 225.729C262.143 212.485 266.288 197.286 268.868 181.581M256.663 225.729C256.779 209.782 249.49 194.746 239.683 181.96M214.17 122.116C218.285 117.044 222.716 111.945 226.659 106.519M214.17 122.116C219.56 126.458 226.526 132.337 233.671 138.781M268.868 181.581C271.082 168.098 272.144 154.243 271.909 140.932M268.868 181.581C268.97 177.331 264.502 170.542 257.868 162.883M226.659 106.519C235.413 94.4717 241.762 80.8159 236.903 62.2845C260.615 71.2405 271.257 103.991 271.909 140.932M226.659 106.519C237.641 107.676 262.068 116.179 271.909 140.932M233.671 138.781C237.3 135.728 242.069 134.045 247.276 134.936C260.543 137.207 264.92 153.383 257.868 162.883M239.683 181.96L239.675 182.012M239.683 181.96C239.68 181.977 239.678 181.995 239.675 182.012M197.055 194.821C194.099 195.764 188.606 202.831 184.61 208.493M71.2662 277.779C71.8195 276.249 67.6456 269.042 61.9344 260.281M190.686 236.805C186.733 241.373 182.958 246.529 180.201 251.852M180.201 251.852C176.55 250.653 172.832 249.322 169.236 247.962M180.201 251.852C178.631 254.882 177.392 257.966 176.638 261.026M169.236 247.962C167.4 250.722 165.897 253.68 165.545 256.228C165.531 256.324 165.52 256.419 165.51 256.514M165.51 256.514C168.842 257.902 172.692 259.471 176.638 261.026M76.3624 253.938C71.6951 256.115 66.7521 258.311 61.9344 260.281M76.3624 253.938C79.5273 252.461 82.5655 250.993 85.3518 249.609M76.3624 253.938C72.7571 251.588 69.4213 248.561 66.3918 245.187M61.9344 260.281C59.5696 256.653 56.9413 252.759 54.2759 248.892M76.6142 240.955C79.5631 244.437 82.6879 247.696 85.3518 249.609M76.6142 240.955C73.4592 242.416 70.0225 243.861 66.3918 245.187M57.7338 233.518C60.236 237.537 63.1372 241.562 66.3918 245.187M57.7338 233.518C53.3239 234.659 48.7044 235.602 45.0705 235.81M57.7338 233.518C55.9714 230.688 54.4069 227.862 53.0562 225.182M66.3918 245.187C62.537 246.595 58.4635 247.871 54.2759 248.892M45.0705 235.81C47.9435 239.815 51.1355 244.335 54.2759 248.892M53.0562 225.182L58.0032 219.661M245.845 141.437C259.131 143.825 258.459 165.396 242.785 163.231C227.111 161.067 232.56 139.049 245.845 141.437ZM119.318 145.277C121.263 141.049 131.496 143.453 126.281 150.172C123.496 153.761 117.714 148.765 119.318 145.277ZM165.752 129.995C173.869 140.349 177.566 157.561 170.815 161.627C162.943 166.367 149.787 156.427 144.479 151.035C133.987 140.377 132.091 122.896 138.185 118.63C146.062 113.117 158.439 120.665 165.752 129.995ZM139.667 133.032C139.667 138.002 143.473 142.032 148.167 142.032C152.862 142.032 156.667 138.002 156.667 133.032C156.667 128.061 152.862 124.032 148.167 124.032C143.473 124.032 139.667 128.061 139.667 133.032ZM141.75 133.643C146.134 141.231 154.658 132.66 150.982 127.873C147.206 122.955 138.416 127.873 141.75 133.643ZM71.9128 129.995C60.8696 141.213 59.986 156.436 65.0493 162.287C69.9609 167.963 83.373 163.491 94.4163 152.273C105.46 141.055 105.99 125.284 100.717 120.093C94.4163 113.89 82.9561 118.776 71.9128 129.995ZM97.8356 131.932C97.8356 136.903 94.0301 140.932 89.3356 140.932C84.6412 140.932 80.8357 136.903 80.8357 131.932C80.8357 126.962 84.6412 122.932 89.3356 122.932C94.0301 122.932 97.8356 126.962 97.8356 131.932ZM92.5957 131.932C87.5521 135.695 77.6118 133.045 86.6117 125.137C91.9734 121.034 97.8356 127.488 92.5957 131.932Z" stroke="black" stroke-width="3" stroke-linecap="round" stroke-linejoin="round"/>
    </g>
</svg>
