<svg width="250" height="250" viewBox="0 0 250 250" fill="none" xmlns="http://www.w3.org/2000/svg">
    <defs>
        <clipPath id="clip0_280_234">
            <rect width="250" height="250" rx="125" fill="white"/>
        </clipPath>
    </defs>
    <g clip-path="url(#clip0_280_234)">
        <circle cx="125" cy="125" r="125" fill="#FCFF7E"/>
        <path d="M90.7631 67.2569C106.909 67.9837 116.47 79.928 116.47 134.239C116.47 135.691 116.531 137.04 116.646 138.288C118.775 135.705 124.791 131.769 131.821 136.686C131.856 135.901 131.864 135.085 131.842 134.239C131.3 112.708 125.365 77.3148 158.367 67.9837C133.769 56.2224 106.989 59.0289 90.7631 67.2569Z" fill="#444652"/>
        <path d="M212.018 153.354C189.969 157.732 195.805 127.09 207.478 123.037C201.308 115.501 197.011 109.51 193.752 104.564C188.579 96.7123 186.022 91.4933 182.738 86.9039C179.664 82.6079 175.953 78.8635 168.863 74.0277C168.272 73.6246 167.678 73.2313 167.083 72.8478C164.223 71.0074 161.311 69.3912 158.367 67.9837C125.365 77.3148 131.3 112.708 131.842 134.239C131.864 135.085 131.856 135.901 131.821 136.686C131.457 144.867 128.177 149.747 124.741 150.447C121.196 151.168 117.486 147.438 116.646 138.288C116.531 137.04 116.47 135.691 116.47 134.239C116.47 79.928 106.909 67.9837 90.7631 67.2569C89.4122 67.9419 88.1344 68.6645 86.9372 69.4194C85.5391 70.3008 84.2508 71.2264 83.084 72.1875C79.2521 75.344 74.9674 80.3691 70.5475 86.1126C66.2876 91.6482 61.9021 97.8511 57.6753 103.691C51.4282 112.323 45.5278 120.162 40.8924 123.884C64.1597 123.884 57.8369 154.976 40.8924 153.789C55.0356 162.134 43.6908 169.626 65.5241 185.466C67.848 187.152 70.6662 188.698 73.8852 190.091C76.4398 191.197 80.6964 192.511 83.709 193.418C88.3035 194.802 91.9267 195.642 97.3117 196.527C102.638 197.403 108.271 198.023 114.048 198.367C122.705 198.882 131.688 198.776 140.456 197.977C147.345 197.35 154.101 196.294 160.463 194.775C162.918 194.189 165.315 193.533 167.638 192.807C169.494 192.227 171.304 191.601 173.058 190.928C177.143 189.363 180.93 187.547 184.323 185.466C188.65 182.812 192.255 179.804 195.2 176.567C196.588 175.042 196.138 175.553 196.588 175.042C203.811 166.827 207.693 158.067 212.018 153.354Z" fill="#E0E5ED"/>
        <path d="M131.821 136.686C124.791 131.769 118.775 135.705 116.646 138.288C117.486 147.438 121.196 151.168 124.741 150.447C128.177 149.747 131.457 144.867 131.821 136.686Z" fill="black"/>
        <path d="M193.752 104.564C214.023 78.3374 209.699 57.4938 210.364 51.0633C199.388 58.8242 185.529 72.8478 182.738 86.9039C186.022 91.4933 188.579 96.7123 193.752 104.564Z" fill="#8D9098"/>
        <path d="M167.083 72.8478C167.678 73.2313 168.272 73.6246 168.863 74.0277C175.953 78.8635 179.664 82.6079 182.738 86.9039C185.529 72.8478 199.388 58.8242 210.364 51.0633C188.368 49.4667 171.79 64.8841 167.083 72.8478Z" fill="#D3D3DF"/>
        <path d="M39.121 51.9688C37.7114 61.8187 40.866 85.8367 57.6753 103.691C61.9021 97.8511 66.2876 91.6482 70.5475 86.1126C65.7816 69.9053 47.6107 56.597 39.121 51.9688Z" fill="#8B9098"/>
        <path d="M83.084 72.1875C84.2508 71.2264 85.5391 70.3008 86.9372 69.4194C78.0464 63.1661 54.9764 48.3322 39.121 51.9688C47.6107 56.597 65.7816 69.9053 70.5475 86.1126C74.9674 80.3691 79.2521 75.344 83.084 72.1875Z" fill="#D2D2DE"/>
        <path d="M224.577 79.913C229.329 94.222 231.657 106.397 231.895 116.935C237.88 108.918 252.414 113.949 266.847 111.477C258.512 97.2887 244.861 85.8492 224.577 79.913Z" fill="#444652"/>
        <path d="M220.054 154.885C235.831 154.885 246.079 185.466 269.497 194.775C273.387 184.738 275.998 173.876 276.973 162.934C250.178 144.321 236.949 127.365 229.94 135.023C227.982 142.53 224.614 149.043 220.054 154.885Z" fill="#444652"/>
        <path d="M196.588 175.042C196.138 175.553 196.588 175.042 195.2 176.567C197.934 179.51 201.558 183.852 205.456 189.183C215.11 202.385 226.439 221.65 230.051 240.724C239.124 237.2 247.498 230.341 254.6 221.344C242.352 211.213 225.024 175.042 210.242 165.059C206.164 168.573 201.589 171.866 196.588 175.042Z" fill="#434751"/>
        <path d="M229.94 135.023C236.949 127.365 250.178 144.321 276.973 162.934C278.583 144.883 275.741 126.616 266.847 111.477C252.414 113.949 237.88 108.918 231.895 116.935C232.045 123.573 231.366 129.561 229.94 135.023Z" fill="#DEE3EB"/>
        <path d="M210.242 165.059C225.024 175.042 242.352 211.213 254.6 221.344C260.582 213.766 265.661 204.672 269.497 194.775C246.079 185.466 235.831 154.885 220.054 154.885C217.225 158.509 213.937 161.875 210.242 165.059Z" fill="#E0E4EE"/>
        <path d="M196.93 275.176C198.346 267.869 200.441 252.369 199.982 238.061C199.852 233.988 199.514 230.013 198.895 226.35C197.058 215.481 189.688 205.719 182.738 198.909C179.117 195.36 175.61 192.613 173.058 190.928C171.304 191.601 169.494 192.227 167.638 192.807C168.455 198.367 165.94 211.863 158.38 216.197C167.638 224.426 155.614 245.816 142.13 234.176C133.87 225.916 139.227 213.431 150.082 213.431C155.016 209.435 159.616 199.36 160.463 194.775C154.101 196.294 147.345 197.35 140.456 197.977C134.475 201.712 130.097 206.799 127.277 219.024C124.689 230.241 123.412 247.469 123.412 275.176H184.008H196.93Z" fill="#FFFEFF"/>
        <path d="M123.412 275.176C123.412 247.469 124.689 230.241 127.277 219.024C128.101 214.865 118.801 203.52 114.048 198.367C108.271 198.023 102.638 197.403 97.3117 196.527L101.283 212.968L105.21 212.631C112.952 211.79 114.859 211.677 115.869 218.521L118.262 235.683C118.262 235.683 114.751 235.962 112.433 236.123C111.042 240.365 107.214 237.486 106.84 236.378H102.644C103.187 239.508 100.344 243.82 96.4135 237.256L88.8732 239.508L85.4792 219.873C78.8853 228.513 78.6531 230.324 72.9528 274.759L72.8992 275.176H123.412Z" fill="white"/>
        <path d="M73.8852 190.091C66.2356 197.868 54.0896 212.98 52.8283 226.35C51.567 239.719 52.3027 264.471 52.8283 275.176H72.8992L72.9528 274.759C78.6531 230.324 78.8853 228.513 85.4792 219.873L84.7898 215.885L92.1389 214.651C90.6895 206.599 86.3162 196.805 83.709 193.418C80.6964 192.511 76.4398 191.197 73.8852 190.091Z" fill="white"/>
        <path d="M158.38 216.197C165.94 211.863 168.455 198.367 167.638 192.807C165.315 193.533 162.918 194.189 160.463 194.775C159.616 199.36 155.016 209.435 150.082 213.431C155.268 213.431 155.268 213.431 158.38 216.197Z" fill="#8B8F97"/>
        <path fill-rule="evenodd" clip-rule="evenodd" d="M142.13 234.176C155.614 245.816 167.638 224.426 158.38 216.197C155.268 213.431 155.268 213.431 150.082 213.431C139.227 213.431 133.87 225.916 142.13 234.176ZM151.35 222.42C148.664 219.024 142.068 223.303 147.547 229.22C150.428 232.332 155.268 227.376 151.35 222.42Z" fill="#8D9099"/>
        <path d="M151.35 222.42C148.664 219.024 142.068 223.303 147.547 229.22C150.428 232.332 155.268 227.376 151.35 222.42Z" fill="#8B8F97"/>
        <path d="M83.709 193.418C86.3162 196.805 90.6895 206.599 92.1389 214.651L84.7898 215.885L85.4792 219.873L88.8732 239.508L96.4135 237.256C96.0792 235.144 95.8117 231.237 98.5868 230.335C101.259 230.637 102.101 233.249 102.644 236.378H106.84C106.003 233.899 106.691 229.883 108.419 229.6C110.79 230.101 113.101 233.793 112.433 236.123C114.751 235.962 118.262 235.683 118.262 235.683L115.869 218.521C114.859 211.677 112.952 211.79 105.21 212.631L101.283 212.968L97.3117 196.527C91.9267 195.642 88.3035 194.802 83.709 193.418Z" fill="#8D9099"/>
        <path d="M112.433 236.123C113.101 233.793 110.79 230.101 108.419 229.6C106.691 229.883 106.003 233.899 106.84 236.378C107.214 237.486 111.042 240.365 112.433 236.123Z" fill="#8D9099"/>
        <path d="M98.5868 230.335C95.8117 231.237 96.0792 235.144 96.4135 237.256C100.344 243.82 103.187 239.508 102.644 236.378C102.101 233.249 101.259 230.637 98.5868 230.335Z" fill="#8D9099"/>
        <path d="M140.456 197.977C131.688 198.776 122.705 198.882 114.048 198.367C118.801 203.52 128.101 214.865 127.277 219.024C130.097 206.799 134.475 201.712 140.456 197.977Z" fill="#BFC2D2"/>
        <path d="M184.323 185.466C183.238 187.067 182.631 188.905 182.333 190.724C181.983 193.723 182.351 197.009 182.738 198.909C194.164 208.173 198.27 221.063 198.895 226.35C199.514 230.013 199.852 233.988 199.982 238.061C208.011 247.43 223.374 243.74 230.051 240.724C226.439 221.65 215.11 202.385 205.456 189.183C201.642 184.071 198.036 179.718 195.2 176.567C192.255 179.804 188.65 182.812 184.323 185.466Z" fill="#E0E4EE"/>
        <path d="M174.503 119.818C185.546 131.036 188.587 145.949 181.295 153.127C174.004 160.305 159.14 157.03 148.097 145.812C137.053 134.594 134.012 119.681 141.304 112.503C148.596 105.325 163.459 108.6 174.503 119.818Z" fill="#434751"/>
        <path d="M145.94 125C145.94 129.971 149.746 134 154.44 134C159.135 134 162.94 129.971 162.94 125C162.94 120.029 159.135 116 154.44 116C149.746 116 145.94 120.029 145.94 125Z" fill="black"/>
        <path d="M149.36 124.532C152.467 128.296 159.711 123.137 156.542 119.145C153.372 115.154 146.252 120.768 149.36 124.532Z" fill="white"/>
        <path d="M72.4942 119.818C61.451 131.036 58.4098 145.949 65.7016 153.127C72.9934 160.305 87.8569 157.03 98.9002 145.812C109.943 134.594 112.985 119.681 105.693 112.503C98.401 105.325 83.5375 108.6 72.4942 119.818Z" fill="#434751"/>
        <path d="M101.057 125C101.057 129.971 97.2511 134 92.5566 134C87.8622 134 84.0566 129.971 84.0566 125C84.0566 120.029 87.8622 116 92.5566 116C97.2511 116 101.057 120.029 101.057 125Z" fill="black"/>
        <path d="M97.6372 124.532C94.5297 128.296 87.2855 123.137 90.4551 119.146C93.6247 115.154 100.745 120.768 97.6372 124.532Z" fill="white"/>
        <path d="M123.452 137.271C124.889 133.55 131.427 136.5 129.947 139.69C128.467 142.88 122.015 140.991 123.452 137.271Z" fill="white"/>
        <path d="M184.323 185.466C180.93 187.547 177.143 189.363 173.058 190.928M184.323 185.466C188.65 182.812 192.255 179.804 195.2 176.567M184.323 185.466C183.238 187.067 182.631 188.905 182.333 190.724M184.323 185.466C183.161 186.709 182.575 188.647 182.333 190.724M167.083 72.8478C167.678 73.2313 168.272 73.6246 168.863 74.0277C175.953 78.8635 179.664 82.6079 182.738 86.9039M167.083 72.8478C171.79 64.8841 188.368 49.4667 210.364 51.0633M167.083 72.8478C164.223 71.0074 161.311 69.3912 158.367 67.9837M210.364 51.0633C209.699 57.4938 214.023 78.3374 193.752 104.564M210.364 51.0633C199.388 58.8242 185.529 72.8478 182.738 86.9039M193.752 104.564C197.011 109.51 201.308 115.501 207.478 123.037C195.805 127.09 189.969 157.732 212.018 153.354C207.693 158.067 203.811 166.827 196.588 175.042M193.752 104.564C188.579 96.7123 186.022 91.4933 182.738 86.9039M90.7631 67.2569C106.909 67.9837 116.47 79.928 116.47 134.239C116.47 135.691 116.531 137.04 116.646 138.288M90.7631 67.2569C106.989 59.0289 133.769 56.2224 158.367 67.9837M90.7631 67.2569C89.4122 67.9419 88.1344 68.6645 86.9372 69.4194M158.367 67.9837C125.365 77.3148 131.3 112.708 131.842 134.239C131.864 135.085 131.856 135.901 131.821 136.686M116.646 138.288C118.775 135.705 124.791 131.769 131.821 136.686M116.646 138.288C117.486 147.438 121.196 151.168 124.741 150.447M131.821 136.686C131.457 144.867 128.177 149.747 124.741 150.447M124.741 150.447V163.969M124.741 163.969L109.198 175.958M124.741 163.969L138.604 178.609M86.9372 69.4194C85.5391 70.3008 84.2508 71.2264 83.084 72.1875C79.2521 75.344 74.9674 80.3691 70.5475 86.1126M86.9372 69.4194C78.0464 63.1661 54.9764 48.3322 39.121 51.9688M39.121 51.9688C37.7114 61.8187 40.866 85.8367 57.6753 103.691M39.121 51.9688C47.6107 56.597 65.7816 69.9053 70.5475 86.1126M57.6753 103.691C51.4282 112.323 45.5278 120.162 40.8924 123.884C64.1597 123.884 57.8369 154.976 40.8924 153.789C55.0356 162.134 43.6908 169.626 65.5241 185.466C67.848 187.152 70.6662 188.698 73.8852 190.091M57.6753 103.691C61.9021 97.8511 66.2876 91.6482 70.5475 86.1126M73.8852 190.091C66.2356 197.868 54.0896 212.98 52.8283 226.35C51.567 239.719 52.3027 264.471 52.8283 275.176H72.8992M73.8852 190.091C76.4398 191.197 80.6964 192.511 83.709 193.418M173.058 190.928C171.304 191.601 169.494 192.227 167.638 192.807M173.058 190.928C175.61 192.613 179.117 195.36 182.738 198.909M198.895 226.35C197.058 215.481 189.688 205.719 182.738 198.909M198.895 226.35C198.27 221.063 194.164 208.173 182.738 198.909M198.895 226.35C199.514 230.013 199.852 233.988 199.982 238.061M140.456 197.977C131.688 198.776 122.705 198.882 114.048 198.367M140.456 197.977C134.475 201.712 130.097 206.799 127.277 219.024M140.456 197.977C147.345 197.35 154.101 196.294 160.463 194.775M123.412 275.176C123.412 247.469 124.689 230.241 127.277 219.024M123.412 275.176H72.8992M123.412 275.176H184.008M114.048 198.367C118.801 203.52 128.101 214.865 127.277 219.024M114.048 198.367C108.271 198.023 102.638 197.403 97.3117 196.527M83.709 193.418C86.3162 196.805 90.6895 206.599 92.1389 214.651L84.7898 215.885L85.4792 219.873M83.709 193.418C88.3035 194.802 91.9267 195.642 97.3117 196.527M88.8732 239.508C88.8732 239.508 93.4688 238.135 96.4135 237.256M88.8732 239.508L85.4792 219.873M88.8732 239.508L96.4135 237.256M96.4135 237.256C96.0792 235.144 95.8117 231.237 98.5868 230.335C101.259 230.637 102.101 233.249 102.644 236.378M96.4135 237.256C100.344 243.82 103.187 239.508 102.644 236.378M97.3117 196.527L101.283 212.968L105.21 212.631C112.952 211.79 114.859 211.677 115.869 218.521L118.262 235.683C118.262 235.683 114.751 235.962 112.433 236.123M112.433 236.123C113.101 233.793 110.79 230.101 108.419 229.6C106.691 229.883 106.003 233.899 106.84 236.378M112.433 236.123C111.042 240.365 107.214 237.486 106.84 236.378M102.644 236.378H106.84M85.4792 219.873C78.8853 228.513 78.6531 230.324 72.9528 274.759M72.8992 275.176L72.9528 274.759M72.8992 275.176C72.9171 275.036 72.935 274.897 72.9528 274.759M168.455 218.207C181.025 232.269 185.542 245.926 184.008 275.176M184.008 275.176H196.93C198.346 267.869 200.441 252.369 199.982 238.061M167.638 192.807C168.455 198.367 165.94 211.863 158.38 216.197M167.638 192.807C165.315 193.533 162.918 194.189 160.463 194.775M158.38 216.197C167.638 224.426 155.614 245.816 142.13 234.176C133.87 225.916 139.227 213.431 150.082 213.431M158.38 216.197C155.268 213.431 155.268 213.431 150.082 213.431M160.463 194.775C159.616 199.36 155.016 209.435 150.082 213.431M182.738 198.909C182.351 197.009 181.983 193.723 182.333 190.724M182.738 198.909C182.262 197.23 181.795 194.006 182.333 190.724M196.588 175.042C196.138 175.553 196.588 175.042 195.2 176.567M196.588 175.042C201.589 171.866 206.164 168.573 210.242 165.059M195.2 176.567C198.036 179.718 201.642 184.071 205.456 189.183M195.2 176.567C197.934 179.51 201.558 183.852 205.456 189.183M230.051 240.724C239.124 237.2 247.498 230.341 254.6 221.344M230.051 240.724C223.374 243.74 208.011 247.43 199.982 238.061M230.051 240.724C226.439 221.65 215.11 202.385 205.456 189.183M230.051 240.724C228.716 224.201 216.255 203.654 205.456 189.183M210.242 165.059C225.024 175.042 242.352 211.213 254.6 221.344M210.242 165.059C213.937 161.875 217.225 158.509 220.054 154.885M254.6 221.344C260.582 213.766 265.661 204.672 269.497 194.775M220.054 154.885C235.831 154.885 246.079 185.466 269.497 194.775M220.054 154.885C224.614 149.043 227.982 142.53 229.94 135.023M269.497 194.775C273.387 184.738 275.998 173.876 276.973 162.934M229.94 135.023C236.949 127.365 250.178 144.321 276.973 162.934M229.94 135.023C231.366 129.561 232.045 123.573 231.895 116.935M276.973 162.934C278.583 144.883 275.741 126.616 266.847 111.477M231.895 116.935C231.657 106.397 229.329 94.222 224.577 79.913C244.861 85.8492 258.512 97.2887 266.847 111.477M231.895 116.935C237.88 108.918 252.414 113.949 266.847 111.477M151.35 222.42C148.664 219.024 142.068 223.303 147.547 229.22C150.428 232.332 155.268 227.376 151.35 222.42ZM174.503 119.818C185.546 131.036 188.587 145.949 181.295 153.127C174.004 160.305 159.14 157.03 148.097 145.812C137.053 134.594 134.012 119.681 141.304 112.503C148.596 105.325 163.459 108.6 174.503 119.818ZM145.94 125C145.94 129.971 149.746 134 154.44 134C159.135 134 162.94 129.971 162.94 125C162.94 120.029 159.135 116 154.44 116C149.746 116 145.94 120.029 145.94 125ZM149.36 124.532C152.467 128.296 159.711 123.137 156.542 119.145C153.372 115.154 146.252 120.768 149.36 124.532ZM72.4942 119.818C61.451 131.036 58.4098 145.949 65.7016 153.127C72.9934 160.305 87.8569 157.03 98.9002 145.812C109.943 134.594 112.985 119.681 105.693 112.503C98.401 105.325 83.5375 108.6 72.4942 119.818ZM101.057 125C101.057 129.971 97.2511 134 92.5566 134C87.8622 134 84.0566 129.971 84.0566 125C84.0566 120.029 87.8622 116 92.5566 116C97.2511 116 101.057 120.029 101.057 125ZM97.6372 124.532C94.5297 128.296 87.2855 123.137 90.4551 119.146C93.6247 115.154 100.745 120.768 97.6372 124.532ZM123.452 137.271C124.889 133.55 131.427 136.5 129.947 139.69C128.467 142.88 122.015 140.991 123.452 137.271Z" stroke="black" stroke-width="3" stroke-linecap="round" stroke-linejoin="round"/>
    </g>
</svg>
