<svg width="250" height="250" viewBox="0 0 250 250" fill="none" xmlns="http://www.w3.org/2000/svg">
    <defs>
        <clipPath id="clip0_357_566">
            <rect width="250" height="250" rx="125" fill="white"/>
        </clipPath>
    </defs>
    <g clip-path="url(#clip0_357_566)">
        <circle cx="125" cy="125" r="125" fill="#817EFF"/>
        <path d="M143.109 230.696C147.484 220.516 136.643 212.595 116.589 211.652C96.5349 210.709 86.4349 213.385 89.006 225.715C89.8131 226.397 90.5331 227.139 91.1563 227.927H94.6421C92.6686 227.735 92.018 221.171 98.7015 220.668C105.385 220.166 108.709 230.223 100.782 232.516L93.8464 234.333L98.9759 237.617L93.5132 238.176C93.1759 239.397 92.6104 240.606 91.7948 241.774C94.1584 245.318 96.1602 246.132 100.444 245.937C104.728 245.742 107.268 239.273 114.241 239.652C121.214 240.03 126.487 251.407 130.15 252.034C133.813 252.66 136.56 249.014 138.005 246.805L134.314 247.439L139.633 243.545L131.761 242.652L138.788 239.677L133.813 237.292L139.633 235.668C140.358 233.888 141.536 232.171 143.109 230.696Z" fill="#67696E"/>
        <path fill-rule="evenodd" clip-rule="evenodd" d="M57.1309 186.858C48.555 192.596 23.8954 217.85 21.3807 248.801C18.8659 279.751 218.661 285.187 207.085 248.801C205.782 244.705 204.412 240.873 203 237.292C195.762 218.932 187.425 207.169 181.338 200.267C176.26 194.51 172.749 192.136 172.749 192.136C145.645 206.299 68.4804 197.433 57.1309 186.858ZM138.788 239.677C138.772 241.034 139.046 242.35 139.633 243.545C140.109 244.514 140.792 245.404 141.695 246.171L138.005 246.805C136.56 249.014 133.813 252.66 130.15 252.034C126.487 251.407 121.214 240.03 114.241 239.652C107.268 239.273 104.728 245.742 100.444 245.937C96.1602 246.132 94.1584 245.318 91.7948 241.774C92.6104 240.606 93.1759 239.397 93.5132 238.176C93.8667 236.896 93.9694 235.603 93.8464 234.333C93.7287 233.118 93.404 231.922 92.8945 230.779C92.4506 229.782 91.8663 228.825 91.1563 227.927C90.5331 227.139 89.8131 226.397 89.006 225.715C86.4349 213.385 96.5349 210.709 116.589 211.652C136.643 212.595 147.484 220.516 143.109 230.696C141.536 232.171 140.358 233.888 139.633 235.668C139.092 236.994 138.803 238.355 138.788 239.677Z" fill="#C1C4D2"/>
        <path fill-rule="evenodd" clip-rule="evenodd" d="M92.8945 230.779L98.1278 227.927H94.6421C92.6686 227.735 92.018 221.171 98.7015 220.668C105.385 220.166 108.709 230.223 100.782 232.516L92.8945 230.779ZM98.5541 226.974C98.5541 226.256 99.668 226.256 99.668 226.974C99.668 227.692 98.5541 227.692 98.5541 226.974Z" fill="#434242"/>
        <path d="M98.5541 226.974C98.5541 226.256 99.668 226.256 99.668 226.974C99.668 227.692 98.5541 227.692 98.5541 226.974Z" fill="black"/>
        <path fill-rule="evenodd" clip-rule="evenodd" d="M140.405 113.39C162.567 105.461 192.811 148.628 175.275 159.442C157.739 170.257 118.243 121.32 140.405 113.39ZM142.337 121.421C152.638 114.519 164.6 128.334 154.943 136.772C145.285 145.21 132.035 128.323 142.337 121.421Z" fill="#494C56"/>
        <path fill-rule="evenodd" clip-rule="evenodd" d="M62.8738 149.734C69.3341 147.098 77.7025 153.331 72.5417 159.804C89.7912 158.083 117.04 125.89 100.144 113.39C82.5002 100.337 54.7297 138.977 59.2966 149.028C60.418 149.32 61.6092 149.557 62.8738 149.734Z" fill="#494C56"/>
        <path fill-rule="evenodd" clip-rule="evenodd" d="M142.337 121.421C152.638 114.519 164.6 128.334 154.943 136.772C145.285 145.21 132.035 128.323 142.337 121.421ZM142.885 123.541C145.923 119.162 153.723 123.724 150.078 128.844C146.432 133.964 139.847 127.92 142.885 123.541Z" fill="black"/>
        <path d="M142.885 123.541C145.923 119.162 153.723 123.724 150.078 128.844C146.432 133.964 139.847 127.92 142.885 123.541Z" fill="white"/>
        <path d="M97.5487 63.8544C94.573 64.8184 91.7317 65.9651 89.0704 67.2886C117.536 71.0694 110.556 125.038 111.401 141.953C113.954 139.885 120.819 136.99 127.849 141.953C129.677 120.281 120.277 83.6013 159.873 69.6512C158.972 69.1253 158.055 68.6219 157.123 68.1409C155.184 67.1399 153.179 66.2359 151.124 65.4271C134.219 58.7747 113.863 58.5694 97.5487 63.8544Z" fill="#4A4C56"/>
        <path fill-rule="evenodd" clip-rule="evenodd" d="M111.401 141.953C112.058 155.101 126.427 158.816 127.849 141.953C120.819 136.99 113.954 139.885 111.401 141.953ZM118.871 141.524C122.076 139.05 128.345 143.115 125.786 146.527C122.919 150.349 115.667 143.997 118.871 141.524Z" fill="black"/>
        <path d="M118.871 141.524C122.076 139.05 128.345 143.115 125.786 146.527C122.919 150.349 115.667 143.997 118.871 141.524Z" fill="white"/>
        <path d="M120.072 158.083C115.587 158.083 112.681 161.549 111.29 166.141L128.253 164.455C126.702 160.727 123.989 158.083 120.072 158.083Z" fill="white"/>
        <path d="M111.29 166.141C108.561 175.144 111.655 188.473 120.072 188.473C129.033 188.473 131.96 173.367 128.253 164.455L111.29 166.141Z" fill="black"/>
        <path fill-rule="evenodd" clip-rule="evenodd" d="M57.1309 186.858C68.4804 197.433 145.645 206.299 172.749 192.136C191.602 176.953 198.91 166.285 209.996 154.932C183.125 160.804 187.564 121.773 211.016 129.311C203.153 125.022 197.2 119.955 193.485 114.905C190.138 110.357 187.963 105.606 185.735 100.738C181.767 92.069 177.629 83.0288 166.402 74.1046C164.348 72.472 162.163 70.9886 159.873 69.6512C120.277 83.6013 129.677 120.281 127.849 141.953C126.427 158.816 112.058 155.101 111.401 141.953C110.556 125.038 117.536 71.0694 89.0704 67.2886C85.2305 69.1982 81.7653 71.476 78.8112 74.1046C66.3025 85.2349 58.9658 93.7863 50.1295 104.874C48.4634 106.964 46.744 109.145 44.9266 111.45C43.5431 116.716 42.669 122.746 43.1227 128.453C46.8866 131.68 49.223 137.794 49.1126 143.338C51.5723 145.893 54.8966 147.883 59.2966 149.028C54.7297 138.977 82.5002 100.337 100.144 113.39C117.04 125.89 89.7912 158.083 72.5417 159.804C67.1082 166.618 56.3995 162.017 57.8669 155.438C53.7424 153.91 50.2898 152.106 47.4226 150.096C45.2004 153.982 40.6669 156.19 33.097 154.261C46.0518 163.917 44.6839 174.699 57.1309 186.858ZM120.072 188.473C111.655 188.473 108.561 175.144 111.29 166.141C112.681 161.549 115.587 158.083 120.072 158.083C123.989 158.083 126.702 160.727 128.253 164.455C131.96 173.367 129.033 188.473 120.072 188.473ZM140.405 113.39C162.567 105.461 192.811 148.628 175.275 159.442C157.739 170.257 118.243 121.32 140.405 113.39Z" fill="#E0E5ED"/>
        <path d="M181.338 200.267C187.425 207.169 195.762 218.932 203 237.292C211.277 243.367 219.568 244.764 227.3 242.652C233.368 227.557 210.1 195.428 197.708 181.251C190.309 186.101 183.941 191.342 181.338 200.267Z" fill="#C1C4D2"/>
        <path d="M197.708 181.251C210.1 195.428 233.368 227.557 227.3 242.652C233.756 240.888 239.823 236.676 245.168 230.696C234.398 184.688 218.389 172.461 211.731 172.098C207.085 175.497 202.206 178.302 197.708 181.251Z" fill="#494D56"/>
        <path d="M211.731 172.098C218.389 172.461 234.398 184.688 245.168 230.696C251.69 223.397 257.136 213.464 260.9 202.133C247.977 164.799 231.702 157.21 225.18 158.083C221.484 164.067 216.743 168.429 211.731 172.098Z" fill="#C1C4D3"/>
        <path d="M225.18 158.083C231.702 157.21 247.977 164.799 260.9 202.133C265.353 188.726 267.451 173.36 266.192 158.083C258.919 133.77 240.665 131.391 232.447 133.24C231.716 143.949 229.007 151.886 225.18 158.083Z" fill="#494D56"/>
        <path d="M227.992 92.3415C231.962 109.35 233.171 122.651 232.447 133.24C240.665 131.391 258.919 133.77 266.192 158.083C264.112 132.863 252.883 107.882 227.992 92.3415Z" fill="#C1C4D3"/>
        <path d="M50.1295 104.874C58.9658 93.7863 66.3025 85.2349 78.8112 74.1046C81.7653 71.476 85.2305 69.1982 89.0704 67.2886C87.5535 65.3288 85.926 63.6918 84.2159 62.3487C52.5552 75.1589 43.5303 93.9075 42.9754 101.68C44.2819 102.493 45.7608 103.24 47.4231 103.908C48.2764 104.251 49.178 104.573 50.1295 104.874Z" fill="#68696D"/>
        <path d="M162.556 60.7995C180.939 63.231 193.485 85.2349 200.591 108.095C210.585 96.4484 210.692 84.2882 205.64 74.7394C203.452 70.6056 200.298 66.9613 196.561 64.0598C193.216 61.4631 189.404 59.4614 185.4 58.2364C177.855 55.9283 169.627 56.3775 162.556 60.7995Z" fill="#EF8B42"/>
        <path d="M42.9754 101.68C43.5303 93.9075 52.5552 75.1589 84.2159 62.3487C77.2849 56.9053 68.996 56.2902 61.206 58.5858C57.3994 59.7075 53.7119 61.5243 50.3602 63.8124C45.032 67.4497 40.5525 72.2781 37.7919 77.3985C33.0854 86.1283 33.3755 95.7071 42.9754 101.68Z" fill="#EF8B42"/>
        <path d="M209.368 48.5381C201.603 48.5381 188.939 53.8073 185.4 58.2364C189.404 59.4614 193.216 61.4631 196.561 64.0598C195.116 62.1672 204.497 52.9234 209.368 48.5381Z" fill="#D2D2DE"/>
        <path d="M205.64 74.7394C209.599 72.7113 210.292 59.2611 209.368 48.5381C204.497 52.9234 195.116 62.1672 196.561 64.0598C200.298 66.9613 203.452 70.6056 205.64 74.7394Z" fill="#8C9098"/>
        <path d="M61.206 58.5858C61.6263 58.459 51.3896 50.1674 34.9187 52.6762C40.1 55.185 45.8811 59.2756 50.3602 63.8124C53.7119 61.5243 57.3994 59.7075 61.206 58.5858Z" fill="#D2D2DE"/>
        <path d="M34.9187 52.6762C34.0461 61.6207 35.9128 71.3939 37.7919 77.3985C40.5525 72.2781 45.032 67.4497 50.3602 63.8124C45.8811 59.2756 40.1 55.185 34.9187 52.6762Z" fill="#8C9098"/>
        <path d="M162.556 60.7995C137.916 27.7887 99.637 30.851 84.2159 62.3487C86.4985 60.2938 90.7502 57.8091 94.0746 59.3951C106.277 42.0148 139.715 42.243 151.874 60.5732C154.103 57.9044 159.603 58.5894 162.556 60.7995Z" fill="#424242"/>
        <path fill-rule="evenodd" clip-rule="evenodd" d="M185.735 100.738C181.767 92.069 177.629 83.0288 166.402 74.1046C164.348 72.472 162.163 70.9886 159.873 69.6512C158.972 69.1253 158.055 68.6219 157.123 68.1409C157.138 66.0598 158.244 61.678 162.556 60.7995C180.939 63.231 193.485 85.2349 200.591 108.095C198.619 110.393 196.262 112.671 193.485 114.905C190.138 110.357 187.963 105.606 185.735 100.738Z" fill="#68696E"/>
        <path d="M162.556 60.7995C159.603 58.5894 154.103 57.9044 151.874 60.5732C150.993 61.6288 150.623 63.209 151.124 65.4271C153.179 66.2359 155.184 67.1399 157.123 68.1409C157.138 66.0598 158.244 61.678 162.556 60.7995Z" fill="#424242"/>
        <path d="M84.2159 62.3487C85.926 63.6918 87.5535 65.3288 89.0704 67.2886C91.7317 65.9651 94.573 64.8184 97.5487 63.8544C96.6945 61.4353 95.4657 60.0588 94.0746 59.3951C90.7502 57.8091 86.4985 60.2938 84.2159 62.3487Z" fill="#424242"/>
        <path d="M57.8669 155.438C56.3995 162.017 67.1082 166.618 72.5417 159.804C77.7025 153.331 69.3341 147.098 62.8738 149.734C61.559 150.271 60.3232 151.175 59.2966 152.519C58.5365 153.514 58.077 154.496 57.8669 155.438Z" fill="#676A6E"/>
        <path d="M57.8669 155.438C58.077 154.496 58.5365 153.514 59.2966 152.519C60.3232 151.175 61.559 150.271 62.8738 149.734C61.6092 149.557 60.418 149.32 59.2966 149.028C54.8966 147.883 51.5723 145.893 49.1126 143.338C45.3054 139.383 43.5696 134.075 43.1227 128.453C42.669 122.746 43.5431 116.716 44.9266 111.45C45.6569 108.669 46.5292 106.102 47.4231 103.908C45.7608 103.24 44.2819 102.493 42.9754 101.68C39.4374 107.067 35.8266 115.215 35.1506 123.754C35.0783 124.667 35.0396 125.585 35.0381 126.504C35.0241 134.994 38.1864 143.619 47.4226 150.096C50.2898 152.106 53.7424 153.91 57.8669 155.438Z" fill="#424242"/>
        <path fill-rule="evenodd" clip-rule="evenodd" d="M82.2319 120.203C92.533 113.301 104.496 127.116 94.8378 135.554C85.18 143.992 71.9307 127.105 82.2319 120.203ZM93.6152 123.541C90.2864 119.436 83.2187 124.718 86.7925 128.844C90.3663 132.97 96.944 127.645 93.6152 123.541Z" fill="black"/>
        <path d="M93.6152 123.541C90.2864 119.436 83.2187 124.718 86.7925 128.844C90.3663 132.97 96.944 127.645 93.6152 123.541Z" fill="white"/>
        <path d="M57.1309 186.858C48.555 192.596 23.8954 217.85 21.3807 248.801C18.8659 279.751 218.661 285.187 207.085 248.801C205.782 244.705 204.412 240.873 203 237.292M57.1309 186.858C68.4804 197.433 145.645 206.299 172.749 192.136M57.1309 186.858C44.6839 174.699 46.0518 163.917 33.097 154.261C40.6669 156.19 45.2004 153.982 47.4226 150.096M172.749 192.136C191.602 176.953 198.91 166.285 209.996 154.932C183.125 160.804 187.564 121.773 211.016 129.311C203.153 125.022 197.2 119.955 193.485 114.905M172.749 192.136C172.749 192.136 176.26 194.51 181.338 200.267M154.439 226.142C149.684 226.342 145.812 228.162 143.109 230.696M150.491 248.996C146.492 248.869 143.603 247.793 141.695 246.171M138.788 239.677C138.772 241.034 139.046 242.35 139.633 243.545M138.788 239.677C138.803 238.355 139.092 236.994 139.633 235.668M138.788 239.677L133.813 237.292L139.633 235.668M138.788 239.677L131.761 242.652L139.633 243.545M139.633 243.545C140.109 244.514 140.792 245.404 141.695 246.171M139.633 243.545L134.314 247.439L138.005 246.805M141.695 246.171L138.005 246.805M143.109 230.696C147.484 220.516 136.643 212.595 116.589 211.652C96.5349 210.709 86.4349 213.385 89.006 225.715M143.109 230.696C141.536 232.171 140.358 233.888 139.633 235.668M138.005 246.805C136.56 249.014 133.813 252.66 130.15 252.034C126.487 251.407 121.214 240.03 114.241 239.652C107.268 239.273 104.728 245.742 100.444 245.937C96.1602 246.132 94.1584 245.318 91.7948 241.774M76.0394 221.268C81.309 221.268 85.831 223.03 89.006 225.715M76.0394 250.589C84.2068 248.694 89.2337 245.441 91.7948 241.774M91.7948 241.774C92.6104 240.606 93.1759 239.397 93.5132 238.176M91.1563 227.927C91.8663 228.825 92.4506 229.782 92.8945 230.779M91.1563 227.927C90.5331 227.139 89.8131 226.397 89.006 225.715M91.1563 227.927H94.6421M92.8945 230.779L98.1278 227.927H94.6421M92.8945 230.779L100.782 232.516M92.8945 230.779C93.404 231.922 93.7287 233.118 93.8464 234.333M100.782 232.516L93.8464 234.333M100.782 232.516C108.709 230.223 105.385 220.166 98.7015 220.668C92.018 221.171 92.6686 227.735 94.6421 227.927M93.8464 234.333L98.9759 237.617L93.5132 238.176M93.8464 234.333C93.9694 235.603 93.8667 236.896 93.5132 238.176M72.5417 159.804C67.1082 166.618 56.3995 162.017 57.8669 155.438M72.5417 159.804C77.7025 153.331 69.3341 147.098 62.8738 149.734M72.5417 159.804C89.7912 158.083 117.04 125.89 100.144 113.39C82.5002 100.337 54.7297 138.977 59.2966 149.028M50.1295 104.874C58.9658 93.7863 66.3025 85.2349 78.8112 74.1046C81.7653 71.476 85.2305 69.1982 89.0704 67.2886M50.1295 104.874C49.178 104.573 48.2764 104.251 47.4231 103.908M50.1295 104.874C48.4634 106.964 46.744 109.145 44.9266 111.45M89.0704 67.2886C87.5535 65.3288 85.926 63.6918 84.2159 62.3487M89.0704 67.2886C91.7317 65.9651 94.573 64.8184 97.5487 63.8544M89.0704 67.2886C117.536 71.0694 110.556 125.038 111.401 141.953M42.9754 101.68C43.5303 93.9075 52.5552 75.1589 84.2159 62.3487M42.9754 101.68C44.2819 102.493 45.7608 103.24 47.4231 103.908M42.9754 101.68C39.4374 107.067 35.8266 115.215 35.1506 123.754M42.9754 101.68C33.3755 95.7071 33.0854 86.1283 37.7919 77.3985M84.2159 62.3487C99.637 30.851 137.916 27.7887 162.556 60.7995M84.2159 62.3487C86.4985 60.2938 90.7502 57.8091 94.0746 59.3951M84.2159 62.3487C77.2849 56.9053 68.996 56.2902 61.206 58.5858M193.485 114.905C196.262 112.671 198.619 110.393 200.591 108.095M193.485 114.905C190.138 110.357 187.963 105.606 185.735 100.738C181.767 92.069 177.629 83.0288 166.402 74.1046C164.348 72.472 162.163 70.9886 159.873 69.6512M162.556 60.7995C180.939 63.231 193.485 85.2349 200.591 108.095M162.556 60.7995C159.603 58.5894 154.103 57.9044 151.874 60.5732M162.556 60.7995C169.627 56.3775 177.855 55.9283 185.4 58.2364M162.556 60.7995C158.244 61.678 157.138 66.0598 157.123 68.1409M200.591 108.095C210.585 96.4484 210.692 84.2882 205.64 74.7394M97.5487 63.8544C113.863 58.5694 134.219 58.7747 151.124 65.4271M97.5487 63.8544C96.6945 61.4353 95.4657 60.0588 94.0746 59.3951M151.124 65.4271C150.623 63.209 150.993 61.6288 151.874 60.5732M151.124 65.4271C153.179 66.2359 155.184 67.1399 157.123 68.1409M94.0746 59.3951C106.277 42.0148 139.715 42.243 151.874 60.5732M57.8669 155.438C58.077 154.496 58.5365 153.514 59.2966 152.519C60.3232 151.175 61.559 150.271 62.8738 149.734M57.8669 155.438C53.7424 153.91 50.2898 152.106 47.4226 150.096M47.4231 103.908C46.5292 106.102 45.6569 108.669 44.9266 111.45M62.8738 149.734C61.6092 149.557 60.418 149.32 59.2966 149.028M43.1227 128.453C46.8866 131.68 49.223 137.794 49.1126 143.338M43.1227 128.453C43.5696 134.075 45.3054 139.383 49.1126 143.338M43.1227 128.453C42.669 122.746 43.5431 116.716 44.9266 111.45M49.1126 143.338C51.5723 145.893 54.8966 147.883 59.2966 149.028M35.0381 126.504C33.888 126.835 32.6965 127.418 31.4752 128.292C32.7511 126.727 33.9741 125.216 35.1506 123.754M35.0381 126.504C35.0396 125.585 35.0783 124.667 35.1506 123.754M35.0381 126.504C35.0241 134.994 38.1864 143.619 47.4226 150.096M37.7919 77.3985C35.9128 71.3939 34.0461 61.6207 34.9187 52.6762M37.7919 77.3985C40.5525 72.2781 45.032 67.4497 50.3602 63.8124M34.9187 52.6762C51.3896 50.1674 61.6263 58.459 61.206 58.5858M34.9187 52.6762C40.1 55.185 45.8811 59.2756 50.3602 63.8124M61.206 58.5858C57.3994 59.7075 53.7119 61.5243 50.3602 63.8124M185.4 58.2364C188.939 53.8073 201.603 48.5381 209.368 48.5381M185.4 58.2364C189.404 59.4614 193.216 61.4631 196.561 64.0598M209.368 48.5381C210.292 59.2611 209.599 72.7113 205.64 74.7394M209.368 48.5381C204.497 52.9234 195.116 62.1672 196.561 64.0598M205.64 74.7394C203.452 70.6056 200.298 66.9613 196.561 64.0598M111.401 141.953C112.058 155.101 126.427 158.816 127.849 141.953M111.401 141.953C113.954 139.885 120.819 136.99 127.849 141.953M127.849 141.953C129.677 120.281 120.277 83.6013 159.873 69.6512M159.873 69.6512C158.972 69.1253 158.055 68.6219 157.123 68.1409M111.29 166.141C108.561 175.144 111.655 188.473 120.072 188.473C129.033 188.473 131.96 173.367 128.253 164.455M111.29 166.141C112.681 161.549 115.587 158.083 120.072 158.083C123.989 158.083 126.702 160.727 128.253 164.455M111.29 166.141L128.253 164.455M181.338 200.267C187.425 207.169 195.762 218.932 203 237.292M181.338 200.267C183.941 191.342 190.309 186.101 197.708 181.251M203 237.292C211.277 243.367 219.568 244.764 227.3 242.652M197.708 181.251C210.1 195.428 233.368 227.557 227.3 242.652M197.708 181.251C202.206 178.302 207.085 175.497 211.731 172.098M227.3 242.652C233.756 240.888 239.823 236.676 245.168 230.696M211.731 172.098C218.389 172.461 234.398 184.688 245.168 230.696M211.731 172.098C216.743 168.429 221.484 164.067 225.18 158.083M245.168 230.696C251.69 223.397 257.136 213.464 260.9 202.133M225.18 158.083C231.702 157.21 247.977 164.799 260.9 202.133M225.18 158.083C229.007 151.886 231.716 143.949 232.447 133.24M260.9 202.133C265.353 188.726 267.451 173.36 266.192 158.083M232.447 133.24C233.171 122.651 231.962 109.35 227.992 92.3415C252.883 107.882 264.112 132.863 266.192 158.083M232.447 133.24C240.665 131.391 258.919 133.77 266.192 158.083M98.5541 226.974C98.5541 226.256 99.668 226.256 99.668 226.974C99.668 227.692 98.5541 227.692 98.5541 226.974ZM118.871 141.524C122.076 139.05 128.345 143.115 125.786 146.527C122.919 150.349 115.667 143.997 118.871 141.524ZM140.405 113.39C162.567 105.461 192.811 148.628 175.275 159.442C157.739 170.257 118.243 121.32 140.405 113.39ZM142.885 123.541C145.923 119.162 153.723 123.724 150.078 128.844C146.432 133.964 139.847 127.92 142.885 123.541ZM142.337 121.421C152.638 114.519 164.6 128.334 154.943 136.772C145.285 145.21 132.035 128.323 142.337 121.421ZM93.6152 123.541C90.2864 119.436 83.2187 124.718 86.7925 128.844C90.3663 132.97 96.944 127.645 93.6152 123.541ZM82.2319 120.203C92.533 113.301 104.496 127.116 94.8378 135.554C85.18 143.992 71.9307 127.105 82.2319 120.203Z" stroke="black" stroke-width="3" stroke-linecap="round" stroke-linejoin="round"/>
        <path d="M137.687 235.254C138.144 233.71 136.67 233.008 135.666 233.166C134.663 233.324 133.335 234.517 134.494 235.956L137.687 235.254Z" fill="#FF0000"/>
        <path d="M129.692 228.651C131.117 226.704 134.307 228.576 132.905 230.652C131.504 232.729 128.267 230.598 129.692 228.651Z" fill="#FFFF00"/>
        <path d="M124.655 233.954C126.08 232.007 129.27 233.879 127.868 235.956C126.467 238.032 123.229 235.901 124.655 233.954Z" fill="#0000FF"/>
        <path d="M129.459 238.338C130.884 236.391 134.074 238.264 132.672 240.34C131.27 242.416 128.033 240.285 129.459 238.338Z" fill="#00FF00"/>
        <path d="M137.687 235.254C138.144 233.71 136.67 233.008 135.666 233.166C134.663 233.324 133.335 234.517 134.494 235.956L137.687 235.254Z" stroke="black" stroke-linejoin="round"/>
        <path d="M129.692 228.651C131.117 226.704 134.307 228.576 132.905 230.652C131.504 232.729 128.267 230.598 129.692 228.651Z" stroke="black" stroke-linejoin="round"/>
        <path d="M124.655 233.954C126.08 232.007 129.27 233.879 127.868 235.956C126.467 238.032 123.229 235.901 124.655 233.954Z" stroke="black" stroke-linejoin="round"/>
        <path d="M129.459 238.338C130.884 236.391 134.074 238.264 132.672 240.34C131.27 242.416 128.033 240.285 129.459 238.338Z" stroke="black" stroke-linejoin="round"/>
        <path fill-rule="evenodd" clip-rule="evenodd" d="M118.545 217.168C116.516 216.916 112.924 220.358 113.229 221.492C113.858 223.84 120.134 224.24 121.679 222.543C122.522 221.616 120.574 217.421 118.545 217.168ZM116.48 221.631C116.465 220.729 117.33 219.245 117.839 218.903C117.767 219.482 117.62 221.013 117.785 221.793L116.48 221.631ZM118.383 221.867L118.637 220.659C119.01 221.125 119.338 221.518 119.996 222.068L118.383 221.867ZM114.799 221.422C114.848 221.028 115.226 220.282 115.566 219.964C115.592 220.469 115.713 221 115.858 221.553L114.799 221.422Z" fill="#363636"/>
        <path d="M117.839 218.903C117.33 219.245 116.465 220.729 116.48 221.631L117.785 221.793C117.62 221.013 117.767 219.482 117.839 218.903Z" fill="#F09142"/>
        <path d="M118.637 220.659L118.383 221.867L119.996 222.068C119.338 221.518 119.01 221.125 118.637 220.659Z" fill="#F09142"/>
        <path d="M115.566 219.964C115.226 220.282 114.848 221.028 114.799 221.422L115.858 221.553C115.713 221 115.592 220.469 115.566 219.964Z" fill="#F09142"/>
        <path fill-rule="evenodd" clip-rule="evenodd" d="M118.545 217.168C116.516 216.916 112.924 220.358 113.229 221.492C113.858 223.84 120.134 224.24 121.679 222.543C122.522 221.616 120.574 217.421 118.545 217.168ZM116.48 221.631C116.465 220.729 117.33 219.245 117.839 218.903C117.767 219.482 117.62 221.013 117.785 221.793L116.48 221.631ZM118.383 221.867L118.637 220.659C119.01 221.125 119.338 221.518 119.996 222.068L118.383 221.867ZM114.799 221.422C114.848 221.028 115.226 220.282 115.566 219.964C115.592 220.469 115.713 221 115.858 221.553L114.799 221.422Z" stroke="black" stroke-width="0.25" stroke-linecap="round" stroke-linejoin="round"/>
        <path d="M117.839 218.903C117.33 219.245 116.465 220.729 116.48 221.631L117.785 221.793C117.62 221.013 117.767 219.482 117.839 218.903Z" stroke="black" stroke-width="0.25" stroke-linecap="round" stroke-linejoin="round"/>
        <path d="M118.637 220.659L118.383 221.867L119.996 222.068C119.338 221.518 119.01 221.125 118.637 220.659Z" stroke="black" stroke-width="0.25" stroke-linecap="round" stroke-linejoin="round"/>
        <path d="M115.566 219.964C115.226 220.282 114.848 221.028 114.799 221.422L115.858 221.553C115.713 221 115.592 220.469 115.566 219.964Z" stroke="black" stroke-width="0.25" stroke-linecap="round" stroke-linejoin="round"/>
    </g>
</svg>
