<svg width="250" height="250" viewBox="0 0 250 250" fill="none" xmlns="http://www.w3.org/2000/svg">\
    <defs>
        <clipPath id="clip0_312_215">
            <rect width="250" height="250" rx="125" fill="white"/>
        </clipPath>
    </defs>
    <g clip-path="url(#clip0_312_215)">
        <rect width="250" height="250" rx="125" fill="white"/>
        <circle cx="125" cy="125" r="125" fill="#7EFFE0"/>
        <path d="M186.5 106C185.833 113 184 127.7 182 130.5C185.389 130.172 191.472 129.758 196.5 129.851C199.138 129.899 201.486 130.087 203 130.5C203 127.445 202.731 122.097 201.8 119.302C201.332 118.6 200.892 117.996 200.5 117.5C201.034 117.607 201.461 118.285 201.8 119.302C205.109 124.27 209.85 134.136 209.5 145C217.167 145.167 232.8 145.1 234 143.5C235.5 141.5 212.5 93 205 94C199 94.8 201.667 93.3334 205 91.5C210.979 88.2116 216.101 75.0594 209.5 68.5419C208.925 67.9739 208.26 67.4563 207.5 67C197.5 61 186.5 76.5 185 86.5C176.812 81.8725 161.996 76.4025 143 74.1165C130.307 72.5891 115.748 72.4832 100.054 75C87.6321 76.992 74.4989 80.6268 61.0163 86.5C57.8557 90.3264 54.5965 94.4217 51.4452 98.5C44.5646 107.405 38.199 115.343 34.5 121.114C44.922 111.332 65.6422 99.1113 95.5 94.5908C99.9637 93.915 104.632 93.4113 109.5 93.1136C115.415 92.7518 123.882 92.7553 130.294 93.1136C136.075 93.4365 141.962 94.0752 148 95.0822C160.105 97.1007 172.818 100.599 186.5 106Z" fill="black"/>
        <path fill-rule="evenodd" clip-rule="evenodd" d="M148 117.5C157.013 116 165.5 129 154 133C141.033 137.51 139.5 118.5 148 117.5ZM149 119.302C152.5 118.302 157.298 125.282 151 127C145.5 128.5 145 120.445 149 119.302Z" fill="black"/>
        <path fill-rule="evenodd" clip-rule="evenodd" d="M94 115.5C102.623 118.125 101.379 133.948 86.5 129.851C74.3049 126.492 82.5 112 94 115.5ZM91.5 118C97.5 120.571 92.5 127.5 87.5 125C83.2172 122.859 88.2503 116.607 91.5 118Z" fill="black"/>
        <path d="M149 119.302C152.5 118.302 157.298 125.282 151 127C145.5 128.5 145 120.445 149 119.302Z" fill="white"/>
        <path d="M91.5 118C97.5 120.571 92.5 127.5 87.5 125C83.2172 122.859 88.2503 116.607 91.5 118Z" fill="white"/>
        <path d="M122.5 133C126.567 132.322 130.5 137.5 126 140C121.97 142.239 116.5 134 122.5 133Z" fill="white"/>
        <path fill-rule="evenodd" clip-rule="evenodd" d="M113.593 138.5C114.558 145.327 116.715 150 121.5 150C127.527 150 129.738 146.04 130.294 138.5C127 130.5 117 131.5 113.593 138.5ZM122.5 133C126.567 132.322 130.5 137.5 126 140C121.97 142.239 116.5 134 122.5 133Z" fill="black"/>
        <path fill-rule="evenodd" clip-rule="evenodd" d="M161.5 178.5C163 164.5 155.509 157.79 146 159C130.41 160.984 117.08 159.905 108.5 158.396C104.973 157.776 102.248 157.083 100.5 156.5C90 154 86 167.5 88 182C88.4801 185.481 93.9047 189.532 101 192C100.667 186.927 103 175.5 118 177C119.767 177.177 123 178.79 124.5 179.5C134 184 134.5 184 146 192.615C155.425 190.318 160.604 186.867 161.5 178.5ZM108.885 162.115C109.149 161.819 108.979 161.347 108.586 161.288L100.296 160.044C99.9296 159.989 99.6327 160.339 99.746 160.692L102.233 168.442C102.351 168.811 102.825 168.911 103.082 168.622L108.885 162.115ZM145.518 162.257C145.721 161.907 145.446 161.473 145.042 161.508L135.367 162.35C134.983 162.383 134.779 162.821 135.002 163.136L140.05 170.287C140.26 170.585 140.708 170.565 140.891 170.25L145.518 162.257Z" fill="black"/>
        <path d="M135.002 163.136C134.779 162.821 134.983 162.383 135.367 162.35L145.042 161.508C145.446 161.473 145.721 161.907 145.518 162.257L140.891 170.25C140.708 170.565 140.26 170.585 140.05 170.287L135.002 163.136Z" fill="white"/>
        <path d="M99.746 160.692C99.6327 160.339 99.9296 159.989 100.296 160.044L108.586 161.288C108.979 161.347 109.149 161.819 108.885 162.115L103.082 168.622C102.825 168.911 102.351 168.811 102.233 168.442L99.746 160.692Z" fill="white"/>
        <path d="M118 177C103 175.5 100.667 186.927 101 192C104.278 193.14 110.019 193.875 114 194.615C114.4 189.468 120.333 183.438 124.5 179.5C123 178.79 119.767 177.177 118 177Z" fill="#EC6C6D"/>
        <path d="M146 192.615C134.5 184 134 184 124.5 179.5C120.333 183.438 114.4 189.468 114 194.615C124.586 196.581 136.249 194.991 146 192.615Z" fill="#EC6C6D"/>
        <path d="M130.294 93.1136C123.882 92.7553 115.415 92.7518 109.5 93.1136C115.5 100.5 111.734 125.355 113.593 138.5C117 131.5 127 130.5 130.294 138.5C128.5 120 127 102 130.294 93.1136Z" fill="#424651"/>
        <path d="M161.5 63.2989C154.144 58.8531 145.585 55.4085 136.5 54.5C112.404 52.0904 96.3722 55.8095 84 63.8438C87.7025 65.2292 96.0967 69.4 100.054 75C115.748 72.4832 130.307 72.5891 143 74.1165C145.833 71.4436 153.5 65.538 161.5 63.2989Z" fill="#424651"/>
        <path d="M209 47.5C195.4 46.3 174.5 59.73 166.5 66.5951C172.069 70.5825 176.71 75.0049 180.042 79C179.676 74.842 199.361 56.4342 209 47.5Z" fill="#C4C4CF"/>
        <path d="M185 86.5C186.5 76.5 197.5 61 207.5 67C208.26 67.4563 208.925 67.9739 209.5 68.5419C209.5 58.5 210.333 50.1946 209 47.5C199.361 56.4342 179.676 74.842 180.042 79C182.387 81.8118 184.084 84.4119 185 86.5Z" fill="#8C9098"/>
        <path d="M75.5 70.5C77.2591 68.8712 79.0862 67.3442 81 65.9269C74 56.2846 55.1 39.1 37.5 47.5C44.3333 50.8724 60.4 61.7583 68 78.3229C70.8051 75.1688 73.3681 72.474 75.5 70.5Z" fill="#C4C4CF"/>
        <path d="M51.4452 98.5C54.5965 94.4217 57.8557 90.3264 61.0163 86.5C63.4327 83.5746 65.7914 80.8064 68 78.3229C60.4 61.7583 44.3333 50.8724 37.5 47.5C33.6301 51 31.4014 66.1 51.4452 98.5Z" fill="#8C9098"/>
        <path fill-rule="evenodd" clip-rule="evenodd" d="M34.5 121.114C61 119.614 52.5 160 32.5 150C36.2016 151.851 39.475 156.699 55 176.828C56.2515 178.45 57.5826 180.172 59 182C66.8594 192.134 84.6452 197.177 104 198.974C112.433 199.757 121.163 199.924 129.5 199.627C147.07 199.001 162.893 196.316 170.5 193C172.123 192.292 173.611 191.588 175 190.867C180.589 187.965 184.593 184.786 189.5 180C198.554 171.168 207.723 159.157 211.5 152C202.833 151.734 187.7 146.931 196.5 129.851C191.472 129.758 185.389 130.172 182 130.5C184 127.7 185.833 113 186.5 106C172.818 100.599 160.105 97.1007 148 95.0822C141.962 94.0752 136.075 93.4365 130.294 93.1136C127 102 128.5 120 130.294 138.5C129.738 146.04 127.527 150 121.5 150C116.715 150 114.558 145.327 113.593 138.5C111.734 125.355 115.5 100.5 109.5 93.1136C104.632 93.4113 99.9637 93.915 95.5 94.5908C65.6422 99.1113 44.922 111.332 34.5 121.114ZM140 112C154.5 101.5 192 133.8 178 151C160.5 172.5 124 122 140 112ZM103.5 112.5C91 96 45.9824 135.452 61.0163 150.5C78.5 168 115.583 128.45 103.5 112.5ZM146 159C155.509 157.79 163 164.5 161.5 178.5C160.604 186.867 155.425 190.318 146 192.615C136.249 194.991 124.586 196.581 114 194.615C110.019 193.875 104.278 193.14 101 192C93.9047 189.532 88.4801 185.481 88 182C86 167.5 90 154 100.5 156.5C102.248 157.083 104.973 157.776 108.5 158.396C117.08 159.905 130.41 160.984 146 159Z" fill="#E0E5ED"/>
        <path d="M180.042 79C176.71 75.0049 172.069 70.5825 166.5 66.5951C164.906 65.454 163.237 64.3485 161.5 63.2989C153.5 65.538 145.833 71.4436 143 74.1165C161.996 76.4025 176.812 81.8725 185 86.5C184.084 84.4119 182.387 81.8118 180.042 79Z" fill="#E0E5ED"/>
        <path d="M81 65.9269C79.0862 67.3442 77.2591 68.8712 75.5 70.5C73.3681 72.474 70.8051 75.1688 68 78.3229C65.7914 80.8064 63.4327 83.5746 61.0163 86.5C74.4989 80.6268 87.6321 76.992 100.054 75C96.0967 69.4 87.7025 65.2292 84 63.8438C82.9757 64.5089 81.9766 65.2036 81 65.9269Z" fill="#E0E5ED"/>
        <path fill-rule="evenodd" clip-rule="evenodd" d="M140 112C154.5 101.5 192 133.8 178 151C160.5 172.5 124 122 140 112ZM148 117.5C157.013 116 165.5 129 154 133C141.033 137.51 139.5 118.5 148 117.5Z" fill="#444651"/>
        <path fill-rule="evenodd" clip-rule="evenodd" d="M103.5 112.5C91 96 45.9824 135.452 61.0163 150.5C78.5 168 115.583 128.45 103.5 112.5ZM94 115.5C102.623 118.125 101.379 133.948 86.5 129.851C74.3049 126.492 82.5 112 94 115.5Z" fill="#444651"/>
        <path d="M159.5 218.024L165.096 212.009C165.665 211.397 166.688 211.711 166.816 212.536L168.5 223.371C173.983 230.489 170.949 241.898 163 245C175.668 240.886 184.936 235.599 191.5 229.821C191.709 229.637 191.915 229.452 192.119 229.267C196.632 225.166 199.808 220.831 201.893 216.5C208.954 201.831 203.485 187.218 195 181.967C193.266 180.894 191.405 180.212 189.5 180C184.593 184.786 180.589 187.965 175 190.867C172.2 200.76 161.333 209.252 156.25 212.262L159.5 218.024Z" fill="white"/>
        <path d="M163 245C136.848 252.472 127.583 229.272 141.5 220.606V211.645C141.5 210.723 142.64 210.292 143.25 210.983L149 217.5L152.257 208.543C152.549 207.74 153.648 207.649 154.068 208.393L156.25 212.262C161.333 209.252 172.2 200.76 175 190.867C173.611 191.588 172.123 192.292 170.5 193C162.893 196.316 147.07 199.001 129.5 199.627C131.649 203.847 131.619 209.339 125 221.5C120.839 229.145 113.727 240.03 104 253C97.9914 261.011 96.5253 265.714 98.1769 268C103.452 275.301 140.534 257.947 163 245Z" fill="white"/>
        <path d="M104 198.974C84.6452 197.177 66.8594 192.134 59 182C57.5826 180.172 56.2515 178.45 55 176.828C54.9111 178.363 54.7717 180.101 54.5883 182C53.0526 197.897 48.4305 225.064 44.5 239C40.1 254.6 79.2846 265 98.1769 268C96.5253 265.714 97.9914 261.011 104 253C113.727 240.03 120.839 229.145 125 221.5C114.142 214.7 106.285 203.983 104 198.974Z" fill="white"/>
        <path d="M44.5 239C48.4305 225.064 53.0526 197.897 54.5883 182C49.5588 184 37.5 193.4 25.5 215C13.5 236.6 33.1667 240 44.5 239Z" fill="white"/>
        <path d="M129.5 199.627C121.163 199.924 112.433 199.757 104 198.974C106.285 203.983 114.142 214.7 125 221.5C131.619 209.339 131.649 203.847 129.5 199.627Z" fill="#C4C4CF"/>
        <path d="M195 181.967C203.485 187.218 208.954 201.831 201.893 216.5C204.095 218.824 209.1 224.525 211.5 228.736C220.329 227.531 227.98 225.386 234.575 222.5L199.686 170.5C196.072 174.947 194.856 178.867 195 181.967Z" fill="#C4C4CF"/>
        <path d="M199.686 170.5L234.575 222.5C241.26 219.575 246.859 215.888 251.5 211.65C249.5 198.969 225 171.453 213 159.279C206.777 163.247 202.503 167.034 199.686 170.5Z" fill="#434551"/>
        <path d="M228.5 151C222.335 153.814 217.22 156.589 213 159.279C225 171.453 249.5 198.969 251.5 211.65C256.602 206.99 260.546 201.662 263.5 195.943C263.1 190.697 240 163.795 228.5 151Z" fill="#C4C4CF"/>
        <path d="M228.5 151C240 163.795 263.1 190.697 263.5 195.943C267.146 188.884 269.285 181.23 270.234 173.5C268.021 165.9 249.327 150.333 240.257 143.5C237.376 146.184 233.538 148.7 228.5 151Z" fill="#434551"/>
        <path d="M240.257 143.5C249.327 150.333 268.021 165.9 270.234 173.5C271.274 165.028 270.884 156.466 269.482 148.5C269.475 148.459 269.468 148.419 269.461 148.378C268.6 144.21 254.412 135.413 247.357 131.5C246.4 135.74 244.247 139.782 240.257 143.5Z" fill="#C4C4CF"/>
        <path d="M245.5 110.5C247.41 117.663 248.864 124.827 247.357 131.5C254.412 135.413 268.6 144.21 269.461 148.378C265.812 127.806 255.42 111.235 245.5 110.5Z" fill="#434551"/>
        <path d="M153 217.5C148.161 217.67 144.346 218.834 141.5 220.606C127.583 229.272 136.848 252.472 163 245C170.949 241.898 173.983 230.489 168.5 223.371C166.587 220.888 163.638 218.927 159.5 218.024C157.591 217.607 155.43 217.415 153 217.5Z" fill="#C4C4CF"/>
        <path d="M166.816 212.536C166.688 211.711 165.665 211.397 165.096 212.009L159.5 218.024C163.638 218.927 166.587 220.888 168.5 223.371L166.816 212.536Z" fill="black"/>
        <path d="M141.5 220.606C144.346 218.834 148.161 217.67 153 217.5C155.43 217.415 157.591 217.607 159.5 218.024L156.25 212.262L154.068 208.393C153.648 207.649 152.549 207.74 152.257 208.543L149 217.5L143.25 210.983C142.64 210.292 141.5 210.723 141.5 211.645V220.606Z" fill="black"/>
        <path d="M201.893 216.5C199.808 220.831 196.632 225.166 192.119 229.267C191.915 229.452 191.709 229.637 191.5 229.821C198.754 229.951 205.408 229.567 211.5 228.736C209.1 224.525 204.095 218.824 201.893 216.5Z" fill="#434551"/>
        <path d="M34.5 121.114C61 119.614 52.5 160 32.5 150C36.2016 151.851 39.475 156.699 55 176.828M34.5 121.114C38.199 115.343 44.5646 107.405 51.4452 98.5M34.5 121.114C44.922 111.332 65.6422 99.1113 95.5 94.5908M185 86.5C186.5 76.5 197.5 61 207.5 67C208.26 67.4563 208.925 67.9739 209.5 68.5419M185 86.5C184.084 84.4119 182.387 81.8118 180.042 79M185 86.5C176.812 81.8725 161.996 76.4025 143 74.1165M61.0163 86.5C57.8557 90.3264 54.5965 94.4217 51.4452 98.5M61.0163 86.5C63.4327 83.5746 65.7914 80.8064 68 78.3229M61.0163 86.5C74.4989 80.6268 87.6321 76.992 100.054 75M196.5 129.851C191.472 129.758 185.388 130.172 182 130.5C184 127.7 185.833 113 186.5 106C172.818 100.599 160.105 97.1007 148 95.0822M196.5 129.851C199.138 129.899 201.486 130.087 203 130.5C203 127.445 202.731 122.097 201.8 119.302M196.5 129.851C187.7 146.931 202.833 151.734 211.5 152C207.723 159.157 198.554 171.168 189.5 180M189.5 180C184.593 184.786 180.589 187.965 175 190.867M189.5 180C191.405 180.212 193.266 180.894 195 181.967M163 245C136.848 252.472 127.583 229.272 141.5 220.606M163 245C170.949 241.898 173.983 230.489 168.5 223.371M163 245C140.534 257.947 103.452 275.301 98.1769 268M163 245C175.668 240.886 184.936 235.599 191.5 229.821M163 245C176.071 240.755 185.522 235.261 192.119 229.267M141.5 220.606C144.346 218.834 148.161 217.67 153 217.5C155.43 217.415 157.591 217.607 159.5 218.024M141.5 220.606V211.645C141.5 210.723 142.64 210.292 143.25 210.983L149 217.5L152.257 208.543C152.549 207.74 153.648 207.649 154.068 208.393L156.25 212.262M159.5 218.024L165.096 212.009C165.665 211.397 166.688 211.711 166.816 212.536L168.5 223.371M159.5 218.024C163.638 218.927 166.587 220.888 168.5 223.371M159.5 218.024L156.25 212.262M156.25 212.262C161.333 209.252 172.2 200.76 175 190.867M175 190.867C173.611 191.588 172.123 192.292 170.5 193C162.893 196.316 147.07 199.001 129.5 199.627M129.5 199.627C121.163 199.924 112.433 199.757 104 198.974M129.5 199.627C131.649 203.847 131.619 209.339 125 221.5M104 198.974C84.6452 197.177 66.8594 192.134 59 182C57.5826 180.172 56.2515 178.45 55 176.828M104 198.974C106.285 203.983 114.142 214.7 125 221.5M125 221.5C120.839 229.145 113.727 240.03 104 253C97.9914 261.011 96.5253 265.714 98.1769 268M55 176.828C54.9111 178.363 54.7717 180.101 54.5883 182M44.5 239C40.1 254.6 79.2846 265 98.1769 268M44.5 239C48.4305 225.064 53.0526 197.897 54.5883 182M44.5 239C33.1667 240 13.5 236.6 25.5 215C37.5 193.4 49.5588 184 54.5883 182M166.5 66.5951C174.5 59.73 195.4 46.3 209 47.5M166.5 66.5951C172.069 70.5825 176.71 75.0049 180.042 79M166.5 66.5951C164.906 65.454 163.237 64.3485 161.5 63.2989M209 47.5C210.333 50.1946 209.5 58.5 209.5 68.5419M209 47.5C199.361 56.4342 179.676 74.842 180.042 79M209.5 68.5419C216.101 75.0594 210.979 88.2116 205 91.5C201.667 93.3334 199 94.8 205 94C212.5 93 235.5 141.5 234 143.5C232.8 145.1 217.167 145.167 209.5 145C209.85 134.136 205.109 124.27 201.8 119.302M81 65.9269C79.0862 67.3442 77.2591 68.8712 75.5 70.5C73.3681 72.474 70.8051 75.1688 68 78.3229M81 65.9269C74 56.2846 55.1 39.1 37.5 47.5M81 65.9269C81.9766 65.2036 82.9758 64.5089 84 63.8438M37.5 47.5C33.6301 51 31.4014 66.1 51.4452 98.5M37.5 47.5C44.3333 50.8724 60.4 61.7583 68 78.3229M195 181.967C203.485 187.218 208.954 201.831 201.893 216.5M195 181.967C194.856 178.867 196.072 174.947 199.686 170.5M228.5 151C222.335 153.814 217.22 156.589 213 159.279M228.5 151C240 163.795 263.1 190.697 263.5 195.943M228.5 151C233.538 148.7 237.376 146.184 240.257 143.5M191.5 229.821C198.754 229.951 205.408 229.567 211.5 228.736M191.5 229.821C191.709 229.637 191.915 229.452 192.119 229.267M201.893 216.5C204.095 218.824 209.1 224.525 211.5 228.736M201.893 216.5C199.808 220.831 196.632 225.166 192.119 229.267M211.5 228.736C220.329 227.531 227.98 225.386 234.575 222.5M199.686 170.5L234.575 222.5M199.686 170.5C202.503 167.034 206.777 163.247 213 159.279M234.575 222.5C241.26 219.575 246.859 215.888 251.5 211.65M213 159.279C225 171.453 249.5 198.969 251.5 211.65M251.5 211.65C256.602 206.99 260.546 201.662 263.5 195.943M263.5 195.943C267.146 188.884 269.285 181.23 270.234 173.5M240.257 143.5C249.327 150.333 268.021 165.9 270.234 173.5M240.257 143.5C244.247 139.782 246.4 135.74 247.357 131.5M270.234 173.5C271.274 165.028 270.884 156.466 269.482 148.5M247.357 131.5C248.864 124.827 247.41 117.663 245.5 110.5C255.42 111.235 265.812 127.806 269.461 148.378M247.357 131.5C254.412 135.413 268.6 144.21 269.461 148.378M269.482 148.5C269.475 148.459 269.468 148.419 269.461 148.378M269.482 148.5C269.477 148.46 269.469 148.419 269.461 148.378M143 74.1165C145.833 71.4436 153.5 65.538 161.5 63.2989M143 74.1165C130.307 72.5891 115.748 72.4832 100.054 75M161.5 63.2989C154.144 58.8531 145.585 55.4085 136.5 54.5C112.404 52.0904 96.3722 55.8095 84 63.8438M84 63.8438C87.7025 65.2292 96.0967 69.4 100.054 75M109.5 93.1136C115.415 92.7518 123.882 92.7553 130.294 93.1136M109.5 93.1136C115.5 100.5 111.734 125.355 113.593 138.5M109.5 93.1136C104.632 93.4113 99.9637 93.915 95.5 94.5908M130.294 93.1136C127 102 128.5 120 130.294 138.5M130.294 93.1136C136.075 93.4365 141.962 94.0752 148 95.0822M113.593 138.5C114.558 145.327 116.715 150 121.5 150C127.527 150 129.738 146.04 130.294 138.5M113.593 138.5C117 131.5 127 130.5 130.294 138.5M148 95.0822C146.5 96.3881 143.2 99.5 142 101.5M95.5 94.5908C96.7025 95.5606 99.2967 97.9 100.054 99.5M101 192C93.9047 189.532 88.4801 185.481 88 182C86 167.5 90 154 100.5 156.5C102.248 157.083 104.973 157.776 108.5 158.396C117.08 159.905 130.41 160.984 146 159C155.509 157.79 163 164.5 161.5 178.5C160.604 186.867 155.425 190.318 146 192.615M101 192C100.667 186.927 103 175.5 118 177C119.767 177.177 123 178.79 124.5 179.5M101 192C104.278 193.14 110.019 193.875 114 194.615M146 192.615C134.5 184 134 184 124.5 179.5M146 192.615C136.249 194.991 124.586 196.581 114 194.615M124.5 179.5C120.333 183.438 114.4 189.468 114 194.615M201.8 119.302C201.332 118.6 200.892 117.996 200.5 117.5C201.034 117.607 201.461 118.285 201.8 119.302ZM140 112C154.5 101.5 192 133.8 178 151C160.5 172.5 124 122 140 112ZM103.5 112.5C91 96 45.9824 135.452 61.0163 150.5C78.5 168 115.583 128.45 103.5 112.5ZM148 117.5C157.013 116 165.5 129 154 133C141.033 137.51 139.5 118.5 148 117.5ZM149 119.302C152.5 118.302 157.298 125.282 151 127C145.5 128.5 145 120.445 149 119.302ZM91.5 118C97.5 120.571 92.5 127.5 87.5 125C83.2172 122.859 88.2503 116.607 91.5 118ZM122.5 133C126.567 132.322 130.5 137.5 126 140C121.97 142.239 116.5 134 122.5 133ZM94 115.5C102.623 118.125 101.379 133.948 86.5 129.851C74.3049 126.492 82.5 112 94 115.5ZM140.891 170.25L145.518 162.257C145.721 161.907 145.446 161.473 145.042 161.508L135.367 162.35C134.983 162.383 134.779 162.821 135.002 163.136L140.05 170.287C140.26 170.585 140.708 170.565 140.891 170.25ZM103.082 168.622L108.885 162.115C109.149 161.819 108.979 161.347 108.586 161.288L100.296 160.044C99.9296 159.989 99.6327 160.339 99.746 160.692L102.233 168.442C102.351 168.811 102.825 168.911 103.082 168.622Z" stroke="black" stroke-width="3" stroke-linecap="round" stroke-linejoin="round"/>
    </g>
</svg>
