<svg width="250" height="250" viewBox="0 0 250 250" fill="none" xmlns="http://www.w3.org/2000/svg">
    <defs>
        <clipPath id="clip0_357_574">
            <rect width="250" height="250" rx="125" fill="white"/>
        </clipPath>
    </defs>
    <g clip-path="url(#clip0_357_574)">
        <circle cx="125" cy="125" r="125" fill="#C67EFF"/>
        <path fill-rule="evenodd" clip-rule="evenodd" d="M131.292 194.821C112.727 194.821 84.2119 229.858 88.2251 239.738C96.5323 260.191 153.532 256.765 165.551 239.738C172.113 230.442 149.857 194.821 131.292 194.821ZM117.682 237.345C116.533 229.241 122.665 214.896 126.873 211.243C126.873 216.539 127.264 230.501 129.619 237.345H117.682ZM135.138 237.345L136.025 226.175C139.913 229.953 142.502 233.129 149.052 237.345H135.138ZM102.297 237.345C102.297 233.745 104.87 226.595 107.574 223.349C108.375 227.873 110.058 232.52 111.988 237.345H102.297Z" fill="#363635"/>
        <path d="M126.873 211.243C122.665 214.896 116.533 229.241 117.682 237.345H129.619C127.264 230.501 126.873 216.539 126.873 211.243Z" fill="#F09143"/>
        <path d="M107.574 223.349C104.87 226.595 102.297 233.745 102.297 237.345H111.988C110.058 232.52 108.375 227.873 107.574 223.349Z" fill="#F09143"/>
        <path d="M136.025 226.175L135.138 237.345H149.052C142.502 233.129 139.913 229.953 136.025 226.175Z" fill="#F09143"/>
        <path fill-rule="evenodd" clip-rule="evenodd" d="M56.4283 257.418C61.9661 268.729 189.687 272.118 196.424 257.418C197.65 254.741 198.42 251.617 198.803 248.113C199.733 239.604 198.378 228.856 195.726 216.847C192.878 203.948 188.533 189.593 183.914 174.993C154.277 189.658 78.035 176.621 68.7125 172.661C68.2997 173.444 67.8956 174.221 67.5 174.993C66.8171 176.325 66.1598 177.641 65.5272 178.941C59.976 190.347 56.3314 200.499 54.0943 209.483C48.2714 232.867 51.9836 248.34 56.4283 257.418ZM88.2251 239.738C84.2119 229.858 112.727 194.821 131.292 194.821C149.857 194.821 172.113 230.442 165.551 239.738C153.532 256.765 96.5323 260.191 88.2251 239.738Z" fill="#484C56"/>
        <path d="M195.726 216.847C198.378 228.856 199.733 239.604 198.803 248.113C206.977 255.986 220.318 255.428 232.597 246.414C228.968 207.321 213.238 196.945 205.826 196.644C202.399 203.946 198.898 210.88 195.726 216.847Z" fill="#E1E5ED"/>
        <path d="M205.826 196.644C213.238 196.945 228.968 207.321 232.597 246.414C242.196 239.366 251.146 227.151 256.47 209.754C248.917 186.456 227.108 173.424 217.148 169.821C213.944 178.6 209.938 187.886 205.826 196.644Z" fill="#494C56"/>
        <path d="M217.148 169.821C227.108 173.424 248.917 186.456 256.47 209.754C259.658 199.334 261.546 187.056 261.493 172.916C255.269 159.472 233.795 148.404 223.836 144.55C223.111 151.528 220.593 160.381 217.148 169.821Z" fill="#E1E5EC"/>
        <path d="M200.617 139.658C206.097 132.322 212.512 127.534 219.208 130.273C223.385 131.983 224.596 137.236 223.836 144.55C233.795 148.404 255.269 159.472 261.493 172.916C261.455 162.887 260.441 151.921 258.222 140.017C247.172 121.509 218.436 117.015 217.754 116.289C205.661 124.811 194.303 129.292 200.617 139.658Z" fill="#494C56"/>
        <path d="M239.702 80.9756C238.361 99.3349 227.804 109.207 217.754 116.289C218.436 117.015 247.172 121.509 258.222 140.017C254.937 122.393 249.127 102.148 239.702 80.9756Z" fill="#E1E5EC"/>
        <path d="M121.986 136.877C116.208 136.565 114.52 132.292 114.52 125.662C108.744 127.487 105.019 130.646 99.8496 133.161L99.7297 133.307C90.5839 144.414 87.4489 148.221 79.0581 146.553C70.6308 144.878 69.6714 137.376 71.594 131.042C64.3831 119.534 75.9051 94.6852 113.113 89.6434C113.113 76.6152 101.223 59.2113 89.0071 61.2666C82.6902 66.065 77.8837 72.0382 73.3948 78.4747C70.115 83.1774 67.0047 88.1274 63.5987 93.0472C58.1689 100.89 51.9876 108.656 43.1696 115.222C63.6268 102.779 69.505 149.655 44.2283 138.336C58.2404 150.974 60.2185 169.052 68.7125 172.661C78.035 176.621 154.277 189.658 183.914 174.993C183.914 174.324 190.751 152.863 200.617 139.658C183.574 135.528 195.251 107.459 208.77 117.015C200.331 111.05 195.939 103.799 192.002 96.1105C188.773 89.6684 184.397 83.1888 180.122 77.582C175.273 71.2228 170.556 65.9864 167.794 63.2011C156.964 62.4258 134.967 66.4893 133.614 88.9453C178.317 91.8317 188.509 124.419 178.676 137.744C179.592 148.079 178.648 152.173 172.399 153.507C166.149 154.84 158.834 147.479 153.315 141.129C142.189 136.848 139.818 127.691 130.833 124.958C130.833 131.232 127.763 137.19 121.986 136.877Z" fill="#E0E5ED"/>
        <path d="M183.914 174.993C188.533 189.593 192.878 203.948 195.726 216.847C198.898 210.88 202.399 203.946 205.826 196.644C209.938 187.886 213.944 178.6 217.148 169.821C220.593 160.381 223.111 151.528 223.836 144.55C224.596 137.236 223.385 131.983 219.208 130.273C212.512 127.534 206.097 132.322 200.617 139.658C190.751 152.863 183.914 174.324 183.914 174.993Z" fill="#C1C3D3"/>
        <path d="M65.5272 178.941C35.7617 187.594 0.734921 235.151 22.0927 247.68C39.8772 258.114 54.0943 209.483 54.0943 209.483C56.3314 200.499 59.976 190.347 65.5272 178.941Z" fill="#C1C4D3"/>
        <path d="M22.0927 247.68C0.734921 235.151 35.7617 187.594 65.5272 178.941C66.1598 177.641 66.8171 176.325 67.5 174.993C49.1249 159.703 35.2848 173.724 0.778169 159.055C-6.06987 197.276 -20.1283 232.568 -4.14378 267.492C4.43627 282.551 51.8886 278.677 56.4283 257.418C51.9836 248.34 48.2714 232.867 54.0943 209.483C54.0943 209.483 39.8772 258.114 22.0927 247.68Z" fill="#F09143"/>
        <path d="M192.002 96.1105C203.482 88.9602 213.573 73.5275 212.237 43.1071C200.918 52.5867 178.647 72.7531 180.122 77.582C184.397 83.1888 188.773 89.6684 192.002 96.1105Z" fill="#8C8F98"/>
        <path d="M212.237 43.1071C196.063 44.2942 176.623 52.0106 167.794 63.2011C170.556 65.9864 175.273 71.2228 180.122 77.582C178.647 72.7531 200.918 52.5867 212.237 43.1071Z" fill="#D2D2DE"/>
        <path d="M89.0071 61.2666C75.5586 46.3845 51.8428 41.6851 47.0769 45.1845C56.8701 47.2588 75.2307 61.2666 73.3948 78.4747C77.8837 72.0382 82.6902 66.065 89.0071 61.2666Z" fill="#D2D2DE"/>
        <path d="M47.0769 45.1845C47.2588 55.2299 50.8177 78.8659 63.5987 93.0472C67.0047 88.1274 70.115 83.1774 73.3948 78.4747C75.2307 61.2666 56.8701 47.2588 47.0769 45.1845Z" fill="#8C9098"/>
        <path d="M167.794 63.2011C147.393 48.2527 107.494 47.2239 89.0071 61.2666C101.223 59.2113 113.113 76.6152 113.113 89.6434C117.43 89.0585 122.092 88.7402 127.111 88.7402C129.355 88.7402 131.522 88.8102 133.614 88.9453C134.967 66.4893 156.964 62.4258 167.794 63.2011Z" fill="#484C56"/>
        <path fill-rule="evenodd" clip-rule="evenodd" d="M114.52 125.662C117.403 124.751 120.796 124.172 125.134 124.172C127.319 124.172 129.187 124.458 130.833 124.958C139.818 127.691 142.189 136.848 153.315 141.129C156.878 142.5 161.339 143.371 167.201 143.371C172.21 143.371 176.12 141.209 178.676 137.744C188.509 124.419 178.317 91.8317 133.614 88.9453C131.522 88.8102 129.355 88.7402 127.111 88.7402C122.092 88.7402 117.43 89.0585 113.113 89.6434C75.9051 94.6852 64.3831 119.534 71.594 131.042C73.9938 134.872 78.4684 137.225 84.7614 136.877C91.4875 136.506 96.057 135.007 99.8496 133.161C105.019 130.646 108.744 127.487 114.52 125.662ZM98.4486 100C115.436 97.8629 117.195 126.967 97.5346 126.967C82.2172 126.967 81.4609 102.137 98.4486 100ZM152.815 103.001C169.803 100.864 171.561 129.968 151.901 129.968C136.583 129.968 135.827 105.138 152.815 103.001Z" fill="#3B3A3B"/>
        <path d="M84.7614 136.877C78.4684 137.225 73.9938 134.872 71.594 131.042C69.6714 137.376 70.6308 144.878 79.0581 146.553C87.4489 148.221 90.5839 144.414 99.7297 133.307L99.8496 133.161C96.057 135.007 91.4875 136.506 84.7614 136.877Z" fill="#484C56"/>
        <path d="M167.201 143.371C161.339 143.371 156.878 142.5 153.315 141.129C158.834 147.479 166.149 154.84 172.399 153.507C178.648 152.173 179.592 148.079 178.676 137.744C176.12 141.209 172.21 143.371 167.201 143.371Z" fill="#484C56"/>
        <path fill-rule="evenodd" clip-rule="evenodd" d="M152.815 103.001C169.803 100.864 171.561 129.968 151.901 129.968C136.583 129.968 135.827 105.138 152.815 103.001ZM152.815 110.372C163.151 109.779 162.692 126.086 152.815 125.662C144.992 125.326 142.479 110.964 152.815 110.372Z" fill="#484C56"/>
        <path fill-rule="evenodd" clip-rule="evenodd" d="M98.4486 100C115.436 97.8629 117.195 126.967 97.5346 126.967C82.2172 126.967 81.4609 102.137 98.4486 100ZM98.4486 107.371C108.785 106.778 108.326 123.085 98.4486 122.661C90.626 122.325 88.1127 107.964 98.4486 107.371Z" fill="#484C56"/>
        <path fill-rule="evenodd" clip-rule="evenodd" d="M98.4486 107.371C108.785 106.778 108.326 123.085 98.4486 122.661C90.626 122.325 88.1127 107.964 98.4486 107.371ZM97.5346 108.312C103.038 107.131 106.921 115.183 98.4486 116.474C92.0355 117.452 92.0309 109.493 97.5346 108.312Z" fill="black"/>
        <path fill-rule="evenodd" clip-rule="evenodd" d="M152.815 110.372C163.151 109.779 162.692 126.086 152.815 125.662C144.992 125.326 142.479 110.964 152.815 110.372ZM151.901 111.313C157.405 110.132 161.287 118.183 152.815 119.475C146.402 120.453 146.397 112.493 151.901 111.313Z" fill="black"/>
        <path d="M151.901 111.313C157.405 110.132 161.287 118.183 152.815 119.475C146.402 120.453 146.397 112.493 151.901 111.313Z" fill="white"/>
        <path d="M97.5346 108.312C103.038 107.131 106.921 115.183 98.4486 116.474C92.0355 117.452 92.0309 109.493 97.5346 108.312Z" fill="white"/>
        <path d="M121.669 126.836C122.596 122.628 131.052 125.501 129.738 129.073C128.425 132.646 120.742 131.044 121.669 126.836Z" fill="white"/>
        <path fill-rule="evenodd" clip-rule="evenodd" d="M125.134 124.172C120.796 124.172 117.403 124.751 114.52 125.662C114.52 132.292 116.208 136.565 121.986 136.877C127.763 137.19 130.833 131.232 130.833 124.958C129.187 124.458 127.319 124.172 125.134 124.172ZM121.669 126.836C122.596 122.628 131.052 125.501 129.738 129.073C128.425 132.646 120.742 131.044 121.669 126.836Z" fill="black"/>
        <path d="M114.52 125.662C117.403 124.751 120.796 124.172 125.134 124.172C127.319 124.172 129.187 124.458 130.833 124.958M114.52 125.662C114.52 132.292 116.208 136.565 121.986 136.877M114.52 125.662C108.744 127.487 105.019 130.646 99.8496 133.161M130.833 124.958C130.833 131.232 127.763 137.19 121.986 136.877M130.833 124.958C139.818 127.691 142.189 136.848 153.315 141.129M121.986 136.877V146.553M121.986 146.553L105.25 153.507M121.986 146.553L138.957 153.507M89.0071 61.2666C107.494 47.2239 147.393 48.2527 167.794 63.2011M89.0071 61.2666C75.5586 46.3845 51.8428 41.6851 47.0769 45.1845M89.0071 61.2666C82.6902 66.065 77.8837 72.0382 73.3948 78.4747M89.0071 61.2666C101.223 59.2113 113.113 76.6152 113.113 89.6434M167.794 63.2011C176.623 52.0106 196.063 44.2942 212.237 43.1071M167.794 63.2011C170.556 65.9864 175.273 71.2228 180.122 77.582M167.794 63.2011C156.964 62.4258 134.967 66.4893 133.614 88.9453M56.4283 257.418C61.9661 268.729 189.687 272.118 196.424 257.418C197.65 254.741 198.42 251.617 198.803 248.113M56.4283 257.418C51.9836 248.34 48.2714 232.867 54.0943 209.483M56.4283 257.418C51.8886 278.677 4.43627 282.551 -4.14378 267.492C-20.1283 232.568 -6.06987 197.276 0.778169 159.055C35.2848 173.724 49.1249 159.703 67.5 174.993M68.7125 172.661C60.2185 169.052 58.2404 150.974 44.2283 138.336C69.505 149.655 63.6268 102.779 43.1696 115.222C51.9876 108.656 58.1689 100.89 63.5987 93.0472M68.7125 172.661C78.035 176.621 154.277 189.658 183.914 174.993M68.7125 172.661C68.2997 173.444 67.8956 174.221 67.5 174.993M183.914 174.993C188.533 189.593 192.878 203.948 195.726 216.847M183.914 174.993C183.914 174.324 190.751 152.863 200.617 139.658M195.726 216.847C198.378 228.856 199.733 239.604 198.803 248.113M195.726 216.847C198.898 210.88 202.399 203.946 205.826 196.644M200.617 139.658C206.097 132.322 212.512 127.534 219.208 130.273C223.385 131.983 224.596 137.236 223.836 144.55M200.617 139.658C183.574 135.528 195.251 107.459 208.77 117.015C200.331 111.05 195.939 103.799 192.002 96.1105M200.617 139.658C194.303 129.292 205.661 124.811 217.754 116.289M65.5272 178.941C35.7617 187.594 0.734921 235.151 22.0927 247.68C39.8772 258.114 54.0943 209.483 54.0943 209.483M65.5272 178.941C59.976 190.347 56.3314 200.499 54.0943 209.483M65.5272 178.941C66.1598 177.641 66.8171 176.325 67.5 174.993M212.237 43.1071C213.573 73.5275 203.482 88.9602 192.002 96.1105M212.237 43.1071C200.918 52.5867 178.647 72.7531 180.122 77.582M192.002 96.1105C188.773 89.6684 184.397 83.1888 180.122 77.582M47.0769 45.1845C47.2588 55.2299 50.8177 78.8659 63.5987 93.0472M47.0769 45.1845C56.8701 47.2588 75.2307 61.2666 73.3948 78.4747M63.5987 93.0472C67.0047 88.1274 70.115 83.1774 73.3948 78.4747M198.803 248.113C206.977 255.986 220.318 255.428 232.597 246.414M113.113 89.6434C117.43 89.0585 122.092 88.7402 127.111 88.7402C129.355 88.7402 131.522 88.8102 133.614 88.9453M113.113 89.6434C75.9051 94.6852 64.3831 119.534 71.594 131.042M133.614 88.9453C178.317 91.8317 188.509 124.419 178.676 137.744M205.826 196.644C213.238 196.945 228.968 207.321 232.597 246.414M205.826 196.644C209.938 187.886 213.944 178.6 217.148 169.821M232.597 246.414C242.196 239.366 251.146 227.151 256.47 209.754M217.148 169.821C227.108 173.424 248.917 186.456 256.47 209.754M217.148 169.821C220.593 160.381 223.111 151.528 223.836 144.55M256.47 209.754C259.658 199.334 261.546 187.056 261.493 172.916M223.836 144.55C233.795 148.404 255.269 159.472 261.493 172.916M261.493 172.916C261.455 162.887 260.441 151.921 258.222 140.017M217.754 116.289C227.804 109.207 238.361 99.3349 239.702 80.9756C249.127 102.148 254.937 122.393 258.222 140.017M217.754 116.289C218.436 117.015 247.172 121.509 258.222 140.017M71.594 131.042C73.9938 134.872 78.4684 137.225 84.7614 136.877C91.4875 136.506 96.057 135.007 99.8496 133.161M71.594 131.042C69.6714 137.376 70.6308 144.878 79.0581 146.553C87.4489 148.221 90.5839 144.414 99.7297 133.307L99.8496 133.161M153.315 141.129C156.878 142.5 161.339 143.371 167.201 143.371C172.21 143.371 176.12 141.209 178.676 137.744M153.315 141.129C158.834 147.479 166.149 154.84 172.399 153.507C178.648 152.173 179.592 148.079 178.676 137.744M126.873 211.243C122.665 214.896 116.533 229.241 117.682 237.345H129.619C127.264 230.501 126.873 216.539 126.873 211.243ZM136.025 226.175L135.138 237.345H149.052C142.502 233.129 139.913 229.953 136.025 226.175ZM107.574 223.349C104.87 226.595 102.297 233.745 102.297 237.345H111.988C110.058 232.52 108.375 227.873 107.574 223.349ZM131.292 194.821C112.727 194.821 84.2119 229.858 88.2251 239.738C96.5323 260.191 153.532 256.765 165.551 239.738C172.113 230.442 149.857 194.821 131.292 194.821ZM98.4486 100C115.436 97.8629 117.195 126.967 97.5346 126.967C82.2172 126.967 81.4609 102.137 98.4486 100ZM98.4486 107.371C108.785 106.778 108.326 123.085 98.4486 122.661C90.626 122.325 88.1127 107.964 98.4486 107.371ZM97.5346 108.312C103.038 107.131 106.921 115.183 98.4486 116.474C92.0355 117.452 92.0309 109.493 97.5346 108.312ZM152.815 103.001C169.803 100.864 171.561 129.968 151.901 129.968C136.583 129.968 135.827 105.138 152.815 103.001ZM152.815 110.372C163.151 109.779 162.692 126.086 152.815 125.662C144.992 125.326 142.479 110.964 152.815 110.372ZM151.901 111.313C157.405 110.132 161.287 118.183 152.815 119.475C146.402 120.453 146.397 112.493 151.901 111.313ZM121.669 126.836C122.596 122.628 131.052 125.501 129.738 129.073C128.425 132.646 120.742 131.044 121.669 126.836Z" stroke="black" stroke-width="3" stroke-linecap="round" stroke-linejoin="round"/>
    </g>
</svg>
