<svg width="250" height="250" viewBox="0 0 250 250" fill="none" xmlns="http://www.w3.org/2000/svg">
    <defs>
        <clipPath id="clip0_357_528">
            <rect width="250" height="250" rx="125" fill="white"/>
        </clipPath>
    </defs>
    <g clip-path="url(#clip0_357_528)">
        <circle cx="125" cy="125" r="125" fill="#7EE8FF"/>
        <path d="M86.8529 58.3026C79.7373 51.0287 63.7267 38.7024 41.4632 42.048C51.0526 47.2339 71.2472 61.4927 70.7727 74.006C75.7997 67.6719 81.3288 61.8554 86.8529 58.3026Z" fill="#C4C4CE"/>
        <path d="M41.4632 42.048C40.0108 48.8258 46.2485 71.9494 58.0289 92.2976C61.497 86.7745 65.8989 80.1469 70.7727 74.006C71.2472 61.4927 51.0526 47.2339 41.4632 42.048Z" fill="#8C9098"/>
        <path d="M210.66 41.2257C196.18 41.2257 175.01 51.3623 167.96 63.02C173.948 67.9005 179.052 73.3194 182.816 77.8989C178.831 70.1639 210.738 41.6737 210.66 41.2257Z" fill="#C4C4CE"/>
        <path d="M187.685 84.3901C189.789 87.5449 191.382 90.1919 192.749 92.542C210.215 84.5067 212.453 50.8797 210.66 41.2257C210.738 41.6737 178.831 70.1639 182.816 77.8989C184.858 80.3829 186.505 82.6199 187.685 84.3901Z" fill="#8C9098"/>
        <path d="M143.129 50.1036C124.816 46.2846 104.313 48.5266 88.5681 57.2738C87.9968 57.5911 87.4249 57.9347 86.8529 58.3026C104.659 57.2738 117.878 79.1084 117.878 127.5C117.878 127.5 122.676 126.322 125.806 126.327C128.899 126.333 133.64 127.5 133.64 127.5C131.965 93.1087 133.579 61.1928 167.96 63.02C160.708 57.1086 152.16 51.987 143.129 50.1036Z" fill="#434651"/>
        <path d="M107.934 101.573C94.1575 87.0821 50.2377 131.277 68.9521 145.759C85.9623 158.923 123.773 118.233 107.934 101.573Z" fill="#434652"/>
        <path fill-rule="evenodd" clip-rule="evenodd" d="M184.201 133.053C184.201 116.111 154.584 92.8897 141.525 107.07C128.273 121.459 161.302 156.622 180.749 141.7C181.846 138.807 182.998 135.926 184.201 133.053ZM154.656 109.139C167.335 111.191 163.731 127.307 152.384 126.327C141.037 125.347 141.977 107.087 154.656 109.139Z" fill="#434652"/>
        <path fill-rule="evenodd" clip-rule="evenodd" d="M154.656 109.139C167.335 111.191 163.731 127.307 152.384 126.327C141.037 125.347 141.977 107.087 154.656 109.139ZM152.384 113.243C157.075 114.27 155.096 120.279 150.639 119.41C146.181 118.541 147.694 112.217 152.384 113.243Z" fill="black"/>
        <path d="M152.384 113.243C157.075 114.27 155.096 120.279 150.639 119.41C146.181 118.541 147.694 112.217 152.384 113.243Z" fill="white"/>
        <path d="M105.14 149.035C104.852 155.586 110.851 168.837 122.231 169.303C131.481 169.682 139.469 159.331 141.525 152.916C125.514 158.642 110.597 152.714 105.14 149.035Z" fill="black"/>
        <path d="M139.569 148.081C128.532 150.212 120.573 150.212 108.872 145.759C106.482 144.725 105.26 146.293 105.14 149.035C110.597 152.714 125.514 158.642 141.525 152.916C142.554 149.705 142.098 147.48 139.569 148.081Z" fill="white"/>
        <path fill-rule="evenodd" clip-rule="evenodd" d="M117.878 127.5C117.878 131.855 116.427 141.7 126.098 141.7C133.691 141.7 133.987 134.638 133.64 127.5C133.64 127.5 128.899 126.333 125.806 126.327C122.676 126.322 117.878 127.5 117.878 127.5ZM131.876 133.053C132.512 129.953 128.177 128.663 126.46 130.228C124.16 132.325 131.206 136.314 131.876 133.053Z" fill="black"/>
        <path d="M131.876 133.053C132.512 129.953 128.177 128.663 126.46 130.228C124.16 132.325 131.206 136.314 131.876 133.053Z" fill="#DFE5ED"/>
        <path fill-rule="evenodd" clip-rule="evenodd" d="M51.7094 102.659C47.996 108.711 42.6696 114.57 39.5349 116.346C62.3165 106.628 59.8809 154.56 36.9991 140.128C46.9404 147.469 51.6292 161.121 59.4804 170.578C61.0074 172.418 62.654 174.098 64.4821 175.543C65.5208 176.364 66.6805 177.158 67.959 177.922C73.8344 181.433 82.2183 184.291 92.8976 186.012C106.445 188.196 123.686 188.551 144.187 186.092C152.201 185.13 160.714 183.739 169.699 181.858C172.023 167.874 175.832 154.663 180.749 141.7C161.302 156.622 128.273 121.459 141.525 107.07C154.584 92.8897 184.201 116.111 184.201 133.053C188.471 122.854 193.383 112.736 198.75 102.437C196.554 99.3228 194.944 96.3152 192.749 92.542C191.382 90.1919 189.789 87.5449 187.685 84.3901C186.505 82.6199 184.858 80.3829 182.816 77.8989C179.052 73.3194 173.948 67.9005 167.96 63.02C133.579 61.1928 131.965 93.1087 133.64 127.5C133.987 134.638 133.691 141.7 126.098 141.7C116.427 141.7 117.878 131.855 117.878 127.5C117.878 79.1084 104.659 57.2738 86.8529 58.3026C81.3288 61.8554 75.7997 67.6719 70.7727 74.006C65.8989 80.1469 61.497 86.7745 58.0289 92.2976C55.2369 96.744 53.05 100.475 51.7094 102.659ZM108.872 145.759C120.573 150.212 128.532 150.212 139.569 148.081C142.098 147.48 142.554 149.705 141.525 152.916C139.469 159.331 131.481 169.682 122.231 169.303C110.851 168.837 104.852 155.586 105.14 149.035C105.26 146.293 106.482 144.725 108.872 145.759ZM107.934 101.573C94.1575 87.0821 50.2377 131.277 68.9521 145.759C85.9623 158.923 123.773 118.233 107.934 101.573Z" fill="#E0E5ED"/>
        <path d="M64.4821 175.543C62.654 174.098 61.0074 172.418 59.4804 170.578C53.1925 168.68 37.7256 174.671 26.1611 213.824C14.5966 252.977 39.105 253.443 52.8048 248.782C52.7337 247.391 52.6634 245.938 52.5994 244.432C51.7438 224.305 52.0288 194.828 66.9598 178.506C67.2859 178.293 67.6189 178.098 67.959 177.922C66.6805 177.158 65.5208 176.364 64.4821 175.543Z" fill="#7684A2"/>
        <path d="M92.8976 186.012C106.445 188.196 123.686 188.551 144.187 186.092C121.656 218.12 100.606 199.384 92.8976 186.012Z" fill="#7684A2"/>
        <path d="M67.959 177.922C67.6189 178.098 67.2859 178.293 66.9598 178.506C69.7854 185.335 76.8018 192.252 86.4745 197.283C102.565 205.651 126.005 208.802 149.732 197.653C156.248 194.592 162.784 190.453 169.196 185.048C169.355 183.98 169.523 182.917 169.699 181.858C160.714 183.739 152.201 185.13 144.187 186.092C121.656 218.12 100.606 199.384 92.8976 186.012C82.2183 184.291 73.8344 181.433 67.959 177.922Z" fill="#7684A2"/>
        <path d="M86.4745 197.283C76.8018 192.252 69.7854 185.335 66.9598 178.506C52.0288 194.828 51.7438 224.305 52.5994 244.432C59.4804 209.234 68.7198 206.951 86.4745 197.283Z" fill="#B9E5FF"/>
        <path d="M169.196 185.048C162.784 190.453 156.248 194.592 149.732 197.653C155.48 202.253 166.586 211.763 167.129 214.626C167.065 204.296 167.792 194.49 169.196 185.048Z" fill="#B9E5FF"/>
        <path fill-rule="evenodd" clip-rule="evenodd" d="M52.5994 244.432C52.6634 245.938 52.7337 247.391 52.8048 248.782C63.4715 306.246 140.886 301.07 177.913 281.1C167.913 249.722 167.322 238.847 167.131 214.994C167.13 214.871 167.129 214.749 167.129 214.626C166.586 211.763 155.48 202.253 149.732 197.653C126.005 208.802 102.565 205.651 86.4745 197.283C68.7198 206.951 59.4804 209.234 52.5994 244.432ZM116.916 205.354C121.86 205.354 121.976 212.605 116.916 212.605C118.187 212.774 121.538 212.997 124.838 214.994C128.469 217.192 119.725 227.896 116.046 227.657C112.561 227.431 106.68 216.476 108.496 214.994C110.311 213.513 116.916 212.605 116.916 212.605C111.856 212.605 112.733 205.354 116.916 205.354Z" fill="#50B0F9"/>
        <path d="M116.916 212.605C116.916 212.605 110.311 213.513 108.496 214.994C106.68 216.476 112.561 227.431 116.046 227.657C119.725 227.896 128.469 217.192 124.838 214.994C121.538 212.997 118.187 212.774 116.916 212.605Z" fill="#FCF1B9"/>
        <path d="M116.916 205.354C121.86 205.354 121.976 212.605 116.916 212.605C111.856 212.605 112.733 205.354 116.916 205.354Z" fill="#FEF8D9"/>
        <path d="M213.1 82.5377C211.042 82.5377 201.889 95.15 198.75 102.437C193.383 112.736 188.471 122.854 184.201 133.053C182.998 135.926 181.846 138.807 180.749 141.7C175.832 154.663 172.023 167.874 169.699 181.858C169.523 182.917 169.355 183.98 169.196 185.048C167.792 194.49 167.065 204.296 167.129 214.626C167.155 214.765 167.156 214.888 167.131 214.994C167.322 238.847 167.913 249.722 177.913 281.1C190.803 290.704 232.507 288.177 243.628 275.539C249.694 255.572 253.738 216.648 249.694 181.858C244.75 139.32 218.528 82.5377 213.1 82.5377Z" fill="#699CCE"/>
        <path d="M198.75 102.437C201.889 95.15 211.042 82.5377 213.1 82.5377C218.528 82.5377 244.75 139.32 249.694 181.858C253.738 216.648 249.694 255.572 243.628 275.539C232.507 288.177 190.803 290.704 177.913 281.1M198.75 102.437C196.554 99.3228 194.944 96.3152 192.749 92.542M198.75 102.437C193.383 112.736 188.471 122.854 184.201 133.053M177.913 281.1C167.913 249.722 167.322 238.847 167.131 214.994M177.913 281.1C140.886 301.07 63.4715 306.246 52.8048 248.782M169.699 181.858C169.523 182.917 169.355 183.98 169.196 185.048M169.699 181.858C160.714 183.739 152.201 185.13 144.187 186.092M169.699 181.858C172.023 167.874 175.832 154.663 180.749 141.7M59.4804 170.578C51.6292 161.121 46.9404 147.469 36.9991 140.128C59.8809 154.56 62.3165 106.628 39.5349 116.346C42.6696 114.57 47.996 108.711 51.7094 102.659C53.05 100.475 55.2369 96.744 58.0289 92.2976M59.4804 170.578C61.0074 172.418 62.654 174.098 64.4821 175.543C65.5208 176.364 66.6805 177.158 67.959 177.922M59.4804 170.578C53.1925 168.68 37.7256 174.671 26.1611 213.824C14.5966 252.977 39.105 253.443 52.8048 248.782M52.8048 248.782C52.7337 247.391 52.6634 245.938 52.5994 244.432M67.959 177.922C67.6189 178.098 67.2859 178.293 66.9598 178.506M67.959 177.922C73.8344 181.433 82.2183 184.291 92.8976 186.012M66.9598 178.506C69.7854 185.335 76.8018 192.252 86.4745 197.283M66.9598 178.506C52.0288 194.828 51.7438 224.305 52.5994 244.432M169.196 185.048C162.784 190.453 156.248 194.592 149.732 197.653M169.196 185.048C167.792 194.49 167.065 204.296 167.129 214.626M92.8976 186.012C106.445 188.196 123.686 188.551 144.187 186.092M92.8976 186.012C100.606 199.384 121.656 218.12 144.187 186.092M116.916 212.605C121.976 212.605 121.86 205.354 116.916 205.354C112.733 205.354 111.856 212.605 116.916 212.605ZM116.916 212.605C116.916 212.605 110.311 213.513 108.496 214.994C106.68 216.476 112.561 227.431 116.046 227.657C119.725 227.896 128.469 217.192 124.838 214.994C121.538 212.997 118.187 212.774 116.916 212.605ZM86.4745 197.283C68.7198 206.951 59.4804 209.234 52.5994 244.432M86.4745 197.283C102.565 205.651 126.005 208.802 149.732 197.653M149.732 197.653C155.48 202.253 166.586 211.763 167.129 214.626M167.131 214.994C167.156 214.888 167.155 214.765 167.129 214.626M167.131 214.994C167.13 214.871 167.129 214.749 167.129 214.626M86.8529 58.3026C87.4249 57.9347 87.9968 57.5911 88.5681 57.2738C104.313 48.5266 124.816 46.2846 143.129 50.1036C152.16 51.987 160.708 57.1086 167.96 63.02M86.8529 58.3026C79.7373 51.0287 63.7267 38.7024 41.4632 42.048M86.8529 58.3026C81.3288 61.8554 75.7997 67.6719 70.7727 74.006M86.8529 58.3026C104.659 57.2738 117.878 79.1084 117.878 127.5M41.4632 42.048C51.0526 47.2339 71.2472 61.4927 70.7727 74.006M41.4632 42.048C40.0108 48.8258 46.2485 71.9494 58.0289 92.2976M58.2118 92.6125C58.1507 92.5076 58.0897 92.4027 58.0289 92.2976M70.7727 74.006C65.8989 80.1469 61.497 86.7745 58.0289 92.2976M167.96 63.02C175.01 51.3623 196.18 41.2257 210.66 41.2257M167.96 63.02C173.948 67.9005 179.052 73.3194 182.816 77.8989M167.96 63.02C133.579 61.1928 131.965 93.1087 133.64 127.5M210.66 41.2257C212.453 50.8797 210.215 84.5067 192.749 92.542M210.66 41.2257C210.738 41.6737 178.831 70.1639 182.816 77.8989M192.749 92.542C191.382 90.1919 189.789 87.5449 187.685 84.3901C186.505 82.6199 184.858 80.3829 182.816 77.8989M117.878 127.5C117.878 131.855 116.427 141.7 126.098 141.7C133.691 141.7 133.987 134.638 133.64 127.5M117.878 127.5C117.878 127.5 122.676 126.322 125.806 126.327C128.899 126.333 133.64 127.5 133.64 127.5M103.402 82.1329C103.402 82.4041 103.781 87.1765 103.022 86.9053C102.263 86.6342 89.1387 77.9571 77.4788 87.3392M147.167 89.8338C147.492 89.8338 158.826 76.8725 171.896 90.5389M105.14 149.035C104.852 155.586 110.851 168.837 122.231 169.303C131.481 169.682 139.469 159.331 141.525 152.916M105.14 149.035C105.26 146.293 106.482 144.725 108.872 145.759C120.573 150.212 128.532 150.212 139.569 148.081C142.098 147.48 142.554 149.705 141.525 152.916M105.14 149.035C110.597 152.714 125.514 158.642 141.525 152.916M88.5638 110.082C96.5897 109.695 99.3019 112.352 100.741 116.946C99.4126 116.946 91.276 115.949 85.9623 117.997M184.201 133.053C184.201 116.111 154.584 92.8897 141.525 107.07C128.273 121.459 161.302 156.622 180.749 141.7M184.201 133.053C182.998 135.926 181.846 138.807 180.749 141.7M210.66 119.41V191.515M131.876 133.053C132.512 129.953 128.177 128.663 126.46 130.228C124.16 132.325 131.206 136.314 131.876 133.053ZM107.934 101.573C94.1575 87.0821 50.2377 131.277 68.9521 145.759C85.9623 158.923 123.773 118.233 107.934 101.573ZM152.384 113.243C157.075 114.27 155.096 120.279 150.639 119.41C146.181 118.541 147.694 112.217 152.384 113.243ZM154.656 109.139C167.335 111.191 163.731 127.307 152.384 126.327C141.037 125.347 141.977 107.087 154.656 109.139Z" stroke="black" stroke-width="3" stroke-linecap="round" stroke-linejoin="round"/>
    </g>
</svg>
