<svg width="250" height="250" viewBox="0 0 250 250" fill="none" xmlns="http://www.w3.org/2000/svg">
    <defs>
        <clipPath id="clip0_357_751">
            <rect width="250" height="250" rx="125" fill="white"/>
        </clipPath>
    </defs>
    <g clip-path="url(#clip0_357_751)">
        <circle cx="125" cy="125" r="125" fill="#FABED4"/>
        <path fill-rule="evenodd" clip-rule="evenodd" d="M73.5316 193.596C72.9365 195.203 71.6391 198.488 71.2106 198.774C70.675 199.131 81.7446 195.203 91.5645 186.99C95.4925 198.774 77.1025 213.593 77.1025 226.448C79.7807 222.996 86.0297 215.878 89.6006 215.021C90.9694 224.127 97.2422 247.123 109.24 261.264C121.238 275.404 124.952 276.083 131.558 282.153C120.961 230.401 146.183 227.575 141.886 210.753C141.834 210.563 141.784 210.378 141.735 210.2C141.789 210.386 141.839 210.57 141.886 210.753C143.583 217.042 146.535 229.688 145.842 234.125C150.008 228.114 157.59 212.986 154.59 200.559C156.257 205.201 159.411 214.842 158.697 216.271C157.804 218.056 170.659 201.948 170.659 195.381C172.277 183.076 162.491 154.954 128.943 153.319C127.932 153.27 126.899 153.245 125.845 153.245C123.378 153.245 121.052 153.344 118.855 153.536C90.8372 155.986 83.7964 173.563 73.5316 193.596ZM127.348 183.663C121.501 183.663 118.674 178.18 118.855 173.255C119.003 169.24 121.151 165.595 125.292 165.595C129.24 165.595 131.733 168.105 132.86 171.254C134.756 176.553 132.78 183.663 127.348 183.663Z" fill="white"/>
        <path d="M71.2106 198.774C71.6391 198.488 72.9365 195.203 73.5316 193.596C67.6051 192.623 63.1795 190.198 59.6444 186.99C47.788 187.525 23.2181 198.345 19.7901 237.339C16.362 276.333 20.7423 291.557 23.361 294.294H179.229L174.944 248.23C174.226 228.994 180.216 212.506 187.93 200.559C186.426 195.224 175.79 194.884 170.659 195.381C170.659 201.948 157.804 218.056 158.697 216.271C159.411 214.842 156.257 205.201 154.59 200.559C157.59 212.986 150.008 228.114 145.842 234.125C146.535 229.688 143.583 217.042 141.886 210.753C146.183 227.575 120.961 230.401 131.558 282.153C124.952 276.083 121.238 275.404 109.24 261.264C97.2422 247.123 90.9694 224.127 89.6006 215.021C86.0297 215.878 79.7807 222.996 77.1025 226.448C77.1025 213.593 95.4925 198.774 91.5645 186.99C81.7446 195.203 70.675 199.131 71.2106 198.774Z" fill="white"/>
        <path d="M179.229 294.294H223.151L215.039 231.165L213.331 217.878C216.122 212.926 218.28 207.902 219.645 203.187C222.415 193.619 221.915 185.327 216.792 181.512C216.258 181.114 215.674 180.765 215.039 180.469C214.528 180.23 213.956 180.085 213.331 180.029C209.975 179.732 205.088 182.034 199.917 186.487C195.898 189.949 191.707 194.709 187.93 200.559C180.216 212.506 174.226 228.994 174.944 248.23L179.229 294.294Z" fill="#C1C4D3"/>
        <path d="M213.331 217.878L215.039 231.165C222.395 232.588 228.705 232.604 234.084 231.435C237.512 228.475 225.886 211.37 219.645 203.187C218.28 207.902 216.122 212.926 213.331 217.878Z" fill="#C1C4D3"/>
        <path d="M170.659 195.381C175.79 194.884 186.426 195.224 187.93 200.559C191.707 194.709 195.898 189.949 199.917 186.487L195.126 181.793C188.876 188.491 181.016 194.141 170.659 195.381Z" fill="#C1C4D3"/>
        <path d="M216.792 181.512C221.915 185.327 222.415 193.619 219.645 203.187C225.886 211.37 237.512 228.475 234.084 231.435C242.592 229.587 248.773 224.776 253.094 217.878C252.429 206.419 230.518 184.108 219.645 174.384L216.792 181.512Z" fill="#484C56"/>
        <path d="M199.917 186.487C205.088 182.034 209.975 179.732 213.331 180.029L216.034 172.294C214.932 170.531 208.83 168.525 205.918 167.743C202.878 172.207 199.373 177.242 195.126 181.793L199.917 186.487Z" fill="#494D56"/>
        <path d="M219.645 174.384C230.518 184.108 252.429 206.419 253.094 217.878C256.901 211.799 259.262 204.101 260.495 195.381C256.533 184.062 237.367 163.27 226.975 155.699L219.645 174.384Z" fill="#C1C4D3"/>
        <path d="M203.634 156.604C206.092 157.88 209.298 158.386 213.331 157.709C211.107 160.029 208.708 163.646 205.918 167.743C208.83 168.525 214.932 170.531 216.034 172.294L222.789 152.963C220.455 150.809 212.043 147.149 207.513 145.719C204.698 149.407 203.11 152.961 203.634 156.604Z" fill="#C1C4D3"/>
        <path d="M226.975 155.699C237.367 163.27 256.533 184.062 260.495 195.381C261.824 185.985 261.842 175.403 260.947 164.386C255.759 150.461 240.877 141.107 234.084 138.17L226.975 155.699Z" fill="#494C56"/>
        <path d="M207.513 145.719C212.043 147.149 220.455 150.809 222.789 152.963L229.226 134.543C226.743 132.646 223.04 131.662 221.498 131.407C216.089 136.629 210.909 141.271 207.513 145.719Z" fill="#484D56"/>
        <path d="M232.33 125.66L238.469 127.36L234.084 138.17C240.877 141.107 255.759 150.461 260.947 164.386C258.8 137.962 251.397 109.035 244.215 87.9604C244.774 103.134 237.336 114.622 228.673 124.107C226.327 126.676 223.89 129.098 221.498 131.407C223.04 131.662 226.743 132.646 229.226 134.543L232.33 125.66Z" fill="#C0C4D2"/>
        <path d="M213.331 180.029C213.956 180.085 214.528 180.23 215.039 180.469C215.674 180.765 216.258 181.114 216.792 181.512L219.645 174.384L226.975 155.699L234.084 138.17L238.469 127.36L232.33 125.66L229.226 134.543L222.789 152.963L216.034 172.294L213.331 180.029Z" fill="#472312"/>
        <path fill-rule="evenodd" clip-rule="evenodd" d="M203.634 156.604C192.775 150.969 196.489 130.317 207.783 130.346C198.265 129.424 178.463 114.731 157.355 100.043C150.903 95.5533 144.33 91.064 137.891 86.9685C129.538 97.1853 135.364 125.017 134.309 141.319C133.907 147.53 132.507 152.067 128.943 153.319C162.491 154.954 172.277 183.076 170.659 195.381C181.016 194.141 188.876 188.491 195.126 181.793C199.373 177.242 202.878 172.207 205.918 167.743C208.708 163.646 211.107 160.029 213.331 157.709C209.298 158.386 206.092 157.88 203.634 156.604ZM143.619 115.191C160.582 103.937 201.122 151.276 183.744 163.471C166.365 175.666 126.656 126.445 143.619 115.191Z" fill="#E0E5ED"/>
        <path fill-rule="evenodd" clip-rule="evenodd" d="M36.9299 124.678C62.2834 120.036 62.1049 158.244 36.9299 155.922C46.7161 162.27 49.5478 177.825 59.6444 186.99C63.1795 190.198 67.6051 192.623 73.5316 193.596C83.7964 173.563 90.8372 155.986 118.855 153.536C115.254 153.741 113.636 145.477 113.278 141.319C110.335 89.1172 100.076 71.9324 95.3139 69.8652C80.8494 71.6962 69.3544 87.6027 57.2455 102.941C50.8244 111.074 44.2307 119.048 36.9299 124.678ZM101.7 115.191C87.0205 101.653 48.0377 144.97 65.6534 157.709C83.269 170.447 116.38 128.729 101.7 115.191Z" fill="#E0E5EC"/>
        <path fill-rule="evenodd" clip-rule="evenodd" d="M118.855 153.536C121.052 153.344 123.378 153.245 125.845 153.245C126.899 153.245 127.932 153.27 128.943 153.319C132.507 152.067 133.907 147.53 134.309 141.319C128.963 133.178 118.061 137.927 113.278 141.319C113.636 145.477 115.254 153.741 118.855 153.536ZM123.031 140.951C124.686 136.476 133.77 139.25 131.711 143.993C129.614 148.826 121.375 145.425 123.031 140.951Z" fill="black"/>
        <path d="M95.3139 69.8652C100.076 71.9324 110.335 89.1172 113.278 141.319C118.061 137.927 128.963 133.178 134.309 141.319C135.364 125.017 129.538 97.1853 137.891 86.9685C121.37 76.4614 105.735 68.546 95.3139 69.8652Z" fill="#494C56"/>
        <path d="M123.031 140.951C124.686 136.476 133.77 139.25 131.711 143.993C129.614 148.826 121.375 145.425 123.031 140.951Z" fill="white"/>
        <path d="M153.805 122.694C157.247 124.821 153.64 133.515 148.786 130.223C143.932 126.931 150.363 120.567 153.805 122.694Z" fill="white"/>
        <path d="M92.5305 120.341C97.7184 122.982 92.4365 133.008 86.1383 128.679C81.975 125.818 87.3426 117.701 92.5305 120.341Z" fill="white"/>
        <path fill-rule="evenodd" clip-rule="evenodd" d="M87.0205 135.58C76.5816 131.828 85.3542 114.539 95.3139 118.616C105.274 122.694 97.4594 139.331 87.0205 135.58ZM92.5305 120.341C97.7184 122.982 92.4365 133.008 86.1383 128.679C81.975 125.818 87.3426 117.701 92.5305 120.341Z" fill="black"/>
        <path fill-rule="evenodd" clip-rule="evenodd" d="M147.697 122.694C155.243 116.17 166.807 126.483 158.299 134.543C149.002 143.351 142.166 127.476 147.697 122.694ZM153.805 122.694C157.247 124.821 153.64 133.515 148.786 130.223C143.932 126.931 150.363 120.567 153.805 122.694Z" fill="black"/>
        <path fill-rule="evenodd" clip-rule="evenodd" d="M143.619 115.191C160.582 103.937 201.122 151.276 183.744 163.471C166.365 175.666 126.656 126.445 143.619 115.191ZM147.697 122.694C155.243 116.17 166.807 126.483 158.299 134.543C149.002 143.351 142.166 127.476 147.697 122.694Z" fill="#494B56"/>
        <path fill-rule="evenodd" clip-rule="evenodd" d="M101.7 115.191C87.0205 101.653 48.0377 144.97 65.6534 157.709C83.269 170.447 116.38 128.729 101.7 115.191ZM87.0205 135.58C76.5816 131.828 85.3542 114.539 95.3139 118.616C105.274 122.694 97.4594 139.331 87.0205 135.58Z" fill="#494C55"/>
        <path d="M157.355 100.043C178.463 114.731 198.265 129.424 207.783 130.346C211.924 131.118 220.465 132.411 221.498 131.407C223.89 129.098 226.327 126.676 228.673 124.107C227.688 123.823 226.696 123.504 225.698 123.152C184.567 108.633 132.372 37.5481 76.283 69.5362C72.0368 71.9578 67.7682 74.9703 63.4805 78.6427C60.189 81.4619 56.8861 84.67 53.5734 88.2984C49.7246 92.514 45.8625 97.2968 41.9891 102.696C48.4098 103.592 54.0984 103.38 57.2455 102.941C69.3544 87.6027 80.8494 71.6962 95.3139 69.8652C105.735 68.546 121.37 76.4614 137.891 86.9685C144.33 91.064 150.903 95.5533 157.355 100.043Z" fill="#0F013A"/>
        <path d="M235.126 105.598L221.498 100.043C170.161 70.0955 120.787 16.273 61.7734 57.9365C68.5742 61.9462 73.4422 67.2617 76.283 69.5362C132.372 37.5481 184.567 108.633 225.698 123.152L235.126 105.598Z" fill="#190262"/>
        <path d="M40.5057 53.185C48.9313 52.1035 56.0394 54.5559 61.7734 57.9365C120.787 16.273 170.161 70.0955 221.498 100.043C221.72 90.7326 219.769 78.7609 216.643 65.9558C211.18 61.0589 205.16 56.7975 198.733 53.1011C151.944 26.1899 83.6 29.2275 51.8841 35.0139C46.8748 41.6179 42.7996 47.9187 40.5057 53.185Z" fill="white"/>
        <path d="M24.9159 97.3498C30.3786 100.329 36.4557 101.924 41.9891 102.696C45.8625 97.2968 49.7246 92.514 53.5734 88.2984C48.5581 85.3334 44.597 79.6027 41.6256 73.4577C36.7661 79.1096 26.6209 91.8007 24.9159 97.3498Z" fill="#190262"/>
        <path d="M36.5291 59.7309C24.9016 75.8269 23.7074 92.3469 24.9159 97.3498C26.6209 91.8007 36.7661 79.1096 41.6256 73.4577C39.3617 68.7759 37.6724 63.8535 36.5291 59.7309Z" fill="white"/>
        <path fill-rule="evenodd" clip-rule="evenodd" d="M189.332 -11.7272H97.5954C94.2413 -9.36587 89.5638 -5.57633 84.2942 -0.65045L87.6671 8.19127L97.3739 9.75329L88.727 16.113L91.07 24.3136L81.8652 17.8982L73.3857 22.6958L77.9044 13.9373L73.7149 9.75329C66.0879 17.6107 58.2353 26.6408 51.8841 35.0139C83.6 29.2275 151.944 26.1899 198.733 53.1011L191.135 40.3958C194.489 40.489 201.242 40.6753 201.429 40.6753C201.615 40.6753 203.707 31.4547 204.73 26.8444C199.253 11.384 193.513 -2.58752 189.332 -11.7272ZM160.373 6.22653L152.032 -4.31418C156.645 -2.66433 165.872 0.782025 165.872 1.36864C165.872 1.95525 175.405 -4.37528 180.171 -7.61387L177.696 6.22653L185.671 11.8177L175.405 16.2173L174.58 27.9495L165.872 14.3841C160.984 14.9035 151.134 15.9973 150.84 16.2173C150.547 16.4373 157.073 9.64844 160.373 6.22653Z" fill="#01017B"/>
        <path d="M216.643 65.9558C213.515 53.1426 209.211 39.4951 204.73 26.8444C203.707 31.4547 201.615 40.6753 201.429 40.6753C201.242 40.6753 194.489 40.489 191.135 40.3958L198.733 53.1011C205.16 56.7975 211.18 61.0589 216.643 65.9558Z" fill="#FFFF54"/>
        <path d="M152.032 -4.31418L160.373 6.22653C157.073 9.64844 150.547 16.4373 150.84 16.2173C151.134 15.9973 160.984 14.9035 165.872 14.3841L174.58 27.9495L175.405 16.2173L185.671 11.8177L177.696 6.22653L180.171 -7.61387C175.405 -4.37528 165.872 1.95525 165.872 1.36864C165.872 0.782025 156.645 -2.66433 152.032 -4.31418Z" fill="#FFFF54"/>
        <path d="M87.6671 8.19127L84.2942 -0.65045L79.9496 7.28362L73.7149 9.75329L77.9044 13.9373L73.3857 22.6958L81.8652 17.8982L91.07 24.3136L88.727 16.113L97.3739 9.75329L87.6671 8.19127Z" fill="#FFFF54"/>
        <path d="M84.2942 -0.65045C80.9444 2.48085 77.3554 6.00279 73.7149 9.75329L79.9496 7.28362L84.2942 -0.65045Z" fill="#01017B"/>
        <path d="M118.855 173.255C118.674 178.18 121.501 183.663 127.348 183.663C132.78 183.663 134.756 176.553 132.86 171.254L118.855 173.255Z" fill="black"/>
        <path d="M125.292 165.595C121.151 165.595 119.003 169.24 118.855 173.255L132.86 171.254C131.733 168.105 129.24 165.595 125.292 165.595Z" fill="white"/>
        <path d="M40.5057 53.185C38.7992 53.404 37.0387 53.768 35.2246 54.2986C43.7591 55.7133 61.3586 62.5628 63.4805 78.6427C67.7682 74.9703 72.0368 71.9578 76.283 69.5362C73.4422 67.2617 68.5742 61.9462 61.7734 57.9365C56.0394 54.5559 48.9313 52.1035 40.5057 53.185Z" fill="#D2D2DF"/>
        <path d="M35.2246 54.2986C35.5265 55.8259 35.9602 57.6794 36.5291 59.7309C37.6724 63.8535 39.3617 68.7759 41.6256 73.4577C44.597 79.6027 48.5581 85.3334 53.5734 88.2984C56.8861 84.67 60.189 81.4619 63.4805 78.6427C61.3586 62.5628 43.7591 55.7133 35.2246 54.2986Z" fill="#8B9099"/>
        <path d="M170.659 195.381C170.659 201.948 157.804 218.056 158.697 216.271C159.411 214.842 156.257 205.201 154.59 200.559C157.59 212.986 150.008 228.114 145.842 234.125C146.535 229.688 143.583 217.042 141.886 210.753M170.659 195.381C175.79 194.884 186.426 195.224 187.93 200.559M170.659 195.381C181.016 194.141 188.876 188.491 195.126 181.793M170.659 195.381C172.277 183.076 162.491 154.954 128.943 153.319M73.5316 193.596C72.9365 195.203 71.6391 198.488 71.2106 198.774C70.675 199.131 81.7446 195.203 91.5645 186.99C95.4925 198.774 77.1025 213.593 77.1025 226.448C79.7807 222.996 86.0297 215.878 89.6006 215.021C90.9694 224.127 97.2422 247.123 109.24 261.264C121.238 275.404 124.952 276.083 131.558 282.153C120.961 230.401 146.183 227.575 141.886 210.753M73.5316 193.596C67.6051 192.623 63.1795 190.198 59.6444 186.99M73.5316 193.596C83.7964 173.563 90.8372 155.986 118.855 153.536M141.886 210.753C141.839 210.57 141.789 210.386 141.735 210.2C141.784 210.378 141.834 210.563 141.886 210.753ZM59.6444 186.99C49.5478 177.825 46.7161 162.27 36.9299 155.922C62.1049 158.244 62.2834 120.036 36.9299 124.678C44.2307 119.048 50.8244 111.074 57.2455 102.941M59.6444 186.99C47.788 187.525 23.2181 198.345 19.7901 237.339C16.362 276.333 20.7423 291.557 23.361 294.294H179.229M179.229 294.294H223.151L215.039 231.165M179.229 294.294L174.944 248.23C174.226 228.994 180.216 212.506 187.93 200.559M187.93 200.559C191.707 194.709 195.898 189.949 199.917 186.487M213.331 180.029C213.956 180.085 214.528 180.23 215.039 180.469C215.674 180.765 216.258 181.114 216.792 181.512M213.331 180.029C209.975 179.732 205.088 182.034 199.917 186.487M213.331 180.029L216.034 172.294M216.792 181.512C221.915 185.327 222.415 193.619 219.645 203.187M216.792 181.512L219.645 174.384M207.783 130.346C196.489 130.317 192.775 150.969 203.634 156.604M207.783 130.346C198.265 129.424 178.463 114.731 157.355 100.043M207.783 130.346C211.924 131.118 220.465 132.411 221.498 131.407M203.634 156.604C206.092 157.88 209.298 158.386 213.331 157.709C211.107 160.029 208.708 163.646 205.918 167.743M203.634 156.604C203.11 152.961 204.698 149.407 207.513 145.719M215.039 231.165L213.331 217.878C216.122 212.926 218.28 207.902 219.645 203.187M215.039 231.165C222.395 232.588 228.705 232.604 234.084 231.435M195.126 181.793L199.917 186.487M195.126 181.793C199.373 177.242 202.878 172.207 205.918 167.743M219.645 203.187C225.886 211.37 237.512 228.475 234.084 231.435M234.084 231.435C242.592 229.587 248.773 224.776 253.094 217.878M205.918 167.743C208.83 168.525 214.932 170.531 216.034 172.294M216.034 172.294L222.789 152.963M219.645 174.384C230.518 184.108 252.429 206.419 253.094 217.878M219.645 174.384L226.975 155.699M253.094 217.878C256.901 211.799 259.262 204.101 260.495 195.381M207.513 145.719C212.043 147.149 220.455 150.809 222.789 152.963M207.513 145.719C210.909 141.271 216.089 136.629 221.498 131.407M222.789 152.963L229.226 134.543M226.975 155.699C237.367 163.27 256.533 184.062 260.495 195.381M226.975 155.699L234.084 138.17M260.495 195.381C261.824 185.985 261.842 175.403 260.947 164.386M221.498 131.407C223.04 131.662 226.743 132.646 229.226 134.543M221.498 131.407C223.89 129.098 226.327 126.676 228.673 124.107M229.226 134.543L232.33 125.66L238.469 127.36L234.084 138.17M234.084 138.17C240.877 141.107 255.759 150.461 260.947 164.386M260.947 164.386C258.8 137.962 251.397 109.035 244.215 87.9604C244.774 103.134 237.336 114.622 228.673 124.107M76.7447 102.305C78.9738 96.9229 85.3568 88.5392 93.0555 98.0647M95.3139 69.8652C80.8494 71.6962 69.3544 87.6027 57.2455 102.941M95.3139 69.8652C100.076 71.9324 110.335 89.1172 113.278 141.319M95.3139 69.8652C105.735 68.546 121.37 76.4614 137.891 86.9685M157.355 100.043C156.256 100.362 153.699 101.262 152.264 102.305M157.355 100.043C150.903 95.5533 144.33 91.064 137.891 86.9685M57.2455 102.941C54.0984 103.38 48.4098 103.592 41.9891 102.696M41.9891 102.696C36.4557 101.924 30.3786 100.329 24.9159 97.3498M41.9891 102.696C45.8625 97.2968 49.7246 92.514 53.5734 88.2984M24.9159 97.3498C23.7074 92.3469 24.9016 75.8269 36.5291 59.7309M24.9159 97.3498C26.6209 91.8007 36.7661 79.1096 41.6256 73.4577M228.673 124.107C227.688 123.823 226.696 123.504 225.698 123.152M221.498 100.043L235.126 105.598L225.698 123.152M221.498 100.043C170.161 70.0955 120.787 16.273 61.7734 57.9365M221.498 100.043C221.72 90.7326 219.769 78.7609 216.643 65.9558M225.698 123.152C184.567 108.633 132.372 37.5481 76.283 69.5362M76.283 69.5362C73.4422 67.2617 68.5742 61.9462 61.7734 57.9365M76.283 69.5362C72.0368 71.9578 67.7682 74.9703 63.4805 78.6427M53.5734 88.2984C56.8861 84.67 60.189 81.4619 63.4805 78.6427M53.5734 88.2984C48.5581 85.3334 44.597 79.6027 41.6256 73.4577M35.2246 54.2986C35.5265 55.8259 35.9602 57.6794 36.5291 59.7309M35.2246 54.2986C37.0387 53.768 38.7992 53.404 40.5057 53.185M35.2246 54.2986C43.7591 55.7133 61.3586 62.5628 63.4805 78.6427M36.5291 59.7309C37.6724 63.8535 39.3617 68.7759 41.6256 73.4577M40.5057 53.185C48.9313 52.1035 56.0394 54.5559 61.7734 57.9365M40.5057 53.185C42.7996 47.9187 46.8748 41.6179 51.8841 35.0139M51.8841 35.0139C58.2353 26.6408 66.0879 17.6107 73.7149 9.75329M51.8841 35.0139C83.6 29.2275 151.944 26.1899 198.733 53.1011M216.643 65.9558C213.515 53.1426 209.211 39.4951 204.73 26.8444M216.643 65.9558C211.18 61.0589 205.16 56.7975 198.733 53.1011M84.2942 -0.65045C89.5638 -5.57633 94.2413 -9.36587 97.5954 -11.7272H189.332C193.513 -2.58752 199.253 11.384 204.73 26.8444M84.2942 -0.65045L87.6671 8.19127L97.3739 9.75329L88.727 16.113L91.07 24.3136L81.8652 17.8982L73.3857 22.6958L77.9044 13.9373L73.7149 9.75329M84.2942 -0.65045C80.9444 2.48085 77.3554 6.00279 73.7149 9.75329M84.2942 -0.65045L79.9496 7.28362L73.7149 9.75329M204.73 26.8444C203.707 31.4547 201.615 40.6753 201.429 40.6753C201.242 40.6753 194.489 40.489 191.135 40.3958L198.733 53.1011M118.855 173.255C118.674 178.18 121.501 183.663 127.348 183.663C132.78 183.663 134.756 176.553 132.86 171.254M118.855 173.255C119.003 169.24 121.151 165.595 125.292 165.595C129.24 165.595 131.733 168.105 132.86 171.254M118.855 173.255L132.86 171.254M113.278 141.319C113.636 145.477 115.254 153.741 118.855 153.536M113.278 141.319C118.061 137.927 128.963 133.178 134.309 141.319M118.855 153.536C121.052 153.344 123.378 153.245 125.845 153.245C126.899 153.245 127.932 153.27 128.943 153.319M128.943 153.319C132.507 152.067 133.907 147.53 134.309 141.319M137.891 86.9685C129.538 97.1853 135.364 125.017 134.309 141.319M101.7 115.191C87.0205 101.653 48.0377 144.97 65.6534 157.709C83.269 170.447 116.38 128.729 101.7 115.191ZM87.0205 135.58C76.5816 131.828 85.3542 114.539 95.3139 118.616C105.274 122.694 97.4594 139.331 87.0205 135.58ZM143.619 115.191C160.582 103.937 201.122 151.276 183.744 163.471C166.365 175.666 126.656 126.445 143.619 115.191ZM147.697 122.694C155.243 116.17 166.807 126.483 158.299 134.543C149.002 143.351 142.166 127.476 147.697 122.694ZM153.805 122.694C157.247 124.821 153.64 133.515 148.786 130.223C143.932 126.931 150.363 120.567 153.805 122.694ZM92.5305 120.341C97.7184 122.982 92.4365 133.008 86.1383 128.679C81.975 125.818 87.3426 117.701 92.5305 120.341ZM152.032 -4.31418L160.373 6.22653C157.073 9.64844 150.547 16.4373 150.84 16.2173C151.134 15.9973 160.984 14.9035 165.872 14.3841L174.58 27.9495L175.405 16.2173L185.671 11.8177L177.696 6.22653L180.171 -7.61387C175.405 -4.37528 165.872 1.95525 165.872 1.36864C165.872 0.782025 156.645 -2.66433 152.032 -4.31418ZM123.031 140.951C124.686 136.476 133.77 139.25 131.711 143.993C129.614 148.826 121.375 145.425 123.031 140.951Z" stroke="black" stroke-width="3" stroke-linecap="round" stroke-linejoin="round"/>
    </g>
</svg>
